  0
SECTION
  2
HEADER
  9
$ANGBASE
  50
0.0
  9
$ANGDIR
  70
1
  9
$MEASUREMENT
  70
0
  0
ENDSEC
  0
SECTION
  2
TABLES
  0
TABLE
  2
LTYPE
  70
4
  0
LTYPE
  5
40F
  2
CONTINUOUS
  70
0
  3
Solid line
  72
65
  73
0
  40
0.0
  0
LTYPE
  5
410
  2
DASHDOT
 70
0
  3
Dash Dot ____ _ ____ _
 72
65
 73
4
 40
2.0
 49
1.25
 49
-0.25
 49
0.25
 49
-0.25
  0
LTYPE
  5
411
  2
DASHED
 70
0
  3
Dashed __ __ __ __ __
 72
65
 73
2
 40
0.75
 49
0.5
 49
-0.25
  0
LTYPE
  5
43B
  2
DOTTED
 70
0
  3
Dotted .  .  .  .
 72
65
 73
2
 40
0.2
 49
0.0
 49
-0.2
  0
ENDTAB
  0
TABLE
  2
STYLE
  70
4
  0
STYLE
  2
KICAD
  70
0
  40
0
  41
1
  42
1
  50
0
  71
0
  3
isocp.shx
  0
STYLE
  2
KICADB
  70
0
  40
0
  41
1
  42
1
  50
0
  71
0
  3
isocp.shx
  0
STYLE
  2
KICADI
  70
0
  40
0
  41
1
  42
1
  50
15
  71
0
  3
isocp.shx
  0
STYLE
  2
KICADBI
  70
0
  40
0
  41
1
  42
1
  50
15
  71
0
  3
isocp.shx
  0
ENDTAB
  0
TABLE
  2
LAYER
  70
1
  0
LAYER
  2
BLACK
  70
0
  62
7
  6
CONTINUOUS
  0
ENDTAB
  0
ENDSEC
  0
SECTION
  2
ENTITIES
0
LINE
8
BLACK
6
CONTINUOUS
10
0.827886811023622
20
1.972884527559055
11
0.8280164960629921
21
1.9729072440944881
0
LINE
8
BLACK
6
CONTINUOUS
10
0.8280164960629921
20
1.9729072440944881
11
0.8281296062992126
21
1.9728417322834646
0
LINE
8
BLACK
6
CONTINUOUS
10
0.8281296062992126
20
1.9728417322834646
11
0.8285099212598425
21
1.9727746850393699
0
LINE
8
BLACK
6
CONTINUOUS
10
0.8285099212598425
20
1.9727746850393699
11
0.8290989763779527
21
1.9722803543307086
0
LINE
8
BLACK
6
CONTINUOUS
10
0.8290989763779527
20
1.9722803543307086
11
0.8297643700787402
21
1.9718950787401575
0
LINE
8
BLACK
6
CONTINUOUS
10
0.8297643700787402
20
1.9718950787401575
11
0.8298544881889763
21
1.9716464173228345
0
LINE
8
BLACK
6
CONTINUOUS
10
0.8298544881889763
20
1.9716464173228345
11
0.8300571653543307
21
1.9714763779527558
0
LINE
8
BLACK
6
CONTINUOUS
10
0.8300571653543307
20
1.9714763779527558
11
0.8301907086614173
21
1.9707190157480314
0
LINE
8
BLACK
6
CONTINUOUS
10
0.8301907086614173
20
1.9707190157480314
11
0.8304527559055118
21
1.9699961811023621
0
LINE
8
BLACK
6
CONTINUOUS
10
0.8304527559055118
20
1.9699961811023621
11
0.8279527559055118
21
0.0299961811023622
0
LINE
8
BLACK
6
CONTINUOUS
10
0.8279527559055118
20
0.0299961811023622
11
0.8278867322834645
21
0.0296245669291339
0
LINE
8
BLACK
6
CONTINUOUS
10
0.8278867322834645
20
0.0296245669291339
11
0.8279096456692914
21
0.0294972440944882
0
LINE
8
BLACK
6
CONTINUOUS
10
0.8279096456692914
20
0.0294972440944882
11
0.827843622047244
21
0.0293820078740157
0
LINE
8
BLACK
6
CONTINUOUS
10
0.827843622047244
20
0.0293820078740157
11
0.8277733858267716
21
0.0289864960629921
0
LINE
8
BLACK
6
CONTINUOUS
10
0.8277733858267716
20
0.0289864960629921
11
0.8272837007874015
21
0.0284044488188976
0
LINE
8
BLACK
6
CONTINUOUS
10
0.8272837007874015
20
0.0284044488188976
11
0.8269057480314961
21
0.0277446062992126
0
LINE
8
BLACK
6
CONTINUOUS
10
0.8269057480314961
20
0.0277446062992126
11
0.8266490944881889
21
0.027650157480315
0
LINE
8
BLACK
6
CONTINUOUS
10
0.8266490944881889
20
0.027650157480315
11
0.8264730708661417
21
0.0274409448818898
0
LINE
8
BLACK
6
CONTINUOUS
10
0.8264730708661417
20
0.0274409448818898
11
0.8257239370078739
21
0.027309842519685
0
LINE
8
BLACK
6
CONTINUOUS
10
0.8257239370078739
20
0.027309842519685
11
0.8250101574803149
21
0.0270472440944882
0
LINE
8
BLACK
6
CONTINUOUS
10
0.8250101574803149
20
0.0270472440944882
11
0.098760157480315
21
0.0245472440944882
0
LINE
8
BLACK
6
CONTINUOUS
10
0.098760157480315
20
0.0245472440944882
11
0.0983659842519685
21
0.0246153149606299
0
LINE
8
BLACK
6
CONTINUOUS
10
0.0983659842519685
20
0.0246153149606299
11
0.0982353543307087
21
0.0245924015748031
0
LINE
8
BLACK
6
CONTINUOUS
10
0.0982353543307087
20
0.0245924015748031
11
0.0981230708661417
21
0.0246573228346457
0
LINE
8
BLACK
6
CONTINUOUS
10
0.0981230708661417
20
0.0246573228346457
11
0.0977496456692913
21
0.0247218503937008
0
LINE
8
BLACK
6
CONTINUOUS
10
0.0977496456692913
20
0.0247218503937008
11
0.097155905511811
21
0.0252165748031496
0
LINE
8
BLACK
6
CONTINUOUS
10
0.097155905511811
20
0.0252165748031496
11
0.0964868503937008
21
0.0256034645669291
0
LINE
8
BLACK
6
CONTINUOUS
10
0.0964868503937008
20
0.0256034645669291
11
0.0963979527559055
21
0.0258481102362205
0
LINE
8
BLACK
6
CONTINUOUS
10
0.0963979527559055
20
0.0258481102362205
11
0.0961979133858268
21
0.026014842519685
0
LINE
8
BLACK
6
CONTINUOUS
10
0.0961979133858268
20
0.026014842519685
11
0.096061062992126
21
0.0267755511811024
0
LINE
8
BLACK
6
CONTINUOUS
10
0.096061062992126
20
0.0267755511811024
11
0.0957972440944882
21
0.0275018897637795
0
LINE
8
BLACK
6
CONTINUOUS
10
0.0957972440944882
20
0.0275018897637795
11
0.0958627952755906
21
0.129397125984252
0
LINE
8
BLACK
6
CONTINUOUS
10
0.0958627952755906
20
0.129397125984252
11
0.0933261023622047
21
0.1329723228346457
0
LINE
8
BLACK
6
CONTINUOUS
10
0.0933261023622047
20
0.1329723228346457
11
0.086492125984252
21
0.1453374803149606
0
LINE
8
BLACK
6
CONTINUOUS
10
0.086492125984252
20
0.1453374803149606
11
0.0810855511811024
21
0.1583900393700787
0
LINE
8
BLACK
6
CONTINUOUS
10
0.0810855511811024
20
0.1583900393700787
11
0.0771744488188976
21
0.1719658661417323
0
LINE
8
BLACK
6
CONTINUOUS
10
0.0771744488188976
20
0.1719658661417323
11
0.0748079133858268
21
0.1858942519685039
0
LINE
8
BLACK
6
CONTINUOUS
10
0.0748079133858268
20
0.1858942519685039
11
0.0740157480314961
21
0.2
0
LINE
8
BLACK
6
CONTINUOUS
10
0.0740157480314961
20
0.2
11
0.0748079133858268
21
0.2141057480314961
0
LINE
8
BLACK
6
CONTINUOUS
10
0.0748079133858268
20
0.2141057480314961
11
0.0771744488188976
21
0.2280341338582677
0
LINE
8
BLACK
6
CONTINUOUS
10
0.0771744488188976
20
0.2280341338582677
11
0.0810855511811024
21
0.2416099606299213
0
LINE
8
BLACK
6
CONTINUOUS
10
0.0810855511811024
20
0.2416099606299213
11
0.086492125984252
21
0.2546625196850394
0
LINE
8
BLACK
6
CONTINUOUS
10
0.086492125984252
20
0.2546625196850394
11
0.0933261023622047
21
0.2670276771653543
0
LINE
8
BLACK
6
CONTINUOUS
10
0.0933261023622047
20
0.2670276771653543
11
0.0959537401574803
21
0.2707309842519685
0
LINE
8
BLACK
6
CONTINUOUS
10
0.0959537401574803
20
0.2707309842519685
11
0.0968914566929134
21
1.7279473622047243
0
LINE
8
BLACK
6
CONTINUOUS
10
0.0968914566929134
20
1.7279473622047243
11
0.0933261023622047
21
1.7329723228346456
0
LINE
8
BLACK
6
CONTINUOUS
10
0.0933261023622047
20
1.7329723228346456
11
0.086492125984252
21
1.7453374803149606
0
LINE
8
BLACK
6
CONTINUOUS
10
0.086492125984252
20
1.7453374803149606
11
0.0810855511811024
21
1.7583900393700787
0
LINE
8
BLACK
6
CONTINUOUS
10
0.0810855511811024
20
1.7583900393700787
11
0.0771744488188976
21
1.7719658661417323
0
LINE
8
BLACK
6
CONTINUOUS
10
0.0771744488188976
20
1.7719658661417323
11
0.0748079133858268
21
1.7858942519685039
0
LINE
8
BLACK
6
CONTINUOUS
10
0.0748079133858268
20
1.7858942519685039
11
0.0740157480314961
21
1.8
0
LINE
8
BLACK
6
CONTINUOUS
10
0.0740157480314961
20
1.8
11
0.0748079133858268
21
1.8141057480314959
0
LINE
8
BLACK
6
CONTINUOUS
10
0.0748079133858268
20
1.8141057480314959
11
0.0771744488188976
21
1.8280341338582677
0
LINE
8
BLACK
6
CONTINUOUS
10
0.0771744488188976
20
1.8280341338582677
11
0.0810855511811024
21
1.8416099606299212
0
LINE
8
BLACK
6
CONTINUOUS
10
0.0810855511811024
20
1.8416099606299212
11
0.086492125984252
21
1.8546625196850393
0
LINE
8
BLACK
6
CONTINUOUS
10
0.086492125984252
20
1.8546625196850393
11
0.0933261023622047
21
1.8670276771653542
0
LINE
8
BLACK
6
CONTINUOUS
10
0.0933261023622047
20
1.8670276771653542
11
0.0969842913385827
21
1.8721834251968503
0
LINE
8
BLACK
6
CONTINUOUS
10
0.0969842913385827
20
1.8721834251968503
11
0.0970472440944882
21
1.9700018897637794
0
LINE
8
BLACK
6
CONTINUOUS
10
0.0970472440944882
20
1.9700018897637794
11
0.0971148031496063
21
1.9703837401574802
0
LINE
8
BLACK
6
CONTINUOUS
10
0.0971148031496063
20
1.9703837401574802
11
0.0970920866141732
21
1.9705127559055118
0
LINE
8
BLACK
6
CONTINUOUS
10
0.0970920866141732
20
1.9705127559055118
11
0.0971577952755906
21
1.9706265748031495
0
LINE
8
BLACK
6
CONTINUOUS
10
0.0971577952755906
20
1.9706265748031495
11
0.0972259842519685
21
1.9710116929133858
0
LINE
8
BLACK
6
CONTINUOUS
10
0.0972259842519685
20
1.9710116929133858
11
0.0977188188976378
21
1.9715982677165353
0
LINE
8
BLACK
6
CONTINUOUS
10
0.0977188188976378
20
1.9715982677165353
11
0.0981020078740157
21
1.9722619291338581
0
LINE
8
BLACK
6
CONTINUOUS
10
0.0981020078740157
20
1.9722619291338581
11
0.0983532283464567
21
1.9723533464566929
0
LINE
8
BLACK
6
CONTINUOUS
10
0.0983532283464567
20
1.9723533464566929
11
0.0985252755905512
21
1.9725581102362204
0
LINE
8
BLACK
6
CONTINUOUS
10
0.0985252755905512
20
1.9725581102362204
11
0.0992799212598425
21
1.9726906692913386
0
LINE
8
BLACK
6
CONTINUOUS
10
0.0992799212598425
20
1.9726906692913386
11
0.1
21
1.9729527559055118
0
LINE
8
BLACK
6
CONTINUOUS
10
0.1
20
1.9729527559055118
11
0.8275
21
1.9729527559055118
0
LINE
8
BLACK
6
CONTINUOUS
10
0.8275
20
1.9729527559055118
11
0.827886811023622
21
1.972884527559055
0
LINE
8
BLACK
6
CONTINUOUS
10
3.414105748031496
20
0.3251920866141732
11
3.4280341338582678
21
0.3228255511811023
0
LINE
8
BLACK
6
CONTINUOUS
10
3.4280341338582678
20
0.3228255511811023
11
3.4416099606299211
21
0.3189144488188976
0
LINE
8
BLACK
6
CONTINUOUS
10
3.4416099606299211
20
0.3189144488188976
11
3.4546625196850393
21
0.313507874015748
0
LINE
8
BLACK
6
CONTINUOUS
10
3.4546625196850393
20
0.313507874015748
11
3.4670276771653543
21
0.3066738976377953
0
LINE
8
BLACK
6
CONTINUOUS
10
3.4670276771653543
20
0.3066738976377953
11
3.4785498818897636
21
0.2984984645669291
0
LINE
8
BLACK
6
CONTINUOUS
10
3.4785498818897636
20
0.2984984645669291
11
3.4890843307086614
21
0.2890843307086614
0
LINE
8
BLACK
6
CONTINUOUS
10
3.4890843307086614
20
0.2890843307086614
11
3.498498464566929
21
0.2785498818897638
0
LINE
8
BLACK
6
CONTINUOUS
10
3.498498464566929
20
0.2785498818897638
11
3.5066738976377954
21
0.2670276771653543
0
LINE
8
BLACK
6
CONTINUOUS
10
3.5066738976377954
20
0.2670276771653543
11
3.5135078740157479
21
0.2546625196850394
0
LINE
8
BLACK
6
CONTINUOUS
10
3.5135078740157479
20
0.2546625196850394
11
3.5189144488188977
21
0.2416099606299213
0
LINE
8
BLACK
6
CONTINUOUS
10
3.5189144488188977
20
0.2416099606299213
11
3.5228255511811022
21
0.2280341338582677
0
LINE
8
BLACK
6
CONTINUOUS
10
3.5228255511811022
20
0.2280341338582677
11
3.5251920866141733
21
0.2141057480314961
0
LINE
8
BLACK
6
CONTINUOUS
10
3.5251920866141733
20
0.2141057480314961
11
3.5259842519685041
21
0.2
0
LINE
8
BLACK
6
CONTINUOUS
10
3.5259842519685041
20
0.2
11
3.5251920866141733
21
0.1858942519685039
0
LINE
8
BLACK
6
CONTINUOUS
10
3.5251920866141733
20
0.1858942519685039
11
3.5228255511811022
21
0.1719658661417323
0
LINE
8
BLACK
6
CONTINUOUS
10
3.5228255511811022
20
0.1719658661417323
11
3.5189144488188977
21
0.1583900393700787
0
LINE
8
BLACK
6
CONTINUOUS
10
3.5189144488188977
20
0.1583900393700787
11
3.5135078740157479
21
0.1453374803149606
0
LINE
8
BLACK
6
CONTINUOUS
10
3.5135078740157479
20
0.1453374803149606
11
3.5066738976377954
21
0.1329723228346457
0
LINE
8
BLACK
6
CONTINUOUS
10
3.5066738976377954
20
0.1329723228346457
11
3.498498464566929
21
0.1214501181102362
0
LINE
8
BLACK
6
CONTINUOUS
10
3.498498464566929
20
0.1214501181102362
11
3.4890843307086614
21
0.1109156692913386
0
LINE
8
BLACK
6
CONTINUOUS
10
3.4890843307086614
20
0.1109156692913386
11
3.4785498818897636
21
0.1015015354330709
0
LINE
8
BLACK
6
CONTINUOUS
10
3.4785498818897636
20
0.1015015354330709
11
3.4670276771653543
21
0.0933261023622047
0
LINE
8
BLACK
6
CONTINUOUS
10
3.4670276771653543
20
0.0933261023622047
11
3.4546625196850393
21
0.086492125984252
0
LINE
8
BLACK
6
CONTINUOUS
10
3.4546625196850393
20
0.086492125984252
11
3.4416099606299211
21
0.0810855511811024
0
LINE
8
BLACK
6
CONTINUOUS
10
3.4416099606299211
20
0.0810855511811024
11
3.4280341338582678
21
0.0771744488188976
0
LINE
8
BLACK
6
CONTINUOUS
10
3.4280341338582678
20
0.0771744488188976
11
3.414105748031496
21
0.0748079133858268
0
LINE
8
BLACK
6
CONTINUOUS
10
3.414105748031496
20
0.0748079133858268
11
3.3999999999999999
21
0.0740157480314961
0
LINE
8
BLACK
6
CONTINUOUS
10
3.3999999999999999
20
0.0740157480314961
11
3.3858942519685038
21
0.0748079133858268
0
LINE
8
BLACK
6
CONTINUOUS
10
3.3858942519685038
20
0.0748079133858268
11
3.371965866141732
21
0.0771744488188976
0
LINE
8
BLACK
6
CONTINUOUS
10
3.371965866141732
20
0.0771744488188976
11
3.3583900393700787
21
0.0810855511811024
0
LINE
8
BLACK
6
CONTINUOUS
10
3.3583900393700787
20
0.0810855511811024
11
3.3453374803149605
21
0.086492125984252
0
LINE
8
BLACK
6
CONTINUOUS
10
3.3453374803149605
20
0.086492125984252
11
3.3329723228346455
21
0.0933261023622047
0
LINE
8
BLACK
6
CONTINUOUS
10
3.3329723228346455
20
0.0933261023622047
11
3.3214501181102363
21
0.1015015354330709
0
LINE
8
BLACK
6
CONTINUOUS
10
3.3214501181102363
20
0.1015015354330709
11
3.3109156692913384
21
0.1109156692913386
0
LINE
8
BLACK
6
CONTINUOUS
10
3.3109156692913384
20
0.1109156692913386
11
3.3015015354330708
21
0.1214501181102362
0
LINE
8
BLACK
6
CONTINUOUS
10
3.3015015354330708
20
0.1214501181102362
11
3.2933261023622045
21
0.1329723228346457
0
LINE
8
BLACK
6
CONTINUOUS
10
3.2933261023622045
20
0.1329723228346457
11
3.2864921259842519
21
0.1453374803149606
0
LINE
8
BLACK
6
CONTINUOUS
10
3.2864921259842519
20
0.1453374803149606
11
3.2810855511811021
21
0.1583900393700787
0
LINE
8
BLACK
6
CONTINUOUS
10
3.2810855511811021
20
0.1583900393700787
11
3.2771744488188976
21
0.1719658661417323
0
LINE
8
BLACK
6
CONTINUOUS
10
3.2771744488188976
20
0.1719658661417323
11
3.2748079133858266
21
0.1858942519685039
0
LINE
8
BLACK
6
CONTINUOUS
10
3.2748079133858266
20
0.1858942519685039
11
3.2740157480314962
21
0.2
0
LINE
8
BLACK
6
CONTINUOUS
10
3.2740157480314962
20
0.2
11
3.2748079133858266
21
0.2141057480314961
0
LINE
8
BLACK
6
CONTINUOUS
10
3.2748079133858266
20
0.2141057480314961
11
3.2771744488188976
21
0.2280341338582677
0
LINE
8
BLACK
6
CONTINUOUS
10
3.2771744488188976
20
0.2280341338582677
11
3.2810855511811021
21
0.2416099606299213
0
LINE
8
BLACK
6
CONTINUOUS
10
3.2810855511811021
20
0.2416099606299213
11
3.2864921259842519
21
0.2546625196850394
0
LINE
8
BLACK
6
CONTINUOUS
10
3.2864921259842519
20
0.2546625196850394
11
3.2933261023622045
21
0.2670276771653543
0
LINE
8
BLACK
6
CONTINUOUS
10
3.2933261023622045
20
0.2670276771653543
11
3.3015015354330708
21
0.2785498818897638
0
LINE
8
BLACK
6
CONTINUOUS
10
3.3015015354330708
20
0.2785498818897638
11
3.3109156692913384
21
0.2890843307086614
0
LINE
8
BLACK
6
CONTINUOUS
10
3.3109156692913384
20
0.2890843307086614
11
3.3214501181102363
21
0.2984984645669291
0
LINE
8
BLACK
6
CONTINUOUS
10
3.3214501181102363
20
0.2984984645669291
11
3.3329723228346455
21
0.3066738976377953
0
LINE
8
BLACK
6
CONTINUOUS
10
3.3329723228346455
20
0.3066738976377953
11
3.3453374803149605
21
0.313507874015748
0
LINE
8
BLACK
6
CONTINUOUS
10
3.3453374803149605
20
0.313507874015748
11
3.3583900393700787
21
0.3189144488188976
0
LINE
8
BLACK
6
CONTINUOUS
10
3.3583900393700787
20
0.3189144488188976
11
3.371965866141732
21
0.3228255511811023
0
LINE
8
BLACK
6
CONTINUOUS
10
3.371965866141732
20
0.3228255511811023
11
3.3858942519685038
21
0.3251920866141732
0
LINE
8
BLACK
6
CONTINUOUS
10
3.3858942519685038
20
0.3251920866141732
11
3.3999999999999999
21
0.3259842519685039
0
LINE
8
BLACK
6
CONTINUOUS
10
3.3999999999999999
20
0.3259842519685039
11
3.414105748031496
21
0.3251920866141732
0
LINE
8
BLACK
6
CONTINUOUS
10
3.3780132677165353
20
0.9572746456692913
11
3.3805677559055116
21
0.9555677559055118
0
LINE
8
BLACK
6
CONTINUOUS
10
3.3805677559055116
20
0.9555677559055118
11
3.3822746456692911
21
0.9530132677165354
0
LINE
8
BLACK
6
CONTINUOUS
10
3.3822746456692911
20
0.9530132677165354
11
3.3828740157480315
21
0.95
0
LINE
8
BLACK
6
CONTINUOUS
10
3.3828740157480315
20
0.95
11
3.3828740157480315
21
0.89
0
LINE
8
BLACK
6
CONTINUOUS
10
3.3828740157480315
20
0.89
11
3.3822746456692911
21
0.8869867322834646
0
LINE
8
BLACK
6
CONTINUOUS
10
3.3822746456692911
20
0.8869867322834646
11
3.3805677559055116
21
0.8844322440944882
0
LINE
8
BLACK
6
CONTINUOUS
10
3.3805677559055116
20
0.8844322440944882
11
3.3780132677165353
21
0.8827253543307086
0
LINE
8
BLACK
6
CONTINUOUS
10
3.3780132677165353
20
0.8827253543307086
11
3.375
21
0.8821259842519685
0
LINE
8
BLACK
6
CONTINUOUS
10
3.375
20
0.8821259842519685
11
3.3149999999999999
21
0.8821259842519685
0
LINE
8
BLACK
6
CONTINUOUS
10
3.3149999999999999
20
0.8821259842519685
11
3.3119867322834646
21
0.8827253543307086
0
LINE
8
BLACK
6
CONTINUOUS
10
3.3119867322834646
20
0.8827253543307086
11
3.3094322440944883
21
0.8844322440944882
0
LINE
8
BLACK
6
CONTINUOUS
10
3.3094322440944883
20
0.8844322440944882
11
3.3077253543307088
21
0.8869867322834646
0
LINE
8
BLACK
6
CONTINUOUS
10
3.3077253543307088
20
0.8869867322834646
11
3.3071259842519685
21
0.89
0
LINE
8
BLACK
6
CONTINUOUS
10
3.3071259842519685
20
0.89
11
3.3071259842519685
21
0.95
0
LINE
8
BLACK
6
CONTINUOUS
10
3.3071259842519685
20
0.95
11
3.3077253543307088
21
0.9530132677165354
0
LINE
8
BLACK
6
CONTINUOUS
10
3.3077253543307088
20
0.9530132677165354
11
3.3094322440944883
21
0.9555677559055118
0
LINE
8
BLACK
6
CONTINUOUS
10
3.3094322440944883
20
0.9555677559055118
11
3.3119867322834646
21
0.9572746456692913
0
LINE
8
BLACK
6
CONTINUOUS
10
3.3119867322834646
20
0.9572746456692913
11
3.3149999999999999
21
0.9578740157480314
0
LINE
8
BLACK
6
CONTINUOUS
10
3.3149999999999999
20
0.9578740157480314
11
3.375
21
0.9578740157480314
0
LINE
8
BLACK
6
CONTINUOUS
10
3.375
20
0.9578740157480314
11
3.3780132677165353
21
0.9572746456692913
0
LINE
8
BLACK
6
CONTINUOUS
10
3.4780132677165354
20
0.9572746456692913
11
3.4805677559055117
21
0.9555677559055118
0
LINE
8
BLACK
6
CONTINUOUS
10
3.4805677559055117
20
0.9555677559055118
11
3.4822746456692912
21
0.9530132677165354
0
LINE
8
BLACK
6
CONTINUOUS
10
3.4822746456692912
20
0.9530132677165354
11
3.4828740157480316
21
0.95
0
LINE
8
BLACK
6
CONTINUOUS
10
3.4828740157480316
20
0.95
11
3.4828740157480316
21
0.89
0
LINE
8
BLACK
6
CONTINUOUS
10
3.4828740157480316
20
0.89
11
3.4822746456692912
21
0.8869867322834646
0
LINE
8
BLACK
6
CONTINUOUS
10
3.4822746456692912
20
0.8869867322834646
11
3.4805677559055117
21
0.8844322440944882
0
LINE
8
BLACK
6
CONTINUOUS
10
3.4805677559055117
20
0.8844322440944882
11
3.4780132677165354
21
0.8827253543307086
0
LINE
8
BLACK
6
CONTINUOUS
10
3.4780132677165354
20
0.8827253543307086
11
3.4750000000000001
21
0.8821259842519685
0
LINE
8
BLACK
6
CONTINUOUS
10
3.4750000000000001
20
0.8821259842519685
11
3.415
21
0.8821259842519685
0
LINE
8
BLACK
6
CONTINUOUS
10
3.415
20
0.8821259842519685
11
3.4119867322834643
21
0.8827253543307086
0
LINE
8
BLACK
6
CONTINUOUS
10
3.4119867322834643
20
0.8827253543307086
11
3.409432244094488
21
0.8844322440944882
0
LINE
8
BLACK
6
CONTINUOUS
10
3.409432244094488
20
0.8844322440944882
11
3.4077253543307084
21
0.8869867322834646
0
LINE
8
BLACK
6
CONTINUOUS
10
3.4077253543307084
20
0.8869867322834646
11
3.4071259842519686
21
0.89
0
LINE
8
BLACK
6
CONTINUOUS
10
3.4071259842519686
20
0.89
11
3.4071259842519686
21
0.95
0
LINE
8
BLACK
6
CONTINUOUS
10
3.4071259842519686
20
0.95
11
3.4077253543307084
21
0.9530132677165354
0
LINE
8
BLACK
6
CONTINUOUS
10
3.4077253543307084
20
0.9530132677165354
11
3.409432244094488
21
0.9555677559055118
0
LINE
8
BLACK
6
CONTINUOUS
10
3.409432244094488
20
0.9555677559055118
11
3.4119867322834643
21
0.9572746456692913
0
LINE
8
BLACK
6
CONTINUOUS
10
3.4119867322834643
20
0.9572746456692913
11
3.415
21
0.9578740157480314
0
LINE
8
BLACK
6
CONTINUOUS
10
3.415
20
0.9578740157480314
11
3.4750000000000001
21
0.9578740157480314
0
LINE
8
BLACK
6
CONTINUOUS
10
3.4750000000000001
20
0.9578740157480314
11
3.4780132677165354
21
0.9572746456692913
0
LINE
8
BLACK
6
CONTINUOUS
10
1.9830132677165353
20
0.9622746456692913
11
1.9855677559055118
21
0.9605677559055118
0
LINE
8
BLACK
6
CONTINUOUS
10
1.9855677559055118
20
0.9605677559055118
11
1.9872746456692914
21
0.9580132677165354
0
LINE
8
BLACK
6
CONTINUOUS
10
1.9872746456692914
20
0.9580132677165354
11
1.9878740157480315
21
0.955
0
LINE
8
BLACK
6
CONTINUOUS
10
1.9878740157480315
20
0.955
11
1.9878740157480315
21
0.895
0
LINE
8
BLACK
6
CONTINUOUS
10
1.9878740157480315
20
0.895
11
1.9872746456692914
21
0.8919867322834646
0
LINE
8
BLACK
6
CONTINUOUS
10
1.9872746456692914
20
0.8919867322834646
11
1.9855677559055118
21
0.8894322440944882
0
LINE
8
BLACK
6
CONTINUOUS
10
1.9855677559055118
20
0.8894322440944882
11
1.9830132677165353
21
0.8877253543307086
0
LINE
8
BLACK
6
CONTINUOUS
10
1.9830132677165353
20
0.8877253543307086
11
1.98
21
0.8871259842519685
0
LINE
8
BLACK
6
CONTINUOUS
10
1.98
20
0.8871259842519685
11
1.9199999999999999
21
0.8871259842519685
0
LINE
8
BLACK
6
CONTINUOUS
10
1.9199999999999999
20
0.8871259842519685
11
1.9169867322834646
21
0.8877253543307086
0
LINE
8
BLACK
6
CONTINUOUS
10
1.9169867322834646
20
0.8877253543307086
11
1.9144322440944881
21
0.8894322440944882
0
LINE
8
BLACK
6
CONTINUOUS
10
1.9144322440944881
20
0.8894322440944882
11
1.9127253543307086
21
0.8919867322834646
0
LINE
8
BLACK
6
CONTINUOUS
10
1.9127253543307086
20
0.8919867322834646
11
1.9121259842519684
21
0.895
0
LINE
8
BLACK
6
CONTINUOUS
10
1.9121259842519684
20
0.895
11
1.9121259842519684
21
0.955
0
LINE
8
BLACK
6
CONTINUOUS
10
1.9121259842519684
20
0.955
11
1.9127253543307086
21
0.9580132677165354
0
LINE
8
BLACK
6
CONTINUOUS
10
1.9127253543307086
20
0.9580132677165354
11
1.9144322440944881
21
0.9605677559055118
0
LINE
8
BLACK
6
CONTINUOUS
10
1.9144322440944881
20
0.9605677559055118
11
1.9169867322834646
21
0.9622746456692913
0
LINE
8
BLACK
6
CONTINUOUS
10
1.9169867322834646
20
0.9622746456692913
11
1.9199999999999999
21
0.9628740157480314
0
LINE
8
BLACK
6
CONTINUOUS
10
1.9199999999999999
20
0.9628740157480314
11
1.98
21
0.9628740157480314
0
LINE
8
BLACK
6
CONTINUOUS
10
1.98
20
0.9628740157480314
11
1.9830132677165353
21
0.9622746456692913
0
LINE
8
BLACK
6
CONTINUOUS
10
2.0830132677165354
20
0.9622746456692913
11
2.0855677559055117
21
0.9605677559055118
0
LINE
8
BLACK
6
CONTINUOUS
10
2.0855677559055117
20
0.9605677559055118
11
2.0872746456692912
21
0.9580132677165354
0
LINE
8
BLACK
6
CONTINUOUS
10
2.0872746456692912
20
0.9580132677165354
11
2.0878740157480316
21
0.955
0
LINE
8
BLACK
6
CONTINUOUS
10
2.0878740157480316
20
0.955
11
2.0878740157480316
21
0.895
0
LINE
8
BLACK
6
CONTINUOUS
10
2.0878740157480316
20
0.895
11
2.0872746456692912
21
0.8919867322834646
0
LINE
8
BLACK
6
CONTINUOUS
10
2.0872746456692912
20
0.8919867322834646
11
2.0855677559055117
21
0.8894322440944882
0
LINE
8
BLACK
6
CONTINUOUS
10
2.0855677559055117
20
0.8894322440944882
11
2.0830132677165354
21
0.8877253543307086
0
LINE
8
BLACK
6
CONTINUOUS
10
2.0830132677165354
20
0.8877253543307086
11
2.0800000000000001
21
0.8871259842519685
0
LINE
8
BLACK
6
CONTINUOUS
10
2.0800000000000001
20
0.8871259842519685
11
2.02
21
0.8871259842519685
0
LINE
8
BLACK
6
CONTINUOUS
10
2.02
20
0.8871259842519685
11
2.0169867322834647
21
0.8877253543307086
0
LINE
8
BLACK
6
CONTINUOUS
10
2.0169867322834647
20
0.8877253543307086
11
2.014432244094488
21
0.8894322440944882
0
LINE
8
BLACK
6
CONTINUOUS
10
2.014432244094488
20
0.8894322440944882
11
2.0127253543307084
21
0.8919867322834646
0
LINE
8
BLACK
6
CONTINUOUS
10
2.0127253543307084
20
0.8919867322834646
11
2.0121259842519685
21
0.895
0
LINE
8
BLACK
6
CONTINUOUS
10
2.0121259842519685
20
0.895
11
2.0121259842519685
21
0.955
0
LINE
8
BLACK
6
CONTINUOUS
10
2.0121259842519685
20
0.955
11
2.0127253543307084
21
0.9580132677165354
0
LINE
8
BLACK
6
CONTINUOUS
10
2.0127253543307084
20
0.9580132677165354
11
2.014432244094488
21
0.9605677559055118
0
LINE
8
BLACK
6
CONTINUOUS
10
2.014432244094488
20
0.9605677559055118
11
2.0169867322834647
21
0.9622746456692913
0
LINE
8
BLACK
6
CONTINUOUS
10
2.0169867322834647
20
0.9622746456692913
11
2.02
21
0.9628740157480314
0
LINE
8
BLACK
6
CONTINUOUS
10
2.02
20
0.9628740157480314
11
2.0800000000000001
21
0.9628740157480314
0
LINE
8
BLACK
6
CONTINUOUS
10
2.0800000000000001
20
0.9628740157480314
11
2.0830132677165354
21
0.9622746456692913
0
LINE
8
BLACK
6
CONTINUOUS
10
2.1830132677165355
20
0.9622746456692913
11
2.1855677559055118
21
0.9605677559055118
0
LINE
8
BLACK
6
CONTINUOUS
10
2.1855677559055118
20
0.9605677559055118
11
2.1872746456692913
21
0.9580132677165354
0
LINE
8
BLACK
6
CONTINUOUS
10
2.1872746456692913
20
0.9580132677165354
11
2.1878740157480316
21
0.955
0
LINE
8
BLACK
6
CONTINUOUS
10
2.1878740157480316
20
0.955
11
2.1878740157480316
21
0.895
0
LINE
8
BLACK
6
CONTINUOUS
10
2.1878740157480316
20
0.895
11
2.1872746456692913
21
0.8919867322834646
0
LINE
8
BLACK
6
CONTINUOUS
10
2.1872746456692913
20
0.8919867322834646
11
2.1855677559055118
21
0.8894322440944882
0
LINE
8
BLACK
6
CONTINUOUS
10
2.1855677559055118
20
0.8894322440944882
11
2.1830132677165355
21
0.8877253543307086
0
LINE
8
BLACK
6
CONTINUOUS
10
2.1830132677165355
20
0.8877253543307086
11
2.1800000000000002
21
0.8871259842519685
0
LINE
8
BLACK
6
CONTINUOUS
10
2.1800000000000002
20
0.8871259842519685
11
2.1200000000000001
21
0.8871259842519685
0
LINE
8
BLACK
6
CONTINUOUS
10
2.1200000000000001
20
0.8871259842519685
11
2.1169867322834643
21
0.8877253543307086
0
LINE
8
BLACK
6
CONTINUOUS
10
2.1169867322834643
20
0.8877253543307086
11
2.114432244094488
21
0.8894322440944882
0
LINE
8
BLACK
6
CONTINUOUS
10
2.114432244094488
20
0.8894322440944882
11
2.1127253543307085
21
0.8919867322834646
0
LINE
8
BLACK
6
CONTINUOUS
10
2.1127253543307085
20
0.8919867322834646
11
2.1121259842519686
21
0.895
0
LINE
8
BLACK
6
CONTINUOUS
10
2.1121259842519686
20
0.895
11
2.1121259842519686
21
0.955
0
LINE
8
BLACK
6
CONTINUOUS
10
2.1121259842519686
20
0.955
11
2.1127253543307085
21
0.9580132677165354
0
LINE
8
BLACK
6
CONTINUOUS
10
2.1127253543307085
20
0.9580132677165354
11
2.114432244094488
21
0.9605677559055118
0
LINE
8
BLACK
6
CONTINUOUS
10
2.114432244094488
20
0.9605677559055118
11
2.1169867322834643
21
0.9622746456692913
0
LINE
8
BLACK
6
CONTINUOUS
10
2.1169867322834643
20
0.9622746456692913
11
2.1200000000000001
21
0.9628740157480314
0
LINE
8
BLACK
6
CONTINUOUS
10
2.1200000000000001
20
0.9628740157480314
11
2.1800000000000002
21
0.9628740157480314
0
LINE
8
BLACK
6
CONTINUOUS
10
2.1800000000000002
20
0.9628740157480314
11
2.1830132677165355
21
0.9622746456692913
0
LINE
8
BLACK
6
CONTINUOUS
10
3.3780132677165353
20
1.0572746456692914
11
3.3805677559055116
21
1.0555677559055119
0
LINE
8
BLACK
6
CONTINUOUS
10
3.3805677559055116
20
1.0555677559055119
11
3.3822746456692911
21
1.0530132677165354
0
LINE
8
BLACK
6
CONTINUOUS
10
3.3822746456692911
20
1.0530132677165354
11
3.3828740157480315
21
1.05
0
LINE
8
BLACK
6
CONTINUOUS
10
3.3828740157480315
20
1.05
11
3.3828740157480315
21
0.99
0
LINE
8
BLACK
6
CONTINUOUS
10
3.3828740157480315
20
0.99
11
3.3822746456692911
21
0.9869867322834646
0
LINE
8
BLACK
6
CONTINUOUS
10
3.3822746456692911
20
0.9869867322834646
11
3.3805677559055116
21
0.9844322440944882
0
LINE
8
BLACK
6
CONTINUOUS
10
3.3805677559055116
20
0.9844322440944882
11
3.3780132677165353
21
0.9827253543307086
0
LINE
8
BLACK
6
CONTINUOUS
10
3.3780132677165353
20
0.9827253543307086
11
3.375
21
0.9821259842519685
0
LINE
8
BLACK
6
CONTINUOUS
10
3.375
20
0.9821259842519685
11
3.3149999999999999
21
0.9821259842519685
0
LINE
8
BLACK
6
CONTINUOUS
10
3.3149999999999999
20
0.9821259842519685
11
3.3119867322834646
21
0.9827253543307086
0
LINE
8
BLACK
6
CONTINUOUS
10
3.3119867322834646
20
0.9827253543307086
11
3.3094322440944883
21
0.9844322440944882
0
LINE
8
BLACK
6
CONTINUOUS
10
3.3094322440944883
20
0.9844322440944882
11
3.3077253543307088
21
0.9869867322834646
0
LINE
8
BLACK
6
CONTINUOUS
10
3.3077253543307088
20
0.9869867322834646
11
3.3071259842519685
21
0.99
0
LINE
8
BLACK
6
CONTINUOUS
10
3.3071259842519685
20
0.99
11
3.3071259842519685
21
1.05
0
LINE
8
BLACK
6
CONTINUOUS
10
3.3071259842519685
20
1.05
11
3.3077253543307088
21
1.0530132677165354
0
LINE
8
BLACK
6
CONTINUOUS
10
3.3077253543307088
20
1.0530132677165354
11
3.3094322440944883
21
1.0555677559055119
0
LINE
8
BLACK
6
CONTINUOUS
10
3.3094322440944883
20
1.0555677559055119
11
3.3119867322834646
21
1.0572746456692914
0
LINE
8
BLACK
6
CONTINUOUS
10
3.3119867322834646
20
1.0572746456692914
11
3.3149999999999999
21
1.0578740157480315
0
LINE
8
BLACK
6
CONTINUOUS
10
3.3149999999999999
20
1.0578740157480315
11
3.375
21
1.0578740157480315
0
LINE
8
BLACK
6
CONTINUOUS
10
3.375
20
1.0578740157480315
11
3.3780132677165353
21
1.0572746456692914
0
LINE
8
BLACK
6
CONTINUOUS
10
3.4780132677165354
20
1.0572746456692914
11
3.4805677559055117
21
1.0555677559055119
0
LINE
8
BLACK
6
CONTINUOUS
10
3.4805677559055117
20
1.0555677559055119
11
3.4822746456692912
21
1.0530132677165354
0
LINE
8
BLACK
6
CONTINUOUS
10
3.4822746456692912
20
1.0530132677165354
11
3.4828740157480316
21
1.05
0
LINE
8
BLACK
6
CONTINUOUS
10
3.4828740157480316
20
1.05
11
3.4828740157480316
21
0.99
0
LINE
8
BLACK
6
CONTINUOUS
10
3.4828740157480316
20
0.99
11
3.4822746456692912
21
0.9869867322834646
0
LINE
8
BLACK
6
CONTINUOUS
10
3.4822746456692912
20
0.9869867322834646
11
3.4805677559055117
21
0.9844322440944882
0
LINE
8
BLACK
6
CONTINUOUS
10
3.4805677559055117
20
0.9844322440944882
11
3.4780132677165354
21
0.9827253543307086
0
LINE
8
BLACK
6
CONTINUOUS
10
3.4780132677165354
20
0.9827253543307086
11
3.4750000000000001
21
0.9821259842519685
0
LINE
8
BLACK
6
CONTINUOUS
10
3.4750000000000001
20
0.9821259842519685
11
3.415
21
0.9821259842519685
0
LINE
8
BLACK
6
CONTINUOUS
10
3.415
20
0.9821259842519685
11
3.4119867322834643
21
0.9827253543307086
0
LINE
8
BLACK
6
CONTINUOUS
10
3.4119867322834643
20
0.9827253543307086
11
3.409432244094488
21
0.9844322440944882
0
LINE
8
BLACK
6
CONTINUOUS
10
3.409432244094488
20
0.9844322440944882
11
3.4077253543307084
21
0.9869867322834646
0
LINE
8
BLACK
6
CONTINUOUS
10
3.4077253543307084
20
0.9869867322834646
11
3.4071259842519686
21
0.99
0
LINE
8
BLACK
6
CONTINUOUS
10
3.4071259842519686
20
0.99
11
3.4071259842519686
21
1.05
0
LINE
8
BLACK
6
CONTINUOUS
10
3.4071259842519686
20
1.05
11
3.4077253543307084
21
1.0530132677165354
0
LINE
8
BLACK
6
CONTINUOUS
10
3.4077253543307084
20
1.0530132677165354
11
3.409432244094488
21
1.0555677559055119
0
LINE
8
BLACK
6
CONTINUOUS
10
3.409432244094488
20
1.0555677559055119
11
3.4119867322834643
21
1.0572746456692914
0
LINE
8
BLACK
6
CONTINUOUS
10
3.4119867322834643
20
1.0572746456692914
11
3.415
21
1.0578740157480315
0
LINE
8
BLACK
6
CONTINUOUS
10
3.415
20
1.0578740157480315
11
3.4750000000000001
21
1.0578740157480315
0
LINE
8
BLACK
6
CONTINUOUS
10
3.4750000000000001
20
1.0578740157480315
11
3.4780132677165354
21
1.0572746456692914
0
LINE
8
BLACK
6
CONTINUOUS
10
1.9830132677165353
20
1.0622746456692913
11
1.9855677559055118
21
1.0605677559055118
0
LINE
8
BLACK
6
CONTINUOUS
10
1.9855677559055118
20
1.0605677559055118
11
1.9872746456692914
21
1.0580132677165355
0
LINE
8
BLACK
6
CONTINUOUS
10
1.9872746456692914
20
1.0580132677165355
11
1.9878740157480315
21
1.0549999999999999
0
LINE
8
BLACK
6
CONTINUOUS
10
1.9878740157480315
20
1.0549999999999999
11
1.9878740157480315
21
0.995
0
LINE
8
BLACK
6
CONTINUOUS
10
1.9878740157480315
20
0.995
11
1.9872746456692914
21
0.9919867322834646
0
LINE
8
BLACK
6
CONTINUOUS
10
1.9872746456692914
20
0.9919867322834646
11
1.9855677559055118
21
0.9894322440944882
0
LINE
8
BLACK
6
CONTINUOUS
10
1.9855677559055118
20
0.9894322440944882
11
1.9830132677165353
21
0.9877253543307086
0
LINE
8
BLACK
6
CONTINUOUS
10
1.9830132677165353
20
0.9877253543307086
11
1.98
21
0.9871259842519685
0
LINE
8
BLACK
6
CONTINUOUS
10
1.98
20
0.9871259842519685
11
1.9199999999999999
21
0.9871259842519685
0
LINE
8
BLACK
6
CONTINUOUS
10
1.9199999999999999
20
0.9871259842519685
11
1.9169867322834646
21
0.9877253543307086
0
LINE
8
BLACK
6
CONTINUOUS
10
1.9169867322834646
20
0.9877253543307086
11
1.9144322440944881
21
0.9894322440944882
0
LINE
8
BLACK
6
CONTINUOUS
10
1.9144322440944881
20
0.9894322440944882
11
1.9127253543307086
21
0.9919867322834646
0
LINE
8
BLACK
6
CONTINUOUS
10
1.9127253543307086
20
0.9919867322834646
11
1.9121259842519684
21
0.995
0
LINE
8
BLACK
6
CONTINUOUS
10
1.9121259842519684
20
0.995
11
1.9121259842519684
21
1.0549999999999999
0
LINE
8
BLACK
6
CONTINUOUS
10
1.9121259842519684
20
1.0549999999999999
11
1.9127253543307086
21
1.0580132677165355
0
LINE
8
BLACK
6
CONTINUOUS
10
1.9127253543307086
20
1.0580132677165355
11
1.9144322440944881
21
1.0605677559055118
0
LINE
8
BLACK
6
CONTINUOUS
10
1.9144322440944881
20
1.0605677559055118
11
1.9169867322834646
21
1.0622746456692913
0
LINE
8
BLACK
6
CONTINUOUS
10
1.9169867322834646
20
1.0622746456692913
11
1.9199999999999999
21
1.0628740157480314
0
LINE
8
BLACK
6
CONTINUOUS
10
1.9199999999999999
20
1.0628740157480314
11
1.98
21
1.0628740157480314
0
LINE
8
BLACK
6
CONTINUOUS
10
1.98
20
1.0628740157480314
11
1.9830132677165353
21
1.0622746456692913
0
LINE
8
BLACK
6
CONTINUOUS
10
2.0830132677165354
20
1.0622746456692913
11
2.0855677559055117
21
1.0605677559055118
0
LINE
8
BLACK
6
CONTINUOUS
10
2.0855677559055117
20
1.0605677559055118
11
2.0872746456692912
21
1.0580132677165355
0
LINE
8
BLACK
6
CONTINUOUS
10
2.0872746456692912
20
1.0580132677165355
11
2.0878740157480316
21
1.0549999999999999
0
LINE
8
BLACK
6
CONTINUOUS
10
2.0878740157480316
20
1.0549999999999999
11
2.0878740157480316
21
0.995
0
LINE
8
BLACK
6
CONTINUOUS
10
2.0878740157480316
20
0.995
11
2.0872746456692912
21
0.9919867322834646
0
LINE
8
BLACK
6
CONTINUOUS
10
2.0872746456692912
20
0.9919867322834646
11
2.0855677559055117
21
0.9894322440944882
0
LINE
8
BLACK
6
CONTINUOUS
10
2.0855677559055117
20
0.9894322440944882
11
2.0830132677165354
21
0.9877253543307086
0
LINE
8
BLACK
6
CONTINUOUS
10
2.0830132677165354
20
0.9877253543307086
11
2.0800000000000001
21
0.9871259842519685
0
LINE
8
BLACK
6
CONTINUOUS
10
2.0800000000000001
20
0.9871259842519685
11
2.02
21
0.9871259842519685
0
LINE
8
BLACK
6
CONTINUOUS
10
2.02
20
0.9871259842519685
11
2.0169867322834647
21
0.9877253543307086
0
LINE
8
BLACK
6
CONTINUOUS
10
2.0169867322834647
20
0.9877253543307086
11
2.014432244094488
21
0.9894322440944882
0
LINE
8
BLACK
6
CONTINUOUS
10
2.014432244094488
20
0.9894322440944882
11
2.0127253543307084
21
0.9919867322834646
0
LINE
8
BLACK
6
CONTINUOUS
10
2.0127253543307084
20
0.9919867322834646
11
2.0121259842519685
21
0.995
0
LINE
8
BLACK
6
CONTINUOUS
10
2.0121259842519685
20
0.995
11
2.0121259842519685
21
1.0549999999999999
0
LINE
8
BLACK
6
CONTINUOUS
10
2.0121259842519685
20
1.0549999999999999
11
2.0127253543307084
21
1.0580132677165355
0
LINE
8
BLACK
6
CONTINUOUS
10
2.0127253543307084
20
1.0580132677165355
11
2.014432244094488
21
1.0605677559055118
0
LINE
8
BLACK
6
CONTINUOUS
10
2.014432244094488
20
1.0605677559055118
11
2.0169867322834647
21
1.0622746456692913
0
LINE
8
BLACK
6
CONTINUOUS
10
2.0169867322834647
20
1.0622746456692913
11
2.02
21
1.0628740157480314
0
LINE
8
BLACK
6
CONTINUOUS
10
2.02
20
1.0628740157480314
11
2.0800000000000001
21
1.0628740157480314
0
LINE
8
BLACK
6
CONTINUOUS
10
2.0800000000000001
20
1.0628740157480314
11
2.0830132677165354
21
1.0622746456692913
0
LINE
8
BLACK
6
CONTINUOUS
10
2.1830132677165355
20
1.0622746456692913
11
2.1855677559055118
21
1.0605677559055118
0
LINE
8
BLACK
6
CONTINUOUS
10
2.1855677559055118
20
1.0605677559055118
11
2.1872746456692913
21
1.0580132677165355
0
LINE
8
BLACK
6
CONTINUOUS
10
2.1872746456692913
20
1.0580132677165355
11
2.1878740157480316
21
1.0549999999999999
0
LINE
8
BLACK
6
CONTINUOUS
10
2.1878740157480316
20
1.0549999999999999
11
2.1878740157480316
21
0.995
0
LINE
8
BLACK
6
CONTINUOUS
10
2.1878740157480316
20
0.995
11
2.1872746456692913
21
0.9919867322834646
0
LINE
8
BLACK
6
CONTINUOUS
10
2.1872746456692913
20
0.9919867322834646
11
2.1855677559055118
21
0.9894322440944882
0
LINE
8
BLACK
6
CONTINUOUS
10
2.1855677559055118
20
0.9894322440944882
11
2.1830132677165355
21
0.9877253543307086
0
LINE
8
BLACK
6
CONTINUOUS
10
2.1830132677165355
20
0.9877253543307086
11
2.1800000000000002
21
0.9871259842519685
0
LINE
8
BLACK
6
CONTINUOUS
10
2.1800000000000002
20
0.9871259842519685
11
2.1200000000000001
21
0.9871259842519685
0
LINE
8
BLACK
6
CONTINUOUS
10
2.1200000000000001
20
0.9871259842519685
11
2.1169867322834643
21
0.9877253543307086
0
LINE
8
BLACK
6
CONTINUOUS
10
2.1169867322834643
20
0.9877253543307086
11
2.114432244094488
21
0.9894322440944882
0
LINE
8
BLACK
6
CONTINUOUS
10
2.114432244094488
20
0.9894322440944882
11
2.1127253543307085
21
0.9919867322834646
0
LINE
8
BLACK
6
CONTINUOUS
10
2.1127253543307085
20
0.9919867322834646
11
2.1121259842519686
21
0.995
0
LINE
8
BLACK
6
CONTINUOUS
10
2.1121259842519686
20
0.995
11
2.1121259842519686
21
1.0549999999999999
0
LINE
8
BLACK
6
CONTINUOUS
10
2.1121259842519686
20
1.0549999999999999
11
2.1127253543307085
21
1.0580132677165355
0
LINE
8
BLACK
6
CONTINUOUS
10
2.1127253543307085
20
1.0580132677165355
11
2.114432244094488
21
1.0605677559055118
0
LINE
8
BLACK
6
CONTINUOUS
10
2.114432244094488
20
1.0605677559055118
11
2.1169867322834643
21
1.0622746456692913
0
LINE
8
BLACK
6
CONTINUOUS
10
2.1169867322834643
20
1.0622746456692913
11
2.1200000000000001
21
1.0628740157480314
0
LINE
8
BLACK
6
CONTINUOUS
10
2.1200000000000001
20
1.0628740157480314
11
2.1800000000000002
21
1.0628740157480314
0
LINE
8
BLACK
6
CONTINUOUS
10
2.1800000000000002
20
1.0628740157480314
11
2.1830132677165355
21
1.0622746456692913
0
LINE
8
BLACK
6
CONTINUOUS
10
3.3780132677165353
20
1.1572746456692913
11
3.3805677559055116
21
1.1555677559055118
0
LINE
8
BLACK
6
CONTINUOUS
10
3.3805677559055116
20
1.1555677559055118
11
3.3822746456692911
21
1.1530132677165355
0
LINE
8
BLACK
6
CONTINUOUS
10
3.3822746456692911
20
1.1530132677165355
11
3.3828740157480315
21
1.1499999999999999
0
LINE
8
BLACK
6
CONTINUOUS
10
3.3828740157480315
20
1.1499999999999999
11
3.3828740157480315
21
1.0900000000000001
0
LINE
8
BLACK
6
CONTINUOUS
10
3.3828740157480315
20
1.0900000000000001
11
3.3822746456692911
21
1.0869867322834645
0
LINE
8
BLACK
6
CONTINUOUS
10
3.3822746456692911
20
1.0869867322834645
11
3.3805677559055116
21
1.0844322440944882
0
LINE
8
BLACK
6
CONTINUOUS
10
3.3805677559055116
20
1.0844322440944882
11
3.3780132677165353
21
1.0827253543307087
0
LINE
8
BLACK
6
CONTINUOUS
10
3.3780132677165353
20
1.0827253543307087
11
3.375
21
1.0821259842519684
0
LINE
8
BLACK
6
CONTINUOUS
10
3.375
20
1.0821259842519684
11
3.3149999999999999
21
1.0821259842519684
0
LINE
8
BLACK
6
CONTINUOUS
10
3.3149999999999999
20
1.0821259842519684
11
3.3119867322834646
21
1.0827253543307087
0
LINE
8
BLACK
6
CONTINUOUS
10
3.3119867322834646
20
1.0827253543307087
11
3.3094322440944883
21
1.0844322440944882
0
LINE
8
BLACK
6
CONTINUOUS
10
3.3094322440944883
20
1.0844322440944882
11
3.3077253543307088
21
1.0869867322834645
0
LINE
8
BLACK
6
CONTINUOUS
10
3.3077253543307088
20
1.0869867322834645
11
3.3071259842519685
21
1.0900000000000001
0
LINE
8
BLACK
6
CONTINUOUS
10
3.3071259842519685
20
1.0900000000000001
11
3.3071259842519685
21
1.1499999999999999
0
LINE
8
BLACK
6
CONTINUOUS
10
3.3071259842519685
20
1.1499999999999999
11
3.3077253543307088
21
1.1530132677165355
0
LINE
8
BLACK
6
CONTINUOUS
10
3.3077253543307088
20
1.1530132677165355
11
3.3094322440944883
21
1.1555677559055118
0
LINE
8
BLACK
6
CONTINUOUS
10
3.3094322440944883
20
1.1555677559055118
11
3.3119867322834646
21
1.1572746456692913
0
LINE
8
BLACK
6
CONTINUOUS
10
3.3119867322834646
20
1.1572746456692913
11
3.3149999999999999
21
1.1578740157480314
0
LINE
8
BLACK
6
CONTINUOUS
10
3.3149999999999999
20
1.1578740157480314
11
3.375
21
1.1578740157480314
0
LINE
8
BLACK
6
CONTINUOUS
10
3.375
20
1.1578740157480314
11
3.3780132677165353
21
1.1572746456692913
0
LINE
8
BLACK
6
CONTINUOUS
10
3.4780132677165354
20
1.1572746456692913
11
3.4805677559055117
21
1.1555677559055118
0
LINE
8
BLACK
6
CONTINUOUS
10
3.4805677559055117
20
1.1555677559055118
11
3.4822746456692912
21
1.1530132677165355
0
LINE
8
BLACK
6
CONTINUOUS
10
3.4822746456692912
20
1.1530132677165355
11
3.4828740157480316
21
1.1499999999999999
0
LINE
8
BLACK
6
CONTINUOUS
10
3.4828740157480316
20
1.1499999999999999
11
3.4828740157480316
21
1.0900000000000001
0
LINE
8
BLACK
6
CONTINUOUS
10
3.4828740157480316
20
1.0900000000000001
11
3.4822746456692912
21
1.0869867322834645
0
LINE
8
BLACK
6
CONTINUOUS
10
3.4822746456692912
20
1.0869867322834645
11
3.4805677559055117
21
1.0844322440944882
0
LINE
8
BLACK
6
CONTINUOUS
10
3.4805677559055117
20
1.0844322440944882
11
3.4780132677165354
21
1.0827253543307087
0
LINE
8
BLACK
6
CONTINUOUS
10
3.4780132677165354
20
1.0827253543307087
11
3.4750000000000001
21
1.0821259842519684
0
LINE
8
BLACK
6
CONTINUOUS
10
3.4750000000000001
20
1.0821259842519684
11
3.415
21
1.0821259842519684
0
LINE
8
BLACK
6
CONTINUOUS
10
3.415
20
1.0821259842519684
11
3.4119867322834643
21
1.0827253543307087
0
LINE
8
BLACK
6
CONTINUOUS
10
3.4119867322834643
20
1.0827253543307087
11
3.409432244094488
21
1.0844322440944882
0
LINE
8
BLACK
6
CONTINUOUS
10
3.409432244094488
20
1.0844322440944882
11
3.4077253543307084
21
1.0869867322834645
0
LINE
8
BLACK
6
CONTINUOUS
10
3.4077253543307084
20
1.0869867322834645
11
3.4071259842519686
21
1.0900000000000001
0
LINE
8
BLACK
6
CONTINUOUS
10
3.4071259842519686
20
1.0900000000000001
11
3.4071259842519686
21
1.1499999999999999
0
LINE
8
BLACK
6
CONTINUOUS
10
3.4071259842519686
20
1.1499999999999999
11
3.4077253543307084
21
1.1530132677165355
0
LINE
8
BLACK
6
CONTINUOUS
10
3.4077253543307084
20
1.1530132677165355
11
3.409432244094488
21
1.1555677559055118
0
LINE
8
BLACK
6
CONTINUOUS
10
3.409432244094488
20
1.1555677559055118
11
3.4119867322834643
21
1.1572746456692913
0
LINE
8
BLACK
6
CONTINUOUS
10
3.4119867322834643
20
1.1572746456692913
11
3.415
21
1.1578740157480314
0
LINE
8
BLACK
6
CONTINUOUS
10
3.415
20
1.1578740157480314
11
3.4750000000000001
21
1.1578740157480314
0
LINE
8
BLACK
6
CONTINUOUS
10
3.4750000000000001
20
1.1578740157480314
11
3.4780132677165354
21
1.1572746456692913
0
LINE
8
BLACK
6
CONTINUOUS
10
3.3780132677165353
20
1.2572746456692914
11
3.3805677559055116
21
1.2555677559055118
0
LINE
8
BLACK
6
CONTINUOUS
10
3.3805677559055116
20
1.2555677559055118
11
3.3822746456692911
21
1.2530132677165353
0
LINE
8
BLACK
6
CONTINUOUS
10
3.3822746456692911
20
1.2530132677165353
11
3.3828740157480315
21
1.25
0
LINE
8
BLACK
6
CONTINUOUS
10
3.3828740157480315
20
1.25
11
3.3828740157480315
21
1.1899999999999999
0
LINE
8
BLACK
6
CONTINUOUS
10
3.3828740157480315
20
1.1899999999999999
11
3.3822746456692911
21
1.1869867322834646
0
LINE
8
BLACK
6
CONTINUOUS
10
3.3822746456692911
20
1.1869867322834646
11
3.3805677559055116
21
1.1844322440944881
0
LINE
8
BLACK
6
CONTINUOUS
10
3.3805677559055116
20
1.1844322440944881
11
3.3780132677165353
21
1.1827253543307086
0
LINE
8
BLACK
6
CONTINUOUS
10
3.3780132677165353
20
1.1827253543307086
11
3.375
21
1.1821259842519685
0
LINE
8
BLACK
6
CONTINUOUS
10
3.375
20
1.1821259842519685
11
3.3149999999999999
21
1.1821259842519685
0
LINE
8
BLACK
6
CONTINUOUS
10
3.3149999999999999
20
1.1821259842519685
11
3.3119867322834646
21
1.1827253543307086
0
LINE
8
BLACK
6
CONTINUOUS
10
3.3119867322834646
20
1.1827253543307086
11
3.3094322440944883
21
1.1844322440944881
0
LINE
8
BLACK
6
CONTINUOUS
10
3.3094322440944883
20
1.1844322440944881
11
3.3077253543307088
21
1.1869867322834646
0
LINE
8
BLACK
6
CONTINUOUS
10
3.3077253543307088
20
1.1869867322834646
11
3.3071259842519685
21
1.1899999999999999
0
LINE
8
BLACK
6
CONTINUOUS
10
3.3071259842519685
20
1.1899999999999999
11
3.3071259842519685
21
1.25
0
LINE
8
BLACK
6
CONTINUOUS
10
3.3071259842519685
20
1.25
11
3.3077253543307088
21
1.2530132677165353
0
LINE
8
BLACK
6
CONTINUOUS
10
3.3077253543307088
20
1.2530132677165353
11
3.3094322440944883
21
1.2555677559055118
0
LINE
8
BLACK
6
CONTINUOUS
10
3.3094322440944883
20
1.2555677559055118
11
3.3119867322834646
21
1.2572746456692914
0
LINE
8
BLACK
6
CONTINUOUS
10
3.3119867322834646
20
1.2572746456692914
11
3.3149999999999999
21
1.2578740157480315
0
LINE
8
BLACK
6
CONTINUOUS
10
3.3149999999999999
20
1.2578740157480315
11
3.375
21
1.2578740157480315
0
LINE
8
BLACK
6
CONTINUOUS
10
3.375
20
1.2578740157480315
11
3.3780132677165353
21
1.2572746456692914
0
LINE
8
BLACK
6
CONTINUOUS
10
3.4780132677165354
20
1.2572746456692914
11
3.4805677559055117
21
1.2555677559055118
0
LINE
8
BLACK
6
CONTINUOUS
10
3.4805677559055117
20
1.2555677559055118
11
3.4822746456692912
21
1.2530132677165353
0
LINE
8
BLACK
6
CONTINUOUS
10
3.4822746456692912
20
1.2530132677165353
11
3.4828740157480316
21
1.25
0
LINE
8
BLACK
6
CONTINUOUS
10
3.4828740157480316
20
1.25
11
3.4828740157480316
21
1.1899999999999999
0
LINE
8
BLACK
6
CONTINUOUS
10
3.4828740157480316
20
1.1899999999999999
11
3.4822746456692912
21
1.1869867322834646
0
LINE
8
BLACK
6
CONTINUOUS
10
3.4822746456692912
20
1.1869867322834646
11
3.4805677559055117
21
1.1844322440944881
0
LINE
8
BLACK
6
CONTINUOUS
10
3.4805677559055117
20
1.1844322440944881
11
3.4780132677165354
21
1.1827253543307086
0
LINE
8
BLACK
6
CONTINUOUS
10
3.4780132677165354
20
1.1827253543307086
11
3.4750000000000001
21
1.1821259842519685
0
LINE
8
BLACK
6
CONTINUOUS
10
3.4750000000000001
20
1.1821259842519685
11
3.415
21
1.1821259842519685
0
LINE
8
BLACK
6
CONTINUOUS
10
3.415
20
1.1821259842519685
11
3.4119867322834643
21
1.1827253543307086
0
LINE
8
BLACK
6
CONTINUOUS
10
3.4119867322834643
20
1.1827253543307086
11
3.409432244094488
21
1.1844322440944881
0
LINE
8
BLACK
6
CONTINUOUS
10
3.409432244094488
20
1.1844322440944881
11
3.4077253543307084
21
1.1869867322834646
0
LINE
8
BLACK
6
CONTINUOUS
10
3.4077253543307084
20
1.1869867322834646
11
3.4071259842519686
21
1.1899999999999999
0
LINE
8
BLACK
6
CONTINUOUS
10
3.4071259842519686
20
1.1899999999999999
11
3.4071259842519686
21
1.25
0
LINE
8
BLACK
6
CONTINUOUS
10
3.4071259842519686
20
1.25
11
3.4077253543307084
21
1.2530132677165353
0
LINE
8
BLACK
6
CONTINUOUS
10
3.4077253543307084
20
1.2530132677165353
11
3.409432244094488
21
1.2555677559055118
0
LINE
8
BLACK
6
CONTINUOUS
10
3.409432244094488
20
1.2555677559055118
11
3.4119867322834643
21
1.2572746456692914
0
LINE
8
BLACK
6
CONTINUOUS
10
3.4119867322834643
20
1.2572746456692914
11
3.415
21
1.2578740157480315
0
LINE
8
BLACK
6
CONTINUOUS
10
3.415
20
1.2578740157480315
11
3.4750000000000001
21
1.2578740157480315
0
LINE
8
BLACK
6
CONTINUOUS
10
3.4750000000000001
20
1.2578740157480315
11
3.4780132677165354
21
1.2572746456692914
0
LINE
8
BLACK
6
CONTINUOUS
10
3.3780132677165353
20
1.3572746456692912
11
3.3805677559055116
21
1.3555677559055117
0
LINE
8
BLACK
6
CONTINUOUS
10
3.3805677559055116
20
1.3555677559055117
11
3.3822746456692911
21
1.3530132677165354
0
LINE
8
BLACK
6
CONTINUOUS
10
3.3822746456692911
20
1.3530132677165354
11
3.3828740157480315
21
1.3499999999999999
0
LINE
8
BLACK
6
CONTINUOUS
10
3.3828740157480315
20
1.3499999999999999
11
3.3828740157480315
21
1.29
0
LINE
8
BLACK
6
CONTINUOUS
10
3.3828740157480315
20
1.29
11
3.3822746456692911
21
1.2869867322834645
0
LINE
8
BLACK
6
CONTINUOUS
10
3.3822746456692911
20
1.2869867322834645
11
3.3805677559055116
21
1.2844322440944882
0
LINE
8
BLACK
6
CONTINUOUS
10
3.3805677559055116
20
1.2844322440944882
11
3.3780132677165353
21
1.2827253543307087
0
LINE
8
BLACK
6
CONTINUOUS
10
3.3780132677165353
20
1.2827253543307087
11
3.375
21
1.2821259842519686
0
LINE
8
BLACK
6
CONTINUOUS
10
3.375
20
1.2821259842519686
11
3.3149999999999999
21
1.2821259842519686
0
LINE
8
BLACK
6
CONTINUOUS
10
3.3149999999999999
20
1.2821259842519686
11
3.3119867322834646
21
1.2827253543307087
0
LINE
8
BLACK
6
CONTINUOUS
10
3.3119867322834646
20
1.2827253543307087
11
3.3094322440944883
21
1.2844322440944882
0
LINE
8
BLACK
6
CONTINUOUS
10
3.3094322440944883
20
1.2844322440944882
11
3.3077253543307088
21
1.2869867322834645
0
LINE
8
BLACK
6
CONTINUOUS
10
3.3077253543307088
20
1.2869867322834645
11
3.3071259842519685
21
1.29
0
LINE
8
BLACK
6
CONTINUOUS
10
3.3071259842519685
20
1.29
11
3.3071259842519685
21
1.3499999999999999
0
LINE
8
BLACK
6
CONTINUOUS
10
3.3071259842519685
20
1.3499999999999999
11
3.3077253543307088
21
1.3530132677165354
0
LINE
8
BLACK
6
CONTINUOUS
10
3.3077253543307088
20
1.3530132677165354
11
3.3094322440944883
21
1.3555677559055117
0
LINE
8
BLACK
6
CONTINUOUS
10
3.3094322440944883
20
1.3555677559055117
11
3.3119867322834646
21
1.3572746456692912
0
LINE
8
BLACK
6
CONTINUOUS
10
3.3119867322834646
20
1.3572746456692912
11
3.3149999999999999
21
1.3578740157480316
0
LINE
8
BLACK
6
CONTINUOUS
10
3.3149999999999999
20
1.3578740157480316
11
3.375
21
1.3578740157480316
0
LINE
8
BLACK
6
CONTINUOUS
10
3.375
20
1.3578740157480316
11
3.3780132677165353
21
1.3572746456692912
0
LINE
8
BLACK
6
CONTINUOUS
10
3.4780132677165354
20
1.3572746456692912
11
3.4805677559055117
21
1.3555677559055117
0
LINE
8
BLACK
6
CONTINUOUS
10
3.4805677559055117
20
1.3555677559055117
11
3.4822746456692912
21
1.3530132677165354
0
LINE
8
BLACK
6
CONTINUOUS
10
3.4822746456692912
20
1.3530132677165354
11
3.4828740157480316
21
1.3499999999999999
0
LINE
8
BLACK
6
CONTINUOUS
10
3.4828740157480316
20
1.3499999999999999
11
3.4828740157480316
21
1.29
0
LINE
8
BLACK
6
CONTINUOUS
10
3.4828740157480316
20
1.29
11
3.4822746456692912
21
1.2869867322834645
0
LINE
8
BLACK
6
CONTINUOUS
10
3.4822746456692912
20
1.2869867322834645
11
3.4805677559055117
21
1.2844322440944882
0
LINE
8
BLACK
6
CONTINUOUS
10
3.4805677559055117
20
1.2844322440944882
11
3.4780132677165354
21
1.2827253543307087
0
LINE
8
BLACK
6
CONTINUOUS
10
3.4780132677165354
20
1.2827253543307087
11
3.4750000000000001
21
1.2821259842519686
0
LINE
8
BLACK
6
CONTINUOUS
10
3.4750000000000001
20
1.2821259842519686
11
3.415
21
1.2821259842519686
0
LINE
8
BLACK
6
CONTINUOUS
10
3.415
20
1.2821259842519686
11
3.4119867322834643
21
1.2827253543307087
0
LINE
8
BLACK
6
CONTINUOUS
10
3.4119867322834643
20
1.2827253543307087
11
3.409432244094488
21
1.2844322440944882
0
LINE
8
BLACK
6
CONTINUOUS
10
3.409432244094488
20
1.2844322440944882
11
3.4077253543307084
21
1.2869867322834645
0
LINE
8
BLACK
6
CONTINUOUS
10
3.4077253543307084
20
1.2869867322834645
11
3.4071259842519686
21
1.29
0
LINE
8
BLACK
6
CONTINUOUS
10
3.4071259842519686
20
1.29
11
3.4071259842519686
21
1.3499999999999999
0
LINE
8
BLACK
6
CONTINUOUS
10
3.4071259842519686
20
1.3499999999999999
11
3.4077253543307084
21
1.3530132677165354
0
LINE
8
BLACK
6
CONTINUOUS
10
3.4077253543307084
20
1.3530132677165354
11
3.409432244094488
21
1.3555677559055117
0
LINE
8
BLACK
6
CONTINUOUS
10
3.409432244094488
20
1.3555677559055117
11
3.4119867322834643
21
1.3572746456692912
0
LINE
8
BLACK
6
CONTINUOUS
10
3.4119867322834643
20
1.3572746456692912
11
3.415
21
1.3578740157480316
0
LINE
8
BLACK
6
CONTINUOUS
10
3.415
20
1.3578740157480316
11
3.4750000000000001
21
1.3578740157480316
0
LINE
8
BLACK
6
CONTINUOUS
10
3.4750000000000001
20
1.3578740157480316
11
3.4780132677165354
21
1.3572746456692912
0
LINE
8
BLACK
6
CONTINUOUS
10
1.991201062992126
20
1.3967049212598426
11
1.9982215354330708
21
1.3945752755905512
0
LINE
8
BLACK
6
CONTINUOUS
10
1.9982215354330708
20
1.3945752755905512
11
2.0046916535433073
21
1.3911169291338583
0
LINE
8
BLACK
6
CONTINUOUS
10
2.0046916535433073
20
1.3911169291338583
11
2.0103627559055117
21
1.3864627559055118
0
LINE
8
BLACK
6
CONTINUOUS
10
2.0103627559055117
20
1.3864627559055118
11
2.0150169291338584
21
1.3807916535433071
0
LINE
8
BLACK
6
CONTINUOUS
10
2.0150169291338584
20
1.3807916535433071
11
2.0184752755905513
21
1.3743215354330709
0
LINE
8
BLACK
6
CONTINUOUS
10
2.0184752755905513
20
1.3743215354330709
11
2.0206049212598423
21
1.3673010629921261
0
LINE
8
BLACK
6
CONTINUOUS
10
2.0206049212598423
20
1.3673010629921261
11
2.0213240157480317
21
1.3599999999999999
0
LINE
8
BLACK
6
CONTINUOUS
10
2.0213240157480317
20
1.3599999999999999
11
2.0206049212598423
21
1.3526989370078739
0
LINE
8
BLACK
6
CONTINUOUS
10
2.0206049212598423
20
1.3526989370078739
11
2.0184752755905513
21
1.3456784645669291
0
LINE
8
BLACK
6
CONTINUOUS
10
2.0184752755905513
20
1.3456784645669291
11
2.0150169291338584
21
1.3392083464566928
0
LINE
8
BLACK
6
CONTINUOUS
10
2.0150169291338584
20
1.3392083464566928
11
2.0103627559055117
21
1.3335372440944882
0
LINE
8
BLACK
6
CONTINUOUS
10
2.0103627559055117
20
1.3335372440944882
11
2.0046916535433073
21
1.3288830708661417
0
LINE
8
BLACK
6
CONTINUOUS
10
2.0046916535433073
20
1.3288830708661417
11
1.9982215354330708
21
1.3254247244094488
0
LINE
8
BLACK
6
CONTINUOUS
10
1.9982215354330708
20
1.3254247244094488
11
1.991201062992126
21
1.3232950787401574
0
LINE
8
BLACK
6
CONTINUOUS
10
1.991201062992126
20
1.3232950787401574
11
1.9839
21
1.3225759842519684
0
LINE
8
BLACK
6
CONTINUOUS
10
1.9839
20
1.3225759842519684
11
1.976598937007874
21
1.3232950787401574
0
LINE
8
BLACK
6
CONTINUOUS
10
1.976598937007874
20
1.3232950787401574
11
1.9695784645669292
21
1.3254247244094488
0
LINE
8
BLACK
6
CONTINUOUS
10
1.9695784645669292
20
1.3254247244094488
11
1.963108346456693
21
1.3288830708661417
0
LINE
8
BLACK
6
CONTINUOUS
10
1.963108346456693
20
1.3288830708661417
11
1.957437244094488
21
1.3335372440944882
0
LINE
8
BLACK
6
CONTINUOUS
10
1.957437244094488
20
1.3335372440944882
11
1.9527830708661418
21
1.3392083464566928
0
LINE
8
BLACK
6
CONTINUOUS
10
1.9527830708661418
20
1.3392083464566928
11
1.9493247244094487
21
1.3456784645669291
0
LINE
8
BLACK
6
CONTINUOUS
10
1.9493247244094487
20
1.3456784645669291
11
1.9471950787401575
21
1.3526989370078739
0
LINE
8
BLACK
6
CONTINUOUS
10
1.9471950787401575
20
1.3526989370078739
11
1.9464759842519685
21
1.3599999999999999
0
LINE
8
BLACK
6
CONTINUOUS
10
1.9464759842519685
20
1.3599999999999999
11
1.9471950787401575
21
1.3673010629921261
0
LINE
8
BLACK
6
CONTINUOUS
10
1.9471950787401575
20
1.3673010629921261
11
1.9493247244094487
21
1.3743215354330709
0
LINE
8
BLACK
6
CONTINUOUS
10
1.9493247244094487
20
1.3743215354330709
11
1.9527830708661418
21
1.3807916535433071
0
LINE
8
BLACK
6
CONTINUOUS
10
1.9527830708661418
20
1.3807916535433071
11
1.957437244094488
21
1.3864627559055118
0
LINE
8
BLACK
6
CONTINUOUS
10
1.957437244094488
20
1.3864627559055118
11
1.963108346456693
21
1.3911169291338583
0
LINE
8
BLACK
6
CONTINUOUS
10
1.963108346456693
20
1.3911169291338583
11
1.9695784645669292
21
1.3945752755905512
0
LINE
8
BLACK
6
CONTINUOUS
10
1.9695784645669292
20
1.3945752755905512
11
1.976598937007874
21
1.3967049212598426
0
LINE
8
BLACK
6
CONTINUOUS
10
1.976598937007874
20
1.3967049212598426
11
1.9839
21
1.3974240157480315
0
LINE
8
BLACK
6
CONTINUOUS
10
1.9839
20
1.3974240157480315
11
1.991201062992126
21
1.3967049212598426
0
LINE
8
BLACK
6
CONTINUOUS
10
2.1834010629921261
20
1.3967049212598426
11
2.1904215354330709
21
1.3945752755905512
0
LINE
8
BLACK
6
CONTINUOUS
10
2.1904215354330709
20
1.3945752755905512
11
2.196891653543307
21
1.3911169291338583
0
LINE
8
BLACK
6
CONTINUOUS
10
2.196891653543307
20
1.3911169291338583
11
2.2025627559055119
21
1.3864627559055118
0
LINE
8
BLACK
6
CONTINUOUS
10
2.2025627559055119
20
1.3864627559055118
11
2.2072169291338581
21
1.3807916535433071
0
LINE
8
BLACK
6
CONTINUOUS
10
2.2072169291338581
20
1.3807916535433071
11
2.210675275590551
21
1.3743215354330709
0
LINE
8
BLACK
6
CONTINUOUS
10
2.210675275590551
20
1.3743215354330709
11
2.2128049212598424
21
1.3673010629921261
0
LINE
8
BLACK
6
CONTINUOUS
10
2.2128049212598424
20
1.3673010629921261
11
2.2135240157480314
21
1.3599999999999999
0
LINE
8
BLACK
6
CONTINUOUS
10
2.2135240157480314
20
1.3599999999999999
11
2.2128049212598424
21
1.3526989370078739
0
LINE
8
BLACK
6
CONTINUOUS
10
2.2128049212598424
20
1.3526989370078739
11
2.210675275590551
21
1.3456784645669291
0
LINE
8
BLACK
6
CONTINUOUS
10
2.210675275590551
20
1.3456784645669291
11
2.2072169291338581
21
1.3392083464566928
0
LINE
8
BLACK
6
CONTINUOUS
10
2.2072169291338581
20
1.3392083464566928
11
2.2025627559055119
21
1.3335372440944882
0
LINE
8
BLACK
6
CONTINUOUS
10
2.2025627559055119
20
1.3335372440944882
11
2.196891653543307
21
1.3288830708661417
0
LINE
8
BLACK
6
CONTINUOUS
10
2.196891653543307
20
1.3288830708661417
11
2.1904215354330709
21
1.3254247244094488
0
LINE
8
BLACK
6
CONTINUOUS
10
2.1904215354330709
20
1.3254247244094488
11
2.1834010629921261
21
1.3232950787401574
0
LINE
8
BLACK
6
CONTINUOUS
10
2.1834010629921261
20
1.3232950787401574
11
2.1760999999999999
21
1.3225759842519684
0
LINE
8
BLACK
6
CONTINUOUS
10
2.1760999999999999
20
1.3225759842519684
11
2.1687989370078742
21
1.3232950787401574
0
LINE
8
BLACK
6
CONTINUOUS
10
2.1687989370078742
20
1.3232950787401574
11
2.1617784645669289
21
1.3254247244094488
0
LINE
8
BLACK
6
CONTINUOUS
10
2.1617784645669289
20
1.3254247244094488
11
2.1553083464566929
21
1.3288830708661417
0
LINE
8
BLACK
6
CONTINUOUS
10
2.1553083464566929
20
1.3288830708661417
11
2.149637244094488
21
1.3335372440944882
0
LINE
8
BLACK
6
CONTINUOUS
10
2.149637244094488
20
1.3335372440944882
11
2.1449830708661417
21
1.3392083464566928
0
LINE
8
BLACK
6
CONTINUOUS
10
2.1449830708661417
20
1.3392083464566928
11
2.1415247244094489
21
1.3456784645669291
0
LINE
8
BLACK
6
CONTINUOUS
10
2.1415247244094489
20
1.3456784645669291
11
2.1393950787401574
21
1.3526989370078739
0
LINE
8
BLACK
6
CONTINUOUS
10
2.1393950787401574
20
1.3526989370078739
11
2.1386759842519685
21
1.3599999999999999
0
LINE
8
BLACK
6
CONTINUOUS
10
2.1386759842519685
20
1.3599999999999999
11
2.1393950787401574
21
1.3673010629921261
0
LINE
8
BLACK
6
CONTINUOUS
10
2.1393950787401574
20
1.3673010629921261
11
2.1415247244094489
21
1.3743215354330709
0
LINE
8
BLACK
6
CONTINUOUS
10
2.1415247244094489
20
1.3743215354330709
11
2.1449830708661417
21
1.3807916535433071
0
LINE
8
BLACK
6
CONTINUOUS
10
2.1449830708661417
20
1.3807916535433071
11
2.149637244094488
21
1.3864627559055118
0
LINE
8
BLACK
6
CONTINUOUS
10
2.149637244094488
20
1.3864627559055118
11
2.1553083464566929
21
1.3911169291338583
0
LINE
8
BLACK
6
CONTINUOUS
10
2.1553083464566929
20
1.3911169291338583
11
2.1617784645669289
21
1.3945752755905512
0
LINE
8
BLACK
6
CONTINUOUS
10
2.1617784645669289
20
1.3945752755905512
11
2.1687989370078742
21
1.3967049212598426
0
LINE
8
BLACK
6
CONTINUOUS
10
2.1687989370078742
20
1.3967049212598426
11
2.1760999999999999
21
1.3974240157480315
0
LINE
8
BLACK
6
CONTINUOUS
10
2.1760999999999999
20
1.3974240157480315
11
2.1834010629921261
21
1.3967049212598426
0
LINE
8
BLACK
6
CONTINUOUS
10
3.3780132677165353
20
1.4572746456692913
11
3.3805677559055116
21
1.4555677559055118
0
LINE
8
BLACK
6
CONTINUOUS
10
3.3805677559055116
20
1.4555677559055118
11
3.3822746456692911
21
1.4530132677165355
0
LINE
8
BLACK
6
CONTINUOUS
10
3.3822746456692911
20
1.4530132677165355
11
3.3828740157480315
21
1.45
0
LINE
8
BLACK
6
CONTINUOUS
10
3.3828740157480315
20
1.45
11
3.3828740157480315
21
1.3899999999999999
0
LINE
8
BLACK
6
CONTINUOUS
10
3.3828740157480315
20
1.3899999999999999
11
3.3822746456692911
21
1.3869867322834646
0
LINE
8
BLACK
6
CONTINUOUS
10
3.3822746456692911
20
1.3869867322834646
11
3.3805677559055116
21
1.3844322440944881
0
LINE
8
BLACK
6
CONTINUOUS
10
3.3805677559055116
20
1.3844322440944881
11
3.3780132677165353
21
1.3827253543307085
0
LINE
8
BLACK
6
CONTINUOUS
10
3.3780132677165353
20
1.3827253543307085
11
3.375
21
1.3821259842519684
0
LINE
8
BLACK
6
CONTINUOUS
10
3.375
20
1.3821259842519684
11
3.3149999999999999
21
1.3821259842519684
0
LINE
8
BLACK
6
CONTINUOUS
10
3.3149999999999999
20
1.3821259842519684
11
3.3119867322834646
21
1.3827253543307085
0
LINE
8
BLACK
6
CONTINUOUS
10
3.3119867322834646
20
1.3827253543307085
11
3.3094322440944883
21
1.3844322440944881
0
LINE
8
BLACK
6
CONTINUOUS
10
3.3094322440944883
20
1.3844322440944881
11
3.3077253543307088
21
1.3869867322834646
0
LINE
8
BLACK
6
CONTINUOUS
10
3.3077253543307088
20
1.3869867322834646
11
3.3071259842519685
21
1.3899999999999999
0
LINE
8
BLACK
6
CONTINUOUS
10
3.3071259842519685
20
1.3899999999999999
11
3.3071259842519685
21
1.45
0
LINE
8
BLACK
6
CONTINUOUS
10
3.3071259842519685
20
1.45
11
3.3077253543307088
21
1.4530132677165355
0
LINE
8
BLACK
6
CONTINUOUS
10
3.3077253543307088
20
1.4530132677165355
11
3.3094322440944883
21
1.4555677559055118
0
LINE
8
BLACK
6
CONTINUOUS
10
3.3094322440944883
20
1.4555677559055118
11
3.3119867322834646
21
1.4572746456692913
0
LINE
8
BLACK
6
CONTINUOUS
10
3.3119867322834646
20
1.4572746456692913
11
3.3149999999999999
21
1.4578740157480314
0
LINE
8
BLACK
6
CONTINUOUS
10
3.3149999999999999
20
1.4578740157480314
11
3.375
21
1.4578740157480314
0
LINE
8
BLACK
6
CONTINUOUS
10
3.375
20
1.4578740157480314
11
3.3780132677165353
21
1.4572746456692913
0
LINE
8
BLACK
6
CONTINUOUS
10
3.4780132677165354
20
1.4572746456692913
11
3.4805677559055117
21
1.4555677559055118
0
LINE
8
BLACK
6
CONTINUOUS
10
3.4805677559055117
20
1.4555677559055118
11
3.4822746456692912
21
1.4530132677165355
0
LINE
8
BLACK
6
CONTINUOUS
10
3.4822746456692912
20
1.4530132677165355
11
3.4828740157480316
21
1.45
0
LINE
8
BLACK
6
CONTINUOUS
10
3.4828740157480316
20
1.45
11
3.4828740157480316
21
1.3899999999999999
0
LINE
8
BLACK
6
CONTINUOUS
10
3.4828740157480316
20
1.3899999999999999
11
3.4822746456692912
21
1.3869867322834646
0
LINE
8
BLACK
6
CONTINUOUS
10
3.4822746456692912
20
1.3869867322834646
11
3.4805677559055117
21
1.3844322440944881
0
LINE
8
BLACK
6
CONTINUOUS
10
3.4805677559055117
20
1.3844322440944881
11
3.4780132677165354
21
1.3827253543307085
0
LINE
8
BLACK
6
CONTINUOUS
10
3.4780132677165354
20
1.3827253543307085
11
3.4750000000000001
21
1.3821259842519684
0
LINE
8
BLACK
6
CONTINUOUS
10
3.4750000000000001
20
1.3821259842519684
11
3.415
21
1.3821259842519684
0
LINE
8
BLACK
6
CONTINUOUS
10
3.415
20
1.3821259842519684
11
3.4119867322834643
21
1.3827253543307085
0
LINE
8
BLACK
6
CONTINUOUS
10
3.4119867322834643
20
1.3827253543307085
11
3.409432244094488
21
1.3844322440944881
0
LINE
8
BLACK
6
CONTINUOUS
10
3.409432244094488
20
1.3844322440944881
11
3.4077253543307084
21
1.3869867322834646
0
LINE
8
BLACK
6
CONTINUOUS
10
3.4077253543307084
20
1.3869867322834646
11
3.4071259842519686
21
1.3899999999999999
0
LINE
8
BLACK
6
CONTINUOUS
10
3.4071259842519686
20
1.3899999999999999
11
3.4071259842519686
21
1.45
0
LINE
8
BLACK
6
CONTINUOUS
10
3.4071259842519686
20
1.45
11
3.4077253543307084
21
1.4530132677165355
0
LINE
8
BLACK
6
CONTINUOUS
10
3.4077253543307084
20
1.4530132677165355
11
3.409432244094488
21
1.4555677559055118
0
LINE
8
BLACK
6
CONTINUOUS
10
3.409432244094488
20
1.4555677559055118
11
3.4119867322834643
21
1.4572746456692913
0
LINE
8
BLACK
6
CONTINUOUS
10
3.4119867322834643
20
1.4572746456692913
11
3.415
21
1.4578740157480314
0
LINE
8
BLACK
6
CONTINUOUS
10
3.415
20
1.4578740157480314
11
3.4750000000000001
21
1.4578740157480314
0
LINE
8
BLACK
6
CONTINUOUS
10
3.4750000000000001
20
1.4578740157480314
11
3.4780132677165354
21
1.4572746456692913
0
LINE
8
BLACK
6
CONTINUOUS
10
3.0745461811023622
20
1.5352723228346457
11
3.0838573228346458
21
1.5330369291338581
0
LINE
8
BLACK
6
CONTINUOUS
10
3.0838573228346458
20
1.5330369291338581
11
3.0927041338582675
21
1.5293724409448819
0
LINE
8
BLACK
6
CONTINUOUS
10
3.0927041338582675
20
1.5293724409448819
11
3.1008687795275591
21
1.5243691338582677
0
LINE
8
BLACK
6
CONTINUOUS
10
3.1008687795275591
20
1.5243691338582677
11
3.1081502362204723
21
1.5181502362204724
0
LINE
8
BLACK
6
CONTINUOUS
10
3.1081502362204723
20
1.5181502362204724
11
3.1143691338582675
21
1.510868779527559
0
LINE
8
BLACK
6
CONTINUOUS
10
3.1143691338582675
20
1.510868779527559
11
3.1193724409448818
21
1.5027041338582676
0
LINE
8
BLACK
6
CONTINUOUS
10
3.1193724409448818
20
1.5027041338582676
11
3.1230369291338582
21
1.4938573228346457
0
LINE
8
BLACK
6
CONTINUOUS
10
3.1230369291338582
20
1.4938573228346457
11
3.1252723228346455
21
1.4845461811023621
0
LINE
8
BLACK
6
CONTINUOUS
10
3.1252723228346455
20
1.4845461811023621
11
3.1260236220472439
21
1.4749999999999999
0
LINE
8
BLACK
6
CONTINUOUS
10
3.1260236220472439
20
1.4749999999999999
11
3.1252723228346455
21
1.4654538188976378
0
LINE
8
BLACK
6
CONTINUOUS
10
3.1252723228346455
20
1.4654538188976378
11
3.1230369291338582
21
1.4561426771653543
0
LINE
8
BLACK
6
CONTINUOUS
10
3.1230369291338582
20
1.4561426771653543
11
3.1193724409448818
21
1.4472958661417323
0
LINE
8
BLACK
6
CONTINUOUS
10
3.1193724409448818
20
1.4472958661417323
11
3.1143691338582675
21
1.4391312204724409
0
LINE
8
BLACK
6
CONTINUOUS
10
3.1143691338582675
20
1.4391312204724409
11
3.1081502362204723
21
1.4318497637795276
0
LINE
8
BLACK
6
CONTINUOUS
10
3.1081502362204723
20
1.4318497637795276
11
3.1008687795275591
21
1.4256308661417323
0
LINE
8
BLACK
6
CONTINUOUS
10
3.1008687795275591
20
1.4256308661417323
11
3.0927041338582675
21
1.4206275590551181
0
LINE
8
BLACK
6
CONTINUOUS
10
3.0927041338582675
20
1.4206275590551181
11
3.0838573228346458
21
1.4169630708661416
0
LINE
8
BLACK
6
CONTINUOUS
10
3.0838573228346458
20
1.4169630708661416
11
3.0745461811023622
21
1.4147276771653543
0
LINE
8
BLACK
6
CONTINUOUS
10
3.0745461811023622
20
1.4147276771653543
11
3.0649999999999999
21
1.4139763779527559
0
LINE
8
BLACK
6
CONTINUOUS
10
3.0649999999999999
20
1.4139763779527559
11
3.0554538188976377
21
1.4147276771653543
0
LINE
8
BLACK
6
CONTINUOUS
10
3.0554538188976377
20
1.4147276771653543
11
3.0461426771653541
21
1.4169630708661416
0
LINE
8
BLACK
6
CONTINUOUS
10
3.0461426771653541
20
1.4169630708661416
11
3.0372958661417324
21
1.4206275590551181
0
LINE
8
BLACK
6
CONTINUOUS
10
3.0372958661417324
20
1.4206275590551181
11
3.0291312204724408
21
1.4256308661417323
0
LINE
8
BLACK
6
CONTINUOUS
10
3.0291312204724408
20
1.4256308661417323
11
3.0218497637795276
21
1.4318497637795276
0
LINE
8
BLACK
6
CONTINUOUS
10
3.0218497637795276
20
1.4318497637795276
11
3.0156308661417324
21
1.4391312204724409
0
LINE
8
BLACK
6
CONTINUOUS
10
3.0156308661417324
20
1.4391312204724409
11
3.0106275590551181
21
1.4472958661417323
0
LINE
8
BLACK
6
CONTINUOUS
10
3.0106275590551181
20
1.4472958661417323
11
3.0069630708661417
21
1.4561426771653543
0
LINE
8
BLACK
6
CONTINUOUS
10
3.0069630708661417
20
1.4561426771653543
11
3.0047276771653544
21
1.4654538188976378
0
LINE
8
BLACK
6
CONTINUOUS
10
3.0047276771653544
20
1.4654538188976378
11
3.003976377952756
21
1.4749999999999999
0
LINE
8
BLACK
6
CONTINUOUS
10
3.003976377952756
20
1.4749999999999999
11
3.0047276771653544
21
1.4845461811023621
0
LINE
8
BLACK
6
CONTINUOUS
10
3.0047276771653544
20
1.4845461811023621
11
3.0069630708661417
21
1.4938573228346457
0
LINE
8
BLACK
6
CONTINUOUS
10
3.0069630708661417
20
1.4938573228346457
11
3.0106275590551181
21
1.5027041338582676
0
LINE
8
BLACK
6
CONTINUOUS
10
3.0106275590551181
20
1.5027041338582676
11
3.0156308661417324
21
1.510868779527559
0
LINE
8
BLACK
6
CONTINUOUS
10
3.0156308661417324
20
1.510868779527559
11
3.0218497637795276
21
1.5181502362204724
0
LINE
8
BLACK
6
CONTINUOUS
10
3.0218497637795276
20
1.5181502362204724
11
3.0291312204724408
21
1.5243691338582677
0
LINE
8
BLACK
6
CONTINUOUS
10
3.0291312204724408
20
1.5243691338582677
11
3.0372958661417324
21
1.5293724409448819
0
LINE
8
BLACK
6
CONTINUOUS
10
3.0372958661417324
20
1.5293724409448819
11
3.0461426771653541
21
1.5330369291338581
0
LINE
8
BLACK
6
CONTINUOUS
10
3.0461426771653541
20
1.5330369291338581
11
3.0554538188976377
21
1.5352723228346457
0
LINE
8
BLACK
6
CONTINUOUS
10
3.0554538188976377
20
1.5352723228346457
11
3.0649999999999999
21
1.5360236220472441
0
LINE
8
BLACK
6
CONTINUOUS
10
3.0649999999999999
20
1.5360236220472441
11
3.0745461811023622
21
1.5352723228346457
0
LINE
8
BLACK
6
CONTINUOUS
10
3.414105748031496
20
1.9251920866141732
11
3.4280341338582678
21
1.9228255511811023
0
LINE
8
BLACK
6
CONTINUOUS
10
3.4280341338582678
20
1.9228255511811023
11
3.4416099606299211
21
1.9189144488188976
0
LINE
8
BLACK
6
CONTINUOUS
10
3.4416099606299211
20
1.9189144488188976
11
3.4546625196850393
21
1.9135078740157481
0
LINE
8
BLACK
6
CONTINUOUS
10
3.4546625196850393
20
1.9135078740157481
11
3.4670276771653543
21
1.9066738976377953
0
LINE
8
BLACK
6
CONTINUOUS
10
3.4670276771653543
20
1.9066738976377953
11
3.4785498818897636
21
1.8984984645669292
0
LINE
8
BLACK
6
CONTINUOUS
10
3.4785498818897636
20
1.8984984645669292
11
3.4890843307086614
21
1.8890843307086613
0
LINE
8
BLACK
6
CONTINUOUS
10
3.4890843307086614
20
1.8890843307086613
11
3.498498464566929
21
1.8785498818897637
0
LINE
8
BLACK
6
CONTINUOUS
10
3.498498464566929
20
1.8785498818897637
11
3.5066738976377954
21
1.8670276771653542
0
LINE
8
BLACK
6
CONTINUOUS
10
3.5066738976377954
20
1.8670276771653542
11
3.5135078740157479
21
1.8546625196850393
0
LINE
8
BLACK
6
CONTINUOUS
10
3.5135078740157479
20
1.8546625196850393
11
3.5189144488188977
21
1.8416099606299212
0
LINE
8
BLACK
6
CONTINUOUS
10
3.5189144488188977
20
1.8416099606299212
11
3.5228255511811022
21
1.8280341338582677
0
LINE
8
BLACK
6
CONTINUOUS
10
3.5228255511811022
20
1.8280341338582677
11
3.5251920866141733
21
1.8141057480314959
0
LINE
8
BLACK
6
CONTINUOUS
10
3.5251920866141733
20
1.8141057480314959
11
3.5259842519685041
21
1.8
0
LINE
8
BLACK
6
CONTINUOUS
10
3.5259842519685041
20
1.8
11
3.5251920866141733
21
1.7858942519685039
0
LINE
8
BLACK
6
CONTINUOUS
10
3.5251920866141733
20
1.7858942519685039
11
3.5228255511811022
21
1.7719658661417323
0
LINE
8
BLACK
6
CONTINUOUS
10
3.5228255511811022
20
1.7719658661417323
11
3.5189144488188977
21
1.7583900393700787
0
LINE
8
BLACK
6
CONTINUOUS
10
3.5189144488188977
20
1.7583900393700787
11
3.5135078740157479
21
1.7453374803149606
0
LINE
8
BLACK
6
CONTINUOUS
10
3.5135078740157479
20
1.7453374803149606
11
3.5066738976377954
21
1.7329723228346456
0
LINE
8
BLACK
6
CONTINUOUS
10
3.5066738976377954
20
1.7329723228346456
11
3.498498464566929
21
1.7214501181102362
0
LINE
8
BLACK
6
CONTINUOUS
10
3.498498464566929
20
1.7214501181102362
11
3.4890843307086614
21
1.7109156692913385
0
LINE
8
BLACK
6
CONTINUOUS
10
3.4890843307086614
20
1.7109156692913385
11
3.4785498818897636
21
1.7015015354330709
0
LINE
8
BLACK
6
CONTINUOUS
10
3.4785498818897636
20
1.7015015354330709
11
3.4670276771653543
21
1.6933261023622046
0
LINE
8
BLACK
6
CONTINUOUS
10
3.4670276771653543
20
1.6933261023622046
11
3.4546625196850393
21
1.686492125984252
0
LINE
8
BLACK
6
CONTINUOUS
10
3.4546625196850393
20
1.686492125984252
11
3.4416099606299211
21
1.6810855511811023
0
LINE
8
BLACK
6
CONTINUOUS
10
3.4416099606299211
20
1.6810855511811023
11
3.4280341338582678
21
1.6771744488188975
0
LINE
8
BLACK
6
CONTINUOUS
10
3.4280341338582678
20
1.6771744488188975
11
3.414105748031496
21
1.6748079133858267
0
LINE
8
BLACK
6
CONTINUOUS
10
3.414105748031496
20
1.6748079133858267
11
3.3999999999999999
21
1.6740157480314961
0
LINE
8
BLACK
6
CONTINUOUS
10
3.3999999999999999
20
1.6740157480314961
11
3.3858942519685038
21
1.6748079133858267
0
LINE
8
BLACK
6
CONTINUOUS
10
3.3858942519685038
20
1.6748079133858267
11
3.371965866141732
21
1.6771744488188975
0
LINE
8
BLACK
6
CONTINUOUS
10
3.371965866141732
20
1.6771744488188975
11
3.3583900393700787
21
1.6810855511811023
0
LINE
8
BLACK
6
CONTINUOUS
10
3.3583900393700787
20
1.6810855511811023
11
3.3453374803149605
21
1.686492125984252
0
LINE
8
BLACK
6
CONTINUOUS
10
3.3453374803149605
20
1.686492125984252
11
3.3329723228346455
21
1.6933261023622046
0
LINE
8
BLACK
6
CONTINUOUS
10
3.3329723228346455
20
1.6933261023622046
11
3.3214501181102363
21
1.7015015354330709
0
LINE
8
BLACK
6
CONTINUOUS
10
3.3214501181102363
20
1.7015015354330709
11
3.3109156692913384
21
1.7109156692913385
0
LINE
8
BLACK
6
CONTINUOUS
10
3.3109156692913384
20
1.7109156692913385
11
3.3015015354330708
21
1.7214501181102362
0
LINE
8
BLACK
6
CONTINUOUS
10
3.3015015354330708
20
1.7214501181102362
11
3.2933261023622045
21
1.7329723228346456
0
LINE
8
BLACK
6
CONTINUOUS
10
3.2933261023622045
20
1.7329723228346456
11
3.2864921259842519
21
1.7453374803149606
0
LINE
8
BLACK
6
CONTINUOUS
10
3.2864921259842519
20
1.7453374803149606
11
3.2810855511811021
21
1.7583900393700787
0
LINE
8
BLACK
6
CONTINUOUS
10
3.2810855511811021
20
1.7583900393700787
11
3.2771744488188976
21
1.7719658661417323
0
LINE
8
BLACK
6
CONTINUOUS
10
3.2771744488188976
20
1.7719658661417323
11
3.2748079133858266
21
1.7858942519685039
0
LINE
8
BLACK
6
CONTINUOUS
10
3.2748079133858266
20
1.7858942519685039
11
3.2740157480314962
21
1.8
0
LINE
8
BLACK
6
CONTINUOUS
10
3.2740157480314962
20
1.8
11
3.2748079133858266
21
1.8141057480314959
0
LINE
8
BLACK
6
CONTINUOUS
10
3.2748079133858266
20
1.8141057480314959
11
3.2771744488188976
21
1.8280341338582677
0
LINE
8
BLACK
6
CONTINUOUS
10
3.2771744488188976
20
1.8280341338582677
11
3.2810855511811021
21
1.8416099606299212
0
LINE
8
BLACK
6
CONTINUOUS
10
3.2810855511811021
20
1.8416099606299212
11
3.2864921259842519
21
1.8546625196850393
0
LINE
8
BLACK
6
CONTINUOUS
10
3.2864921259842519
20
1.8546625196850393
11
3.2933261023622045
21
1.8670276771653542
0
LINE
8
BLACK
6
CONTINUOUS
10
3.2933261023622045
20
1.8670276771653542
11
3.3015015354330708
21
1.8785498818897637
0
LINE
8
BLACK
6
CONTINUOUS
10
3.3015015354330708
20
1.8785498818897637
11
3.3109156692913384
21
1.8890843307086613
0
LINE
8
BLACK
6
CONTINUOUS
10
3.3109156692913384
20
1.8890843307086613
11
3.3214501181102363
21
1.8984984645669292
0
LINE
8
BLACK
6
CONTINUOUS
10
3.3214501181102363
20
1.8984984645669292
11
3.3329723228346455
21
1.9066738976377953
0
LINE
8
BLACK
6
CONTINUOUS
10
3.3329723228346455
20
1.9066738976377953
11
3.3453374803149605
21
1.9135078740157481
0
LINE
8
BLACK
6
CONTINUOUS
10
3.3453374803149605
20
1.9135078740157481
11
3.3583900393700787
21
1.9189144488188976
0
LINE
8
BLACK
6
CONTINUOUS
10
3.3583900393700787
20
1.9189144488188976
11
3.371965866141732
21
1.9228255511811023
0
LINE
8
BLACK
6
CONTINUOUS
10
3.371965866141732
20
1.9228255511811023
11
3.3858942519685038
21
1.9251920866141732
0
LINE
8
BLACK
6
CONTINUOUS
10
3.3858942519685038
20
1.9251920866141732
11
3.3999999999999999
21
1.925984251968504
0
LINE
8
BLACK
6
CONTINUOUS
10
3.3999999999999999
20
1.925984251968504
11
3.414105748031496
21
1.9251920866141732
  0
ENDSEC
  0
EOF
