  0
SECTION
  2
HEADER
  9
$ANGBASE
  50
0.0
  9
$ANGDIR
  70
1
  9
$MEASUREMENT
  70
0
  0
ENDSEC
  0
SECTION
  2
TABLES
  0
TABLE
  2
LTYPE
  70
4
  0
LTYPE
  5
40F
  2
CONTINUOUS
  70
0
  3
Solid line
  72
65
  73
0
  40
0.0
  0
LTYPE
  5
410
  2
DASHDOT
 70
0
  3
Dash Dot ____ _ ____ _
 72
65
 73
4
 40
2.0
 49
1.25
 49
-0.25
 49
0.25
 49
-0.25
  0
LTYPE
  5
411
  2
DASHED
 70
0
  3
Dashed __ __ __ __ __
 72
65
 73
2
 40
0.75
 49
0.5
 49
-0.25
  0
LTYPE
  5
43B
  2
DOTTED
 70
0
  3
Dotted .  .  .  .
 72
65
 73
2
 40
0.2
 49
0.0
 49
-0.2
  0
ENDTAB
  0
TABLE
  2
STYLE
  70
4
  0
STYLE
  2
KICAD
  70
0
  40
0
  41
1
  42
1
  50
0
  71
0
  3
isocp.shx
  0
STYLE
  2
KICADB
  70
0
  40
0
  41
1
  42
1
  50
0
  71
0
  3
isocp.shx
  0
STYLE
  2
KICADI
  70
0
  40
0
  41
1
  42
1
  50
15
  71
0
  3
isocp.shx
  0
STYLE
  2
KICADBI
  70
0
  40
0
  41
1
  42
1
  50
15
  71
0
  3
isocp.shx
  0
ENDTAB
  0
TABLE
  2
LAYER
  70
1
  0
LAYER
  2
BLACK
  70
0
  62
7
  6
CONTINUOUS
  0
ENDTAB
  0
ENDSEC
  0
SECTION
  2
ENTITIES
0
LINE
8
BLACK
6
CONTINUOUS
10
1.9449212598425196
20
0.385
11
1.8149999999999999
21
0.385
0
LINE
8
BLACK
6
CONTINUOUS
10
1.8149999999999999
20
0.385
11
1.8149999999999999
21
0.4853937007874016
0
LINE
8
BLACK
6
CONTINUOUS
10
1.8149999999999999
20
0.4853937007874016
11
1.9449212598425196
21
0.4853937007874016
0
LINE
8
BLACK
6
CONTINUOUS
10
1.9449212598425196
20
0.4853937007874016
11
1.9449212598425196
21
0.385
0
LINE
8
BLACK
6
CONTINUOUS
10
2.1811417322834643
20
0.385
11
2.0315354330708661
21
0.385
0
LINE
8
BLACK
6
CONTINUOUS
10
2.0315354330708661
20
0.385
11
2.0315354330708661
21
0.4243700787401575
0
LINE
8
BLACK
6
CONTINUOUS
10
2.0315354330708661
20
0.4243700787401575
11
2.1811417322834643
21
0.4243700787401575
0
LINE
8
BLACK
6
CONTINUOUS
10
2.1811417322834643
20
0.4243700787401575
11
2.1811417322834643
21
0.385
0
LINE
8
BLACK
6
CONTINUOUS
10
2.4173622047244092
20
0.385
11
2.2677559055118111
21
0.385
0
LINE
8
BLACK
6
CONTINUOUS
10
2.2677559055118111
20
0.385
11
2.2677559055118111
21
0.4243700787401575
0
LINE
8
BLACK
6
CONTINUOUS
10
2.2677559055118111
20
0.4243700787401575
11
2.4173622047244092
21
0.4243700787401575
0
LINE
8
BLACK
6
CONTINUOUS
10
2.4173622047244092
20
0.4243700787401575
11
2.4173622047244092
21
0.385
0
LINE
8
BLACK
6
CONTINUOUS
10
2.6535826771653541
20
0.385
11
2.503976377952756
21
0.385
0
LINE
8
BLACK
6
CONTINUOUS
10
2.503976377952756
20
0.385
11
2.503976377952756
21
0.4243700787401575
0
LINE
8
BLACK
6
CONTINUOUS
10
2.503976377952756
20
0.4243700787401575
11
2.6535826771653541
21
0.4243700787401575
0
LINE
8
BLACK
6
CONTINUOUS
10
2.6535826771653541
20
0.4243700787401575
11
2.6535826771653541
21
0.385
0
LINE
8
BLACK
6
CONTINUOUS
10
2.889803149606299
20
0.385
11
2.7401968503937009
21
0.385
0
LINE
8
BLACK
6
CONTINUOUS
10
2.7401968503937009
20
0.385
11
2.7401968503937009
21
0.4243700787401575
0
LINE
8
BLACK
6
CONTINUOUS
10
2.7401968503937009
20
0.4243700787401575
11
2.889803149606299
21
0.4243700787401575
0
LINE
8
BLACK
6
CONTINUOUS
10
2.889803149606299
20
0.4243700787401575
11
2.889803149606299
21
0.385
0
LINE
8
BLACK
6
CONTINUOUS
10
3.1260236220472439
20
0.385
11
2.9764173228346458
21
0.385
0
LINE
8
BLACK
6
CONTINUOUS
10
2.9764173228346458
20
0.385
11
2.9764173228346458
21
0.4243700787401575
0
LINE
8
BLACK
6
CONTINUOUS
10
2.9764173228346458
20
0.4243700787401575
11
3.1260236220472439
21
0.4243700787401575
0
LINE
8
BLACK
6
CONTINUOUS
10
3.1260236220472439
20
0.4243700787401575
11
3.1260236220472439
21
0.385
0
LINE
8
BLACK
6
CONTINUOUS
10
3.3622440944881888
20
0.385
11
3.2126377952755907
21
0.385
0
LINE
8
BLACK
6
CONTINUOUS
10
3.2126377952755907
20
0.385
11
3.2126377952755907
21
0.4243700787401575
0
LINE
8
BLACK
6
CONTINUOUS
10
3.2126377952755907
20
0.4243700787401575
11
3.3622440944881888
21
0.4243700787401575
0
LINE
8
BLACK
6
CONTINUOUS
10
3.3622440944881888
20
0.4243700787401575
11
3.3622440944881888
21
0.385
0
LINE
8
BLACK
6
CONTINUOUS
10
3.578779527559055
20
0.385
11
3.4488582677165351
21
0.385
0
LINE
8
BLACK
6
CONTINUOUS
10
3.4488582677165351
20
0.385
11
3.4488582677165351
21
0.4853937007874016
0
LINE
8
BLACK
6
CONTINUOUS
10
3.4488582677165351
20
0.4853937007874016
11
3.578779527559055
21
0.4853937007874016
0
LINE
8
BLACK
6
CONTINUOUS
10
3.578779527559055
20
0.4853937007874016
11
3.578779527559055
21
0.385
0
LINE
8
BLACK
6
CONTINUOUS
10
0.1485826771653543
20
0.3874015748031496
11
0.0186614173228346
21
0.3874015748031496
0
LINE
8
BLACK
6
CONTINUOUS
10
0.0186614173228346
20
0.3874015748031496
11
0.0186614173228346
21
0.4877952755905512
0
LINE
8
BLACK
6
CONTINUOUS
10
0.0186614173228346
20
0.4877952755905512
11
0.1485826771653543
21
0.4877952755905512
0
LINE
8
BLACK
6
CONTINUOUS
10
0.1485826771653543
20
0.4877952755905512
11
0.1485826771653543
21
0.3874015748031496
0
LINE
8
BLACK
6
CONTINUOUS
10
0.3848031496062992
20
0.3874015748031496
11
0.2351968503937008
21
0.3874015748031496
0
LINE
8
BLACK
6
CONTINUOUS
10
0.2351968503937008
20
0.3874015748031496
11
0.2351968503937008
21
0.4267716535433071
0
LINE
8
BLACK
6
CONTINUOUS
10
0.2351968503937008
20
0.4267716535433071
11
0.3848031496062992
21
0.4267716535433071
0
LINE
8
BLACK
6
CONTINUOUS
10
0.3848031496062992
20
0.4267716535433071
11
0.3848031496062992
21
0.3874015748031496
0
LINE
8
BLACK
6
CONTINUOUS
10
0.621023622047244
20
0.3874015748031496
11
0.4714173228346457
21
0.3874015748031496
0
LINE
8
BLACK
6
CONTINUOUS
10
0.4714173228346457
20
0.3874015748031496
11
0.4714173228346457
21
0.4267716535433071
0
LINE
8
BLACK
6
CONTINUOUS
10
0.4714173228346457
20
0.4267716535433071
11
0.621023622047244
21
0.4267716535433071
0
LINE
8
BLACK
6
CONTINUOUS
10
0.621023622047244
20
0.4267716535433071
11
0.621023622047244
21
0.3874015748031496
0
LINE
8
BLACK
6
CONTINUOUS
10
0.8572440944881889
20
0.3874015748031496
11
0.7076377952755906
21
0.3874015748031496
0
LINE
8
BLACK
6
CONTINUOUS
10
0.7076377952755906
20
0.3874015748031496
11
0.7076377952755906
21
0.4267716535433071
0
LINE
8
BLACK
6
CONTINUOUS
10
0.7076377952755906
20
0.4267716535433071
11
0.8572440944881889
21
0.4267716535433071
0
LINE
8
BLACK
6
CONTINUOUS
10
0.8572440944881889
20
0.4267716535433071
11
0.8572440944881889
21
0.3874015748031496
0
LINE
8
BLACK
6
CONTINUOUS
10
1.0934645669291339
20
0.3874015748031496
11
0.9438582677165354
21
0.3874015748031496
0
LINE
8
BLACK
6
CONTINUOUS
10
0.9438582677165354
20
0.3874015748031496
11
0.9438582677165354
21
0.4267716535433071
0
LINE
8
BLACK
6
CONTINUOUS
10
0.9438582677165354
20
0.4267716535433071
11
1.0934645669291339
21
0.4267716535433071
0
LINE
8
BLACK
6
CONTINUOUS
10
1.0934645669291339
20
0.4267716535433071
11
1.0934645669291339
21
0.3874015748031496
0
LINE
8
BLACK
6
CONTINUOUS
10
1.3296850393700788
20
0.3874015748031496
11
1.1800787401574804
21
0.3874015748031496
0
LINE
8
BLACK
6
CONTINUOUS
10
1.1800787401574804
20
0.3874015748031496
11
1.1800787401574804
21
0.4267716535433071
0
LINE
8
BLACK
6
CONTINUOUS
10
1.1800787401574804
20
0.4267716535433071
11
1.3296850393700788
21
0.4267716535433071
0
LINE
8
BLACK
6
CONTINUOUS
10
1.3296850393700788
20
0.4267716535433071
11
1.3296850393700788
21
0.3874015748031496
0
LINE
8
BLACK
6
CONTINUOUS
10
1.5659055118110237
20
0.3874015748031496
11
1.4162992125984251
21
0.3874015748031496
0
LINE
8
BLACK
6
CONTINUOUS
10
1.4162992125984251
20
0.3874015748031496
11
1.4162992125984251
21
0.4267716535433071
0
LINE
8
BLACK
6
CONTINUOUS
10
1.4162992125984251
20
0.4267716535433071
11
1.5659055118110237
21
0.4267716535433071
0
LINE
8
BLACK
6
CONTINUOUS
10
1.5659055118110237
20
0.4267716535433071
11
1.5659055118110237
21
0.3874015748031496
0
LINE
8
BLACK
6
CONTINUOUS
10
1.7824409448818896
20
0.3874015748031496
11
1.65251968503937
21
0.3874015748031496
0
LINE
8
BLACK
6
CONTINUOUS
10
1.65251968503937
20
0.3874015748031496
11
1.65251968503937
21
0.4877952755905512
0
LINE
8
BLACK
6
CONTINUOUS
10
1.65251968503937
20
0.4877952755905512
11
1.7824409448818896
21
0.4877952755905512
0
LINE
8
BLACK
6
CONTINUOUS
10
1.7824409448818896
20
0.4877952755905512
11
1.7824409448818896
21
0.3874015748031496
0
LINE
8
BLACK
6
CONTINUOUS
10
2.978779527559055
20
0.4459448818897638
11
2.9512204724409448
21
0.4459448818897638
0
LINE
8
BLACK
6
CONTINUOUS
10
2.9512204724409448
20
0.4459448818897638
11
2.9512204724409448
21
0.5640551181102362
0
LINE
8
BLACK
6
CONTINUOUS
10
2.9512204724409448
20
0.5640551181102362
11
2.978779527559055
21
0.5640551181102362
0
LINE
8
BLACK
6
CONTINUOUS
10
2.978779527559055
20
0.5640551181102362
11
2.978779527559055
21
0.4459448818897638
0
LINE
8
BLACK
6
CONTINUOUS
10
3.1324999999999998
20
0.46
11
3.0775000000000001
21
0.46
0
LINE
8
BLACK
6
CONTINUOUS
10
3.0775000000000001
20
0.46
11
3.0775000000000001
21
0.495
0
LINE
8
BLACK
6
CONTINUOUS
10
3.0775000000000001
20
0.495
11
3.1324999999999998
21
0.495
0
LINE
8
BLACK
6
CONTINUOUS
10
3.1324999999999998
20
0.495
11
3.1324999999999998
21
0.46
0
LINE
8
BLACK
6
CONTINUOUS
10
3.2305905511811024
20
0.4615354330708661
11
3.1794094488188978
21
0.4615354330708661
0
LINE
8
BLACK
6
CONTINUOUS
10
3.1794094488188978
20
0.4615354330708661
11
3.1794094488188978
21
0.5284645669291338
0
LINE
8
BLACK
6
CONTINUOUS
10
3.1794094488188978
20
0.5284645669291338
11
3.2305905511811024
21
0.5284645669291338
0
LINE
8
BLACK
6
CONTINUOUS
10
3.2305905511811024
20
0.5284645669291338
11
3.2305905511811024
21
0.4615354330708661
0
LINE
8
BLACK
6
CONTINUOUS
10
3.3683858267716533
20
0.4615354330708661
11
3.3172047244094487
21
0.4615354330708661
0
LINE
8
BLACK
6
CONTINUOUS
10
3.3172047244094487
20
0.4615354330708661
11
3.3172047244094487
21
0.5284645669291338
0
LINE
8
BLACK
6
CONTINUOUS
10
3.3172047244094487
20
0.5284645669291338
11
3.3683858267716533
21
0.5284645669291338
0
LINE
8
BLACK
6
CONTINUOUS
10
3.3683858267716533
20
0.5284645669291338
11
3.3683858267716533
21
0.4615354330708661
0
LINE
8
BLACK
6
CONTINUOUS
10
2.7624999999999997
20
0.4625
11
2.7075
21
0.4625
0
LINE
8
BLACK
6
CONTINUOUS
10
2.7075
20
0.4625
11
2.7075
21
0.4975
0
LINE
8
BLACK
6
CONTINUOUS
10
2.7075
20
0.4975
11
2.7624999999999997
21
0.4975
0
LINE
8
BLACK
6
CONTINUOUS
10
2.7624999999999997
20
0.4975
11
2.7624999999999997
21
0.4625
0
LINE
8
BLACK
6
CONTINUOUS
10
2.8574999999999999
20
0.465
11
2.8024999999999998
21
0.465
0
LINE
8
BLACK
6
CONTINUOUS
10
2.8024999999999998
20
0.465
11
2.8024999999999998
21
0.5
0
LINE
8
BLACK
6
CONTINUOUS
10
2.8024999999999998
20
0.5
11
2.8574999999999999
21
0.5
0
LINE
8
BLACK
6
CONTINUOUS
10
2.8574999999999999
20
0.5
11
2.8574999999999999
21
0.465
0
LINE
8
BLACK
6
CONTINUOUS
10
2.5792519685039368
20
0.4674015748031496
11
2.5375196850393702
21
0.4674015748031496
0
LINE
8
BLACK
6
CONTINUOUS
10
2.5375196850393702
20
0.4674015748031496
11
2.5375196850393702
21
0.492992125984252
0
LINE
8
BLACK
6
CONTINUOUS
10
2.5375196850393702
20
0.492992125984252
11
2.5792519685039368
21
0.492992125984252
0
LINE
8
BLACK
6
CONTINUOUS
10
2.5792519685039368
20
0.492992125984252
11
2.5792519685039368
21
0.4674015748031496
0
LINE
8
BLACK
6
CONTINUOUS
10
2.6658661417322835
20
0.4674015748031496
11
2.6241338582677165
21
0.4674015748031496
0
LINE
8
BLACK
6
CONTINUOUS
10
2.6241338582677165
20
0.4674015748031496
11
2.6241338582677165
21
0.492992125984252
0
LINE
8
BLACK
6
CONTINUOUS
10
2.6241338582677165
20
0.492992125984252
11
2.6658661417322835
21
0.492992125984252
0
LINE
8
BLACK
6
CONTINUOUS
10
2.6658661417322835
20
0.492992125984252
11
2.6658661417322835
21
0.4674015748031496
0
LINE
8
BLACK
6
CONTINUOUS
10
2.4824999999999999
20
0.47
11
2.4274999999999998
21
0.47
0
LINE
8
BLACK
6
CONTINUOUS
10
2.4274999999999998
20
0.47
11
2.4274999999999998
21
0.505
0
LINE
8
BLACK
6
CONTINUOUS
10
2.4274999999999998
20
0.505
11
2.4824999999999999
21
0.505
0
LINE
8
BLACK
6
CONTINUOUS
10
2.4824999999999999
20
0.505
11
2.4824999999999999
21
0.47
0
LINE
8
BLACK
6
CONTINUOUS
10
2.3925000000000001
20
0.4725
11
2.3374999999999999
21
0.4725
0
LINE
8
BLACK
6
CONTINUOUS
10
2.3374999999999999
20
0.4725
11
2.3374999999999999
21
0.5075
0
LINE
8
BLACK
6
CONTINUOUS
10
2.3374999999999999
20
0.5075
11
2.3925000000000001
21
0.5075
0
LINE
8
BLACK
6
CONTINUOUS
10
2.3925000000000001
20
0.5075
11
2.3925000000000001
21
0.4725
0
LINE
8
BLACK
6
CONTINUOUS
10
2.9374409448818897
20
0.4754724409448819
11
2.886259842519685
21
0.4754724409448819
0
LINE
8
BLACK
6
CONTINUOUS
10
2.886259842519685
20
0.4754724409448819
11
2.886259842519685
21
0.5345275590551181
0
LINE
8
BLACK
6
CONTINUOUS
10
2.886259842519685
20
0.5345275590551181
11
2.9374409448818897
21
0.5345275590551181
0
LINE
8
BLACK
6
CONTINUOUS
10
2.9374409448818897
20
0.5345275590551181
11
2.9374409448818897
21
0.4754724409448819
0
LINE
8
BLACK
6
CONTINUOUS
10
3.0437401574803147
20
0.4754724409448819
11
2.99255905511811
21
0.4754724409448819
0
LINE
8
BLACK
6
CONTINUOUS
10
2.99255905511811
20
0.4754724409448819
11
2.99255905511811
21
0.5345275590551181
0
LINE
8
BLACK
6
CONTINUOUS
10
2.99255905511811
20
0.5345275590551181
11
3.0437401574803147
21
0.5345275590551181
0
LINE
8
BLACK
6
CONTINUOUS
10
3.0437401574803147
20
0.5345275590551181
11
3.0437401574803147
21
0.4754724409448819
0
LINE
8
BLACK
6
CONTINUOUS
10
2.2745275590551182
20
0.481259842519685
11
2.215472440944882
21
0.481259842519685
0
LINE
8
BLACK
6
CONTINUOUS
10
2.215472440944882
20
0.481259842519685
11
2.215472440944882
21
0.5324409448818898
0
LINE
8
BLACK
6
CONTINUOUS
10
2.215472440944882
20
0.5324409448818898
11
2.2745275590551182
21
0.5324409448818898
0
LINE
8
BLACK
6
CONTINUOUS
10
2.2745275590551182
20
0.5324409448818898
11
2.2745275590551182
21
0.481259842519685
0
LINE
8
BLACK
6
CONTINUOUS
10
1.1237992125984251
20
0.4872637795275591
11
1.0887992125984252
21
0.4872637795275591
0
LINE
8
BLACK
6
CONTINUOUS
10
1.0887992125984252
20
0.4872637795275591
11
1.0887992125984252
21
0.542263779527559
0
LINE
8
BLACK
6
CONTINUOUS
10
1.0887992125984252
20
0.542263779527559
11
1.1237992125984251
21
0.542263779527559
0
LINE
8
BLACK
6
CONTINUOUS
10
1.1237992125984251
20
0.542263779527559
11
1.1237992125984251
21
0.4872637795275591
0
LINE
8
BLACK
6
CONTINUOUS
10
1.1987992125984253
20
0.4872637795275591
11
1.1637992125984251
21
0.4872637795275591
0
LINE
8
BLACK
6
CONTINUOUS
10
1.1637992125984251
20
0.4872637795275591
11
1.1637992125984251
21
0.542263779527559
0
LINE
8
BLACK
6
CONTINUOUS
10
1.1637992125984251
20
0.542263779527559
11
1.1987992125984253
21
0.542263779527559
0
LINE
8
BLACK
6
CONTINUOUS
10
1.1987992125984253
20
0.542263779527559
11
1.1987992125984253
21
0.4872637795275591
0
LINE
8
BLACK
6
CONTINUOUS
10
2.6658661417322835
20
0.5048031496062992
11
2.6241338582677165
21
0.5048031496062992
0
LINE
8
BLACK
6
CONTINUOUS
10
2.6241338582677165
20
0.5048031496062992
11
2.6241338582677165
21
0.5303937007874016
0
LINE
8
BLACK
6
CONTINUOUS
10
2.6241338582677165
20
0.5303937007874016
11
2.6658661417322835
21
0.5303937007874016
0
LINE
8
BLACK
6
CONTINUOUS
10
2.6658661417322835
20
0.5303937007874016
11
2.6658661417322835
21
0.5048031496062992
0
LINE
8
BLACK
6
CONTINUOUS
10
2.1475
20
0.52
11
2.0924999999999998
21
0.52
0
LINE
8
BLACK
6
CONTINUOUS
10
2.0924999999999998
20
0.52
11
2.0924999999999998
21
0.5549999999999999
0
LINE
8
BLACK
6
CONTINUOUS
10
2.0924999999999998
20
0.5549999999999999
11
2.1475
21
0.5549999999999999
0
LINE
8
BLACK
6
CONTINUOUS
10
2.1475
20
0.5549999999999999
11
2.1475
21
0.52
0
LINE
8
BLACK
6
CONTINUOUS
10
3.1324999999999998
20
0.535
11
3.0775000000000001
21
0.535
0
LINE
8
BLACK
6
CONTINUOUS
10
3.0775000000000001
20
0.535
11
3.0775000000000001
21
0.57
0
LINE
8
BLACK
6
CONTINUOUS
10
3.0775000000000001
20
0.57
11
3.1324999999999998
21
0.57
0
LINE
8
BLACK
6
CONTINUOUS
10
3.1324999999999998
20
0.57
11
3.1324999999999998
21
0.535
0
LINE
8
BLACK
6
CONTINUOUS
10
2.7624999999999997
20
0.5375
11
2.7075
21
0.5375
0
LINE
8
BLACK
6
CONTINUOUS
10
2.7075
20
0.5375
11
2.7075
21
0.5725
0
LINE
8
BLACK
6
CONTINUOUS
10
2.7075
20
0.5725
11
2.7624999999999997
21
0.5725
0
LINE
8
BLACK
6
CONTINUOUS
10
2.7624999999999997
20
0.5725
11
2.7624999999999997
21
0.5375
0
LINE
8
BLACK
6
CONTINUOUS
10
2.8574999999999999
20
0.54
11
2.8024999999999998
21
0.54
0
LINE
8
BLACK
6
CONTINUOUS
10
2.8024999999999998
20
0.54
11
2.8024999999999998
21
0.575
0
LINE
8
BLACK
6
CONTINUOUS
10
2.8024999999999998
20
0.575
11
2.8574999999999999
21
0.575
0
LINE
8
BLACK
6
CONTINUOUS
10
2.8574999999999999
20
0.575
11
2.8574999999999999
21
0.54
0
LINE
8
BLACK
6
CONTINUOUS
10
2.5792519685039368
20
0.5422047244094488
11
2.5375196850393702
21
0.5422047244094488
0
LINE
8
BLACK
6
CONTINUOUS
10
2.5375196850393702
20
0.5422047244094488
11
2.5375196850393702
21
0.5677952755905512
0
LINE
8
BLACK
6
CONTINUOUS
10
2.5375196850393702
20
0.5677952755905512
11
2.5792519685039368
21
0.5677952755905512
0
LINE
8
BLACK
6
CONTINUOUS
10
2.5792519685039368
20
0.5677952755905512
11
2.5792519685039368
21
0.5422047244094488
0
LINE
8
BLACK
6
CONTINUOUS
10
2.6658661417322835
20
0.5422047244094488
11
2.6241338582677165
21
0.5422047244094488
0
LINE
8
BLACK
6
CONTINUOUS
10
2.6241338582677165
20
0.5422047244094488
11
2.6241338582677165
21
0.5677952755905512
0
LINE
8
BLACK
6
CONTINUOUS
10
2.6241338582677165
20
0.5677952755905512
11
2.6658661417322835
21
0.5677952755905512
0
LINE
8
BLACK
6
CONTINUOUS
10
2.6658661417322835
20
0.5677952755905512
11
2.6658661417322835
21
0.5422047244094488
0
LINE
8
BLACK
6
CONTINUOUS
10
2.4824999999999999
20
0.545
11
2.4274999999999998
21
0.545
0
LINE
8
BLACK
6
CONTINUOUS
10
2.4274999999999998
20
0.545
11
2.4274999999999998
21
0.58
0
LINE
8
BLACK
6
CONTINUOUS
10
2.4274999999999998
20
0.58
11
2.4824999999999999
21
0.58
0
LINE
8
BLACK
6
CONTINUOUS
10
2.4824999999999999
20
0.58
11
2.4824999999999999
21
0.545
0
LINE
8
BLACK
6
CONTINUOUS
10
2.3040551181102362
20
0.5462204724409448
11
2.1859448818897635
21
0.5462204724409448
0
LINE
8
BLACK
6
CONTINUOUS
10
2.1859448818897635
20
0.5462204724409448
11
2.1859448818897635
21
0.5737795275590551
0
LINE
8
BLACK
6
CONTINUOUS
10
2.1859448818897635
20
0.5737795275590551
11
2.3040551181102362
21
0.5737795275590551
0
LINE
8
BLACK
6
CONTINUOUS
10
2.3040551181102362
20
0.5737795275590551
11
2.3040551181102362
21
0.5462204724409448
0
LINE
8
BLACK
6
CONTINUOUS
10
2.3925000000000001
20
0.5475
11
2.3374999999999999
21
0.5475
0
LINE
8
BLACK
6
CONTINUOUS
10
2.3374999999999999
20
0.5475
11
2.3374999999999999
21
0.5825
0
LINE
8
BLACK
6
CONTINUOUS
10
2.3374999999999999
20
0.5825
11
2.3925000000000001
21
0.5825
0
LINE
8
BLACK
6
CONTINUOUS
10
2.3925000000000001
20
0.5825
11
2.3925000000000001
21
0.5475
0
LINE
8
BLACK
6
CONTINUOUS
10
3.3005905511811022
20
0.5615354330708662
11
3.2494094488188976
21
0.5615354330708662
0
LINE
8
BLACK
6
CONTINUOUS
10
3.2494094488188976
20
0.5615354330708662
11
3.2494094488188976
21
0.6284645669291339
0
LINE
8
BLACK
6
CONTINUOUS
10
3.2494094488188976
20
0.6284645669291339
11
3.3005905511811022
21
0.6284645669291339
0
LINE
8
BLACK
6
CONTINUOUS
10
3.3005905511811022
20
0.6284645669291339
11
3.3005905511811022
21
0.5615354330708662
0
LINE
8
BLACK
6
CONTINUOUS
10
3.4383858267716536
20
0.5615354330708662
11
3.3872047244094485
21
0.5615354330708662
0
LINE
8
BLACK
6
CONTINUOUS
10
3.3872047244094485
20
0.5615354330708662
11
3.3872047244094485
21
0.6284645669291339
0
LINE
8
BLACK
6
CONTINUOUS
10
3.3872047244094485
20
0.6284645669291339
11
3.4383858267716536
21
0.6284645669291339
0
LINE
8
BLACK
6
CONTINUOUS
10
3.4383858267716536
20
0.6284645669291339
11
3.4383858267716536
21
0.5615354330708662
0
LINE
8
BLACK
6
CONTINUOUS
10
1.8543700787401574
20
0.572007874015748
11
1.8149999999999999
21
0.572007874015748
0
LINE
8
BLACK
6
CONTINUOUS
10
1.8149999999999999
20
0.572007874015748
11
1.8149999999999999
21
0.7216141732283464
0
LINE
8
BLACK
6
CONTINUOUS
10
1.8149999999999999
20
0.7216141732283464
11
1.8543700787401574
21
0.7216141732283464
0
LINE
8
BLACK
6
CONTINUOUS
10
1.8543700787401574
20
0.7216141732283464
11
1.8543700787401574
21
0.572007874015748
0
LINE
8
BLACK
6
CONTINUOUS
10
3.578779527559055
20
0.572007874015748
11
3.5394094488188976
21
0.572007874015748
0
LINE
8
BLACK
6
CONTINUOUS
10
3.5394094488188976
20
0.572007874015748
11
3.5394094488188976
21
0.7216141732283464
0
LINE
8
BLACK
6
CONTINUOUS
10
3.5394094488188976
20
0.7216141732283464
11
3.578779527559055
21
0.7216141732283464
0
LINE
8
BLACK
6
CONTINUOUS
10
3.578779527559055
20
0.7216141732283464
11
3.578779527559055
21
0.572007874015748
0
LINE
8
BLACK
6
CONTINUOUS
10
0.0580314960629921
20
0.5744094488188977
11
0.0186614173228346
21
0.5744094488188977
0
LINE
8
BLACK
6
CONTINUOUS
10
0.0186614173228346
20
0.5744094488188977
11
0.0186614173228346
21
0.724015748031496
0
LINE
8
BLACK
6
CONTINUOUS
10
0.0186614173228346
20
0.724015748031496
11
0.0580314960629921
21
0.724015748031496
0
LINE
8
BLACK
6
CONTINUOUS
10
0.0580314960629921
20
0.724015748031496
11
0.0580314960629921
21
0.5744094488188977
0
LINE
8
BLACK
6
CONTINUOUS
10
1.7824409448818896
20
0.5744094488188977
11
1.7430708661417322
21
0.5744094488188977
0
LINE
8
BLACK
6
CONTINUOUS
10
1.7430708661417322
20
0.5744094488188977
11
1.7430708661417322
21
0.724015748031496
0
LINE
8
BLACK
6
CONTINUOUS
10
1.7430708661417322
20
0.724015748031496
11
1.7824409448818896
21
0.724015748031496
0
LINE
8
BLACK
6
CONTINUOUS
10
1.7824409448818896
20
0.724015748031496
11
1.7824409448818896
21
0.5744094488188977
0
LINE
8
BLACK
6
CONTINUOUS
10
2.978779527559055
20
0.5859448818897638
11
2.9512204724409448
21
0.5859448818897638
0
LINE
8
BLACK
6
CONTINUOUS
10
2.9512204724409448
20
0.5859448818897638
11
2.9512204724409448
21
0.7040551181102362
0
LINE
8
BLACK
6
CONTINUOUS
10
2.9512204724409448
20
0.7040551181102362
11
2.978779527559055
21
0.7040551181102362
0
LINE
8
BLACK
6
CONTINUOUS
10
2.978779527559055
20
0.7040551181102362
11
2.978779527559055
21
0.5859448818897638
0
LINE
8
BLACK
6
CONTINUOUS
10
2.2745275590551182
20
0.5875590551181102
11
2.215472440944882
21
0.5875590551181102
0
LINE
8
BLACK
6
CONTINUOUS
10
2.215472440944882
20
0.5875590551181102
11
2.215472440944882
21
0.638740157480315
0
LINE
8
BLACK
6
CONTINUOUS
10
2.215472440944882
20
0.638740157480315
11
2.2745275590551182
21
0.638740157480315
0
LINE
8
BLACK
6
CONTINUOUS
10
2.2745275590551182
20
0.638740157480315
11
2.2745275590551182
21
0.5875590551181102
0
LINE
8
BLACK
6
CONTINUOUS
10
1.0320992125984252
20
0.590563779527559
11
0.9316992125984251
21
0.590563779527559
0
LINE
8
BLACK
6
CONTINUOUS
10
0.9316992125984251
20
0.590563779527559
11
0.9316992125984251
21
0.6889637795275591
0
LINE
8
BLACK
6
CONTINUOUS
10
0.9316992125984251
20
0.6889637795275591
11
1.0320992125984252
21
0.6889637795275591
0
LINE
8
BLACK
6
CONTINUOUS
10
1.0320992125984252
20
0.6889637795275591
11
1.0320992125984252
21
0.590563779527559
0
LINE
8
BLACK
6
CONTINUOUS
10
1.2308992125984253
20
0.590563779527559
11
1.1304992125984252
21
0.590563779527559
0
LINE
8
BLACK
6
CONTINUOUS
10
1.1304992125984252
20
0.590563779527559
11
1.1304992125984252
21
0.6889637795275591
0
LINE
8
BLACK
6
CONTINUOUS
10
1.1304992125984252
20
0.6889637795275591
11
1.2308992125984253
21
0.6889637795275591
0
LINE
8
BLACK
6
CONTINUOUS
10
1.2308992125984253
20
0.6889637795275591
11
1.2308992125984253
21
0.590563779527559
0
LINE
8
BLACK
6
CONTINUOUS
10
3.1324999999999998
20
0.5925
11
3.0775000000000001
21
0.5925
0
LINE
8
BLACK
6
CONTINUOUS
10
3.0775000000000001
20
0.5925
11
3.0775000000000001
21
0.6274999999999999
0
LINE
8
BLACK
6
CONTINUOUS
10
3.0775000000000001
20
0.6274999999999999
11
3.1324999999999998
21
0.6274999999999999
0
LINE
8
BLACK
6
CONTINUOUS
10
3.1324999999999998
20
0.6274999999999999
11
3.1324999999999998
21
0.5925
0
LINE
8
BLACK
6
CONTINUOUS
10
2.1475
20
0.595
11
2.0924999999999998
21
0.595
0
LINE
8
BLACK
6
CONTINUOUS
10
2.0924999999999998
20
0.595
11
2.0924999999999998
21
0.63
0
LINE
8
BLACK
6
CONTINUOUS
10
2.0924999999999998
20
0.63
11
2.1475
21
0.63
0
LINE
8
BLACK
6
CONTINUOUS
10
2.1475
20
0.63
11
2.1475
21
0.595
0
LINE
8
BLACK
6
CONTINUOUS
10
1.6087992125984252
20
0.609763779527559
11
1.5537992125984252
21
0.609763779527559
0
LINE
8
BLACK
6
CONTINUOUS
10
1.5537992125984252
20
0.609763779527559
11
1.5537992125984252
21
0.644763779527559
0
LINE
8
BLACK
6
CONTINUOUS
10
1.5537992125984252
20
0.644763779527559
11
1.6087992125984252
21
0.644763779527559
0
LINE
8
BLACK
6
CONTINUOUS
10
1.6087992125984252
20
0.644763779527559
11
1.6087992125984252
21
0.609763779527559
0
LINE
8
BLACK
6
CONTINUOUS
10
1.7087992125984253
20
0.609763779527559
11
1.6537992125984251
21
0.609763779527559
0
LINE
8
BLACK
6
CONTINUOUS
10
1.6537992125984251
20
0.609763779527559
11
1.6537992125984251
21
0.644763779527559
0
LINE
8
BLACK
6
CONTINUOUS
10
1.6537992125984251
20
0.644763779527559
11
1.7087992125984253
21
0.644763779527559
0
LINE
8
BLACK
6
CONTINUOUS
10
1.7087992125984253
20
0.644763779527559
11
1.7087992125984253
21
0.609763779527559
0
LINE
8
BLACK
6
CONTINUOUS
10
2.6108531889763777
20
0.666809842519685
11
2.6140463385826771
21
0.6646762598425197
0
LINE
8
BLACK
6
CONTINUOUS
10
2.6140463385826771
20
0.6646762598425197
11
2.6161799212598424
21
0.6614831102362204
0
LINE
8
BLACK
6
CONTINUOUS
10
2.6161799212598424
20
0.6614831102362204
11
2.6169291338582679
21
0.6577165354330708
0
LINE
8
BLACK
6
CONTINUOUS
10
2.6169291338582679
20
0.6577165354330708
11
2.6169291338582679
21
0.6222834645669291
0
LINE
8
BLACK
6
CONTINUOUS
10
2.6169291338582679
20
0.6222834645669291
11
2.6161799212598424
21
0.6185168897637795
0
LINE
8
BLACK
6
CONTINUOUS
10
2.6161799212598424
20
0.6185168897637795
11
2.6140463385826771
21
0.6153237401574803
0
LINE
8
BLACK
6
CONTINUOUS
10
2.6140463385826771
20
0.6153237401574803
11
2.6108531889763777
21
0.6131901574803149
0
LINE
8
BLACK
6
CONTINUOUS
10
2.6108531889763777
20
0.6131901574803149
11
2.6070866141732281
21
0.6124409448818897
0
LINE
8
BLACK
6
CONTINUOUS
10
2.6070866141732281
20
0.6124409448818897
11
2.5814960629921258
21
0.6124409448818897
0
LINE
8
BLACK
6
CONTINUOUS
10
2.5814960629921258
20
0.6124409448818897
11
2.5777294881889765
21
0.6131901574803149
0
LINE
8
BLACK
6
CONTINUOUS
10
2.5777294881889765
20
0.6131901574803149
11
2.5745363385826772
21
0.6153237401574803
0
LINE
8
BLACK
6
CONTINUOUS
10
2.5745363385826772
20
0.6153237401574803
11
2.5724027559055118
21
0.6185168897637795
0
LINE
8
BLACK
6
CONTINUOUS
10
2.5724027559055118
20
0.6185168897637795
11
2.5716535433070864
21
0.6222834645669291
0
LINE
8
BLACK
6
CONTINUOUS
10
2.5716535433070864
20
0.6222834645669291
11
2.5716535433070864
21
0.6577165354330708
0
LINE
8
BLACK
6
CONTINUOUS
10
2.5716535433070864
20
0.6577165354330708
11
2.5724027559055118
21
0.6614831102362204
0
LINE
8
BLACK
6
CONTINUOUS
10
2.5724027559055118
20
0.6614831102362204
11
2.5745363385826772
21
0.6646762598425197
0
LINE
8
BLACK
6
CONTINUOUS
10
2.5745363385826772
20
0.6646762598425197
11
2.5777294881889765
21
0.666809842519685
0
LINE
8
BLACK
6
CONTINUOUS
10
2.5777294881889765
20
0.666809842519685
11
2.5814960629921258
21
0.6675590551181102
0
LINE
8
BLACK
6
CONTINUOUS
10
2.5814960629921258
20
0.6675590551181102
11
2.6070866141732281
21
0.6675590551181102
0
LINE
8
BLACK
6
CONTINUOUS
10
2.6070866141732281
20
0.6675590551181102
11
2.6108531889763777
21
0.666809842519685
0
LINE
8
BLACK
6
CONTINUOUS
10
2.6915618503937009
20
0.666809842519685
11
2.6947549999999998
21
0.6646762598425197
0
LINE
8
BLACK
6
CONTINUOUS
10
2.6947549999999998
20
0.6646762598425197
11
2.6968885826771651
21
0.6614831102362204
0
LINE
8
BLACK
6
CONTINUOUS
10
2.6968885826771651
20
0.6614831102362204
11
2.6976377952755906
21
0.6577165354330708
0
LINE
8
BLACK
6
CONTINUOUS
10
2.6976377952755906
20
0.6577165354330708
11
2.6976377952755906
21
0.6222834645669291
0
LINE
8
BLACK
6
CONTINUOUS
10
2.6976377952755906
20
0.6222834645669291
11
2.6968885826771651
21
0.6185168897637795
0
LINE
8
BLACK
6
CONTINUOUS
10
2.6968885826771651
20
0.6185168897637795
11
2.6947549999999998
21
0.6153237401574803
0
LINE
8
BLACK
6
CONTINUOUS
10
2.6947549999999998
20
0.6153237401574803
11
2.6915618503937009
21
0.6131901574803149
0
LINE
8
BLACK
6
CONTINUOUS
10
2.6915618503937009
20
0.6131901574803149
11
2.6877952755905512
21
0.6124409448818897
0
LINE
8
BLACK
6
CONTINUOUS
10
2.6877952755905512
20
0.6124409448818897
11
2.6622047244094489
21
0.6124409448818897
0
LINE
8
BLACK
6
CONTINUOUS
10
2.6622047244094489
20
0.6124409448818897
11
2.6584381496062992
21
0.6131901574803149
0
LINE
8
BLACK
6
CONTINUOUS
10
2.6584381496062992
20
0.6131901574803149
11
2.6552449999999999
21
0.6153237401574803
0
LINE
8
BLACK
6
CONTINUOUS
10
2.6552449999999999
20
0.6153237401574803
11
2.6531114173228345
21
0.6185168897637795
0
LINE
8
BLACK
6
CONTINUOUS
10
2.6531114173228345
20
0.6185168897637795
11
2.6523622047244095
21
0.6222834645669291
0
LINE
8
BLACK
6
CONTINUOUS
10
2.6523622047244095
20
0.6222834645669291
11
2.6523622047244095
21
0.6577165354330708
0
LINE
8
BLACK
6
CONTINUOUS
10
2.6523622047244095
20
0.6577165354330708
11
2.6531114173228345
21
0.6614831102362204
0
LINE
8
BLACK
6
CONTINUOUS
10
2.6531114173228345
20
0.6614831102362204
11
2.6552449999999999
21
0.6646762598425197
0
LINE
8
BLACK
6
CONTINUOUS
10
2.6552449999999999
20
0.6646762598425197
11
2.6584381496062992
21
0.666809842519685
0
LINE
8
BLACK
6
CONTINUOUS
10
2.6584381496062992
20
0.666809842519685
11
2.6622047244094489
21
0.6675590551181102
0
LINE
8
BLACK
6
CONTINUOUS
10
2.6622047244094489
20
0.6675590551181102
11
2.6877952755905512
21
0.6675590551181102
0
LINE
8
BLACK
6
CONTINUOUS
10
2.6877952755905512
20
0.6675590551181102
11
2.6915618503937009
21
0.666809842519685
0
LINE
8
BLACK
6
CONTINUOUS
10
2.7650000000000001
20
0.6124999999999999
11
2.73
21
0.6124999999999999
0
LINE
8
BLACK
6
CONTINUOUS
10
2.73
20
0.6124999999999999
11
2.73
21
0.6675
0
LINE
8
BLACK
6
CONTINUOUS
10
2.73
20
0.6675
11
2.7650000000000001
21
0.6675
0
LINE
8
BLACK
6
CONTINUOUS
10
2.7650000000000001
20
0.6675
11
2.7650000000000001
21
0.6124999999999999
0
LINE
8
BLACK
6
CONTINUOUS
10
2.8399999999999999
20
0.6124999999999999
11
2.8049999999999997
21
0.6124999999999999
0
LINE
8
BLACK
6
CONTINUOUS
10
2.8049999999999997
20
0.6124999999999999
11
2.8049999999999997
21
0.6675
0
LINE
8
BLACK
6
CONTINUOUS
10
2.8049999999999997
20
0.6675
11
2.8399999999999999
21
0.6675
0
LINE
8
BLACK
6
CONTINUOUS
10
2.8399999999999999
20
0.6675
11
2.8399999999999999
21
0.6124999999999999
0
LINE
8
BLACK
6
CONTINUOUS
10
2.9374409448818897
20
0.6154724409448818
11
2.886259842519685
21
0.6154724409448818
0
LINE
8
BLACK
6
CONTINUOUS
10
2.886259842519685
20
0.6154724409448818
11
2.886259842519685
21
0.6745275590551181
0
LINE
8
BLACK
6
CONTINUOUS
10
2.886259842519685
20
0.6745275590551181
11
2.9374409448818897
21
0.6745275590551181
0
LINE
8
BLACK
6
CONTINUOUS
10
2.9374409448818897
20
0.6745275590551181
11
2.9374409448818897
21
0.6154724409448818
0
LINE
8
BLACK
6
CONTINUOUS
10
3.0437401574803147
20
0.6154724409448818
11
2.99255905511811
21
0.6154724409448818
0
LINE
8
BLACK
6
CONTINUOUS
10
2.99255905511811
20
0.6154724409448818
11
2.99255905511811
21
0.6745275590551181
0
LINE
8
BLACK
6
CONTINUOUS
10
2.99255905511811
20
0.6745275590551181
11
3.0437401574803147
21
0.6745275590551181
0
LINE
8
BLACK
6
CONTINUOUS
10
3.0437401574803147
20
0.6745275590551181
11
3.0437401574803147
21
0.6154724409448818
0
LINE
8
BLACK
6
CONTINUOUS
10
2.5375000000000001
20
0.62
11
2.4824999999999999
21
0.62
0
LINE
8
BLACK
6
CONTINUOUS
10
2.4824999999999999
20
0.62
11
2.4824999999999999
21
0.655
0
LINE
8
BLACK
6
CONTINUOUS
10
2.4824999999999999
20
0.655
11
2.5375000000000001
21
0.655
0
LINE
8
BLACK
6
CONTINUOUS
10
2.5375000000000001
20
0.655
11
2.5375000000000001
21
0.62
0
LINE
8
BLACK
6
CONTINUOUS
10
2.3625590551181102
20
0.6298031496062992
11
2.3208267716535431
21
0.6298031496062992
0
LINE
8
BLACK
6
CONTINUOUS
10
2.3208267716535431
20
0.6298031496062992
11
2.3208267716535431
21
0.6553937007874016
0
LINE
8
BLACK
6
CONTINUOUS
10
2.3208267716535431
20
0.6553937007874016
11
2.3625590551181102
21
0.6553937007874016
0
LINE
8
BLACK
6
CONTINUOUS
10
2.3625590551181102
20
0.6553937007874016
11
2.3625590551181102
21
0.6298031496062992
0
LINE
8
BLACK
6
CONTINUOUS
10
2.4491732283464565
20
0.6298031496062992
11
2.4074409448818899
21
0.6298031496062992
0
LINE
8
BLACK
6
CONTINUOUS
10
2.4074409448818899
20
0.6298031496062992
11
2.4074409448818899
21
0.6553937007874016
0
LINE
8
BLACK
6
CONTINUOUS
10
2.4074409448818899
20
0.6553937007874016
11
2.4491732283464565
21
0.6553937007874016
0
LINE
8
BLACK
6
CONTINUOUS
10
2.4491732283464565
20
0.6553937007874016
11
2.4491732283464565
21
0.6298031496062992
0
LINE
8
BLACK
6
CONTINUOUS
10
1.4362992125984251
20
0.662263779527559
11
1.4012992125984252
21
0.662263779527559
0
LINE
8
BLACK
6
CONTINUOUS
10
1.4012992125984252
20
0.662263779527559
11
1.4012992125984252
21
0.717263779527559
0
LINE
8
BLACK
6
CONTINUOUS
10
1.4012992125984252
20
0.717263779527559
11
1.4362992125984251
21
0.717263779527559
0
LINE
8
BLACK
6
CONTINUOUS
10
1.4362992125984251
20
0.717263779527559
11
1.4362992125984251
21
0.662263779527559
0
LINE
8
BLACK
6
CONTINUOUS
10
1.5112992125984253
20
0.662263779527559
11
1.4762992125984251
21
0.662263779527559
0
LINE
8
BLACK
6
CONTINUOUS
10
1.4762992125984251
20
0.662263779527559
11
1.4762992125984251
21
0.717263779527559
0
LINE
8
BLACK
6
CONTINUOUS
10
1.4762992125984251
20
0.717263779527559
11
1.5112992125984253
21
0.717263779527559
0
LINE
8
BLACK
6
CONTINUOUS
10
1.5112992125984253
20
0.717263779527559
11
1.5112992125984253
21
0.662263779527559
0
LINE
8
BLACK
6
CONTINUOUS
10
2.074527559055118
20
0.6662598425196851
11
2.0154724409448819
21
0.6662598425196851
0
LINE
8
BLACK
6
CONTINUOUS
10
2.0154724409448819
20
0.6662598425196851
11
2.0154724409448819
21
0.7174409448818897
0
LINE
8
BLACK
6
CONTINUOUS
10
2.0154724409448819
20
0.7174409448818897
11
2.074527559055118
21
0.7174409448818897
0
LINE
8
BLACK
6
CONTINUOUS
10
2.074527559055118
20
0.7174409448818897
11
2.074527559055118
21
0.6662598425196851
0
LINE
8
BLACK
6
CONTINUOUS
10
2.4491732283464565
20
0.6672047244094488
11
2.4074409448818899
21
0.6672047244094488
0
LINE
8
BLACK
6
CONTINUOUS
10
2.4074409448818899
20
0.6672047244094488
11
2.4074409448818899
21
0.6927952755905512
0
LINE
8
BLACK
6
CONTINUOUS
10
2.4074409448818899
20
0.6927952755905512
11
2.4491732283464565
21
0.6927952755905512
0
LINE
8
BLACK
6
CONTINUOUS
10
2.4491732283464565
20
0.6927952755905512
11
2.4491732283464565
21
0.6672047244094488
0
LINE
8
BLACK
6
CONTINUOUS
10
3.1324999999999998
20
0.6675
11
3.0775000000000001
21
0.6675
0
LINE
8
BLACK
6
CONTINUOUS
10
3.0775000000000001
20
0.6675
11
3.0775000000000001
21
0.7025
0
LINE
8
BLACK
6
CONTINUOUS
10
3.0775000000000001
20
0.7025
11
3.1324999999999998
21
0.7025
0
LINE
8
BLACK
6
CONTINUOUS
10
3.1324999999999998
20
0.7025
11
3.1324999999999998
21
0.6675
0
LINE
8
BLACK
6
CONTINUOUS
10
3.3374999999999999
20
0.6675
11
3.3024999999999998
21
0.6675
0
LINE
8
BLACK
6
CONTINUOUS
10
3.3024999999999998
20
0.6675
11
3.3024999999999998
21
0.7225
0
LINE
8
BLACK
6
CONTINUOUS
10
3.3024999999999998
20
0.7225
11
3.3374999999999999
21
0.7225
0
LINE
8
BLACK
6
CONTINUOUS
10
3.3374999999999999
20
0.7225
11
3.3374999999999999
21
0.6675
0
LINE
8
BLACK
6
CONTINUOUS
10
3.4125000000000001
20
0.6675
11
3.3774999999999999
21
0.6675
0
LINE
8
BLACK
6
CONTINUOUS
10
3.3774999999999999
20
0.6675
11
3.3774999999999999
21
0.7225
0
LINE
8
BLACK
6
CONTINUOUS
10
3.3774999999999999
20
0.7225
11
3.4125000000000001
21
0.7225
0
LINE
8
BLACK
6
CONTINUOUS
10
3.4125000000000001
20
0.7225
11
3.4125000000000001
21
0.6675
0
LINE
8
BLACK
6
CONTINUOUS
10
1.6087992125984252
20
0.6847637795275591
11
1.5537992125984252
21
0.6847637795275591
0
LINE
8
BLACK
6
CONTINUOUS
10
1.5537992125984252
20
0.6847637795275591
11
1.5537992125984252
21
0.719763779527559
0
LINE
8
BLACK
6
CONTINUOUS
10
1.5537992125984252
20
0.719763779527559
11
1.6087992125984252
21
0.719763779527559
0
LINE
8
BLACK
6
CONTINUOUS
10
1.6087992125984252
20
0.719763779527559
11
1.6087992125984252
21
0.6847637795275591
0
LINE
8
BLACK
6
CONTINUOUS
10
1.7087992125984253
20
0.6847637795275591
11
1.6537992125984251
21
0.6847637795275591
0
LINE
8
BLACK
6
CONTINUOUS
10
1.6537992125984251
20
0.6847637795275591
11
1.6537992125984251
21
0.719763779527559
0
LINE
8
BLACK
6
CONTINUOUS
10
1.6537992125984251
20
0.719763779527559
11
1.7087992125984253
21
0.719763779527559
0
LINE
8
BLACK
6
CONTINUOUS
10
1.7087992125984253
20
0.719763779527559
11
1.7087992125984253
21
0.6847637795275591
0
LINE
8
BLACK
6
CONTINUOUS
10
1.9524999999999999
20
0.6849999999999999
11
1.8975
21
0.6849999999999999
0
LINE
8
BLACK
6
CONTINUOUS
10
1.8975
20
0.6849999999999999
11
1.8975
21
0.72
0
LINE
8
BLACK
6
CONTINUOUS
10
1.8975
20
0.72
11
1.9524999999999999
21
0.72
0
LINE
8
BLACK
6
CONTINUOUS
10
1.9524999999999999
20
0.72
11
1.9524999999999999
21
0.6849999999999999
0
LINE
8
BLACK
6
CONTINUOUS
10
2.1924999999999999
20
0.6875
11
2.1374999999999997
21
0.6875
0
LINE
8
BLACK
6
CONTINUOUS
10
2.1374999999999997
20
0.6875
11
2.1374999999999997
21
0.7225
0
LINE
8
BLACK
6
CONTINUOUS
10
2.1374999999999997
20
0.7225
11
2.1924999999999999
21
0.7225
0
LINE
8
BLACK
6
CONTINUOUS
10
2.1924999999999999
20
0.7225
11
2.1924999999999999
21
0.6875
0
LINE
8
BLACK
6
CONTINUOUS
10
2.2774999999999999
20
0.6875
11
2.2225000000000001
21
0.6875
0
LINE
8
BLACK
6
CONTINUOUS
10
2.2225000000000001
20
0.6875
11
2.2225000000000001
21
0.7225
0
LINE
8
BLACK
6
CONTINUOUS
10
2.2225000000000001
20
0.7225
11
2.2774999999999999
21
0.7225
0
LINE
8
BLACK
6
CONTINUOUS
10
2.2774999999999999
20
0.7225
11
2.2774999999999999
21
0.6875
0
LINE
8
BLACK
6
CONTINUOUS
10
2.5375000000000001
20
0.695
11
2.4824999999999999
21
0.695
0
LINE
8
BLACK
6
CONTINUOUS
10
2.4824999999999999
20
0.695
11
2.4824999999999999
21
0.73
0
LINE
8
BLACK
6
CONTINUOUS
10
2.4824999999999999
20
0.73
11
2.5375000000000001
21
0.73
0
LINE
8
BLACK
6
CONTINUOUS
10
2.5375000000000001
20
0.73
11
2.5375000000000001
21
0.695
0
LINE
8
BLACK
6
CONTINUOUS
10
2.8624999999999998
20
0.695
11
2.8075000000000001
21
0.695
0
LINE
8
BLACK
6
CONTINUOUS
10
2.8075000000000001
20
0.695
11
2.8075000000000001
21
0.73
0
LINE
8
BLACK
6
CONTINUOUS
10
2.8075000000000001
20
0.73
11
2.8624999999999998
21
0.73
0
LINE
8
BLACK
6
CONTINUOUS
10
2.8624999999999998
20
0.73
11
2.8624999999999998
21
0.695
0
LINE
8
BLACK
6
CONTINUOUS
10
2.3625590551181102
20
0.7046062992125984
11
2.3208267716535431
21
0.7046062992125984
0
LINE
8
BLACK
6
CONTINUOUS
10
2.3208267716535431
20
0.7046062992125984
11
2.3208267716535431
21
0.7301968503937007
0
LINE
8
BLACK
6
CONTINUOUS
10
2.3208267716535431
20
0.7301968503937007
11
2.3625590551181102
21
0.7301968503937007
0
LINE
8
BLACK
6
CONTINUOUS
10
2.3625590551181102
20
0.7301968503937007
11
2.3625590551181102
21
0.7046062992125984
0
LINE
8
BLACK
6
CONTINUOUS
10
2.4491732283464565
20
0.7046062992125984
11
2.4074409448818899
21
0.7046062992125984
0
LINE
8
BLACK
6
CONTINUOUS
10
2.4074409448818899
20
0.7046062992125984
11
2.4074409448818899
21
0.7301968503937007
0
LINE
8
BLACK
6
CONTINUOUS
10
2.4074409448818899
20
0.7301968503937007
11
2.4491732283464565
21
0.7301968503937007
0
LINE
8
BLACK
6
CONTINUOUS
10
2.4491732283464565
20
0.7301968503937007
11
2.4491732283464565
21
0.7046062992125984
0
LINE
8
BLACK
6
CONTINUOUS
10
0.4237992125984252
20
0.714763779527559
11
0.3687992125984252
21
0.714763779527559
0
LINE
8
BLACK
6
CONTINUOUS
10
0.3687992125984252
20
0.714763779527559
11
0.3687992125984252
21
0.749763779527559
0
LINE
8
BLACK
6
CONTINUOUS
10
0.3687992125984252
20
0.749763779527559
11
0.4237992125984252
21
0.749763779527559
0
LINE
8
BLACK
6
CONTINUOUS
10
0.4237992125984252
20
0.749763779527559
11
0.4237992125984252
21
0.714763779527559
0
LINE
8
BLACK
6
CONTINUOUS
10
0.5852755905511811
20
0.7166141732283464
11
0.5498425196850394
21
0.7166141732283464
0
LINE
8
BLACK
6
CONTINUOUS
10
0.5498425196850394
20
0.7166141732283464
11
0.5498425196850394
21
0.7481102362204725
0
LINE
8
BLACK
6
CONTINUOUS
10
0.5498425196850394
20
0.7481102362204725
11
0.5852755905511811
21
0.7481102362204725
0
LINE
8
BLACK
6
CONTINUOUS
10
0.5852755905511811
20
0.7481102362204725
11
0.5852755905511811
21
0.7166141732283464
0
LINE
8
BLACK
6
CONTINUOUS
10
2.6425000000000001
20
0.7225
11
2.6074999999999999
21
0.7225
0
LINE
8
BLACK
6
CONTINUOUS
10
2.6074999999999999
20
0.7225
11
2.6074999999999999
21
0.7775
0
LINE
8
BLACK
6
CONTINUOUS
10
2.6074999999999999
20
0.7775
11
2.6425000000000001
21
0.7775
0
LINE
8
BLACK
6
CONTINUOUS
10
2.6425000000000001
20
0.7775
11
2.6425000000000001
21
0.7225
0
LINE
8
BLACK
6
CONTINUOUS
10
2.7174999999999998
20
0.7225
11
2.6825000000000001
21
0.7225
0
LINE
8
BLACK
6
CONTINUOUS
10
2.6825000000000001
20
0.7225
11
2.6825000000000001
21
0.7775
0
LINE
8
BLACK
6
CONTINUOUS
10
2.6825000000000001
20
0.7775
11
2.7174999999999998
21
0.7775
0
LINE
8
BLACK
6
CONTINUOUS
10
2.7174999999999998
20
0.7775
11
2.7174999999999998
21
0.7225
0
LINE
8
BLACK
6
CONTINUOUS
10
2.104055118110236
20
0.7312204724409449
11
1.9859448818897638
21
0.7312204724409449
0
LINE
8
BLACK
6
CONTINUOUS
10
1.9859448818897638
20
0.7312204724409449
11
1.9859448818897638
21
0.7587795275590551
0
LINE
8
BLACK
6
CONTINUOUS
10
1.9859448818897638
20
0.7587795275590551
11
2.104055118110236
21
0.7587795275590551
0
LINE
8
BLACK
6
CONTINUOUS
10
2.104055118110236
20
0.7587795275590551
11
2.104055118110236
21
0.7312204724409449
0
LINE
8
BLACK
6
CONTINUOUS
10
2.9396850393700786
20
0.7345669291338582
11
2.9003149606299212
21
0.7345669291338582
0
LINE
8
BLACK
6
CONTINUOUS
10
2.9003149606299212
20
0.7345669291338582
11
2.9003149606299212
21
0.8054330708661417
0
LINE
8
BLACK
6
CONTINUOUS
10
2.9003149606299212
20
0.8054330708661417
11
2.9396850393700786
21
0.8054330708661417
0
LINE
8
BLACK
6
CONTINUOUS
10
2.9396850393700786
20
0.8054330708661417
11
2.9396850393700786
21
0.7345669291338582
0
LINE
8
BLACK
6
CONTINUOUS
10
3.0381102362204722
20
0.7345669291338582
11
2.9987401574803147
21
0.7345669291338582
0
LINE
8
BLACK
6
CONTINUOUS
10
2.9987401574803147
20
0.7345669291338582
11
2.9987401574803147
21
0.8054330708661417
0
LINE
8
BLACK
6
CONTINUOUS
10
2.9987401574803147
20
0.8054330708661417
11
3.0381102362204722
21
0.8054330708661417
0
LINE
8
BLACK
6
CONTINUOUS
10
3.0381102362204722
20
0.8054330708661417
11
3.0381102362204722
21
0.7345669291338582
0
LINE
8
BLACK
6
CONTINUOUS
10
0.6640157480314961
20
0.7540157480314961
11
0.6285826771653543
21
0.7540157480314961
0
LINE
8
BLACK
6
CONTINUOUS
10
0.6285826771653543
20
0.7540157480314961
11
0.6285826771653543
21
0.785511811023622
0
LINE
8
BLACK
6
CONTINUOUS
10
0.6285826771653543
20
0.785511811023622
11
0.6640157480314961
21
0.785511811023622
0
LINE
8
BLACK
6
CONTINUOUS
10
0.6640157480314961
20
0.785511811023622
11
0.6640157480314961
21
0.7540157480314961
0
LINE
8
BLACK
6
CONTINUOUS
10
3.3374999999999999
20
0.7575
11
3.3024999999999998
21
0.7575
0
LINE
8
BLACK
6
CONTINUOUS
10
3.3024999999999998
20
0.7575
11
3.3024999999999998
21
0.8125
0
LINE
8
BLACK
6
CONTINUOUS
10
3.3024999999999998
20
0.8125
11
3.3374999999999999
21
0.8125
0
LINE
8
BLACK
6
CONTINUOUS
10
3.3374999999999999
20
0.8125
11
3.3374999999999999
21
0.7575
0
LINE
8
BLACK
6
CONTINUOUS
10
3.4125000000000001
20
0.7575
11
3.3774999999999999
21
0.7575
0
LINE
8
BLACK
6
CONTINUOUS
10
3.3774999999999999
20
0.7575
11
3.3774999999999999
21
0.8125
0
LINE
8
BLACK
6
CONTINUOUS
10
3.3774999999999999
20
0.8125
11
3.4125000000000001
21
0.8125
0
LINE
8
BLACK
6
CONTINUOUS
10
3.4125000000000001
20
0.8125
11
3.4125000000000001
21
0.7575
0
LINE
8
BLACK
6
CONTINUOUS
10
1.4337992125984251
20
0.759763779527559
11
1.3787992125984252
21
0.759763779527559
0
LINE
8
BLACK
6
CONTINUOUS
10
1.3787992125984252
20
0.759763779527559
11
1.3787992125984252
21
0.7947637795275591
0
LINE
8
BLACK
6
CONTINUOUS
10
1.3787992125984252
20
0.7947637795275591
11
1.4337992125984251
21
0.7947637795275591
0
LINE
8
BLACK
6
CONTINUOUS
10
1.4337992125984251
20
0.7947637795275591
11
1.4337992125984251
21
0.759763779527559
0
LINE
8
BLACK
6
CONTINUOUS
10
1.9524999999999999
20
0.76
11
1.8975
21
0.76
0
LINE
8
BLACK
6
CONTINUOUS
10
1.8975
20
0.76
11
1.8975
21
0.7949999999999999
0
LINE
8
BLACK
6
CONTINUOUS
10
1.8975
20
0.7949999999999999
11
1.9524999999999999
21
0.7949999999999999
0
LINE
8
BLACK
6
CONTINUOUS
10
1.9524999999999999
20
0.7949999999999999
11
1.9524999999999999
21
0.76
0
LINE
8
BLACK
6
CONTINUOUS
10
2.4062075196850392
20
0.816809842519685
11
2.4094006692913386
21
0.8146762598425197
0
LINE
8
BLACK
6
CONTINUOUS
10
2.4094006692913386
20
0.8146762598425197
11
2.4115342519685039
21
0.8114831102362204
0
LINE
8
BLACK
6
CONTINUOUS
10
2.4115342519685039
20
0.8114831102362204
11
2.4122834645669289
21
0.8077165354330709
0
LINE
8
BLACK
6
CONTINUOUS
10
2.4122834645669289
20
0.8077165354330709
11
2.4122834645669289
21
0.7722834645669291
0
LINE
8
BLACK
6
CONTINUOUS
10
2.4122834645669289
20
0.7722834645669291
11
2.4115342519685039
21
0.7685168897637795
0
LINE
8
BLACK
6
CONTINUOUS
10
2.4115342519685039
20
0.7685168897637795
11
2.4094006692913386
21
0.7653237401574803
0
LINE
8
BLACK
6
CONTINUOUS
10
2.4094006692913386
20
0.7653237401574803
11
2.4062075196850392
21
0.7631901574803149
0
LINE
8
BLACK
6
CONTINUOUS
10
2.4062075196850392
20
0.7631901574803149
11
2.4024409448818895
21
0.7624409448818897
0
LINE
8
BLACK
6
CONTINUOUS
10
2.4024409448818895
20
0.7624409448818897
11
2.3768503937007872
21
0.7624409448818897
0
LINE
8
BLACK
6
CONTINUOUS
10
2.3768503937007872
20
0.7624409448818897
11
2.3730838188976375
21
0.7631901574803149
0
LINE
8
BLACK
6
CONTINUOUS
10
2.3730838188976375
20
0.7631901574803149
11
2.3698906692913386
21
0.7653237401574803
0
LINE
8
BLACK
6
CONTINUOUS
10
2.3698906692913386
20
0.7653237401574803
11
2.3677570866141733
21
0.7685168897637795
0
LINE
8
BLACK
6
CONTINUOUS
10
2.3677570866141733
20
0.7685168897637795
11
2.3670078740157479
21
0.7722834645669291
0
LINE
8
BLACK
6
CONTINUOUS
10
2.3670078740157479
20
0.7722834645669291
11
2.3670078740157479
21
0.8077165354330709
0
LINE
8
BLACK
6
CONTINUOUS
10
2.3670078740157479
20
0.8077165354330709
11
2.3677570866141733
21
0.8114831102362204
0
LINE
8
BLACK
6
CONTINUOUS
10
2.3677570866141733
20
0.8114831102362204
11
2.3698906692913386
21
0.8146762598425197
0
LINE
8
BLACK
6
CONTINUOUS
10
2.3698906692913386
20
0.8146762598425197
11
2.3730838188976375
21
0.816809842519685
0
LINE
8
BLACK
6
CONTINUOUS
10
2.3730838188976375
20
0.816809842519685
11
2.3768503937007872
21
0.8175590551181102
0
LINE
8
BLACK
6
CONTINUOUS
10
2.3768503937007872
20
0.8175590551181102
11
2.4024409448818895
21
0.8175590551181102
0
LINE
8
BLACK
6
CONTINUOUS
10
2.4024409448818895
20
0.8175590551181102
11
2.4062075196850392
21
0.816809842519685
0
LINE
8
BLACK
6
CONTINUOUS
10
2.4869161811023623
20
0.816809842519685
11
2.4901093307086613
21
0.8146762598425197
0
LINE
8
BLACK
6
CONTINUOUS
10
2.4901093307086613
20
0.8146762598425197
11
2.4922429133858266
21
0.8114831102362204
0
LINE
8
BLACK
6
CONTINUOUS
10
2.4922429133858266
20
0.8114831102362204
11
2.492992125984252
21
0.8077165354330709
0
LINE
8
BLACK
6
CONTINUOUS
10
2.492992125984252
20
0.8077165354330709
11
2.492992125984252
21
0.7722834645669291
0
LINE
8
BLACK
6
CONTINUOUS
10
2.492992125984252
20
0.7722834645669291
11
2.4922429133858266
21
0.7685168897637795
0
LINE
8
BLACK
6
CONTINUOUS
10
2.4922429133858266
20
0.7685168897637795
11
2.4901093307086613
21
0.7653237401574803
0
LINE
8
BLACK
6
CONTINUOUS
10
2.4901093307086613
20
0.7653237401574803
11
2.4869161811023623
21
0.7631901574803149
0
LINE
8
BLACK
6
CONTINUOUS
10
2.4869161811023623
20
0.7631901574803149
11
2.4831496062992127
21
0.7624409448818897
0
LINE
8
BLACK
6
CONTINUOUS
10
2.4831496062992127
20
0.7624409448818897
11
2.4575590551181103
21
0.7624409448818897
0
LINE
8
BLACK
6
CONTINUOUS
10
2.4575590551181103
20
0.7624409448818897
11
2.4537924803149607
21
0.7631901574803149
0
LINE
8
BLACK
6
CONTINUOUS
10
2.4537924803149607
20
0.7631901574803149
11
2.4505993307086613
21
0.7653237401574803
0
LINE
8
BLACK
6
CONTINUOUS
10
2.4505993307086613
20
0.7653237401574803
11
2.448465748031496
21
0.7685168897637795
0
LINE
8
BLACK
6
CONTINUOUS
10
2.448465748031496
20
0.7685168897637795
11
2.447716535433071
21
0.7722834645669291
0
LINE
8
BLACK
6
CONTINUOUS
10
2.447716535433071
20
0.7722834645669291
11
2.447716535433071
21
0.8077165354330709
0
LINE
8
BLACK
6
CONTINUOUS
10
2.447716535433071
20
0.8077165354330709
11
2.448465748031496
21
0.8114831102362204
0
LINE
8
BLACK
6
CONTINUOUS
10
2.448465748031496
20
0.8114831102362204
11
2.4505993307086613
21
0.8146762598425197
0
LINE
8
BLACK
6
CONTINUOUS
10
2.4505993307086613
20
0.8146762598425197
11
2.4537924803149607
21
0.816809842519685
0
LINE
8
BLACK
6
CONTINUOUS
10
2.4537924803149607
20
0.816809842519685
11
2.4575590551181103
21
0.8175590551181102
0
LINE
8
BLACK
6
CONTINUOUS
10
2.4575590551181103
20
0.8175590551181102
11
2.4831496062992127
21
0.8175590551181102
0
LINE
8
BLACK
6
CONTINUOUS
10
2.4831496062992127
20
0.8175590551181102
11
2.4869161811023623
21
0.816809842519685
0
LINE
8
BLACK
6
CONTINUOUS
10
2.1924999999999999
20
0.7625
11
2.1374999999999997
21
0.7625
0
LINE
8
BLACK
6
CONTINUOUS
10
2.1374999999999997
20
0.7625
11
2.1374999999999997
21
0.7975
0
LINE
8
BLACK
6
CONTINUOUS
10
2.1374999999999997
20
0.7975
11
2.1924999999999999
21
0.7975
0
LINE
8
BLACK
6
CONTINUOUS
10
2.1924999999999999
20
0.7975
11
2.1924999999999999
21
0.7625
0
LINE
8
BLACK
6
CONTINUOUS
10
2.2774999999999999
20
0.7625
11
2.2225000000000001
21
0.7625
0
LINE
8
BLACK
6
CONTINUOUS
10
2.2225000000000001
20
0.7625
11
2.2225000000000001
21
0.7975
0
LINE
8
BLACK
6
CONTINUOUS
10
2.2225000000000001
20
0.7975
11
2.2774999999999999
21
0.7975
0
LINE
8
BLACK
6
CONTINUOUS
10
2.2774999999999999
20
0.7975
11
2.2774999999999999
21
0.7625
0
LINE
8
BLACK
6
CONTINUOUS
10
1.6088582677165355
20
0.7645669291338583
11
1.5474409448818898
21
0.7645669291338583
0
LINE
8
BLACK
6
CONTINUOUS
10
1.5474409448818898
20
0.7645669291338583
11
1.5474409448818898
21
0.7901574803149606
0
LINE
8
BLACK
6
CONTINUOUS
10
1.5474409448818898
20
0.7901574803149606
11
1.6088582677165355
21
0.7901574803149606
0
LINE
8
BLACK
6
CONTINUOUS
10
1.6088582677165355
20
0.7901574803149606
11
1.6088582677165355
21
0.7645669291338583
0
LINE
8
BLACK
6
CONTINUOUS
10
1.7151574803149605
20
0.7645669291338583
11
1.653740157480315
21
0.7645669291338583
0
LINE
8
BLACK
6
CONTINUOUS
10
1.653740157480315
20
0.7645669291338583
11
1.653740157480315
21
0.7901574803149606
0
LINE
8
BLACK
6
CONTINUOUS
10
1.653740157480315
20
0.7901574803149606
11
1.7151574803149605
21
0.7901574803149606
0
LINE
8
BLACK
6
CONTINUOUS
10
1.7151574803149605
20
0.7901574803149606
11
1.7151574803149605
21
0.7645669291338583
0
LINE
8
BLACK
6
CONTINUOUS
10
2.8624999999999998
20
0.77
11
2.8075000000000001
21
0.77
0
LINE
8
BLACK
6
CONTINUOUS
10
2.8075000000000001
20
0.77
11
2.8075000000000001
21
0.8049999999999999
0
LINE
8
BLACK
6
CONTINUOUS
10
2.8075000000000001
20
0.8049999999999999
11
2.8624999999999998
21
0.8049999999999999
0
LINE
8
BLACK
6
CONTINUOUS
10
2.8624999999999998
20
0.8049999999999999
11
2.8624999999999998
21
0.77
0
LINE
8
BLACK
6
CONTINUOUS
10
2.074527559055118
20
0.7725590551181102
11
2.0154724409448819
21
0.7725590551181102
0
LINE
8
BLACK
6
CONTINUOUS
10
2.0154724409448819
20
0.7725590551181102
11
2.0154724409448819
21
0.8237401574803149
0
LINE
8
BLACK
6
CONTINUOUS
10
2.0154724409448819
20
0.8237401574803149
11
2.074527559055118
21
0.8237401574803149
0
LINE
8
BLACK
6
CONTINUOUS
10
2.074527559055118
20
0.8237401574803149
11
2.074527559055118
21
0.7725590551181102
0
LINE
8
BLACK
6
CONTINUOUS
10
0.4237992125984252
20
0.7897637795275591
11
0.3687992125984252
21
0.7897637795275591
0
LINE
8
BLACK
6
CONTINUOUS
10
0.3687992125984252
20
0.7897637795275591
11
0.3687992125984252
21
0.8247637795275591
0
LINE
8
BLACK
6
CONTINUOUS
10
0.3687992125984252
20
0.8247637795275591
11
0.4237992125984252
21
0.8247637795275591
0
LINE
8
BLACK
6
CONTINUOUS
10
0.4237992125984252
20
0.8247637795275591
11
0.4237992125984252
21
0.7897637795275591
0
LINE
8
BLACK
6
CONTINUOUS
10
0.5852755905511811
20
0.7914173228346456
11
0.5498425196850394
21
0.7914173228346456
0
LINE
8
BLACK
6
CONTINUOUS
10
0.5498425196850394
20
0.7914173228346456
11
0.5498425196850394
21
0.8229133858267716
0
LINE
8
BLACK
6
CONTINUOUS
10
0.5498425196850394
20
0.8229133858267716
11
0.5852755905511811
21
0.8229133858267716
0
LINE
8
BLACK
6
CONTINUOUS
10
0.5852755905511811
20
0.8229133858267716
11
0.5852755905511811
21
0.7914173228346456
0
LINE
8
BLACK
6
CONTINUOUS
10
1.6088582677165355
20
0.8019685039370078
11
1.5474409448818898
21
0.8019685039370078
0
LINE
8
BLACK
6
CONTINUOUS
10
1.5474409448818898
20
0.8019685039370078
11
1.5474409448818898
21
0.8275590551181102
0
LINE
8
BLACK
6
CONTINUOUS
10
1.5474409448818898
20
0.8275590551181102
11
1.6088582677165355
21
0.8275590551181102
0
LINE
8
BLACK
6
CONTINUOUS
10
1.6088582677165355
20
0.8275590551181102
11
1.6088582677165355
21
0.8019685039370078
0
LINE
8
BLACK
6
CONTINUOUS
10
2.6425000000000001
20
0.8025
11
2.6074999999999999
21
0.8025
0
LINE
8
BLACK
6
CONTINUOUS
10
2.6074999999999999
20
0.8025
11
2.6074999999999999
21
0.8574999999999999
0
LINE
8
BLACK
6
CONTINUOUS
10
2.6074999999999999
20
0.8574999999999999
11
2.6425000000000001
21
0.8574999999999999
0
LINE
8
BLACK
6
CONTINUOUS
10
2.6425000000000001
20
0.8574999999999999
11
2.6425000000000001
21
0.8025
0
LINE
8
BLACK
6
CONTINUOUS
10
2.7174999999999998
20
0.8025
11
2.6825000000000001
21
0.8025
0
LINE
8
BLACK
6
CONTINUOUS
10
2.6825000000000001
20
0.8025
11
2.6825000000000001
21
0.8574999999999999
0
LINE
8
BLACK
6
CONTINUOUS
10
2.6825000000000001
20
0.8574999999999999
11
2.7174999999999998
21
0.8574999999999999
0
LINE
8
BLACK
6
CONTINUOUS
10
2.7174999999999998
20
0.8574999999999999
11
2.7174999999999998
21
0.8025
0
LINE
8
BLACK
6
CONTINUOUS
10
1.8543700787401574
20
0.8082283464566929
11
1.8149999999999999
21
0.8082283464566929
0
LINE
8
BLACK
6
CONTINUOUS
10
1.8149999999999999
20
0.8082283464566929
11
1.8149999999999999
21
0.9578346456692913
0
LINE
8
BLACK
6
CONTINUOUS
10
1.8149999999999999
20
0.9578346456692913
11
1.8543700787401574
21
0.9578346456692913
0
LINE
8
BLACK
6
CONTINUOUS
10
1.8543700787401574
20
0.9578346456692913
11
1.8543700787401574
21
0.8082283464566929
0
LINE
8
BLACK
6
CONTINUOUS
10
3.578779527559055
20
0.8082283464566929
11
3.5394094488188976
21
0.8082283464566929
0
LINE
8
BLACK
6
CONTINUOUS
10
3.5394094488188976
20
0.8082283464566929
11
3.5394094488188976
21
0.9578346456692913
0
LINE
8
BLACK
6
CONTINUOUS
10
3.5394094488188976
20
0.9578346456692913
11
3.578779527559055
21
0.9578346456692913
0
LINE
8
BLACK
6
CONTINUOUS
10
3.578779527559055
20
0.9578346456692913
11
3.578779527559055
21
0.8082283464566929
0
LINE
8
BLACK
6
CONTINUOUS
10
0.0580314960629921
20
0.8106299212598425
11
0.0186614173228346
21
0.8106299212598425
0
LINE
8
BLACK
6
CONTINUOUS
10
0.0186614173228346
20
0.8106299212598425
11
0.0186614173228346
21
0.9602362204724409
0
LINE
8
BLACK
6
CONTINUOUS
10
0.0186614173228346
20
0.9602362204724409
11
0.0580314960629921
21
0.9602362204724409
0
LINE
8
BLACK
6
CONTINUOUS
10
0.0580314960629921
20
0.9602362204724409
11
0.0580314960629921
21
0.8106299212598425
0
LINE
8
BLACK
6
CONTINUOUS
10
1.7824409448818896
20
0.8106299212598425
11
1.7430708661417322
21
0.8106299212598425
0
LINE
8
BLACK
6
CONTINUOUS
10
1.7430708661417322
20
0.8106299212598425
11
1.7430708661417322
21
0.9602362204724409
0
LINE
8
BLACK
6
CONTINUOUS
10
1.7430708661417322
20
0.9602362204724409
11
1.7824409448818896
21
0.9602362204724409
0
LINE
8
BLACK
6
CONTINUOUS
10
1.7824409448818896
20
0.9602362204724409
11
1.7824409448818896
21
0.8106299212598425
0
LINE
8
BLACK
6
CONTINUOUS
10
0.2487992125984252
20
0.812263779527559
11
0.2137992125984252
21
0.812263779527559
0
LINE
8
BLACK
6
CONTINUOUS
10
0.2137992125984252
20
0.812263779527559
11
0.2137992125984252
21
0.8672637795275591
0
LINE
8
BLACK
6
CONTINUOUS
10
0.2137992125984252
20
0.8672637795275591
11
0.2487992125984252
21
0.8672637795275591
0
LINE
8
BLACK
6
CONTINUOUS
10
0.2487992125984252
20
0.8672637795275591
11
0.2487992125984252
21
0.812263779527559
0
LINE
8
BLACK
6
CONTINUOUS
10
0.3237992125984252
20
0.812263779527559
11
0.2887992125984252
21
0.812263779527559
0
LINE
8
BLACK
6
CONTINUOUS
10
0.2887992125984252
20
0.812263779527559
11
0.2887992125984252
21
0.8672637795275591
0
LINE
8
BLACK
6
CONTINUOUS
10
0.2887992125984252
20
0.8672637795275591
11
0.3237992125984252
21
0.8672637795275591
0
LINE
8
BLACK
6
CONTINUOUS
10
0.3237992125984252
20
0.8672637795275591
11
0.3237992125984252
21
0.812263779527559
0
LINE
8
BLACK
6
CONTINUOUS
10
3.0575000000000001
20
0.83
11
3.0024999999999999
21
0.83
0
LINE
8
BLACK
6
CONTINUOUS
10
3.0024999999999999
20
0.83
11
3.0024999999999999
21
0.865
0
LINE
8
BLACK
6
CONTINUOUS
10
3.0024999999999999
20
0.865
11
3.0575000000000001
21
0.865
0
LINE
8
BLACK
6
CONTINUOUS
10
3.0575000000000001
20
0.865
11
3.0575000000000001
21
0.83
0
LINE
8
BLACK
6
CONTINUOUS
10
2.8155511811023621
20
0.8337007874015748
11
2.8057086614173228
21
0.8337007874015748
0
LINE
8
BLACK
6
CONTINUOUS
10
2.8057086614173228
20
0.8337007874015748
11
2.8057086614173228
21
0.877007874015748
0
LINE
8
BLACK
6
CONTINUOUS
10
2.8057086614173228
20
0.877007874015748
11
2.8155511811023621
21
0.877007874015748
0
LINE
8
BLACK
6
CONTINUOUS
10
2.8155511811023621
20
0.877007874015748
11
2.8155511811023621
21
0.8337007874015748
0
LINE
8
BLACK
6
CONTINUOUS
10
2.8352362204724408
20
0.8337007874015748
11
2.8253937007874015
21
0.8337007874015748
0
LINE
8
BLACK
6
CONTINUOUS
10
2.8253937007874015
20
0.8337007874015748
11
2.8253937007874015
21
0.877007874015748
0
LINE
8
BLACK
6
CONTINUOUS
10
2.8253937007874015
20
0.877007874015748
11
2.8352362204724408
21
0.877007874015748
0
LINE
8
BLACK
6
CONTINUOUS
10
2.8352362204724408
20
0.877007874015748
11
2.8352362204724408
21
0.8337007874015748
0
LINE
8
BLACK
6
CONTINUOUS
10
2.8549212598425195
20
0.8337007874015748
11
2.8450787401574802
21
0.8337007874015748
0
LINE
8
BLACK
6
CONTINUOUS
10
2.8450787401574802
20
0.8337007874015748
11
2.8450787401574802
21
0.877007874015748
0
LINE
8
BLACK
6
CONTINUOUS
10
2.8450787401574802
20
0.877007874015748
11
2.8549212598425195
21
0.877007874015748
0
LINE
8
BLACK
6
CONTINUOUS
10
2.8549212598425195
20
0.877007874015748
11
2.8549212598425195
21
0.8337007874015748
0
LINE
8
BLACK
6
CONTINUOUS
10
2.8746062992125982
20
0.8337007874015748
11
2.8647637795275589
21
0.8337007874015748
0
LINE
8
BLACK
6
CONTINUOUS
10
2.8647637795275589
20
0.8337007874015748
11
2.8647637795275589
21
0.877007874015748
0
LINE
8
BLACK
6
CONTINUOUS
10
2.8647637795275589
20
0.877007874015748
11
2.8746062992125982
21
0.877007874015748
0
LINE
8
BLACK
6
CONTINUOUS
10
2.8746062992125982
20
0.877007874015748
11
2.8746062992125982
21
0.8337007874015748
0
LINE
8
BLACK
6
CONTINUOUS
10
2.894291338582677
20
0.8337007874015748
11
2.8844488188976376
21
0.8337007874015748
0
LINE
8
BLACK
6
CONTINUOUS
10
2.8844488188976376
20
0.8337007874015748
11
2.8844488188976376
21
0.877007874015748
0
LINE
8
BLACK
6
CONTINUOUS
10
2.8844488188976376
20
0.877007874015748
11
2.894291338582677
21
0.877007874015748
0
LINE
8
BLACK
6
CONTINUOUS
10
2.894291338582677
20
0.877007874015748
11
2.894291338582677
21
0.8337007874015748
0
LINE
8
BLACK
6
CONTINUOUS
10
1.4337992125984251
20
0.8347637795275591
11
1.3787992125984252
21
0.8347637795275591
0
LINE
8
BLACK
6
CONTINUOUS
10
1.3787992125984252
20
0.8347637795275591
11
1.3787992125984252
21
0.869763779527559
0
LINE
8
BLACK
6
CONTINUOUS
10
1.3787992125984252
20
0.869763779527559
11
1.4337992125984251
21
0.869763779527559
0
LINE
8
BLACK
6
CONTINUOUS
10
1.4337992125984251
20
0.869763779527559
11
1.4337992125984251
21
0.8347637795275591
0
LINE
8
BLACK
6
CONTINUOUS
10
1.6088582677165355
20
0.8393700787401575
11
1.5474409448818898
21
0.8393700787401575
0
LINE
8
BLACK
6
CONTINUOUS
10
1.5474409448818898
20
0.8393700787401575
11
1.5474409448818898
21
0.8649606299212598
0
LINE
8
BLACK
6
CONTINUOUS
10
1.5474409448818898
20
0.8649606299212598
11
1.6088582677165355
21
0.8649606299212598
0
LINE
8
BLACK
6
CONTINUOUS
10
1.6088582677165355
20
0.8649606299212598
11
1.6088582677165355
21
0.8393700787401575
0
LINE
8
BLACK
6
CONTINUOUS
10
1.7151574803149605
20
0.8393700787401575
11
1.653740157480315
21
0.8393700787401575
0
LINE
8
BLACK
6
CONTINUOUS
10
1.653740157480315
20
0.8393700787401575
11
1.653740157480315
21
0.8649606299212598
0
LINE
8
BLACK
6
CONTINUOUS
10
1.653740157480315
20
0.8649606299212598
11
1.7151574803149605
21
0.8649606299212598
0
LINE
8
BLACK
6
CONTINUOUS
10
1.7151574803149605
20
0.8649606299212598
11
1.7151574803149605
21
0.8393700787401575
0
LINE
8
BLACK
6
CONTINUOUS
10
2.48
20
0.8475
11
2.4449999999999998
21
0.8475
0
LINE
8
BLACK
6
CONTINUOUS
10
2.4449999999999998
20
0.8475
11
2.4449999999999998
21
0.9025
0
LINE
8
BLACK
6
CONTINUOUS
10
2.4449999999999998
20
0.9025
11
2.48
21
0.9025
0
LINE
8
BLACK
6
CONTINUOUS
10
2.48
20
0.9025
11
2.48
21
0.8475
0
LINE
8
BLACK
6
CONTINUOUS
10
2.5550000000000002
20
0.8475
11
2.52
21
0.8475
0
LINE
8
BLACK
6
CONTINUOUS
10
2.52
20
0.8475
11
2.52
21
0.9025
0
LINE
8
BLACK
6
CONTINUOUS
10
2.52
20
0.9025
11
2.5550000000000002
21
0.9025
0
LINE
8
BLACK
6
CONTINUOUS
10
2.5550000000000002
20
0.9025
11
2.5550000000000002
21
0.8475
0
LINE
8
BLACK
6
CONTINUOUS
10
0.7237992125984252
20
0.8822637795275591
11
0.6687992125984252
21
0.8822637795275591
0
LINE
8
BLACK
6
CONTINUOUS
10
0.6687992125984252
20
0.8822637795275591
11
0.6687992125984252
21
0.917263779527559
0
LINE
8
BLACK
6
CONTINUOUS
10
0.6687992125984252
20
0.917263779527559
11
0.7237992125984252
21
0.917263779527559
0
LINE
8
BLACK
6
CONTINUOUS
10
0.7237992125984252
20
0.917263779527559
11
0.7237992125984252
21
0.8822637795275591
0
LINE
8
BLACK
6
CONTINUOUS
10
0.8037992125984251
20
0.8822637795275591
11
0.7487992125984252
21
0.8822637795275591
0
LINE
8
BLACK
6
CONTINUOUS
10
0.7487992125984252
20
0.8822637795275591
11
0.7487992125984252
21
0.917263779527559
0
LINE
8
BLACK
6
CONTINUOUS
10
0.7487992125984252
20
0.917263779527559
11
0.8037992125984251
21
0.917263779527559
0
LINE
8
BLACK
6
CONTINUOUS
10
0.8037992125984251
20
0.917263779527559
11
0.8037992125984251
21
0.8822637795275591
0
LINE
8
BLACK
6
CONTINUOUS
10
1.0037992125984252
20
0.8822637795275591
11
0.9487992125984251
21
0.8822637795275591
0
LINE
8
BLACK
6
CONTINUOUS
10
0.9487992125984251
20
0.8822637795275591
11
0.9487992125984251
21
0.917263779527559
0
LINE
8
BLACK
6
CONTINUOUS
10
0.9487992125984251
20
0.917263779527559
11
1.0037992125984252
21
0.917263779527559
0
LINE
8
BLACK
6
CONTINUOUS
10
1.0037992125984252
20
0.917263779527559
11
1.0037992125984252
21
0.8822637795275591
0
LINE
8
BLACK
6
CONTINUOUS
10
1.0937992125984253
20
0.8822637795275591
11
1.0387992125984251
21
0.8822637795275591
0
LINE
8
BLACK
6
CONTINUOUS
10
1.0387992125984251
20
0.8822637795275591
11
1.0387992125984251
21
0.917263779527559
0
LINE
8
BLACK
6
CONTINUOUS
10
1.0387992125984251
20
0.917263779527559
11
1.0937992125984253
21
0.917263779527559
0
LINE
8
BLACK
6
CONTINUOUS
10
1.0937992125984253
20
0.917263779527559
11
1.0937992125984253
21
0.8822637795275591
0
LINE
8
BLACK
6
CONTINUOUS
10
3.1899999999999999
20
0.8925
11
3.1549999999999998
21
0.8925
0
LINE
8
BLACK
6
CONTINUOUS
10
3.1549999999999998
20
0.8925
11
3.1549999999999998
21
0.9475
0
LINE
8
BLACK
6
CONTINUOUS
10
3.1549999999999998
20
0.9475
11
3.1899999999999999
21
0.9475
0
LINE
8
BLACK
6
CONTINUOUS
10
3.1899999999999999
20
0.9475
11
3.1899999999999999
21
0.8925
0
LINE
8
BLACK
6
CONTINUOUS
10
3.2650000000000001
20
0.8925
11
3.23
21
0.8925
0
LINE
8
BLACK
6
CONTINUOUS
10
3.23
20
0.8925
11
3.23
21
0.9475
0
LINE
8
BLACK
6
CONTINUOUS
10
3.23
20
0.9475
11
3.2650000000000001
21
0.9475
0
LINE
8
BLACK
6
CONTINUOUS
10
3.2650000000000001
20
0.9475
11
3.2650000000000001
21
0.8925
0
LINE
8
BLACK
6
CONTINUOUS
10
3.0575000000000001
20
0.905
11
3.0024999999999999
21
0.905
0
LINE
8
BLACK
6
CONTINUOUS
10
3.0024999999999999
20
0.905
11
3.0024999999999999
21
0.9399999999999999
0
LINE
8
BLACK
6
CONTINUOUS
10
3.0024999999999999
20
0.9399999999999999
11
3.0575000000000001
21
0.9399999999999999
0
LINE
8
BLACK
6
CONTINUOUS
10
3.0575000000000001
20
0.9399999999999999
11
3.0575000000000001
21
0.905
0
LINE
8
BLACK
6
CONTINUOUS
10
1.7087992125984253
20
0.909763779527559
11
1.6537992125984251
21
0.909763779527559
0
LINE
8
BLACK
6
CONTINUOUS
10
1.6537992125984251
20
0.909763779527559
11
1.6537992125984251
21
0.9447637795275591
0
LINE
8
BLACK
6
CONTINUOUS
10
1.6537992125984251
20
0.9447637795275591
11
1.7087992125984253
21
0.9447637795275591
0
LINE
8
BLACK
6
CONTINUOUS
10
1.7087992125984253
20
0.9447637795275591
11
1.7087992125984253
21
0.909763779527559
0
LINE
8
BLACK
6
CONTINUOUS
10
0.2487992125984252
20
0.912263779527559
11
0.2137992125984252
21
0.912263779527559
0
LINE
8
BLACK
6
CONTINUOUS
10
0.2137992125984252
20
0.912263779527559
11
0.2137992125984252
21
0.967263779527559
0
LINE
8
BLACK
6
CONTINUOUS
10
0.2137992125984252
20
0.967263779527559
11
0.2487992125984252
21
0.967263779527559
0
LINE
8
BLACK
6
CONTINUOUS
10
0.2487992125984252
20
0.967263779527559
11
0.2487992125984252
21
0.912263779527559
0
LINE
8
BLACK
6
CONTINUOUS
10
0.3237992125984252
20
0.912263779527559
11
0.2887992125984252
21
0.912263779527559
0
LINE
8
BLACK
6
CONTINUOUS
10
0.2887992125984252
20
0.912263779527559
11
0.2887992125984252
21
0.967263779527559
0
LINE
8
BLACK
6
CONTINUOUS
10
0.2887992125984252
20
0.967263779527559
11
0.3237992125984252
21
0.967263779527559
0
LINE
8
BLACK
6
CONTINUOUS
10
0.3237992125984252
20
0.967263779527559
11
0.3237992125984252
21
0.912263779527559
0
LINE
8
BLACK
6
CONTINUOUS
10
0.3862992125984252
20
0.912263779527559
11
0.3512992125984252
21
0.912263779527559
0
LINE
8
BLACK
6
CONTINUOUS
10
0.3512992125984252
20
0.912263779527559
11
0.3512992125984252
21
0.967263779527559
0
LINE
8
BLACK
6
CONTINUOUS
10
0.3512992125984252
20
0.967263779527559
11
0.3862992125984252
21
0.967263779527559
0
LINE
8
BLACK
6
CONTINUOUS
10
0.3862992125984252
20
0.967263779527559
11
0.3862992125984252
21
0.912263779527559
0
LINE
8
BLACK
6
CONTINUOUS
10
0.4612992125984252
20
0.912263779527559
11
0.4262992125984252
21
0.912263779527559
0
LINE
8
BLACK
6
CONTINUOUS
10
0.4262992125984252
20
0.912263779527559
11
0.4262992125984252
21
0.967263779527559
0
LINE
8
BLACK
6
CONTINUOUS
10
0.4262992125984252
20
0.967263779527559
11
0.4612992125984252
21
0.967263779527559
0
LINE
8
BLACK
6
CONTINUOUS
10
0.4612992125984252
20
0.967263779527559
11
0.4612992125984252
21
0.912263779527559
0
LINE
8
BLACK
6
CONTINUOUS
10
0.6337992125984252
20
0.922263779527559
11
0.5787992125984252
21
0.922263779527559
0
LINE
8
BLACK
6
CONTINUOUS
10
0.5787992125984252
20
0.922263779527559
11
0.5787992125984252
21
0.957263779527559
0
LINE
8
BLACK
6
CONTINUOUS
10
0.5787992125984252
20
0.957263779527559
11
0.6337992125984252
21
0.957263779527559
0
LINE
8
BLACK
6
CONTINUOUS
10
0.6337992125984252
20
0.957263779527559
11
0.6337992125984252
21
0.922263779527559
0
LINE
8
BLACK
6
CONTINUOUS
10
1.2105118110236219
20
0.9229527559055117
11
1.1494881889763779
21
0.9229527559055117
0
LINE
8
BLACK
6
CONTINUOUS
10
1.1494881889763779
20
0.9229527559055117
11
1.1494881889763779
21
0.9465748031496063
0
LINE
8
BLACK
6
CONTINUOUS
10
1.1494881889763779
20
0.9465748031496063
11
1.2105118110236219
21
0.9465748031496063
0
LINE
8
BLACK
6
CONTINUOUS
10
1.2105118110236219
20
0.9465748031496063
11
1.2105118110236219
21
0.9229527559055117
0
LINE
8
BLACK
6
CONTINUOUS
10
1.4231102362204724
20
0.9229527559055117
11
1.3620866141732284
21
0.9229527559055117
0
LINE
8
BLACK
6
CONTINUOUS
10
1.3620866141732284
20
0.9229527559055117
11
1.3620866141732284
21
0.9465748031496063
0
LINE
8
BLACK
6
CONTINUOUS
10
1.3620866141732284
20
0.9465748031496063
11
1.4231102362204724
21
0.9465748031496063
0
LINE
8
BLACK
6
CONTINUOUS
10
1.4231102362204724
20
0.9465748031496063
11
1.4231102362204724
21
0.9229527559055117
0
LINE
8
BLACK
6
CONTINUOUS
10
1.5137992125984252
20
0.9247637795275591
11
1.4587992125984253
21
0.9247637795275591
0
LINE
8
BLACK
6
CONTINUOUS
10
1.4587992125984253
20
0.9247637795275591
11
1.4587992125984253
21
0.959763779527559
0
LINE
8
BLACK
6
CONTINUOUS
10
1.4587992125984253
20
0.959763779527559
11
1.5137992125984252
21
0.959763779527559
0
LINE
8
BLACK
6
CONTINUOUS
10
1.5137992125984252
20
0.959763779527559
11
1.5137992125984252
21
0.9247637795275591
0
LINE
8
BLACK
6
CONTINUOUS
10
1.6037992125984251
20
0.9247637795275591
11
1.5487992125984251
21
0.9247637795275591
0
LINE
8
BLACK
6
CONTINUOUS
10
1.5487992125984251
20
0.9247637795275591
11
1.5487992125984251
21
0.959763779527559
0
LINE
8
BLACK
6
CONTINUOUS
10
1.5487992125984251
20
0.959763779527559
11
1.6037992125984251
21
0.959763779527559
0
LINE
8
BLACK
6
CONTINUOUS
10
1.6037992125984251
20
0.959763779527559
11
1.6037992125984251
21
0.9247637795275591
0
LINE
8
BLACK
6
CONTINUOUS
10
2.3435039370078741
20
0.9523622047244095
11
2.3218503937007875
21
0.9523622047244095
0
LINE
8
BLACK
6
CONTINUOUS
10
2.3218503937007875
20
0.9523622047244095
11
2.3218503937007875
21
1.0114173228346457
0
LINE
8
BLACK
6
CONTINUOUS
10
2.3218503937007875
20
1.0114173228346457
11
2.3435039370078741
21
1.0114173228346457
0
LINE
8
BLACK
6
CONTINUOUS
10
2.3435039370078741
20
1.0114173228346457
11
2.3435039370078741
21
0.9523622047244095
0
LINE
8
BLACK
6
CONTINUOUS
10
2.375
20
0.9523622047244095
11
2.3533464566929134
21
0.9523622047244095
0
LINE
8
BLACK
6
CONTINUOUS
10
2.3533464566929134
20
0.9523622047244095
11
2.3533464566929134
21
1.0114173228346457
0
LINE
8
BLACK
6
CONTINUOUS
10
2.3533464566929134
20
1.0114173228346457
11
2.375
21
1.0114173228346457
0
LINE
8
BLACK
6
CONTINUOUS
10
2.375
20
1.0114173228346457
11
2.375
21
0.9523622047244095
0
LINE
8
BLACK
6
CONTINUOUS
10
2.4064960629921259
20
0.9523622047244095
11
2.3848425196850394
21
0.9523622047244095
0
LINE
8
BLACK
6
CONTINUOUS
10
2.3848425196850394
20
0.9523622047244095
11
2.3848425196850394
21
1.0114173228346457
0
LINE
8
BLACK
6
CONTINUOUS
10
2.3848425196850394
20
1.0114173228346457
11
2.4064960629921259
21
1.0114173228346457
0
LINE
8
BLACK
6
CONTINUOUS
10
2.4064960629921259
20
1.0114173228346457
11
2.4064960629921259
21
0.9523622047244095
0
LINE
8
BLACK
6
CONTINUOUS
10
2.4379921259842519
20
0.9523622047244095
11
2.4163385826771653
21
0.9523622047244095
0
LINE
8
BLACK
6
CONTINUOUS
10
2.4163385826771653
20
0.9523622047244095
11
2.4163385826771653
21
1.0114173228346457
0
LINE
8
BLACK
6
CONTINUOUS
10
2.4163385826771653
20
1.0114173228346457
11
2.4379921259842519
21
1.0114173228346457
0
LINE
8
BLACK
6
CONTINUOUS
10
2.4379921259842519
20
1.0114173228346457
11
2.4379921259842519
21
0.9523622047244095
0
LINE
8
BLACK
6
CONTINUOUS
10
2.4694881889763778
20
0.9523622047244095
11
2.4478346456692912
21
0.9523622047244095
0
LINE
8
BLACK
6
CONTINUOUS
10
2.4478346456692912
20
0.9523622047244095
11
2.4478346456692912
21
1.0114173228346457
0
LINE
8
BLACK
6
CONTINUOUS
10
2.4478346456692912
20
1.0114173228346457
11
2.4694881889763778
21
1.0114173228346457
0
LINE
8
BLACK
6
CONTINUOUS
10
2.4694881889763778
20
1.0114173228346457
11
2.4694881889763778
21
0.9523622047244095
0
LINE
8
BLACK
6
CONTINUOUS
10
2.5009842519685037
20
0.9523622047244095
11
2.4793307086614171
21
0.9523622047244095
0
LINE
8
BLACK
6
CONTINUOUS
10
2.4793307086614171
20
0.9523622047244095
11
2.4793307086614171
21
1.0114173228346457
0
LINE
8
BLACK
6
CONTINUOUS
10
2.4793307086614171
20
1.0114173228346457
11
2.5009842519685037
21
1.0114173228346457
0
LINE
8
BLACK
6
CONTINUOUS
10
2.5009842519685037
20
1.0114173228346457
11
2.5009842519685037
21
0.9523622047244095
0
LINE
8
BLACK
6
CONTINUOUS
10
2.5324803149606301
20
0.9523622047244095
11
2.5108267716535431
21
0.9523622047244095
0
LINE
8
BLACK
6
CONTINUOUS
10
2.5108267716535431
20
0.9523622047244095
11
2.5108267716535431
21
1.0114173228346457
0
LINE
8
BLACK
6
CONTINUOUS
10
2.5108267716535431
20
1.0114173228346457
11
2.5324803149606301
21
1.0114173228346457
0
LINE
8
BLACK
6
CONTINUOUS
10
2.5324803149606301
20
1.0114173228346457
11
2.5324803149606301
21
0.9523622047244095
0
LINE
8
BLACK
6
CONTINUOUS
10
2.563976377952756
20
0.9523622047244095
11
2.5423228346456694
21
0.9523622047244095
0
LINE
8
BLACK
6
CONTINUOUS
10
2.5423228346456694
20
0.9523622047244095
11
2.5423228346456694
21
1.0114173228346457
0
LINE
8
BLACK
6
CONTINUOUS
10
2.5423228346456694
20
1.0114173228346457
11
2.563976377952756
21
1.0114173228346457
0
LINE
8
BLACK
6
CONTINUOUS
10
2.563976377952756
20
1.0114173228346457
11
2.563976377952756
21
0.9523622047244095
0
LINE
8
BLACK
6
CONTINUOUS
10
2.5954724409448819
20
0.9523622047244095
11
2.5738188976377954
21
0.9523622047244095
0
LINE
8
BLACK
6
CONTINUOUS
10
2.5738188976377954
20
0.9523622047244095
11
2.5738188976377954
21
1.0114173228346457
0
LINE
8
BLACK
6
CONTINUOUS
10
2.5738188976377954
20
1.0114173228346457
11
2.5954724409448819
21
1.0114173228346457
0
LINE
8
BLACK
6
CONTINUOUS
10
2.5954724409448819
20
1.0114173228346457
11
2.5954724409448819
21
0.9523622047244095
0
LINE
8
BLACK
6
CONTINUOUS
10
2.6269685039370079
20
0.9523622047244095
11
2.6053149606299213
21
0.9523622047244095
0
LINE
8
BLACK
6
CONTINUOUS
10
2.6053149606299213
20
0.9523622047244095
11
2.6053149606299213
21
1.0114173228346457
0
LINE
8
BLACK
6
CONTINUOUS
10
2.6053149606299213
20
1.0114173228346457
11
2.6269685039370079
21
1.0114173228346457
0
LINE
8
BLACK
6
CONTINUOUS
10
2.6269685039370079
20
1.0114173228346457
11
2.6269685039370079
21
0.9523622047244095
0
LINE
8
BLACK
6
CONTINUOUS
10
2.6584645669291338
20
0.9523622047244095
11
2.6368110236220472
21
0.9523622047244095
0
LINE
8
BLACK
6
CONTINUOUS
10
2.6368110236220472
20
0.9523622047244095
11
2.6368110236220472
21
1.0114173228346457
0
LINE
8
BLACK
6
CONTINUOUS
10
2.6368110236220472
20
1.0114173228346457
11
2.6584645669291338
21
1.0114173228346457
0
LINE
8
BLACK
6
CONTINUOUS
10
2.6584645669291338
20
1.0114173228346457
11
2.6584645669291338
21
0.9523622047244095
0
LINE
8
BLACK
6
CONTINUOUS
10
0.7237992125984252
20
0.957263779527559
11
0.6687992125984252
21
0.957263779527559
0
LINE
8
BLACK
6
CONTINUOUS
10
0.6687992125984252
20
0.957263779527559
11
0.6687992125984252
21
0.9922637795275591
0
LINE
8
BLACK
6
CONTINUOUS
10
0.6687992125984252
20
0.9922637795275591
11
0.7237992125984252
21
0.9922637795275591
0
LINE
8
BLACK
6
CONTINUOUS
10
0.7237992125984252
20
0.9922637795275591
11
0.7237992125984252
21
0.957263779527559
0
LINE
8
BLACK
6
CONTINUOUS
10
0.8037992125984251
20
0.957263779527559
11
0.7487992125984252
21
0.957263779527559
0
LINE
8
BLACK
6
CONTINUOUS
10
0.7487992125984252
20
0.957263779527559
11
0.7487992125984252
21
0.9922637795275591
0
LINE
8
BLACK
6
CONTINUOUS
10
0.7487992125984252
20
0.9922637795275591
11
0.8037992125984251
21
0.9922637795275591
0
LINE
8
BLACK
6
CONTINUOUS
10
0.8037992125984251
20
0.9922637795275591
11
0.8037992125984251
21
0.957263779527559
0
LINE
8
BLACK
6
CONTINUOUS
10
1.0037992125984252
20
0.957263779527559
11
0.9487992125984251
21
0.957263779527559
0
LINE
8
BLACK
6
CONTINUOUS
10
0.9487992125984251
20
0.957263779527559
11
0.9487992125984251
21
0.9922637795275591
0
LINE
8
BLACK
6
CONTINUOUS
10
0.9487992125984251
20
0.9922637795275591
11
1.0037992125984252
21
0.9922637795275591
0
LINE
8
BLACK
6
CONTINUOUS
10
1.0037992125984252
20
0.9922637795275591
11
1.0037992125984252
21
0.957263779527559
0
LINE
8
BLACK
6
CONTINUOUS
10
1.0937992125984253
20
0.957263779527559
11
1.0387992125984251
21
0.957263779527559
0
LINE
8
BLACK
6
CONTINUOUS
10
1.0387992125984251
20
0.957263779527559
11
1.0387992125984251
21
0.9922637795275591
0
LINE
8
BLACK
6
CONTINUOUS
10
1.0387992125984251
20
0.9922637795275591
11
1.0937992125984253
21
0.9922637795275591
0
LINE
8
BLACK
6
CONTINUOUS
10
1.0937992125984253
20
0.9922637795275591
11
1.0937992125984253
21
0.957263779527559
0
LINE
8
BLACK
6
CONTINUOUS
10
1.2105118110236219
20
0.9729527559055118
11
1.1494881889763779
21
0.9729527559055118
0
LINE
8
BLACK
6
CONTINUOUS
10
1.1494881889763779
20
0.9729527559055118
11
1.1494881889763779
21
0.9965748031496062
0
LINE
8
BLACK
6
CONTINUOUS
10
1.1494881889763779
20
0.9965748031496062
11
1.2105118110236219
21
0.9965748031496062
0
LINE
8
BLACK
6
CONTINUOUS
10
1.2105118110236219
20
0.9965748031496062
11
1.2105118110236219
21
0.9729527559055118
0
LINE
8
BLACK
6
CONTINUOUS
10
1.4231102362204724
20
0.9729527559055118
11
1.3620866141732284
21
0.9729527559055118
0
LINE
8
BLACK
6
CONTINUOUS
10
1.3620866141732284
20
0.9729527559055118
11
1.3620866141732284
21
0.9965748031496062
0
LINE
8
BLACK
6
CONTINUOUS
10
1.3620866141732284
20
0.9965748031496062
11
1.4231102362204724
21
0.9965748031496062
0
LINE
8
BLACK
6
CONTINUOUS
10
1.4231102362204724
20
0.9965748031496062
11
1.4231102362204724
21
0.9729527559055118
0
LINE
8
BLACK
6
CONTINUOUS
10
3.125
20
0.9824999999999999
11
3.0899999999999999
21
0.9824999999999999
0
LINE
8
BLACK
6
CONTINUOUS
10
3.0899999999999999
20
0.9824999999999999
11
3.0899999999999999
21
1.0374999999999999
0
LINE
8
BLACK
6
CONTINUOUS
10
3.0899999999999999
20
1.0374999999999999
11
3.125
21
1.0374999999999999
0
LINE
8
BLACK
6
CONTINUOUS
10
3.125
20
1.0374999999999999
11
3.125
21
0.9824999999999999
0
LINE
8
BLACK
6
CONTINUOUS
10
3.1999999999999997
20
0.9824999999999999
11
3.165
21
0.9824999999999999
0
LINE
8
BLACK
6
CONTINUOUS
10
3.165
20
0.9824999999999999
11
3.165
21
1.0374999999999999
0
LINE
8
BLACK
6
CONTINUOUS
10
3.165
20
1.0374999999999999
11
3.1999999999999997
21
1.0374999999999999
0
LINE
8
BLACK
6
CONTINUOUS
10
3.1999999999999997
20
1.0374999999999999
11
3.1999999999999997
21
0.9824999999999999
0
LINE
8
BLACK
6
CONTINUOUS
10
1.7087992125984253
20
0.984763779527559
11
1.6537992125984251
21
0.984763779527559
0
LINE
8
BLACK
6
CONTINUOUS
10
1.6537992125984251
20
0.984763779527559
11
1.6537992125984251
21
1.0197637795275589
0
LINE
8
BLACK
6
CONTINUOUS
10
1.6537992125984251
20
1.0197637795275589
11
1.7087992125984253
21
1.0197637795275589
0
LINE
8
BLACK
6
CONTINUOUS
10
1.7087992125984253
20
1.0197637795275589
11
1.7087992125984253
21
0.984763779527559
0
LINE
8
BLACK
6
CONTINUOUS
10
2.98
20
0.9924999999999999
11
2.9449999999999998
21
0.9924999999999999
0
LINE
8
BLACK
6
CONTINUOUS
10
2.9449999999999998
20
0.9924999999999999
11
2.9449999999999998
21
1.0474999999999999
0
LINE
8
BLACK
6
CONTINUOUS
10
2.9449999999999998
20
1.0474999999999999
11
2.98
21
1.0474999999999999
0
LINE
8
BLACK
6
CONTINUOUS
10
2.98
20
1.0474999999999999
11
2.98
21
0.9924999999999999
0
LINE
8
BLACK
6
CONTINUOUS
10
3.0549999999999997
20
0.9924999999999999
11
3.02
21
0.9924999999999999
0
LINE
8
BLACK
6
CONTINUOUS
10
3.02
20
0.9924999999999999
11
3.02
21
1.0474999999999999
0
LINE
8
BLACK
6
CONTINUOUS
10
3.02
20
1.0474999999999999
11
3.0549999999999997
21
1.0474999999999999
0
LINE
8
BLACK
6
CONTINUOUS
10
3.0549999999999997
20
1.0474999999999999
11
3.0549999999999997
21
0.9924999999999999
0
LINE
8
BLACK
6
CONTINUOUS
10
0.6337992125984252
20
0.9972637795275591
11
0.5787992125984252
21
0.9972637795275591
0
LINE
8
BLACK
6
CONTINUOUS
10
0.5787992125984252
20
0.9972637795275591
11
0.5787992125984252
21
1.0322637795275591
0
LINE
8
BLACK
6
CONTINUOUS
10
0.5787992125984252
20
1.0322637795275591
11
0.6337992125984252
21
1.0322637795275591
0
LINE
8
BLACK
6
CONTINUOUS
10
0.6337992125984252
20
1.0322637795275591
11
0.6337992125984252
21
0.9972637795275591
0
LINE
8
BLACK
6
CONTINUOUS
10
1.5137992125984252
20
0.999763779527559
11
1.4587992125984253
21
0.999763779527559
0
LINE
8
BLACK
6
CONTINUOUS
10
1.4587992125984253
20
0.999763779527559
11
1.4587992125984253
21
1.034763779527559
0
LINE
8
BLACK
6
CONTINUOUS
10
1.4587992125984253
20
1.034763779527559
11
1.5137992125984252
21
1.034763779527559
0
LINE
8
BLACK
6
CONTINUOUS
10
1.5137992125984252
20
1.034763779527559
11
1.5137992125984252
21
0.999763779527559
0
LINE
8
BLACK
6
CONTINUOUS
10
1.6037992125984251
20
0.999763779527559
11
1.5487992125984251
21
0.999763779527559
0
LINE
8
BLACK
6
CONTINUOUS
10
1.5487992125984251
20
0.999763779527559
11
1.5487992125984251
21
1.034763779527559
0
LINE
8
BLACK
6
CONTINUOUS
10
1.5487992125984251
20
1.034763779527559
11
1.6037992125984251
21
1.034763779527559
0
LINE
8
BLACK
6
CONTINUOUS
10
1.6037992125984251
20
1.034763779527559
11
1.6037992125984251
21
0.999763779527559
0
LINE
8
BLACK
6
CONTINUOUS
10
0.330511811023622
20
1.0029527559055118
11
0.2694881889763779
21
1.0029527559055118
0
LINE
8
BLACK
6
CONTINUOUS
10
0.2694881889763779
20
1.0029527559055118
11
0.2694881889763779
21
1.0265748031496063
0
LINE
8
BLACK
6
CONTINUOUS
10
0.2694881889763779
20
1.0265748031496063
11
0.330511811023622
21
1.0265748031496063
0
LINE
8
BLACK
6
CONTINUOUS
10
0.330511811023622
20
1.0265748031496063
11
0.330511811023622
21
1.0029527559055118
0
LINE
8
BLACK
6
CONTINUOUS
10
0.5431102362204724
20
1.0029527559055118
11
0.4820866141732283
21
1.0029527559055118
0
LINE
8
BLACK
6
CONTINUOUS
10
0.4820866141732283
20
1.0029527559055118
11
0.4820866141732283
21
1.0265748031496063
0
LINE
8
BLACK
6
CONTINUOUS
10
0.4820866141732283
20
1.0265748031496063
11
0.5431102362204724
21
1.0265748031496063
0
LINE
8
BLACK
6
CONTINUOUS
10
0.5431102362204724
20
1.0265748031496063
11
0.5431102362204724
21
1.0029527559055118
0
LINE
8
BLACK
6
CONTINUOUS
10
2.8155511811023621
20
1.002992125984252
11
2.8057086614173228
21
1.002992125984252
0
LINE
8
BLACK
6
CONTINUOUS
10
2.8057086614173228
20
1.002992125984252
11
2.8057086614173228
21
1.0462992125984252
0
LINE
8
BLACK
6
CONTINUOUS
10
2.8057086614173228
20
1.0462992125984252
11
2.8155511811023621
21
1.0462992125984252
0
LINE
8
BLACK
6
CONTINUOUS
10
2.8155511811023621
20
1.0462992125984252
11
2.8155511811023621
21
1.002992125984252
0
LINE
8
BLACK
6
CONTINUOUS
10
2.8352362204724408
20
1.002992125984252
11
2.8253937007874015
21
1.002992125984252
0
LINE
8
BLACK
6
CONTINUOUS
10
2.8253937007874015
20
1.002992125984252
11
2.8253937007874015
21
1.0462992125984252
0
LINE
8
BLACK
6
CONTINUOUS
10
2.8253937007874015
20
1.0462992125984252
11
2.8352362204724408
21
1.0462992125984252
0
LINE
8
BLACK
6
CONTINUOUS
10
2.8352362204724408
20
1.0462992125984252
11
2.8352362204724408
21
1.002992125984252
0
LINE
8
BLACK
6
CONTINUOUS
10
2.8549212598425195
20
1.002992125984252
11
2.8450787401574802
21
1.002992125984252
0
LINE
8
BLACK
6
CONTINUOUS
10
2.8450787401574802
20
1.002992125984252
11
2.8450787401574802
21
1.0462992125984252
0
LINE
8
BLACK
6
CONTINUOUS
10
2.8450787401574802
20
1.0462992125984252
11
2.8549212598425195
21
1.0462992125984252
0
LINE
8
BLACK
6
CONTINUOUS
10
2.8549212598425195
20
1.0462992125984252
11
2.8549212598425195
21
1.002992125984252
0
LINE
8
BLACK
6
CONTINUOUS
10
2.8746062992125982
20
1.002992125984252
11
2.8647637795275589
21
1.002992125984252
0
LINE
8
BLACK
6
CONTINUOUS
10
2.8647637795275589
20
1.002992125984252
11
2.8647637795275589
21
1.0462992125984252
0
LINE
8
BLACK
6
CONTINUOUS
10
2.8647637795275589
20
1.0462992125984252
11
2.8746062992125982
21
1.0462992125984252
0
LINE
8
BLACK
6
CONTINUOUS
10
2.8746062992125982
20
1.0462992125984252
11
2.8746062992125982
21
1.002992125984252
0
LINE
8
BLACK
6
CONTINUOUS
10
2.894291338582677
20
1.002992125984252
11
2.8844488188976376
21
1.002992125984252
0
LINE
8
BLACK
6
CONTINUOUS
10
2.8844488188976376
20
1.002992125984252
11
2.8844488188976376
21
1.0462992125984252
0
LINE
8
BLACK
6
CONTINUOUS
10
2.8844488188976376
20
1.0462992125984252
11
2.894291338582677
21
1.0462992125984252
0
LINE
8
BLACK
6
CONTINUOUS
10
2.894291338582677
20
1.0462992125984252
11
2.894291338582677
21
1.002992125984252
0
LINE
8
BLACK
6
CONTINUOUS
10
0.7337992125984252
20
1.0222637795275591
11
0.6787992125984251
21
1.0222637795275591
0
LINE
8
BLACK
6
CONTINUOUS
10
0.6787992125984251
20
1.0222637795275591
11
0.6787992125984251
21
1.057263779527559
0
LINE
8
BLACK
6
CONTINUOUS
10
0.6787992125984251
20
1.057263779527559
11
0.7337992125984252
21
1.057263779527559
0
LINE
8
BLACK
6
CONTINUOUS
10
0.7337992125984252
20
1.057263779527559
11
0.7337992125984252
21
1.0222637795275591
0
LINE
8
BLACK
6
CONTINUOUS
10
0.8237992125984251
20
1.0222637795275591
11
0.7687992125984252
21
1.0222637795275591
0
LINE
8
BLACK
6
CONTINUOUS
10
0.7687992125984252
20
1.0222637795275591
11
0.7687992125984252
21
1.057263779527559
0
LINE
8
BLACK
6
CONTINUOUS
10
0.7687992125984252
20
1.057263779527559
11
0.8237992125984251
21
1.057263779527559
0
LINE
8
BLACK
6
CONTINUOUS
10
0.8237992125984251
20
1.057263779527559
11
0.8237992125984251
21
1.0222637795275591
0
LINE
8
BLACK
6
CONTINUOUS
10
1.2105118110236219
20
1.0229527559055118
11
1.1494881889763779
21
1.0229527559055118
0
LINE
8
BLACK
6
CONTINUOUS
10
1.1494881889763779
20
1.0229527559055118
11
1.1494881889763779
21
1.0465748031496063
0
LINE
8
BLACK
6
CONTINUOUS
10
1.1494881889763779
20
1.0465748031496063
11
1.2105118110236219
21
1.0465748031496063
0
LINE
8
BLACK
6
CONTINUOUS
10
1.2105118110236219
20
1.0465748031496063
11
1.2105118110236219
21
1.0229527559055118
0
LINE
8
BLACK
6
CONTINUOUS
10
1.4231102362204724
20
1.0229527559055118
11
1.3620866141732284
21
1.0229527559055118
0
LINE
8
BLACK
6
CONTINUOUS
10
1.3620866141732284
20
1.0229527559055118
11
1.3620866141732284
21
1.0465748031496063
0
LINE
8
BLACK
6
CONTINUOUS
10
1.3620866141732284
20
1.0465748031496063
11
1.4231102362204724
21
1.0465748031496063
0
LINE
8
BLACK
6
CONTINUOUS
10
1.4231102362204724
20
1.0465748031496063
11
1.4231102362204724
21
1.0229527559055118
0
LINE
8
BLACK
6
CONTINUOUS
10
0.9237992125984251
20
1.027263779527559
11
0.8687992125984252
21
1.027263779527559
0
LINE
8
BLACK
6
CONTINUOUS
10
0.8687992125984252
20
1.027263779527559
11
0.8687992125984252
21
1.0622637795275591
0
LINE
8
BLACK
6
CONTINUOUS
10
0.8687992125984252
20
1.0622637795275591
11
0.9237992125984251
21
1.0622637795275591
0
LINE
8
BLACK
6
CONTINUOUS
10
0.9237992125984251
20
1.0622637795275591
11
0.9237992125984251
21
1.027263779527559
0
LINE
8
BLACK
6
CONTINUOUS
10
1.0037992125984252
20
1.027263779527559
11
0.9487992125984251
21
1.027263779527559
0
LINE
8
BLACK
6
CONTINUOUS
10
0.9487992125984251
20
1.027263779527559
11
0.9487992125984251
21
1.0622637795275591
0
LINE
8
BLACK
6
CONTINUOUS
10
0.9487992125984251
20
1.0622637795275591
11
1.0037992125984252
21
1.0622637795275591
0
LINE
8
BLACK
6
CONTINUOUS
10
1.0037992125984252
20
1.0622637795275591
11
1.0037992125984252
21
1.027263779527559
0
LINE
8
BLACK
6
CONTINUOUS
10
2.295275590551181
20
1.0379921259842519
11
2.2362204724409449
21
1.0379921259842519
0
LINE
8
BLACK
6
CONTINUOUS
10
2.2362204724409449
20
1.0379921259842519
11
2.2362204724409449
21
1.0596456692913385
0
LINE
8
BLACK
6
CONTINUOUS
10
2.2362204724409449
20
1.0596456692913385
11
2.295275590551181
21
1.0596456692913385
0
LINE
8
BLACK
6
CONTINUOUS
10
2.295275590551181
20
1.0596456692913385
11
2.295275590551181
21
1.0379921259842519
0
LINE
8
BLACK
6
CONTINUOUS
10
2.7440944881889764
20
1.0379921259842519
11
2.6850393700787403
21
1.0379921259842519
0
LINE
8
BLACK
6
CONTINUOUS
10
2.6850393700787403
20
1.0379921259842519
11
2.6850393700787403
21
1.0596456692913385
0
LINE
8
BLACK
6
CONTINUOUS
10
2.6850393700787403
20
1.0596456692913385
11
2.7440944881889764
21
1.0596456692913385
0
LINE
8
BLACK
6
CONTINUOUS
10
2.7440944881889764
20
1.0596456692913385
11
2.7440944881889764
21
1.0379921259842519
0
LINE
8
BLACK
6
CONTINUOUS
10
1.8543700787401574
20
1.0444488188976377
11
1.8149999999999999
21
1.0444488188976377
0
LINE
8
BLACK
6
CONTINUOUS
10
1.8149999999999999
20
1.0444488188976377
11
1.8149999999999999
21
1.1940551181102361
0
LINE
8
BLACK
6
CONTINUOUS
10
1.8149999999999999
20
1.1940551181102361
11
1.8543700787401574
21
1.1940551181102361
0
LINE
8
BLACK
6
CONTINUOUS
10
1.8543700787401574
20
1.1940551181102361
11
1.8543700787401574
21
1.0444488188976377
0
LINE
8
BLACK
6
CONTINUOUS
10
3.578779527559055
20
1.0444488188976377
11
3.5394094488188976
21
1.0444488188976377
0
LINE
8
BLACK
6
CONTINUOUS
10
3.5394094488188976
20
1.0444488188976377
11
3.5394094488188976
21
1.1940551181102361
0
LINE
8
BLACK
6
CONTINUOUS
10
3.5394094488188976
20
1.1940551181102361
11
3.578779527559055
21
1.1940551181102361
0
LINE
8
BLACK
6
CONTINUOUS
10
3.578779527559055
20
1.1940551181102361
11
3.578779527559055
21
1.0444488188976377
0
LINE
8
BLACK
6
CONTINUOUS
10
0.0580314960629921
20
1.0468503937007874
11
0.0186614173228346
21
1.0468503937007874
0
LINE
8
BLACK
6
CONTINUOUS
10
0.0186614173228346
20
1.0468503937007874
11
0.0186614173228346
21
1.1964566929133857
0
LINE
8
BLACK
6
CONTINUOUS
10
0.0186614173228346
20
1.1964566929133857
11
0.0580314960629921
21
1.1964566929133857
0
LINE
8
BLACK
6
CONTINUOUS
10
0.0580314960629921
20
1.1964566929133857
11
0.0580314960629921
21
1.0468503937007874
0
LINE
8
BLACK
6
CONTINUOUS
10
1.7824409448818896
20
1.0468503937007874
11
1.7430708661417322
21
1.0468503937007874
0
LINE
8
BLACK
6
CONTINUOUS
10
1.7430708661417322
20
1.0468503937007874
11
1.7430708661417322
21
1.1964566929133857
0
LINE
8
BLACK
6
CONTINUOUS
10
1.7430708661417322
20
1.1964566929133857
11
1.7824409448818896
21
1.1964566929133857
0
LINE
8
BLACK
6
CONTINUOUS
10
1.7824409448818896
20
1.1964566929133857
11
1.7824409448818896
21
1.0468503937007874
0
LINE
8
BLACK
6
CONTINUOUS
10
0.330511811023622
20
1.0529527559055119
11
0.2694881889763779
21
1.0529527559055119
0
LINE
8
BLACK
6
CONTINUOUS
10
0.2694881889763779
20
1.0529527559055119
11
0.2694881889763779
21
1.0765748031496063
0
LINE
8
BLACK
6
CONTINUOUS
10
0.2694881889763779
20
1.0765748031496063
11
0.330511811023622
21
1.0765748031496063
0
LINE
8
BLACK
6
CONTINUOUS
10
0.330511811023622
20
1.0765748031496063
11
0.330511811023622
21
1.0529527559055119
0
LINE
8
BLACK
6
CONTINUOUS
10
0.5431102362204724
20
1.0529527559055119
11
0.4820866141732283
21
1.0529527559055119
0
LINE
8
BLACK
6
CONTINUOUS
10
0.4820866141732283
20
1.0529527559055119
11
0.4820866141732283
21
1.0765748031496063
0
LINE
8
BLACK
6
CONTINUOUS
10
0.4820866141732283
20
1.0765748031496063
11
0.5431102362204724
21
1.0765748031496063
0
LINE
8
BLACK
6
CONTINUOUS
10
0.5431102362204724
20
1.0765748031496063
11
0.5431102362204724
21
1.0529527559055119
0
LINE
8
BLACK
6
CONTINUOUS
10
1.1037992125984251
20
1.059763779527559
11
1.0487992125984251
21
1.059763779527559
0
LINE
8
BLACK
6
CONTINUOUS
10
1.0487992125984251
20
1.059763779527559
11
1.0487992125984251
21
1.0947637795275591
0
LINE
8
BLACK
6
CONTINUOUS
10
1.0487992125984251
20
1.0947637795275591
11
1.1037992125984251
21
1.0947637795275591
0
LINE
8
BLACK
6
CONTINUOUS
10
1.1037992125984251
20
1.0947637795275591
11
1.1037992125984251
21
1.059763779527559
0
LINE
8
BLACK
6
CONTINUOUS
10
3.1749999999999998
20
1.0674999999999999
11
3.1400000000000001
21
1.0674999999999999
0
LINE
8
BLACK
6
CONTINUOUS
10
3.1400000000000001
20
1.0674999999999999
11
3.1400000000000001
21
1.1225000000000001
0
LINE
8
BLACK
6
CONTINUOUS
10
3.1400000000000001
20
1.1225000000000001
11
3.1749999999999998
21
1.1225000000000001
0
LINE
8
BLACK
6
CONTINUOUS
10
3.1749999999999998
20
1.1225000000000001
11
3.1749999999999998
21
1.0674999999999999
0
LINE
8
BLACK
6
CONTINUOUS
10
3.25
20
1.0674999999999999
11
3.2149999999999999
21
1.0674999999999999
0
LINE
8
BLACK
6
CONTINUOUS
10
3.2149999999999999
20
1.0674999999999999
11
3.2149999999999999
21
1.1225000000000001
0
LINE
8
BLACK
6
CONTINUOUS
10
3.2149999999999999
20
1.1225000000000001
11
3.25
21
1.1225000000000001
0
LINE
8
BLACK
6
CONTINUOUS
10
3.25
20
1.1225000000000001
11
3.25
21
1.0674999999999999
0
LINE
8
BLACK
6
CONTINUOUS
10
2.295275590551181
20
1.0694881889763779
11
2.2362204724409449
21
1.0694881889763779
0
LINE
8
BLACK
6
CONTINUOUS
10
2.2362204724409449
20
1.0694881889763779
11
2.2362204724409449
21
1.0911417322834644
0
LINE
8
BLACK
6
CONTINUOUS
10
2.2362204724409449
20
1.0911417322834644
11
2.295275590551181
21
1.0911417322834644
0
LINE
8
BLACK
6
CONTINUOUS
10
2.295275590551181
20
1.0911417322834644
11
2.295275590551181
21
1.0694881889763779
0
LINE
8
BLACK
6
CONTINUOUS
10
2.7440944881889764
20
1.0694881889763779
11
2.6850393700787403
21
1.0694881889763779
0
LINE
8
BLACK
6
CONTINUOUS
10
2.6850393700787403
20
1.0694881889763779
11
2.6850393700787403
21
1.0911417322834644
0
LINE
8
BLACK
6
CONTINUOUS
10
2.6850393700787403
20
1.0911417322834644
11
2.7440944881889764
21
1.0911417322834644
0
LINE
8
BLACK
6
CONTINUOUS
10
2.7440944881889764
20
1.0911417322834644
11
2.7440944881889764
21
1.0694881889763779
0
LINE
8
BLACK
6
CONTINUOUS
10
1.5762992125984252
20
1.0722637795275591
11
1.5412992125984251
21
1.0722637795275591
0
LINE
8
BLACK
6
CONTINUOUS
10
1.5412992125984251
20
1.0722637795275591
11
1.5412992125984251
21
1.1272637795275591
0
LINE
8
BLACK
6
CONTINUOUS
10
1.5412992125984251
20
1.1272637795275591
11
1.5762992125984252
21
1.1272637795275591
0
LINE
8
BLACK
6
CONTINUOUS
10
1.5762992125984252
20
1.1272637795275591
11
1.5762992125984252
21
1.0722637795275591
0
LINE
8
BLACK
6
CONTINUOUS
10
1.6512992125984252
20
1.0722637795275591
11
1.6162992125984252
21
1.0722637795275591
0
LINE
8
BLACK
6
CONTINUOUS
10
1.6162992125984252
20
1.0722637795275591
11
1.6162992125984252
21
1.1272637795275591
0
LINE
8
BLACK
6
CONTINUOUS
10
1.6162992125984252
20
1.1272637795275591
11
1.6512992125984252
21
1.1272637795275591
0
LINE
8
BLACK
6
CONTINUOUS
10
1.6512992125984252
20
1.1272637795275591
11
1.6512992125984252
21
1.0722637795275591
0
LINE
8
BLACK
6
CONTINUOUS
10
1.2105118110236219
20
1.0729527559055119
11
1.1494881889763779
21
1.0729527559055119
0
LINE
8
BLACK
6
CONTINUOUS
10
1.1494881889763779
20
1.0729527559055119
11
1.1494881889763779
21
1.0965748031496063
0
LINE
8
BLACK
6
CONTINUOUS
10
1.1494881889763779
20
1.0965748031496063
11
1.2105118110236219
21
1.0965748031496063
0
LINE
8
BLACK
6
CONTINUOUS
10
1.2105118110236219
20
1.0965748031496063
11
1.2105118110236219
21
1.0729527559055119
0
LINE
8
BLACK
6
CONTINUOUS
10
1.4231102362204724
20
1.0729527559055119
11
1.3620866141732284
21
1.0729527559055119
0
LINE
8
BLACK
6
CONTINUOUS
10
1.3620866141732284
20
1.0729527559055119
11
1.3620866141732284
21
1.0965748031496063
0
LINE
8
BLACK
6
CONTINUOUS
10
1.3620866141732284
20
1.0965748031496063
11
1.4231102362204724
21
1.0965748031496063
0
LINE
8
BLACK
6
CONTINUOUS
10
1.4231102362204724
20
1.0965748031496063
11
1.4231102362204724
21
1.0729527559055119
0
LINE
8
BLACK
6
CONTINUOUS
10
1.5137992125984252
20
1.0747637795275591
11
1.4587992125984253
21
1.0747637795275591
0
LINE
8
BLACK
6
CONTINUOUS
10
1.4587992125984253
20
1.0747637795275591
11
1.4587992125984253
21
1.109763779527559
0
LINE
8
BLACK
6
CONTINUOUS
10
1.4587992125984253
20
1.109763779527559
11
1.5137992125984252
21
1.109763779527559
0
LINE
8
BLACK
6
CONTINUOUS
10
1.5137992125984252
20
1.109763779527559
11
1.5137992125984252
21
1.0747637795275591
0
LINE
8
BLACK
6
CONTINUOUS
10
3.0175000000000001
20
1.0874999999999999
11
2.9824999999999999
21
1.0874999999999999
0
LINE
8
BLACK
6
CONTINUOUS
10
2.9824999999999999
20
1.0874999999999999
11
2.9824999999999999
21
1.1425000000000001
0
LINE
8
BLACK
6
CONTINUOUS
10
2.9824999999999999
20
1.1425000000000001
11
3.0175000000000001
21
1.1425000000000001
0
LINE
8
BLACK
6
CONTINUOUS
10
3.0175000000000001
20
1.1425000000000001
11
3.0175000000000001
21
1.0874999999999999
0
LINE
8
BLACK
6
CONTINUOUS
10
3.0924999999999998
20
1.0874999999999999
11
3.0575000000000001
21
1.0874999999999999
0
LINE
8
BLACK
6
CONTINUOUS
10
3.0575000000000001
20
1.0874999999999999
11
3.0575000000000001
21
1.1425000000000001
0
LINE
8
BLACK
6
CONTINUOUS
10
3.0575000000000001
20
1.1425000000000001
11
3.0924999999999998
21
1.1425000000000001
0
LINE
8
BLACK
6
CONTINUOUS
10
3.0924999999999998
20
1.1425000000000001
11
3.0924999999999998
21
1.0874999999999999
0
LINE
8
BLACK
6
CONTINUOUS
10
0.7337992125984252
20
1.097263779527559
11
0.6787992125984251
21
1.097263779527559
0
LINE
8
BLACK
6
CONTINUOUS
10
0.6787992125984251
20
1.097263779527559
11
0.6787992125984251
21
1.132263779527559
0
LINE
8
BLACK
6
CONTINUOUS
10
0.6787992125984251
20
1.132263779527559
11
0.7337992125984252
21
1.132263779527559
0
LINE
8
BLACK
6
CONTINUOUS
10
0.7337992125984252
20
1.132263779527559
11
0.7337992125984252
21
1.097263779527559
0
LINE
8
BLACK
6
CONTINUOUS
10
0.8237992125984251
20
1.097263779527559
11
0.7687992125984252
21
1.097263779527559
0
LINE
8
BLACK
6
CONTINUOUS
10
0.7687992125984252
20
1.097263779527559
11
0.7687992125984252
21
1.132263779527559
0
LINE
8
BLACK
6
CONTINUOUS
10
0.7687992125984252
20
1.132263779527559
11
0.8237992125984251
21
1.132263779527559
0
LINE
8
BLACK
6
CONTINUOUS
10
0.8237992125984251
20
1.132263779527559
11
0.8237992125984251
21
1.097263779527559
0
LINE
8
BLACK
6
CONTINUOUS
10
1.9724999999999999
20
1.0999999999999999
11
1.9175
21
1.0999999999999999
0
LINE
8
BLACK
6
CONTINUOUS
10
1.9175
20
1.0999999999999999
11
1.9175
21
1.135
0
LINE
8
BLACK
6
CONTINUOUS
10
1.9175
20
1.135
11
1.9724999999999999
21
1.135
0
LINE
8
BLACK
6
CONTINUOUS
10
1.9724999999999999
20
1.135
11
1.9724999999999999
21
1.0999999999999999
0
LINE
8
BLACK
6
CONTINUOUS
10
2.295275590551181
20
1.1009842519685038
11
2.2362204724409449
21
1.1009842519685038
0
LINE
8
BLACK
6
CONTINUOUS
10
2.2362204724409449
20
1.1009842519685038
11
2.2362204724409449
21
1.1226377952755906
0
LINE
8
BLACK
6
CONTINUOUS
10
2.2362204724409449
20
1.1226377952755906
11
2.295275590551181
21
1.1226377952755906
0
LINE
8
BLACK
6
CONTINUOUS
10
2.295275590551181
20
1.1226377952755906
11
2.295275590551181
21
1.1009842519685038
0
LINE
8
BLACK
6
CONTINUOUS
10
2.7440944881889764
20
1.1009842519685038
11
2.6850393700787403
21
1.1009842519685038
0
LINE
8
BLACK
6
CONTINUOUS
10
2.6850393700787403
20
1.1009842519685038
11
2.6850393700787403
21
1.1226377952755906
0
LINE
8
BLACK
6
CONTINUOUS
10
2.6850393700787403
20
1.1226377952755906
11
2.7440944881889764
21
1.1226377952755906
0
LINE
8
BLACK
6
CONTINUOUS
10
2.7440944881889764
20
1.1226377952755906
11
2.7440944881889764
21
1.1009842519685038
0
LINE
8
BLACK
6
CONTINUOUS
10
0.9237992125984251
20
1.1022637795275589
11
0.8687992125984252
21
1.1022637795275589
0
LINE
8
BLACK
6
CONTINUOUS
10
0.8687992125984252
20
1.1022637795275589
11
0.8687992125984252
21
1.1372637795275591
0
LINE
8
BLACK
6
CONTINUOUS
10
0.8687992125984252
20
1.1372637795275591
11
0.9237992125984251
21
1.1372637795275591
0
LINE
8
BLACK
6
CONTINUOUS
10
0.9237992125984251
20
1.1372637795275591
11
0.9237992125984251
21
1.1022637795275589
0
LINE
8
BLACK
6
CONTINUOUS
10
1.0037992125984252
20
1.1022637795275589
11
0.9487992125984251
21
1.1022637795275589
0
LINE
8
BLACK
6
CONTINUOUS
10
0.9487992125984251
20
1.1022637795275589
11
0.9487992125984251
21
1.1372637795275591
0
LINE
8
BLACK
6
CONTINUOUS
10
0.9487992125984251
20
1.1372637795275591
11
1.0037992125984252
21
1.1372637795275591
0
LINE
8
BLACK
6
CONTINUOUS
10
1.0037992125984252
20
1.1372637795275591
11
1.0037992125984252
21
1.1022637795275589
0
LINE
8
BLACK
6
CONTINUOUS
10
0.330511811023622
20
1.1029527559055119
11
0.2694881889763779
21
1.1029527559055119
0
LINE
8
BLACK
6
CONTINUOUS
10
0.2694881889763779
20
1.1029527559055119
11
0.2694881889763779
21
1.1265748031496063
0
LINE
8
BLACK
6
CONTINUOUS
10
0.2694881889763779
20
1.1265748031496063
11
0.330511811023622
21
1.1265748031496063
0
LINE
8
BLACK
6
CONTINUOUS
10
0.330511811023622
20
1.1265748031496063
11
0.330511811023622
21
1.1029527559055119
0
LINE
8
BLACK
6
CONTINUOUS
10
0.5431102362204724
20
1.1029527559055119
11
0.4820866141732283
21
1.1029527559055119
0
LINE
8
BLACK
6
CONTINUOUS
10
0.4820866141732283
20
1.1029527559055119
11
0.4820866141732283
21
1.1265748031496063
0
LINE
8
BLACK
6
CONTINUOUS
10
0.4820866141732283
20
1.1265748031496063
11
0.5431102362204724
21
1.1265748031496063
0
LINE
8
BLACK
6
CONTINUOUS
10
0.5431102362204724
20
1.1265748031496063
11
0.5431102362204724
21
1.1029527559055119
0
LINE
8
BLACK
6
CONTINUOUS
10
2.8574999999999999
20
1.105
11
2.8024999999999998
21
1.105
0
LINE
8
BLACK
6
CONTINUOUS
10
2.8024999999999998
20
1.105
11
2.8024999999999998
21
1.1399999999999999
0
LINE
8
BLACK
6
CONTINUOUS
10
2.8024999999999998
20
1.1399999999999999
11
2.8574999999999999
21
1.1399999999999999
0
LINE
8
BLACK
6
CONTINUOUS
10
2.8574999999999999
20
1.1399999999999999
11
2.8574999999999999
21
1.105
0
LINE
8
BLACK
6
CONTINUOUS
10
2.9474999999999998
20
1.105
11
2.8925000000000001
21
1.105
0
LINE
8
BLACK
6
CONTINUOUS
10
2.8925000000000001
20
1.105
11
2.8925000000000001
21
1.1399999999999999
0
LINE
8
BLACK
6
CONTINUOUS
10
2.8925000000000001
20
1.1399999999999999
11
2.9474999999999998
21
1.1399999999999999
0
LINE
8
BLACK
6
CONTINUOUS
10
2.9474999999999998
20
1.1399999999999999
11
2.9474999999999998
21
1.105
0
LINE
8
BLACK
6
CONTINUOUS
10
0.2337992125984252
20
1.122263779527559
11
0.1787992125984252
21
1.122263779527559
0
LINE
8
BLACK
6
CONTINUOUS
10
0.1787992125984252
20
1.122263779527559
11
0.1787992125984252
21
1.1572637795275591
0
LINE
8
BLACK
6
CONTINUOUS
10
0.1787992125984252
20
1.1572637795275591
11
0.2337992125984252
21
1.1572637795275591
0
LINE
8
BLACK
6
CONTINUOUS
10
0.2337992125984252
20
1.1572637795275591
11
0.2337992125984252
21
1.122263779527559
0
LINE
8
BLACK
6
CONTINUOUS
10
2.295275590551181
20
1.13248031496063
11
2.2362204724409449
21
1.13248031496063
0
LINE
8
BLACK
6
CONTINUOUS
10
2.2362204724409449
20
1.13248031496063
11
2.2362204724409449
21
1.1541338582677165
0
LINE
8
BLACK
6
CONTINUOUS
10
2.2362204724409449
20
1.1541338582677165
11
2.295275590551181
21
1.1541338582677165
0
LINE
8
BLACK
6
CONTINUOUS
10
2.295275590551181
20
1.1541338582677165
11
2.295275590551181
21
1.13248031496063
0
LINE
8
BLACK
6
CONTINUOUS
10
2.7440944881889764
20
1.13248031496063
11
2.6850393700787403
21
1.13248031496063
0
LINE
8
BLACK
6
CONTINUOUS
10
2.6850393700787403
20
1.13248031496063
11
2.6850393700787403
21
1.1541338582677165
0
LINE
8
BLACK
6
CONTINUOUS
10
2.6850393700787403
20
1.1541338582677165
11
2.7440944881889764
21
1.1541338582677165
0
LINE
8
BLACK
6
CONTINUOUS
10
2.7440944881889764
20
1.1541338582677165
11
2.7440944881889764
21
1.13248031496063
0
LINE
8
BLACK
6
CONTINUOUS
10
1.1037992125984251
20
1.1347637795275591
11
1.0487992125984251
21
1.1347637795275591
0
LINE
8
BLACK
6
CONTINUOUS
10
1.0487992125984251
20
1.1347637795275591
11
1.0487992125984251
21
1.1697637795275591
0
LINE
8
BLACK
6
CONTINUOUS
10
1.0487992125984251
20
1.1697637795275591
11
1.1037992125984251
21
1.1697637795275591
0
LINE
8
BLACK
6
CONTINUOUS
10
1.1037992125984251
20
1.1697637795275591
11
1.1037992125984251
21
1.1347637795275591
0
LINE
8
BLACK
6
CONTINUOUS
10
3.1749999999999998
20
1.1475
11
3.1400000000000001
21
1.1475
0
LINE
8
BLACK
6
CONTINUOUS
10
3.1400000000000001
20
1.1475
11
3.1400000000000001
21
1.2024999999999999
0
LINE
8
BLACK
6
CONTINUOUS
10
3.1400000000000001
20
1.2024999999999999
11
3.1749999999999998
21
1.2024999999999999
0
LINE
8
BLACK
6
CONTINUOUS
10
3.1749999999999998
20
1.2024999999999999
11
3.1749999999999998
21
1.1475
0
LINE
8
BLACK
6
CONTINUOUS
10
3.25
20
1.1475
11
3.2149999999999999
21
1.1475
0
LINE
8
BLACK
6
CONTINUOUS
10
3.2149999999999999
20
1.1475
11
3.2149999999999999
21
1.2024999999999999
0
LINE
8
BLACK
6
CONTINUOUS
10
3.2149999999999999
20
1.2024999999999999
11
3.25
21
1.2024999999999999
0
LINE
8
BLACK
6
CONTINUOUS
10
3.25
20
1.2024999999999999
11
3.25
21
1.1475
0
LINE
8
BLACK
6
CONTINUOUS
10
1.5137992125984252
20
1.149763779527559
11
1.4587992125984253
21
1.149763779527559
0
LINE
8
BLACK
6
CONTINUOUS
10
1.4587992125984253
20
1.149763779527559
11
1.4587992125984253
21
1.184763779527559
0
LINE
8
BLACK
6
CONTINUOUS
10
1.4587992125984253
20
1.184763779527559
11
1.5137992125984252
21
1.184763779527559
0
LINE
8
BLACK
6
CONTINUOUS
10
1.5137992125984252
20
1.184763779527559
11
1.5137992125984252
21
1.149763779527559
0
LINE
8
BLACK
6
CONTINUOUS
10
0.330511811023622
20
1.1529527559055117
11
0.2694881889763779
21
1.1529527559055117
0
LINE
8
BLACK
6
CONTINUOUS
10
0.2694881889763779
20
1.1529527559055117
11
0.2694881889763779
21
1.1765748031496062
0
LINE
8
BLACK
6
CONTINUOUS
10
0.2694881889763779
20
1.1765748031496062
11
0.330511811023622
21
1.1765748031496062
0
LINE
8
BLACK
6
CONTINUOUS
10
0.330511811023622
20
1.1765748031496062
11
0.330511811023622
21
1.1529527559055117
0
LINE
8
BLACK
6
CONTINUOUS
10
0.5431102362204724
20
1.1529527559055117
11
0.4820866141732283
21
1.1529527559055117
0
LINE
8
BLACK
6
CONTINUOUS
10
0.4820866141732283
20
1.1529527559055117
11
0.4820866141732283
21
1.1765748031496062
0
LINE
8
BLACK
6
CONTINUOUS
10
0.4820866141732283
20
1.1765748031496062
11
0.5431102362204724
21
1.1765748031496062
0
LINE
8
BLACK
6
CONTINUOUS
10
0.5431102362204724
20
1.1765748031496062
11
0.5431102362204724
21
1.1529527559055117
0
LINE
8
BLACK
6
CONTINUOUS
10
0.6337992125984252
20
1.159763779527559
11
0.5787992125984252
21
1.159763779527559
0
LINE
8
BLACK
6
CONTINUOUS
10
0.5787992125984252
20
1.159763779527559
11
0.5787992125984252
21
1.194763779527559
0
LINE
8
BLACK
6
CONTINUOUS
10
0.5787992125984252
20
1.194763779527559
11
0.6337992125984252
21
1.194763779527559
0
LINE
8
BLACK
6
CONTINUOUS
10
0.6337992125984252
20
1.194763779527559
11
0.6337992125984252
21
1.159763779527559
0
LINE
8
BLACK
6
CONTINUOUS
10
0.7337992125984252
20
1.162263779527559
11
0.6787992125984251
21
1.162263779527559
0
LINE
8
BLACK
6
CONTINUOUS
10
0.6787992125984251
20
1.162263779527559
11
0.6787992125984251
21
1.1972637795275591
0
LINE
8
BLACK
6
CONTINUOUS
10
0.6787992125984251
20
1.1972637795275591
11
0.7337992125984252
21
1.1972637795275591
0
LINE
8
BLACK
6
CONTINUOUS
10
0.7337992125984252
20
1.1972637795275591
11
0.7337992125984252
21
1.162263779527559
0
LINE
8
BLACK
6
CONTINUOUS
10
2.295275590551181
20
1.1639763779527559
11
2.2362204724409449
21
1.1639763779527559
0
LINE
8
BLACK
6
CONTINUOUS
10
2.2362204724409449
20
1.1639763779527559
11
2.2362204724409449
21
1.1856299212598425
0
LINE
8
BLACK
6
CONTINUOUS
10
2.2362204724409449
20
1.1856299212598425
11
2.295275590551181
21
1.1856299212598425
0
LINE
8
BLACK
6
CONTINUOUS
10
2.295275590551181
20
1.1856299212598425
11
2.295275590551181
21
1.1639763779527559
0
LINE
8
BLACK
6
CONTINUOUS
10
2.7440944881889764
20
1.1639763779527559
11
2.6850393700787403
21
1.1639763779527559
0
LINE
8
BLACK
6
CONTINUOUS
10
2.6850393700787403
20
1.1639763779527559
11
2.6850393700787403
21
1.1856299212598425
0
LINE
8
BLACK
6
CONTINUOUS
10
2.6850393700787403
20
1.1856299212598425
11
2.7440944881889764
21
1.1856299212598425
0
LINE
8
BLACK
6
CONTINUOUS
10
2.7440944881889764
20
1.1856299212598425
11
2.7440944881889764
21
1.1639763779527559
0
LINE
8
BLACK
6
CONTINUOUS
10
1.9724999999999999
20
1.175
11
1.9175
21
1.175
0
LINE
8
BLACK
6
CONTINUOUS
10
1.9175
20
1.175
11
1.9175
21
1.21
0
LINE
8
BLACK
6
CONTINUOUS
10
1.9175
20
1.21
11
1.9724999999999999
21
1.21
0
LINE
8
BLACK
6
CONTINUOUS
10
1.9724999999999999
20
1.21
11
1.9724999999999999
21
1.175
0
LINE
8
BLACK
6
CONTINUOUS
10
2.0924999999999998
20
1.175
11
2.0375000000000001
21
1.175
0
LINE
8
BLACK
6
CONTINUOUS
10
2.0375000000000001
20
1.175
11
2.0375000000000001
21
1.21
0
LINE
8
BLACK
6
CONTINUOUS
10
2.0375000000000001
20
1.21
11
2.0924999999999998
21
1.21
0
LINE
8
BLACK
6
CONTINUOUS
10
2.0924999999999998
20
1.21
11
2.0924999999999998
21
1.175
0
LINE
8
BLACK
6
CONTINUOUS
10
2.8574999999999999
20
1.1799999999999999
11
2.8024999999999998
21
1.1799999999999999
0
LINE
8
BLACK
6
CONTINUOUS
10
2.8024999999999998
20
1.1799999999999999
11
2.8024999999999998
21
1.2150000000000001
0
LINE
8
BLACK
6
CONTINUOUS
10
2.8024999999999998
20
1.2150000000000001
11
2.8574999999999999
21
1.2150000000000001
0
LINE
8
BLACK
6
CONTINUOUS
10
2.8574999999999999
20
1.2150000000000001
11
2.8574999999999999
21
1.1799999999999999
0
LINE
8
BLACK
6
CONTINUOUS
10
2.9474999999999998
20
1.1799999999999999
11
2.8925000000000001
21
1.1799999999999999
0
LINE
8
BLACK
6
CONTINUOUS
10
2.8925000000000001
20
1.1799999999999999
11
2.8925000000000001
21
1.2150000000000001
0
LINE
8
BLACK
6
CONTINUOUS
10
2.8925000000000001
20
1.2150000000000001
11
2.9474999999999998
21
1.2150000000000001
0
LINE
8
BLACK
6
CONTINUOUS
10
2.9474999999999998
20
1.2150000000000001
11
2.9474999999999998
21
1.1799999999999999
0
LINE
8
BLACK
6
CONTINUOUS
10
2.295275590551181
20
1.1954724409448818
11
2.2362204724409449
21
1.1954724409448818
0
LINE
8
BLACK
6
CONTINUOUS
10
2.2362204724409449
20
1.1954724409448818
11
2.2362204724409449
21
1.2171259842519684
0
LINE
8
BLACK
6
CONTINUOUS
10
2.2362204724409449
20
1.2171259842519684
11
2.295275590551181
21
1.2171259842519684
0
LINE
8
BLACK
6
CONTINUOUS
10
2.295275590551181
20
1.2171259842519684
11
2.295275590551181
21
1.1954724409448818
0
LINE
8
BLACK
6
CONTINUOUS
10
2.7440944881889764
20
1.1954724409448818
11
2.6850393700787403
21
1.1954724409448818
0
LINE
8
BLACK
6
CONTINUOUS
10
2.6850393700787403
20
1.1954724409448818
11
2.6850393700787403
21
1.2171259842519684
0
LINE
8
BLACK
6
CONTINUOUS
10
2.6850393700787403
20
1.2171259842519684
11
2.7440944881889764
21
1.2171259842519684
0
LINE
8
BLACK
6
CONTINUOUS
10
2.7440944881889764
20
1.2171259842519684
11
2.7440944881889764
21
1.1954724409448818
0
LINE
8
BLACK
6
CONTINUOUS
10
0.2337992125984252
20
1.1972637795275591
11
0.1787992125984252
21
1.1972637795275591
0
LINE
8
BLACK
6
CONTINUOUS
10
0.1787992125984252
20
1.1972637795275591
11
0.1787992125984252
21
1.2322637795275591
0
LINE
8
BLACK
6
CONTINUOUS
10
0.1787992125984252
20
1.2322637795275591
11
0.2337992125984252
21
1.2322637795275591
0
LINE
8
BLACK
6
CONTINUOUS
10
0.2337992125984252
20
1.2322637795275591
11
0.2337992125984252
21
1.1972637795275591
0
LINE
8
BLACK
6
CONTINUOUS
10
2.295275590551181
20
1.2269685039370077
11
2.2362204724409449
21
1.2269685039370077
0
LINE
8
BLACK
6
CONTINUOUS
10
2.2362204724409449
20
1.2269685039370077
11
2.2362204724409449
21
1.2486220472440945
0
LINE
8
BLACK
6
CONTINUOUS
10
2.2362204724409449
20
1.2486220472440945
11
2.295275590551181
21
1.2486220472440945
0
LINE
8
BLACK
6
CONTINUOUS
10
2.295275590551181
20
1.2486220472440945
11
2.295275590551181
21
1.2269685039370077
0
LINE
8
BLACK
6
CONTINUOUS
10
2.7440944881889764
20
1.2269685039370077
11
2.6850393700787403
21
1.2269685039370077
0
LINE
8
BLACK
6
CONTINUOUS
10
2.6850393700787403
20
1.2269685039370077
11
2.6850393700787403
21
1.2486220472440945
0
LINE
8
BLACK
6
CONTINUOUS
10
2.6850393700787403
20
1.2486220472440945
11
2.7440944881889764
21
1.2486220472440945
0
LINE
8
BLACK
6
CONTINUOUS
10
2.7440944881889764
20
1.2486220472440945
11
2.7440944881889764
21
1.2269685039370077
0
LINE
8
BLACK
6
CONTINUOUS
10
3.1749999999999998
20
1.2324999999999999
11
3.1400000000000001
21
1.2324999999999999
0
LINE
8
BLACK
6
CONTINUOUS
10
3.1400000000000001
20
1.2324999999999999
11
3.1400000000000001
21
1.2874999999999999
0
LINE
8
BLACK
6
CONTINUOUS
10
3.1400000000000001
20
1.2874999999999999
11
3.1749999999999998
21
1.2874999999999999
0
LINE
8
BLACK
6
CONTINUOUS
10
3.1749999999999998
20
1.2874999999999999
11
3.1749999999999998
21
1.2324999999999999
0
LINE
8
BLACK
6
CONTINUOUS
10
3.25
20
1.2324999999999999
11
3.2149999999999999
21
1.2324999999999999
0
LINE
8
BLACK
6
CONTINUOUS
10
3.2149999999999999
20
1.2324999999999999
11
3.2149999999999999
21
1.2874999999999999
0
LINE
8
BLACK
6
CONTINUOUS
10
3.2149999999999999
20
1.2874999999999999
11
3.25
21
1.2874999999999999
0
LINE
8
BLACK
6
CONTINUOUS
10
3.25
20
1.2874999999999999
11
3.25
21
1.2324999999999999
0
LINE
8
BLACK
6
CONTINUOUS
10
0.6337992125984252
20
1.234763779527559
11
0.5787992125984252
21
1.234763779527559
0
LINE
8
BLACK
6
CONTINUOUS
10
0.5787992125984252
20
1.234763779527559
11
0.5787992125984252
21
1.2697637795275589
0
LINE
8
BLACK
6
CONTINUOUS
10
0.5787992125984252
20
1.2697637795275589
11
0.6337992125984252
21
1.2697637795275589
0
LINE
8
BLACK
6
CONTINUOUS
10
0.6337992125984252
20
1.2697637795275589
11
0.6337992125984252
21
1.234763779527559
0
LINE
8
BLACK
6
CONTINUOUS
10
1.5016929133858268
20
1.2359055118110236
11
1.4761023622047245
21
1.2359055118110236
0
LINE
8
BLACK
6
CONTINUOUS
10
1.4761023622047245
20
1.2359055118110236
11
1.4761023622047245
21
1.2973228346456693
0
LINE
8
BLACK
6
CONTINUOUS
10
1.4761023622047245
20
1.2973228346456693
11
1.5016929133858268
21
1.2973228346456693
0
LINE
8
BLACK
6
CONTINUOUS
10
1.5016929133858268
20
1.2973228346456693
11
1.5016929133858268
21
1.2359055118110236
0
LINE
8
BLACK
6
CONTINUOUS
10
1.5390944881889763
20
1.2359055118110236
11
1.513503937007874
21
1.2359055118110236
0
LINE
8
BLACK
6
CONTINUOUS
10
1.513503937007874
20
1.2359055118110236
11
1.513503937007874
21
1.2973228346456693
0
LINE
8
BLACK
6
CONTINUOUS
10
1.513503937007874
20
1.2973228346456693
11
1.5390944881889763
21
1.2973228346456693
0
LINE
8
BLACK
6
CONTINUOUS
10
1.5390944881889763
20
1.2973228346456693
11
1.5390944881889763
21
1.2359055118110236
0
LINE
8
BLACK
6
CONTINUOUS
10
1.5764960629921259
20
1.2359055118110236
11
1.5509055118110235
21
1.2359055118110236
0
LINE
8
BLACK
6
CONTINUOUS
10
1.5509055118110235
20
1.2359055118110236
11
1.5509055118110235
21
1.2973228346456693
0
LINE
8
BLACK
6
CONTINUOUS
10
1.5509055118110235
20
1.2973228346456693
11
1.5764960629921259
21
1.2973228346456693
0
LINE
8
BLACK
6
CONTINUOUS
10
1.5764960629921259
20
1.2973228346456693
11
1.5764960629921259
21
1.2359055118110236
0
LINE
8
BLACK
6
CONTINUOUS
10
0.7337992125984252
20
1.2372637795275589
11
0.6787992125984251
21
1.2372637795275589
0
LINE
8
BLACK
6
CONTINUOUS
10
0.6787992125984251
20
1.2372637795275589
11
0.6787992125984251
21
1.2722637795275591
0
LINE
8
BLACK
6
CONTINUOUS
10
0.6787992125984251
20
1.2722637795275591
11
0.7337992125984252
21
1.2722637795275591
0
LINE
8
BLACK
6
CONTINUOUS
10
0.7337992125984252
20
1.2722637795275591
11
0.7337992125984252
21
1.2372637795275589
0
LINE
8
BLACK
6
CONTINUOUS
10
2.8774999999999999
20
1.2375
11
2.8224999999999998
21
1.2375
0
LINE
8
BLACK
6
CONTINUOUS
10
2.8224999999999998
20
1.2375
11
2.8224999999999998
21
1.2725
0
LINE
8
BLACK
6
CONTINUOUS
10
2.8224999999999998
20
1.2725
11
2.8774999999999999
21
1.2725
0
LINE
8
BLACK
6
CONTINUOUS
10
2.8774999999999999
20
1.2725
11
2.8774999999999999
21
1.2375
0
LINE
8
BLACK
6
CONTINUOUS
10
1.2437992125984252
20
1.244763779527559
11
1.1887992125984252
21
1.244763779527559
0
LINE
8
BLACK
6
CONTINUOUS
10
1.1887992125984252
20
1.244763779527559
11
1.1887992125984252
21
1.2797637795275589
0
LINE
8
BLACK
6
CONTINUOUS
10
1.1887992125984252
20
1.2797637795275589
11
1.2437992125984252
21
1.2797637795275589
0
LINE
8
BLACK
6
CONTINUOUS
10
1.2437992125984252
20
1.2797637795275589
11
1.2437992125984252
21
1.244763779527559
0
LINE
8
BLACK
6
CONTINUOUS
10
1.3337992125984253
20
1.244763779527559
11
1.2787992125984251
21
1.244763779527559
0
LINE
8
BLACK
6
CONTINUOUS
10
1.2787992125984251
20
1.244763779527559
11
1.2787992125984251
21
1.2797637795275589
0
LINE
8
BLACK
6
CONTINUOUS
10
1.2787992125984251
20
1.2797637795275589
11
1.3337992125984253
21
1.2797637795275589
0
LINE
8
BLACK
6
CONTINUOUS
10
1.3337992125984253
20
1.2797637795275589
11
1.3337992125984253
21
1.244763779527559
0
LINE
8
BLACK
6
CONTINUOUS
10
1.4237992125984251
20
1.244763779527559
11
1.3687992125984252
21
1.244763779527559
0
LINE
8
BLACK
6
CONTINUOUS
10
1.3687992125984252
20
1.244763779527559
11
1.3687992125984252
21
1.2797637795275589
0
LINE
8
BLACK
6
CONTINUOUS
10
1.3687992125984252
20
1.2797637795275589
11
1.4237992125984251
21
1.2797637795275589
0
LINE
8
BLACK
6
CONTINUOUS
10
1.4237992125984251
20
1.2797637795275589
11
1.4237992125984251
21
1.244763779527559
0
LINE
8
BLACK
6
CONTINUOUS
10
2.96
20
1.2449999999999999
11
2.9100000000000001
21
1.2449999999999999
0
LINE
8
BLACK
6
CONTINUOUS
10
2.9100000000000001
20
1.2449999999999999
11
2.9100000000000001
21
1.345
0
LINE
8
BLACK
6
CONTINUOUS
10
2.9100000000000001
20
1.345
11
2.96
21
1.345
0
LINE
8
BLACK
6
CONTINUOUS
10
2.96
20
1.345
11
2.96
21
1.2449999999999999
0
LINE
8
BLACK
6
CONTINUOUS
10
3.0800000000000001
20
1.2449999999999999
11
3.0299999999999998
21
1.2449999999999999
0
LINE
8
BLACK
6
CONTINUOUS
10
3.0299999999999998
20
1.2449999999999999
11
3.0299999999999998
21
1.345
0
LINE
8
BLACK
6
CONTINUOUS
10
3.0299999999999998
20
1.345
11
3.0800000000000001
21
1.345
0
LINE
8
BLACK
6
CONTINUOUS
10
3.0800000000000001
20
1.345
11
3.0800000000000001
21
1.2449999999999999
0
LINE
8
BLACK
6
CONTINUOUS
10
2.0924999999999998
20
1.25
11
2.0375000000000001
21
1.25
0
LINE
8
BLACK
6
CONTINUOUS
10
2.0375000000000001
20
1.25
11
2.0375000000000001
21
1.2849999999999999
0
LINE
8
BLACK
6
CONTINUOUS
10
2.0375000000000001
20
1.2849999999999999
11
2.0924999999999998
21
1.2849999999999999
0
LINE
8
BLACK
6
CONTINUOUS
10
2.0924999999999998
20
1.2849999999999999
11
2.0924999999999998
21
1.25
0
LINE
8
BLACK
6
CONTINUOUS
10
2.295275590551181
20
1.2584645669291339
11
2.2362204724409449
21
1.2584645669291339
0
LINE
8
BLACK
6
CONTINUOUS
10
2.2362204724409449
20
1.2584645669291339
11
2.2362204724409449
21
1.2801181102362205
0
LINE
8
BLACK
6
CONTINUOUS
10
2.2362204724409449
20
1.2801181102362205
11
2.295275590551181
21
1.2801181102362205
0
LINE
8
BLACK
6
CONTINUOUS
10
2.295275590551181
20
1.2801181102362205
11
2.295275590551181
21
1.2584645669291339
0
LINE
8
BLACK
6
CONTINUOUS
10
2.7440944881889764
20
1.2584645669291339
11
2.6850393700787403
21
1.2584645669291339
0
LINE
8
BLACK
6
CONTINUOUS
10
2.6850393700787403
20
1.2584645669291339
11
2.6850393700787403
21
1.2801181102362205
0
LINE
8
BLACK
6
CONTINUOUS
10
2.6850393700787403
20
1.2801181102362205
11
2.7440944881889764
21
1.2801181102362205
0
LINE
8
BLACK
6
CONTINUOUS
10
2.7440944881889764
20
1.2801181102362205
11
2.7440944881889764
21
1.2584645669291339
0
LINE
8
BLACK
6
CONTINUOUS
10
1.8543700787401574
20
1.2806692913385826
11
1.8149999999999999
21
1.2806692913385826
0
LINE
8
BLACK
6
CONTINUOUS
10
1.8149999999999999
20
1.2806692913385826
11
1.8149999999999999
21
1.430275590551181
0
LINE
8
BLACK
6
CONTINUOUS
10
1.8149999999999999
20
1.430275590551181
11
1.8543700787401574
21
1.430275590551181
0
LINE
8
BLACK
6
CONTINUOUS
10
1.8543700787401574
20
1.430275590551181
11
1.8543700787401574
21
1.2806692913385826
0
LINE
8
BLACK
6
CONTINUOUS
10
3.578779527559055
20
1.2806692913385826
11
3.5394094488188976
21
1.2806692913385826
0
LINE
8
BLACK
6
CONTINUOUS
10
3.5394094488188976
20
1.2806692913385826
11
3.5394094488188976
21
1.430275590551181
0
LINE
8
BLACK
6
CONTINUOUS
10
3.5394094488188976
20
1.430275590551181
11
3.578779527559055
21
1.430275590551181
0
LINE
8
BLACK
6
CONTINUOUS
10
3.578779527559055
20
1.430275590551181
11
3.578779527559055
21
1.2806692913385826
0
LINE
8
BLACK
6
CONTINUOUS
10
0.0580314960629921
20
1.2830708661417323
11
0.0186614173228346
21
1.2830708661417323
0
LINE
8
BLACK
6
CONTINUOUS
10
0.0186614173228346
20
1.2830708661417323
11
0.0186614173228346
21
1.4326771653543307
0
LINE
8
BLACK
6
CONTINUOUS
10
0.0186614173228346
20
1.4326771653543307
11
0.0580314960629921
21
1.4326771653543307
0
LINE
8
BLACK
6
CONTINUOUS
10
0.0580314960629921
20
1.4326771653543307
11
0.0580314960629921
21
1.2830708661417323
0
LINE
8
BLACK
6
CONTINUOUS
10
1.7824409448818896
20
1.2830708661417323
11
1.7430708661417322
21
1.2830708661417323
0
LINE
8
BLACK
6
CONTINUOUS
10
1.7430708661417322
20
1.2830708661417323
11
1.7430708661417322
21
1.4326771653543307
0
LINE
8
BLACK
6
CONTINUOUS
10
1.7430708661417322
20
1.4326771653543307
11
1.7824409448818896
21
1.4326771653543307
0
LINE
8
BLACK
6
CONTINUOUS
10
1.7824409448818896
20
1.4326771653543307
11
1.7824409448818896
21
1.2830708661417323
0
LINE
8
BLACK
6
CONTINUOUS
10
2.295275590551181
20
1.2899606299212598
11
2.2362204724409449
21
1.2899606299212598
0
LINE
8
BLACK
6
CONTINUOUS
10
2.2362204724409449
20
1.2899606299212598
11
2.2362204724409449
21
1.3116141732283464
0
LINE
8
BLACK
6
CONTINUOUS
10
2.2362204724409449
20
1.3116141732283464
11
2.295275590551181
21
1.3116141732283464
0
LINE
8
BLACK
6
CONTINUOUS
10
2.295275590551181
20
1.3116141732283464
11
2.295275590551181
21
1.2899606299212598
0
LINE
8
BLACK
6
CONTINUOUS
10
2.7440944881889764
20
1.2899606299212598
11
2.6850393700787403
21
1.2899606299212598
0
LINE
8
BLACK
6
CONTINUOUS
10
2.6850393700787403
20
1.2899606299212598
11
2.6850393700787403
21
1.3116141732283464
0
LINE
8
BLACK
6
CONTINUOUS
10
2.6850393700787403
20
1.3116141732283464
11
2.7440944881889764
21
1.3116141732283464
0
LINE
8
BLACK
6
CONTINUOUS
10
2.7440944881889764
20
1.3116141732283464
11
2.7440944881889764
21
1.2899606299212598
0
LINE
8
BLACK
6
CONTINUOUS
10
1.6938582677165355
20
1.3045669291338582
11
1.6387401574803149
21
1.3045669291338582
0
LINE
8
BLACK
6
CONTINUOUS
10
1.6387401574803149
20
1.3045669291338582
11
1.6387401574803149
21
1.3399606299212599
0
LINE
8
BLACK
6
CONTINUOUS
10
1.6387401574803149
20
1.3399606299212599
11
1.6938582677165355
21
1.3399606299212599
0
LINE
8
BLACK
6
CONTINUOUS
10
1.6938582677165355
20
1.3399606299212599
11
1.6938582677165355
21
1.3045669291338582
0
LINE
8
BLACK
6
CONTINUOUS
10
0.8275
20
1.3049999999999999
11
0.7725
21
1.3049999999999999
0
LINE
8
BLACK
6
CONTINUOUS
10
0.7725
20
1.3049999999999999
11
0.7725
21
1.3400000000000001
0
LINE
8
BLACK
6
CONTINUOUS
10
0.7725
20
1.3400000000000001
11
0.8275
21
1.3400000000000001
0
LINE
8
BLACK
6
CONTINUOUS
10
0.8275
20
1.3400000000000001
11
0.8275
21
1.3049999999999999
0
LINE
8
BLACK
6
CONTINUOUS
10
0.9075
20
1.3049999999999999
11
0.8525
21
1.3049999999999999
0
LINE
8
BLACK
6
CONTINUOUS
10
0.8525
20
1.3049999999999999
11
0.8525
21
1.3400000000000001
0
LINE
8
BLACK
6
CONTINUOUS
10
0.8525
20
1.3400000000000001
11
0.9075
21
1.3400000000000001
0
LINE
8
BLACK
6
CONTINUOUS
10
0.9075
20
1.3400000000000001
11
0.9075
21
1.3049999999999999
0
LINE
8
BLACK
6
CONTINUOUS
10
0.9874999999999999
20
1.3049999999999999
11
0.9325
21
1.3049999999999999
0
LINE
8
BLACK
6
CONTINUOUS
10
0.9325
20
1.3049999999999999
11
0.9325
21
1.3400000000000001
0
LINE
8
BLACK
6
CONTINUOUS
10
0.9325
20
1.3400000000000001
11
0.9874999999999999
21
1.3400000000000001
0
LINE
8
BLACK
6
CONTINUOUS
10
0.9874999999999999
20
1.3400000000000001
11
0.9874999999999999
21
1.3049999999999999
0
LINE
8
BLACK
6
CONTINUOUS
10
0.7374999999999999
20
1.3074999999999999
11
0.6825
21
1.3074999999999999
0
LINE
8
BLACK
6
CONTINUOUS
10
0.6825
20
1.3074999999999999
11
0.6825
21
1.3425
0
LINE
8
BLACK
6
CONTINUOUS
10
0.6825
20
1.3425
11
0.7374999999999999
21
1.3425
0
LINE
8
BLACK
6
CONTINUOUS
10
0.7374999999999999
20
1.3425
11
0.7374999999999999
21
1.3074999999999999
0
LINE
8
BLACK
6
CONTINUOUS
10
2.8774999999999999
20
1.3125
11
2.8224999999999998
21
1.3125
0
LINE
8
BLACK
6
CONTINUOUS
10
2.8224999999999998
20
1.3125
11
2.8224999999999998
21
1.3474999999999999
0
LINE
8
BLACK
6
CONTINUOUS
10
2.8224999999999998
20
1.3474999999999999
11
2.8774999999999999
21
1.3474999999999999
0
LINE
8
BLACK
6
CONTINUOUS
10
2.8774999999999999
20
1.3474999999999999
11
2.8774999999999999
21
1.3125
0
LINE
8
BLACK
6
CONTINUOUS
10
1.2437992125984252
20
1.319763779527559
11
1.1887992125984252
21
1.319763779527559
0
LINE
8
BLACK
6
CONTINUOUS
10
1.1887992125984252
20
1.319763779527559
11
1.1887992125984252
21
1.3547637795275591
0
LINE
8
BLACK
6
CONTINUOUS
10
1.1887992125984252
20
1.3547637795275591
11
1.2437992125984252
21
1.3547637795275591
0
LINE
8
BLACK
6
CONTINUOUS
10
1.2437992125984252
20
1.3547637795275591
11
1.2437992125984252
21
1.319763779527559
0
LINE
8
BLACK
6
CONTINUOUS
10
1.3337992125984253
20
1.319763779527559
11
1.2787992125984251
21
1.319763779527559
0
LINE
8
BLACK
6
CONTINUOUS
10
1.2787992125984251
20
1.319763779527559
11
1.2787992125984251
21
1.3547637795275591
0
LINE
8
BLACK
6
CONTINUOUS
10
1.2787992125984251
20
1.3547637795275591
11
1.3337992125984253
21
1.3547637795275591
0
LINE
8
BLACK
6
CONTINUOUS
10
1.3337992125984253
20
1.3547637795275591
11
1.3337992125984253
21
1.319763779527559
0
LINE
8
BLACK
6
CONTINUOUS
10
1.4237992125984251
20
1.319763779527559
11
1.3687992125984252
21
1.319763779527559
0
LINE
8
BLACK
6
CONTINUOUS
10
1.3687992125984252
20
1.319763779527559
11
1.3687992125984252
21
1.3547637795275591
0
LINE
8
BLACK
6
CONTINUOUS
10
1.3687992125984252
20
1.3547637795275591
11
1.4237992125984251
21
1.3547637795275591
0
LINE
8
BLACK
6
CONTINUOUS
10
1.4237992125984251
20
1.3547637795275591
11
1.4237992125984251
21
1.319763779527559
0
LINE
8
BLACK
6
CONTINUOUS
10
2.295275590551181
20
1.3214566929133857
11
2.2362204724409449
21
1.3214566929133857
0
LINE
8
BLACK
6
CONTINUOUS
10
2.2362204724409449
20
1.3214566929133857
11
2.2362204724409449
21
1.3431102362204723
0
LINE
8
BLACK
6
CONTINUOUS
10
2.2362204724409449
20
1.3431102362204723
11
2.295275590551181
21
1.3431102362204723
0
LINE
8
BLACK
6
CONTINUOUS
10
2.295275590551181
20
1.3431102362204723
11
2.295275590551181
21
1.3214566929133857
0
LINE
8
BLACK
6
CONTINUOUS
10
2.7440944881889764
20
1.3214566929133857
11
2.6850393700787403
21
1.3214566929133857
0
LINE
8
BLACK
6
CONTINUOUS
10
2.6850393700787403
20
1.3214566929133857
11
2.6850393700787403
21
1.3431102362204723
0
LINE
8
BLACK
6
CONTINUOUS
10
2.6850393700787403
20
1.3431102362204723
11
2.7440944881889764
21
1.3431102362204723
0
LINE
8
BLACK
6
CONTINUOUS
10
2.7440944881889764
20
1.3431102362204723
11
2.7440944881889764
21
1.3214566929133857
0
LINE
8
BLACK
6
CONTINUOUS
10
1.5016929133858268
20
1.3422047244094488
11
1.4761023622047245
21
1.3422047244094488
0
LINE
8
BLACK
6
CONTINUOUS
10
1.4761023622047245
20
1.3422047244094488
11
1.4761023622047245
21
1.4036220472440946
0
LINE
8
BLACK
6
CONTINUOUS
10
1.4761023622047245
20
1.4036220472440946
11
1.5016929133858268
21
1.4036220472440946
0
LINE
8
BLACK
6
CONTINUOUS
10
1.5016929133858268
20
1.4036220472440946
11
1.5016929133858268
21
1.3422047244094488
0
LINE
8
BLACK
6
CONTINUOUS
10
1.5764960629921259
20
1.3422047244094488
11
1.5509055118110235
21
1.3422047244094488
0
LINE
8
BLACK
6
CONTINUOUS
10
1.5509055118110235
20
1.3422047244094488
11
1.5509055118110235
21
1.4036220472440946
0
LINE
8
BLACK
6
CONTINUOUS
10
1.5509055118110235
20
1.4036220472440946
11
1.5764960629921259
21
1.4036220472440946
0
LINE
8
BLACK
6
CONTINUOUS
10
1.5764960629921259
20
1.4036220472440946
11
1.5764960629921259
21
1.3422047244094488
0
LINE
8
BLACK
6
CONTINUOUS
10
2.295275590551181
20
1.3529527559055117
11
2.2362204724409449
21
1.3529527559055117
0
LINE
8
BLACK
6
CONTINUOUS
10
2.2362204724409449
20
1.3529527559055117
11
2.2362204724409449
21
1.3746062992125985
0
LINE
8
BLACK
6
CONTINUOUS
10
2.2362204724409449
20
1.3746062992125985
11
2.295275590551181
21
1.3746062992125985
0
LINE
8
BLACK
6
CONTINUOUS
10
2.295275590551181
20
1.3746062992125985
11
2.295275590551181
21
1.3529527559055117
0
LINE
8
BLACK
6
CONTINUOUS
10
2.7440944881889764
20
1.3529527559055117
11
2.6850393700787403
21
1.3529527559055117
0
LINE
8
BLACK
6
CONTINUOUS
10
2.6850393700787403
20
1.3529527559055117
11
2.6850393700787403
21
1.3746062992125985
0
LINE
8
BLACK
6
CONTINUOUS
10
2.6850393700787403
20
1.3746062992125985
11
2.7440944881889764
21
1.3746062992125985
0
LINE
8
BLACK
6
CONTINUOUS
10
2.7440944881889764
20
1.3746062992125985
11
2.7440944881889764
21
1.3529527559055117
0
LINE
8
BLACK
6
CONTINUOUS
10
1.6938582677165355
20
1.379763779527559
11
1.6387401574803149
21
1.379763779527559
0
LINE
8
BLACK
6
CONTINUOUS
10
1.6387401574803149
20
1.379763779527559
11
1.6387401574803149
21
1.4147637795275589
0
LINE
8
BLACK
6
CONTINUOUS
10
1.6387401574803149
20
1.4147637795275589
11
1.6938582677165355
21
1.4147637795275589
0
LINE
8
BLACK
6
CONTINUOUS
10
1.6938582677165355
20
1.4147637795275589
11
1.6938582677165355
21
1.379763779527559
0
LINE
8
BLACK
6
CONTINUOUS
10
0.8275
20
1.3799999999999999
11
0.7725
21
1.3799999999999999
0
LINE
8
BLACK
6
CONTINUOUS
10
0.7725
20
1.3799999999999999
11
0.7725
21
1.415
0
LINE
8
BLACK
6
CONTINUOUS
10
0.7725
20
1.415
11
0.8275
21
1.415
0
LINE
8
BLACK
6
CONTINUOUS
10
0.8275
20
1.415
11
0.8275
21
1.3799999999999999
0
LINE
8
BLACK
6
CONTINUOUS
10
0.9075
20
1.3799999999999999
11
0.8525
21
1.3799999999999999
0
LINE
8
BLACK
6
CONTINUOUS
10
0.8525
20
1.3799999999999999
11
0.8525
21
1.415
0
LINE
8
BLACK
6
CONTINUOUS
10
0.8525
20
1.415
11
0.9075
21
1.415
0
LINE
8
BLACK
6
CONTINUOUS
10
0.9075
20
1.415
11
0.9075
21
1.3799999999999999
0
LINE
8
BLACK
6
CONTINUOUS
10
0.9874999999999999
20
1.3799999999999999
11
0.9325
21
1.3799999999999999
0
LINE
8
BLACK
6
CONTINUOUS
10
0.9325
20
1.3799999999999999
11
0.9325
21
1.415
0
LINE
8
BLACK
6
CONTINUOUS
10
0.9325
20
1.415
11
0.9874999999999999
21
1.415
0
LINE
8
BLACK
6
CONTINUOUS
10
0.9874999999999999
20
1.415
11
0.9874999999999999
21
1.3799999999999999
0
LINE
8
BLACK
6
CONTINUOUS
10
0.7374999999999999
20
1.3825000000000001
11
0.6825
21
1.3825000000000001
0
LINE
8
BLACK
6
CONTINUOUS
10
0.6825
20
1.3825000000000001
11
0.6825
21
1.4175
0
LINE
8
BLACK
6
CONTINUOUS
10
0.6825
20
1.4175
11
0.7374999999999999
21
1.4175
0
LINE
8
BLACK
6
CONTINUOUS
10
0.7374999999999999
20
1.4175
11
0.7374999999999999
21
1.3825000000000001
0
LINE
8
BLACK
6
CONTINUOUS
10
2.3435039370078741
20
1.4011811023622047
11
2.3218503937007875
21
1.4011811023622047
0
LINE
8
BLACK
6
CONTINUOUS
10
2.3218503937007875
20
1.4011811023622047
11
2.3218503937007875
21
1.4602362204724408
0
LINE
8
BLACK
6
CONTINUOUS
10
2.3218503937007875
20
1.4602362204724408
11
2.3435039370078741
21
1.4602362204724408
0
LINE
8
BLACK
6
CONTINUOUS
10
2.3435039370078741
20
1.4602362204724408
11
2.3435039370078741
21
1.4011811023622047
0
LINE
8
BLACK
6
CONTINUOUS
10
2.375
20
1.4011811023622047
11
2.3533464566929134
21
1.4011811023622047
0
LINE
8
BLACK
6
CONTINUOUS
10
2.3533464566929134
20
1.4011811023622047
11
2.3533464566929134
21
1.4602362204724408
0
LINE
8
BLACK
6
CONTINUOUS
10
2.3533464566929134
20
1.4602362204724408
11
2.375
21
1.4602362204724408
0
LINE
8
BLACK
6
CONTINUOUS
10
2.375
20
1.4602362204724408
11
2.375
21
1.4011811023622047
0
LINE
8
BLACK
6
CONTINUOUS
10
2.4064960629921259
20
1.4011811023622047
11
2.3848425196850394
21
1.4011811023622047
0
LINE
8
BLACK
6
CONTINUOUS
10
2.3848425196850394
20
1.4011811023622047
11
2.3848425196850394
21
1.4602362204724408
0
LINE
8
BLACK
6
CONTINUOUS
10
2.3848425196850394
20
1.4602362204724408
11
2.4064960629921259
21
1.4602362204724408
0
LINE
8
BLACK
6
CONTINUOUS
10
2.4064960629921259
20
1.4602362204724408
11
2.4064960629921259
21
1.4011811023622047
0
LINE
8
BLACK
6
CONTINUOUS
10
2.4379921259842519
20
1.4011811023622047
11
2.4163385826771653
21
1.4011811023622047
0
LINE
8
BLACK
6
CONTINUOUS
10
2.4163385826771653
20
1.4011811023622047
11
2.4163385826771653
21
1.4602362204724408
0
LINE
8
BLACK
6
CONTINUOUS
10
2.4163385826771653
20
1.4602362204724408
11
2.4379921259842519
21
1.4602362204724408
0
LINE
8
BLACK
6
CONTINUOUS
10
2.4379921259842519
20
1.4602362204724408
11
2.4379921259842519
21
1.4011811023622047
0
LINE
8
BLACK
6
CONTINUOUS
10
2.4694881889763778
20
1.4011811023622047
11
2.4478346456692912
21
1.4011811023622047
0
LINE
8
BLACK
6
CONTINUOUS
10
2.4478346456692912
20
1.4011811023622047
11
2.4478346456692912
21
1.4602362204724408
0
LINE
8
BLACK
6
CONTINUOUS
10
2.4478346456692912
20
1.4602362204724408
11
2.4694881889763778
21
1.4602362204724408
0
LINE
8
BLACK
6
CONTINUOUS
10
2.4694881889763778
20
1.4602362204724408
11
2.4694881889763778
21
1.4011811023622047
0
LINE
8
BLACK
6
CONTINUOUS
10
2.5009842519685037
20
1.4011811023622047
11
2.4793307086614171
21
1.4011811023622047
0
LINE
8
BLACK
6
CONTINUOUS
10
2.4793307086614171
20
1.4011811023622047
11
2.4793307086614171
21
1.4602362204724408
0
LINE
8
BLACK
6
CONTINUOUS
10
2.4793307086614171
20
1.4602362204724408
11
2.5009842519685037
21
1.4602362204724408
0
LINE
8
BLACK
6
CONTINUOUS
10
2.5009842519685037
20
1.4602362204724408
11
2.5009842519685037
21
1.4011811023622047
0
LINE
8
BLACK
6
CONTINUOUS
10
2.5324803149606301
20
1.4011811023622047
11
2.5108267716535431
21
1.4011811023622047
0
LINE
8
BLACK
6
CONTINUOUS
10
2.5108267716535431
20
1.4011811023622047
11
2.5108267716535431
21
1.4602362204724408
0
LINE
8
BLACK
6
CONTINUOUS
10
2.5108267716535431
20
1.4602362204724408
11
2.5324803149606301
21
1.4602362204724408
0
LINE
8
BLACK
6
CONTINUOUS
10
2.5324803149606301
20
1.4602362204724408
11
2.5324803149606301
21
1.4011811023622047
0
LINE
8
BLACK
6
CONTINUOUS
10
2.563976377952756
20
1.4011811023622047
11
2.5423228346456694
21
1.4011811023622047
0
LINE
8
BLACK
6
CONTINUOUS
10
2.5423228346456694
20
1.4011811023622047
11
2.5423228346456694
21
1.4602362204724408
0
LINE
8
BLACK
6
CONTINUOUS
10
2.5423228346456694
20
1.4602362204724408
11
2.563976377952756
21
1.4602362204724408
0
LINE
8
BLACK
6
CONTINUOUS
10
2.563976377952756
20
1.4602362204724408
11
2.563976377952756
21
1.4011811023622047
0
LINE
8
BLACK
6
CONTINUOUS
10
2.5954724409448819
20
1.4011811023622047
11
2.5738188976377954
21
1.4011811023622047
0
LINE
8
BLACK
6
CONTINUOUS
10
2.5738188976377954
20
1.4011811023622047
11
2.5738188976377954
21
1.4602362204724408
0
LINE
8
BLACK
6
CONTINUOUS
10
2.5738188976377954
20
1.4602362204724408
11
2.5954724409448819
21
1.4602362204724408
0
LINE
8
BLACK
6
CONTINUOUS
10
2.5954724409448819
20
1.4602362204724408
11
2.5954724409448819
21
1.4011811023622047
0
LINE
8
BLACK
6
CONTINUOUS
10
2.6269685039370079
20
1.4011811023622047
11
2.6053149606299213
21
1.4011811023622047
0
LINE
8
BLACK
6
CONTINUOUS
10
2.6053149606299213
20
1.4011811023622047
11
2.6053149606299213
21
1.4602362204724408
0
LINE
8
BLACK
6
CONTINUOUS
10
2.6053149606299213
20
1.4602362204724408
11
2.6269685039370079
21
1.4602362204724408
0
LINE
8
BLACK
6
CONTINUOUS
10
2.6269685039370079
20
1.4602362204724408
11
2.6269685039370079
21
1.4011811023622047
0
LINE
8
BLACK
6
CONTINUOUS
10
2.6584645669291338
20
1.4011811023622047
11
2.6368110236220472
21
1.4011811023622047
0
LINE
8
BLACK
6
CONTINUOUS
10
2.6368110236220472
20
1.4011811023622047
11
2.6368110236220472
21
1.4602362204724408
0
LINE
8
BLACK
6
CONTINUOUS
10
2.6368110236220472
20
1.4602362204724408
11
2.6584645669291338
21
1.4602362204724408
0
LINE
8
BLACK
6
CONTINUOUS
10
2.6584645669291338
20
1.4602362204724408
11
2.6584645669291338
21
1.4011811023622047
0
LINE
8
BLACK
6
CONTINUOUS
10
1.98
20
1.4275
11
1.9450000000000001
21
1.4275
0
LINE
8
BLACK
6
CONTINUOUS
10
1.9450000000000001
20
1.4275
11
1.9450000000000001
21
1.4824999999999999
0
LINE
8
BLACK
6
CONTINUOUS
10
1.9450000000000001
20
1.4824999999999999
11
1.98
21
1.4824999999999999
0
LINE
8
BLACK
6
CONTINUOUS
10
1.98
20
1.4824999999999999
11
1.98
21
1.4275
0
LINE
8
BLACK
6
CONTINUOUS
10
2.0550000000000002
20
1.4275
11
2.02
21
1.4275
0
LINE
8
BLACK
6
CONTINUOUS
10
2.02
20
1.4275
11
2.02
21
1.4824999999999999
0
LINE
8
BLACK
6
CONTINUOUS
10
2.02
20
1.4824999999999999
11
2.0550000000000002
21
1.4824999999999999
0
LINE
8
BLACK
6
CONTINUOUS
10
2.0550000000000002
20
1.4824999999999999
11
2.0550000000000002
21
1.4275
0
LINE
8
BLACK
6
CONTINUOUS
10
2.125
20
1.4275
11
2.0899999999999999
21
1.4275
0
LINE
8
BLACK
6
CONTINUOUS
10
2.0899999999999999
20
1.4275
11
2.0899999999999999
21
1.4824999999999999
0
LINE
8
BLACK
6
CONTINUOUS
10
2.0899999999999999
20
1.4824999999999999
11
2.125
21
1.4824999999999999
0
LINE
8
BLACK
6
CONTINUOUS
10
2.125
20
1.4824999999999999
11
2.125
21
1.4275
0
LINE
8
BLACK
6
CONTINUOUS
10
2.1999999999999997
20
1.4275
11
2.165
21
1.4275
0
LINE
8
BLACK
6
CONTINUOUS
10
2.165
20
1.4275
11
2.165
21
1.4824999999999999
0
LINE
8
BLACK
6
CONTINUOUS
10
2.165
20
1.4824999999999999
11
2.1999999999999997
21
1.4824999999999999
0
LINE
8
BLACK
6
CONTINUOUS
10
2.1999999999999997
20
1.4824999999999999
11
2.1999999999999997
21
1.4275
0
LINE
8
BLACK
6
CONTINUOUS
10
3.0069291338582675
20
1.4454724409448818
11
2.9655905511811023
21
1.4454724409448818
0
LINE
8
BLACK
6
CONTINUOUS
10
2.9655905511811023
20
1.4454724409448818
11
2.9655905511811023
21
1.5045275590551181
0
LINE
8
BLACK
6
CONTINUOUS
10
2.9655905511811023
20
1.5045275590551181
11
3.0069291338582675
21
1.5045275590551181
0
LINE
8
BLACK
6
CONTINUOUS
10
3.0069291338582675
20
1.5045275590551181
11
3.0069291338582675
21
1.4454724409448818
0
LINE
8
BLACK
6
CONTINUOUS
10
3.1644094488188976
20
1.4454724409448818
11
3.1230708661417323
21
1.4454724409448818
0
LINE
8
BLACK
6
CONTINUOUS
10
3.1230708661417323
20
1.4454724409448818
11
3.1230708661417323
21
1.5045275590551181
0
LINE
8
BLACK
6
CONTINUOUS
10
3.1230708661417323
20
1.5045275590551181
11
3.1644094488188976
21
1.5045275590551181
0
LINE
8
BLACK
6
CONTINUOUS
10
3.1644094488188976
20
1.5045275590551181
11
3.1644094488188976
21
1.4454724409448818
0
LINE
8
BLACK
6
CONTINUOUS
10
2.855
20
1.4475
11
2.8199999999999998
21
1.4475
0
LINE
8
BLACK
6
CONTINUOUS
10
2.8199999999999998
20
1.4475
11
2.8199999999999998
21
1.5024999999999999
0
LINE
8
BLACK
6
CONTINUOUS
10
2.8199999999999998
20
1.5024999999999999
11
2.855
21
1.5024999999999999
0
LINE
8
BLACK
6
CONTINUOUS
10
2.855
20
1.5024999999999999
11
2.855
21
1.4475
0
LINE
8
BLACK
6
CONTINUOUS
10
2.9299999999999997
20
1.4475
11
2.895
21
1.4475
0
LINE
8
BLACK
6
CONTINUOUS
10
2.895
20
1.4475
11
2.895
21
1.5024999999999999
0
LINE
8
BLACK
6
CONTINUOUS
10
2.895
20
1.5024999999999999
11
2.9299999999999997
21
1.5024999999999999
0
LINE
8
BLACK
6
CONTINUOUS
10
2.9299999999999997
20
1.5024999999999999
11
2.9299999999999997
21
1.4475
0
LINE
8
BLACK
6
CONTINUOUS
10
0.7424999999999999
20
1.4724999999999999
11
0.7075
21
1.4724999999999999
0
LINE
8
BLACK
6
CONTINUOUS
10
0.7075
20
1.4724999999999999
11
0.7075
21
1.5274999999999999
0
LINE
8
BLACK
6
CONTINUOUS
10
0.7075
20
1.5274999999999999
11
0.7424999999999999
21
1.5274999999999999
0
LINE
8
BLACK
6
CONTINUOUS
10
0.7424999999999999
20
1.5274999999999999
11
0.7424999999999999
21
1.4724999999999999
0
LINE
8
BLACK
6
CONTINUOUS
10
0.8175
20
1.4724999999999999
11
0.7825
21
1.4724999999999999
0
LINE
8
BLACK
6
CONTINUOUS
10
0.7825
20
1.4724999999999999
11
0.7825
21
1.5274999999999999
0
LINE
8
BLACK
6
CONTINUOUS
10
0.7825
20
1.5274999999999999
11
0.8175
21
1.5274999999999999
0
LINE
8
BLACK
6
CONTINUOUS
10
0.8175
20
1.5274999999999999
11
0.8175
21
1.4724999999999999
0
LINE
8
BLACK
6
CONTINUOUS
10
0.8925
20
1.4724999999999999
11
0.8574999999999999
21
1.4724999999999999
0
LINE
8
BLACK
6
CONTINUOUS
10
0.8574999999999999
20
1.4724999999999999
11
0.8574999999999999
21
1.5274999999999999
0
LINE
8
BLACK
6
CONTINUOUS
10
0.8574999999999999
20
1.5274999999999999
11
0.8925
21
1.5274999999999999
0
LINE
8
BLACK
6
CONTINUOUS
10
0.8925
20
1.5274999999999999
11
0.8925
21
1.4724999999999999
0
LINE
8
BLACK
6
CONTINUOUS
10
0.9675
20
1.4724999999999999
11
0.9325
21
1.4724999999999999
0
LINE
8
BLACK
6
CONTINUOUS
10
0.9325
20
1.4724999999999999
11
0.9325
21
1.5274999999999999
0
LINE
8
BLACK
6
CONTINUOUS
10
0.9325
20
1.5274999999999999
11
0.9675
21
1.5274999999999999
0
LINE
8
BLACK
6
CONTINUOUS
10
0.9675
20
1.5274999999999999
11
0.9675
21
1.4724999999999999
0
LINE
8
BLACK
6
CONTINUOUS
10
1.0425
20
1.4724999999999999
11
1.0075000000000001
21
1.4724999999999999
0
LINE
8
BLACK
6
CONTINUOUS
10
1.0075000000000001
20
1.4724999999999999
11
1.0075000000000001
21
1.5274999999999999
0
LINE
8
BLACK
6
CONTINUOUS
10
1.0075000000000001
20
1.5274999999999999
11
1.0425
21
1.5274999999999999
0
LINE
8
BLACK
6
CONTINUOUS
10
1.0425
20
1.5274999999999999
11
1.0425
21
1.4724999999999999
0
LINE
8
BLACK
6
CONTINUOUS
10
1.1174999999999999
20
1.4724999999999999
11
1.0825
21
1.4724999999999999
0
LINE
8
BLACK
6
CONTINUOUS
10
1.0825
20
1.4724999999999999
11
1.0825
21
1.5274999999999999
0
LINE
8
BLACK
6
CONTINUOUS
10
1.0825
20
1.5274999999999999
11
1.1174999999999999
21
1.5274999999999999
0
LINE
8
BLACK
6
CONTINUOUS
10
1.1174999999999999
20
1.5274999999999999
11
1.1174999999999999
21
1.4724999999999999
0
LINE
8
BLACK
6
CONTINUOUS
10
2.5049999999999999
20
1.4875
11
2.4699999999999998
21
1.4875
0
LINE
8
BLACK
6
CONTINUOUS
10
2.4699999999999998
20
1.4875
11
2.4699999999999998
21
1.5425
0
LINE
8
BLACK
6
CONTINUOUS
10
2.4699999999999998
20
1.5425
11
2.5049999999999999
21
1.5425
0
LINE
8
BLACK
6
CONTINUOUS
10
2.5049999999999999
20
1.5425
11
2.5049999999999999
21
1.4875
0
LINE
8
BLACK
6
CONTINUOUS
10
2.5800000000000001
20
1.4875
11
2.5449999999999999
21
1.4875
0
LINE
8
BLACK
6
CONTINUOUS
10
2.5449999999999999
20
1.4875
11
2.5449999999999999
21
1.5425
0
LINE
8
BLACK
6
CONTINUOUS
10
2.5449999999999999
20
1.5425
11
2.5800000000000001
21
1.5425
0
LINE
8
BLACK
6
CONTINUOUS
10
2.5800000000000001
20
1.5425
11
2.5800000000000001
21
1.4875
0
LINE
8
BLACK
6
CONTINUOUS
10
1.9449212598425196
20
1.5168897637795276
11
1.8149999999999999
21
1.5168897637795276
0
LINE
8
BLACK
6
CONTINUOUS
10
1.8149999999999999
20
1.5168897637795276
11
1.8149999999999999
21
1.6172834645669292
0
LINE
8
BLACK
6
CONTINUOUS
10
1.8149999999999999
20
1.6172834645669292
11
1.9449212598425196
21
1.6172834645669292
0
LINE
8
BLACK
6
CONTINUOUS
10
1.9449212598425196
20
1.6172834645669292
11
1.9449212598425196
21
1.5168897637795276
0
LINE
8
BLACK
6
CONTINUOUS
10
3.578779527559055
20
1.5168897637795276
11
3.4488582677165351
21
1.5168897637795276
0
LINE
8
BLACK
6
CONTINUOUS
10
3.4488582677165351
20
1.5168897637795276
11
3.4488582677165351
21
1.6172834645669292
0
LINE
8
BLACK
6
CONTINUOUS
10
3.4488582677165351
20
1.6172834645669292
11
3.578779527559055
21
1.6172834645669292
0
LINE
8
BLACK
6
CONTINUOUS
10
3.578779527559055
20
1.6172834645669292
11
3.578779527559055
21
1.5168897637795276
0
LINE
8
BLACK
6
CONTINUOUS
10
0.1485826771653543
20
1.5192913385826772
11
0.0186614173228346
21
1.5192913385826772
0
LINE
8
BLACK
6
CONTINUOUS
10
0.0186614173228346
20
1.5192913385826772
11
0.0186614173228346
21
1.6196850393700788
0
LINE
8
BLACK
6
CONTINUOUS
10
0.0186614173228346
20
1.6196850393700788
11
0.1485826771653543
21
1.6196850393700788
0
LINE
8
BLACK
6
CONTINUOUS
10
0.1485826771653543
20
1.6196850393700788
11
0.1485826771653543
21
1.5192913385826772
0
LINE
8
BLACK
6
CONTINUOUS
10
1.7824409448818896
20
1.5192913385826772
11
1.65251968503937
21
1.5192913385826772
0
LINE
8
BLACK
6
CONTINUOUS
10
1.65251968503937
20
1.5192913385826772
11
1.65251968503937
21
1.6196850393700788
0
LINE
8
BLACK
6
CONTINUOUS
10
1.65251968503937
20
1.6196850393700788
11
1.7824409448818896
21
1.6196850393700788
0
LINE
8
BLACK
6
CONTINUOUS
10
1.7824409448818896
20
1.6196850393700788
11
1.7824409448818896
21
1.5192913385826772
0
LINE
8
BLACK
6
CONTINUOUS
10
2.1811417322834643
20
1.5779133858267715
11
2.0315354330708661
21
1.5779133858267715
0
LINE
8
BLACK
6
CONTINUOUS
10
2.0315354330708661
20
1.5779133858267715
11
2.0315354330708661
21
1.6172834645669292
0
LINE
8
BLACK
6
CONTINUOUS
10
2.0315354330708661
20
1.6172834645669292
11
2.1811417322834643
21
1.6172834645669292
0
LINE
8
BLACK
6
CONTINUOUS
10
2.1811417322834643
20
1.6172834645669292
11
2.1811417322834643
21
1.5779133858267715
0
LINE
8
BLACK
6
CONTINUOUS
10
2.4173622047244092
20
1.5779133858267715
11
2.2677559055118111
21
1.5779133858267715
0
LINE
8
BLACK
6
CONTINUOUS
10
2.2677559055118111
20
1.5779133858267715
11
2.2677559055118111
21
1.6172834645669292
0
LINE
8
BLACK
6
CONTINUOUS
10
2.2677559055118111
20
1.6172834645669292
11
2.4173622047244092
21
1.6172834645669292
0
LINE
8
BLACK
6
CONTINUOUS
10
2.4173622047244092
20
1.6172834645669292
11
2.4173622047244092
21
1.5779133858267715
0
LINE
8
BLACK
6
CONTINUOUS
10
2.6535826771653541
20
1.5779133858267715
11
2.503976377952756
21
1.5779133858267715
0
LINE
8
BLACK
6
CONTINUOUS
10
2.503976377952756
20
1.5779133858267715
11
2.503976377952756
21
1.6172834645669292
0
LINE
8
BLACK
6
CONTINUOUS
10
2.503976377952756
20
1.6172834645669292
11
2.6535826771653541
21
1.6172834645669292
0
LINE
8
BLACK
6
CONTINUOUS
10
2.6535826771653541
20
1.6172834645669292
11
2.6535826771653541
21
1.5779133858267715
0
LINE
8
BLACK
6
CONTINUOUS
10
2.889803149606299
20
1.5779133858267715
11
2.7401968503937009
21
1.5779133858267715
0
LINE
8
BLACK
6
CONTINUOUS
10
2.7401968503937009
20
1.5779133858267715
11
2.7401968503937009
21
1.6172834645669292
0
LINE
8
BLACK
6
CONTINUOUS
10
2.7401968503937009
20
1.6172834645669292
11
2.889803149606299
21
1.6172834645669292
0
LINE
8
BLACK
6
CONTINUOUS
10
2.889803149606299
20
1.6172834645669292
11
2.889803149606299
21
1.5779133858267715
0
LINE
8
BLACK
6
CONTINUOUS
10
3.1260236220472439
20
1.5779133858267715
11
2.9764173228346458
21
1.5779133858267715
0
LINE
8
BLACK
6
CONTINUOUS
10
2.9764173228346458
20
1.5779133858267715
11
2.9764173228346458
21
1.6172834645669292
0
LINE
8
BLACK
6
CONTINUOUS
10
2.9764173228346458
20
1.6172834645669292
11
3.1260236220472439
21
1.6172834645669292
0
LINE
8
BLACK
6
CONTINUOUS
10
3.1260236220472439
20
1.6172834645669292
11
3.1260236220472439
21
1.5779133858267715
0
LINE
8
BLACK
6
CONTINUOUS
10
3.3622440944881888
20
1.5779133858267715
11
3.2126377952755907
21
1.5779133858267715
0
LINE
8
BLACK
6
CONTINUOUS
10
3.2126377952755907
20
1.5779133858267715
11
3.2126377952755907
21
1.6172834645669292
0
LINE
8
BLACK
6
CONTINUOUS
10
3.2126377952755907
20
1.6172834645669292
11
3.3622440944881888
21
1.6172834645669292
0
LINE
8
BLACK
6
CONTINUOUS
10
3.3622440944881888
20
1.6172834645669292
11
3.3622440944881888
21
1.5779133858267715
0
LINE
8
BLACK
6
CONTINUOUS
10
0.3848031496062992
20
1.5803149606299212
11
0.2351968503937008
21
1.5803149606299212
0
LINE
8
BLACK
6
CONTINUOUS
10
0.2351968503937008
20
1.5803149606299212
11
0.2351968503937008
21
1.6196850393700788
0
LINE
8
BLACK
6
CONTINUOUS
10
0.2351968503937008
20
1.6196850393700788
11
0.3848031496062992
21
1.6196850393700788
0
LINE
8
BLACK
6
CONTINUOUS
10
0.3848031496062992
20
1.6196850393700788
11
0.3848031496062992
21
1.5803149606299212
0
LINE
8
BLACK
6
CONTINUOUS
10
0.621023622047244
20
1.5803149606299212
11
0.4714173228346457
21
1.5803149606299212
0
LINE
8
BLACK
6
CONTINUOUS
10
0.4714173228346457
20
1.5803149606299212
11
0.4714173228346457
21
1.6196850393700788
0
LINE
8
BLACK
6
CONTINUOUS
10
0.4714173228346457
20
1.6196850393700788
11
0.621023622047244
21
1.6196850393700788
0
LINE
8
BLACK
6
CONTINUOUS
10
0.621023622047244
20
1.6196850393700788
11
0.621023622047244
21
1.5803149606299212
0
LINE
8
BLACK
6
CONTINUOUS
10
0.8572440944881889
20
1.5803149606299212
11
0.7076377952755906
21
1.5803149606299212
0
LINE
8
BLACK
6
CONTINUOUS
10
0.7076377952755906
20
1.5803149606299212
11
0.7076377952755906
21
1.6196850393700788
0
LINE
8
BLACK
6
CONTINUOUS
10
0.7076377952755906
20
1.6196850393700788
11
0.8572440944881889
21
1.6196850393700788
0
LINE
8
BLACK
6
CONTINUOUS
10
0.8572440944881889
20
1.6196850393700788
11
0.8572440944881889
21
1.5803149606299212
0
LINE
8
BLACK
6
CONTINUOUS
10
1.0934645669291339
20
1.5803149606299212
11
0.9438582677165354
21
1.5803149606299212
0
LINE
8
BLACK
6
CONTINUOUS
10
0.9438582677165354
20
1.5803149606299212
11
0.9438582677165354
21
1.6196850393700788
0
LINE
8
BLACK
6
CONTINUOUS
10
0.9438582677165354
20
1.6196850393700788
11
1.0934645669291339
21
1.6196850393700788
0
LINE
8
BLACK
6
CONTINUOUS
10
1.0934645669291339
20
1.6196850393700788
11
1.0934645669291339
21
1.5803149606299212
0
LINE
8
BLACK
6
CONTINUOUS
10
1.3296850393700788
20
1.5803149606299212
11
1.1800787401574804
21
1.5803149606299212
0
LINE
8
BLACK
6
CONTINUOUS
10
1.1800787401574804
20
1.5803149606299212
11
1.1800787401574804
21
1.6196850393700788
0
LINE
8
BLACK
6
CONTINUOUS
10
1.1800787401574804
20
1.6196850393700788
11
1.3296850393700788
21
1.6196850393700788
0
LINE
8
BLACK
6
CONTINUOUS
10
1.3296850393700788
20
1.6196850393700788
11
1.3296850393700788
21
1.5803149606299212
0
LINE
8
BLACK
6
CONTINUOUS
10
1.5659055118110237
20
1.5803149606299212
11
1.4162992125984251
21
1.5803149606299212
0
LINE
8
BLACK
6
CONTINUOUS
10
1.4162992125984251
20
1.5803149606299212
11
1.4162992125984251
21
1.6196850393700788
0
LINE
8
BLACK
6
CONTINUOUS
10
1.4162992125984251
20
1.6196850393700788
11
1.5659055118110237
21
1.6196850393700788
0
LINE
8
BLACK
6
CONTINUOUS
10
1.5659055118110237
20
1.6196850393700788
11
1.5659055118110237
21
1.5803149606299212
  0
ENDSEC
  0
EOF
