  0
SECTION
  2
HEADER
  9
$ANGBASE
  50
0.0
  9
$ANGDIR
  70
1
  9
$MEASUREMENT
  70
0
  0
ENDSEC
  0
SECTION
  2
TABLES
  0
TABLE
  2
LTYPE
  70
4
  0
LTYPE
  5
40F
  2
CONTINUOUS
  70
0
  3
Solid line
  72
65
  73
0
  40
0.0
  0
LTYPE
  5
410
  2
DASHDOT
 70
0
  3
Dash Dot ____ _ ____ _
 72
65
 73
4
 40
2.0
 49
1.25
 49
-0.25
 49
0.25
 49
-0.25
  0
LTYPE
  5
411
  2
DASHED
 70
0
  3
Dashed __ __ __ __ __
 72
65
 73
2
 40
0.75
 49
0.5
 49
-0.25
  0
LTYPE
  5
43B
  2
DOTTED
 70
0
  3
Dotted .  .  .  .
 72
65
 73
2
 40
0.2
 49
0.0
 49
-0.2
  0
ENDTAB
  0
TABLE
  2
STYLE
  70
4
  0
STYLE
  2
KICAD
  70
0
  40
0
  41
1
  42
1
  50
0
  71
0
  3
isocp.shx
  0
STYLE
  2
KICADB
  70
0
  40
0
  41
1
  42
1
  50
0
  71
0
  3
isocp.shx
  0
STYLE
  2
KICADI
  70
0
  40
0
  41
1
  42
1
  50
15
  71
0
  3
isocp.shx
  0
STYLE
  2
KICADBI
  70
0
  40
0
  41
1
  42
1
  50
15
  71
0
  3
isocp.shx
  0
ENDTAB
  0
TABLE
  2
LAYER
  70
1
  0
LAYER
  2
BLACK
  70
0
  62
7
  6
CONTINUOUS
  0
ENDTAB
  0
ENDSEC
  0
SECTION
  2
ENTITIES
0
LINE
8
BLACK
6
CONTINUOUS
10
3.5905930314960628
20
1.9937443307086613
11
3.5912166141732285
21
1.9937443307086613
0
LINE
8
BLACK
6
CONTINUOUS
10
3.5912166141732285
20
1.9937443307086613
11
3.5917210629921259
21
1.9933777952755904
0
LINE
8
BLACK
6
CONTINUOUS
10
3.5917210629921259
20
1.9933777952755904
11
3.5923141338582676
21
1.9931851181102362
0
LINE
8
BLACK
6
CONTINUOUS
10
3.5923141338582676
20
1.9931851181102362
11
3.5926806299212597
21
1.9926806299212598
0
LINE
8
BLACK
6
CONTINUOUS
10
3.5926806299212597
20
1.9926806299212598
11
3.5931851181102363
21
1.9923141338582677
0
LINE
8
BLACK
6
CONTINUOUS
10
3.5931851181102363
20
1.9923141338582677
11
3.5933777952755905
21
1.991721062992126
0
LINE
8
BLACK
6
CONTINUOUS
10
3.5933777952755905
20
1.991721062992126
11
3.5937443307086614
21
1.9912166141732284
0
LINE
8
BLACK
6
CONTINUOUS
10
3.5937443307086614
20
1.9912166141732284
11
3.5937443307086614
21
1.9905929921259842
0
LINE
8
BLACK
6
CONTINUOUS
10
3.5937443307086614
20
1.9905929921259842
11
3.5939370078740156
21
1.99
0
LINE
8
BLACK
6
CONTINUOUS
10
3.5939370078740156
20
1.99
11
3.5939370078740156
21
0.01
0
LINE
8
BLACK
6
CONTINUOUS
10
3.5939370078740156
20
0.01
11
3.5937443307086614
21
0.009406968503937
0
LINE
8
BLACK
6
CONTINUOUS
10
3.5937443307086614
20
0.009406968503937
11
3.5937443307086614
21
0.0087833858267717
0
LINE
8
BLACK
6
CONTINUOUS
10
3.5937443307086614
20
0.0087833858267717
11
3.5933777952755905
21
0.0082788976377953
0
LINE
8
BLACK
6
CONTINUOUS
10
3.5933777952755905
20
0.0082788976377953
11
3.5931851181102363
21
0.0076858661417323
0
LINE
8
BLACK
6
CONTINUOUS
10
3.5931851181102363
20
0.0076858661417323
11
3.5926806299212597
21
0.0073193307086614
0
LINE
8
BLACK
6
CONTINUOUS
10
3.5926806299212597
20
0.0073193307086614
11
3.5923141338582676
21
0.0068148818897638
0
LINE
8
BLACK
6
CONTINUOUS
10
3.5923141338582676
20
0.0068148818897638
11
3.5917210629921259
21
0.0066221653543307
0
LINE
8
BLACK
6
CONTINUOUS
10
3.5917210629921259
20
0.0066221653543307
11
3.5912166141732285
21
0.0062556692913386
0
LINE
8
BLACK
6
CONTINUOUS
10
3.5912166141732285
20
0.0062556692913386
11
3.5905930314960628
21
0.0062556692913386
0
LINE
8
BLACK
6
CONTINUOUS
10
3.5905930314960628
20
0.0062556692913386
11
3.5899999999999999
21
0.0060629921259843
0
LINE
8
BLACK
6
CONTINUOUS
10
3.5899999999999999
20
0.0060629921259843
11
0.01
21
0.0060629921259843
0
LINE
8
BLACK
6
CONTINUOUS
10
0.01
20
0.0060629921259843
11
0.009406968503937
21
0.0062556692913386
0
LINE
8
BLACK
6
CONTINUOUS
10
0.009406968503937
20
0.0062556692913386
11
0.0087833858267717
21
0.0062556692913386
0
LINE
8
BLACK
6
CONTINUOUS
10
0.0087833858267717
20
0.0062556692913386
11
0.0082788976377953
21
0.0066221653543307
0
LINE
8
BLACK
6
CONTINUOUS
10
0.0082788976377953
20
0.0066221653543307
11
0.0076858661417323
21
0.0068148818897638
0
LINE
8
BLACK
6
CONTINUOUS
10
0.0076858661417323
20
0.0068148818897638
11
0.0073193307086614
21
0.0073193307086614
0
LINE
8
BLACK
6
CONTINUOUS
10
0.0073193307086614
20
0.0073193307086614
11
0.0068148818897638
21
0.0076858661417323
0
LINE
8
BLACK
6
CONTINUOUS
10
0.0068148818897638
20
0.0076858661417323
11
0.0066221653543307
21
0.0082788976377953
0
LINE
8
BLACK
6
CONTINUOUS
10
0.0066221653543307
20
0.0082788976377953
11
0.0062556692913386
21
0.0087833858267717
0
LINE
8
BLACK
6
CONTINUOUS
10
0.0062556692913386
20
0.0087833858267717
11
0.0062556692913386
21
0.009406968503937
0
LINE
8
BLACK
6
CONTINUOUS
10
0.0062556692913386
20
0.009406968503937
11
0.0060629921259843
21
0.01
0
LINE
8
BLACK
6
CONTINUOUS
10
0.0060629921259843
20
0.01
11
0.0060629921259843
21
1.99
0
LINE
8
BLACK
6
CONTINUOUS
10
0.0060629921259843
20
1.99
11
0.0062556692913386
21
1.9905929921259842
0
LINE
8
BLACK
6
CONTINUOUS
10
0.0062556692913386
20
1.9905929921259842
11
0.0062556692913386
21
1.9912166141732284
0
LINE
8
BLACK
6
CONTINUOUS
10
0.0062556692913386
20
1.9912166141732284
11
0.0066221653543307
21
1.991721062992126
0
LINE
8
BLACK
6
CONTINUOUS
10
0.0066221653543307
20
1.991721062992126
11
0.0068148818897638
21
1.9923141338582677
0
LINE
8
BLACK
6
CONTINUOUS
10
0.0068148818897638
20
1.9923141338582677
11
0.0073193307086614
21
1.9926806299212598
0
LINE
8
BLACK
6
CONTINUOUS
10
0.0073193307086614
20
1.9926806299212598
11
0.0076858661417323
21
1.9931851181102362
0
LINE
8
BLACK
6
CONTINUOUS
10
0.0076858661417323
20
1.9931851181102362
11
0.0082788976377953
21
1.9933777952755904
0
LINE
8
BLACK
6
CONTINUOUS
10
0.0082788976377953
20
1.9933777952755904
11
0.0087833858267717
21
1.9937443307086613
0
LINE
8
BLACK
6
CONTINUOUS
10
0.0087833858267717
20
1.9937443307086613
11
0.009406968503937
21
1.9937443307086613
0
LINE
8
BLACK
6
CONTINUOUS
10
0.009406968503937
20
1.9937443307086613
11
0.01
21
1.9939370078740157
0
LINE
8
BLACK
6
CONTINUOUS
10
0.01
20
1.9939370078740157
11
3.5899999999999999
21
1.9939370078740157
0
LINE
8
BLACK
6
CONTINUOUS
10
3.5899999999999999
20
1.9939370078740157
11
3.5905930314960628
21
1.9937443307086613
0
LINE
8
BLACK
6
CONTINUOUS
10
0.0139370078740157
20
1.9860629921259843
11
0.0139370078740157
21
0.0139370078740157
0
LINE
8
BLACK
6
CONTINUOUS
10
0.0139370078740157
20
0.0139370078740157
11
3.5860629921259841
21
0.0139370078740157
0
LINE
8
BLACK
6
CONTINUOUS
10
3.5860629921259841
20
0.0139370078740157
11
3.5860629921259841
21
1.9860629921259843
0
LINE
8
BLACK
6
CONTINUOUS
10
3.5860629921259841
20
1.9860629921259843
11
0.0139370078740157
21
1.9860629921259843
  0
ENDSEC
  0
EOF
