  0
SECTION
  2
HEADER
  9
$ANGBASE
  50
0.0
  9
$ANGDIR
  70
1
  9
$MEASUREMENT
  70
0
  0
ENDSEC
  0
SECTION
  2
TABLES
  0
TABLE
  2
LTYPE
  70
4
  0
LTYPE
  5
40F
  2
CONTINUOUS
  70
0
  3
Solid line
  72
65
  73
0
  40
0.0
  0
LTYPE
  5
410
  2
DASHDOT
 70
0
  3
Dash Dot ____ _ ____ _
 72
65
 73
4
 40
2.0
 49
1.25
 49
-0.25
 49
0.25
 49
-0.25
  0
LTYPE
  5
411
  2
DASHED
 70
0
  3
Dashed __ __ __ __ __
 72
65
 73
2
 40
0.75
 49
0.5
 49
-0.25
  0
LTYPE
  5
43B
  2
DOTTED
 70
0
  3
Dotted .  .  .  .
 72
65
 73
2
 40
0.2
 49
0.0
 49
-0.2
  0
ENDTAB
  0
TABLE
  2
STYLE
  70
4
  0
STYLE
  2
KICAD
  70
0
  40
0
  41
1
  42
1
  50
0
  71
0
  3
isocp.shx
  0
STYLE
  2
KICADB
  70
0
  40
0
  41
1
  42
1
  50
0
  71
0
  3
isocp.shx
  0
STYLE
  2
KICADI
  70
0
  40
0
  41
1
  42
1
  50
15
  71
0
  3
isocp.shx
  0
STYLE
  2
KICADBI
  70
0
  40
0
  41
1
  42
1
  50
15
  71
0
  3
isocp.shx
  0
ENDTAB
  0
TABLE
  2
LAYER
  70
1
  0
LAYER
  2
BLACK
  70
0
  62
7
  6
CONTINUOUS
  0
ENDTAB
  0
ENDSEC
  0
SECTION
  2
ENTITIES
0
LINE
8
BLACK
6
CONTINUOUS
10
0.3759349606299213
20
1.0663892125984251
11
0.3759993307086614
21
1.0663909842519685
0
LINE
8
BLACK
6
CONTINUOUS
10
0.3759993307086614
20
1.0663909842519685
11
0.3816236220472441
21
1.064516220472441
0
LINE
8
BLACK
6
CONTINUOUS
10
0.3816236220472441
20
1.064516220472441
11
0.3825253937007874
21
1.0640279527559056
0
LINE
8
BLACK
6
CONTINUOUS
10
0.3825253937007874
20
1.0640279527559056
11
0.3835826771653543
21
1.062306968503937
0
LINE
8
BLACK
6
CONTINUOUS
10
0.3835826771653543
20
1.062306968503937
11
0.3832864173228346
21
1.0603090157480315
0
LINE
8
BLACK
6
CONTINUOUS
10
0.3832864173228346
20
1.0603090157480315
11
0.3817751574803149
21
1.0589689370078741
0
LINE
8
BLACK
6
CONTINUOUS
10
0.3817751574803149
20
1.0589689370078741
11
0.3797561023622047
21
1.0589137795275589
0
LINE
8
BLACK
6
CONTINUOUS
10
0.3797561023622047
20
1.0589137795275589
11
0.3745864566929133
21
1.0606370078740157
0
LINE
8
BLACK
6
CONTINUOUS
10
0.3745864566929133
20
1.0606370078740157
11
0.3663888188976378
21
1.0606370078740157
0
LINE
8
BLACK
6
CONTINUOUS
10
0.3663888188976378
20
1.0606370078740157
11
0.3636913385826772
21
1.0592882677165354
0
LINE
8
BLACK
6
CONTINUOUS
10
0.3636913385826772
20
1.0592882677165354
11
0.3624942125984252
21
1.0580911417322834
0
LINE
8
BLACK
6
CONTINUOUS
10
0.3624942125984252
20
1.0580911417322834
11
0.3611454724409449
21
1.0553936614173227
0
LINE
8
BLACK
6
CONTINUOUS
10
0.3611454724409449
20
1.0553936614173227
11
0.3611454724409449
21
1.0530382283464568
0
LINE
8
BLACK
6
CONTINUOUS
10
0.3611454724409449
20
1.0530382283464568
11
0.3624942125984252
21
1.0503407480314961
0
LINE
8
BLACK
6
CONTINUOUS
10
0.3624942125984252
20
1.0503407480314961
11
0.3636913385826772
21
1.0491436220472441
0
LINE
8
BLACK
6
CONTINUOUS
10
0.3636913385826772
20
1.0491436220472441
11
0.3667223228346457
21
1.0476281102362204
0
LINE
8
BLACK
6
CONTINUOUS
10
0.3667223228346457
20
1.0476281102362204
11
0.373906968503937
21
1.045831968503937
0
LINE
8
BLACK
6
CONTINUOUS
10
0.373906968503937
20
1.045831968503937
11
0.3743724015748031
21
1.0456243700787402
0
LINE
8
BLACK
6
CONTINUOUS
10
0.3743724015748031
20
1.0456243700787402
11
0.3745113385826772
21
1.0456083858267717
0
LINE
8
BLACK
6
CONTINUOUS
10
0.3745113385826772
20
1.0456083858267717
11
0.3782608661417323
21
1.0437336220472442
0
LINE
8
BLACK
6
CONTINUOUS
10
0.3782608661417323
20
1.0437336220472442
11
0.3789699212598425
21
1.0432076771653542
0
LINE
8
BLACK
6
CONTINUOUS
10
0.3789699212598425
20
1.0432076771653542
11
0.3790282677165354
21
1.0431805118110236
0
LINE
8
BLACK
6
CONTINUOUS
10
0.3790282677165354
20
1.0431805118110236
11
0.380903031496063
21
1.041305748031496
0
LINE
8
BLACK
6
CONTINUOUS
10
0.380903031496063
20
1.041305748031496
11
0.3814092913385826
21
1.0405826377952756
0
LINE
8
BLACK
6
CONTINUOUS
10
0.3814092913385826
20
1.0405826377952756
11
0.3814561417322835
21
1.0405383464566929
0
LINE
8
BLACK
6
CONTINUOUS
10
0.3814561417322835
20
1.0405383464566929
11
0.383330905511811
21
1.0367888188976377
0
LINE
8
BLACK
6
CONTINUOUS
10
0.383330905511811
20
1.0367888188976377
11
0.3836232677165354
21
1.035805905511811
0
LINE
8
BLACK
6
CONTINUOUS
10
0.3836232677165354
20
1.035805905511811
11
0.3835822440944882
21
1.0356341732283465
0
LINE
8
BLACK
6
CONTINUOUS
10
0.3835822440944882
20
1.0356341732283465
11
0.3836426377952756
21
1.0354683070866142
0
LINE
8
BLACK
6
CONTINUOUS
10
0.3836426377952756
20
1.0354683070866142
11
0.3836426377952756
21
1.0317187795275591
0
LINE
8
BLACK
6
CONTINUOUS
10
0.3836426377952756
20
1.0317187795275591
11
0.3834645669291338
21
1.0307088582677164
0
LINE
8
BLACK
6
CONTINUOUS
10
0.3834645669291338
20
1.0307088582677164
11
0.383351062992126
21
1.0305735826771654
0
LINE
8
BLACK
6
CONTINUOUS
10
0.383351062992126
20
1.0305735826771654
11
0.383330905511811
21
1.0303982677165353
0
LINE
8
BLACK
6
CONTINUOUS
10
0.383330905511811
20
1.0303982677165353
11
0.3814561417322835
21
1.0266487401574802
0
LINE
8
BLACK
6
CONTINUOUS
10
0.3814561417322835
20
1.0266487401574802
11
0.3809302362204725
21
1.0259396456692913
0
LINE
8
BLACK
6
CONTINUOUS
10
0.3809302362204725
20
1.0259396456692913
11
0.380903031496063
21
1.025881338582677
0
LINE
8
BLACK
6
CONTINUOUS
10
0.380903031496063
20
1.025881338582677
11
0.3790282677165354
21
1.0240065748031495
0
LINE
8
BLACK
6
CONTINUOUS
10
0.3790282677165354
20
1.0240065748031495
11
0.3783052755905512
21
1.0235003543307086
0
LINE
8
BLACK
6
CONTINUOUS
10
0.3783052755905512
20
1.0235003543307086
11
0.378260905511811
21
1.0234534645669291
0
LINE
8
BLACK
6
CONTINUOUS
10
0.378260905511811
20
1.0234534645669291
11
0.3745113779527559
21
1.0215786614173228
0
LINE
8
BLACK
6
CONTINUOUS
10
0.3745113779527559
20
1.0215786614173228
11
0.3735284251968504
21
1.0212862992125984
0
LINE
8
BLACK
6
CONTINUOUS
10
0.3735284251968504
20
1.0212862992125984
11
0.3733566929133858
21
1.0213272834645668
0
LINE
8
BLACK
6
CONTINUOUS
10
0.3733566929133858
20
1.0213272834645668
11
0.3731908267716535
21
1.0212669291338583
0
LINE
8
BLACK
6
CONTINUOUS
10
0.3731908267716535
20
1.0212669291338583
11
0.3638170078740157
21
1.0212669291338583
0
LINE
8
BLACK
6
CONTINUOUS
10
0.3638170078740157
20
1.0212669291338583
11
0.3629475984251969
21
1.0214201968503938
0
LINE
8
BLACK
6
CONTINUOUS
10
0.3629475984251969
20
1.0214201968503938
11
0.3628832677165355
21
1.0214184645669291
0
LINE
8
BLACK
6
CONTINUOUS
10
0.3628832677165355
20
1.0214184645669291
11
0.357258937007874
21
1.0232932677165354
0
LINE
8
BLACK
6
CONTINUOUS
10
0.357258937007874
20
1.0232932677165354
11
0.3563571653543307
21
1.0237815748031496
0
LINE
8
BLACK
6
CONTINUOUS
10
0.3563571653543307
20
1.0237815748031496
11
0.3552998818897637
21
1.0255025196850394
0
LINE
8
BLACK
6
CONTINUOUS
10
0.3552998818897637
20
1.0255025196850394
11
0.3555961811023622
21
1.0275005118110236
0
LINE
8
BLACK
6
CONTINUOUS
10
0.3555961811023622
20
1.0275005118110236
11
0.3571074409448819
21
1.0288405511811023
0
LINE
8
BLACK
6
CONTINUOUS
10
0.3571074409448819
20
1.0288405511811023
11
0.3591264960629921
21
1.0288957086614172
0
LINE
8
BLACK
6
CONTINUOUS
10
0.3591264960629921
20
1.0288957086614172
11
0.3642961811023622
21
1.0271724409448819
0
LINE
8
BLACK
6
CONTINUOUS
10
0.3642961811023622
20
1.0271724409448819
11
0.3724937401574803
21
1.0271724409448819
0
LINE
8
BLACK
6
CONTINUOUS
10
0.3724937401574803
20
1.0271724409448819
11
0.3751912204724409
21
1.0285211811023622
0
LINE
8
BLACK
6
CONTINUOUS
10
0.3751912204724409
20
1.0285211811023622
11
0.3763883858267716
21
1.0297183464566928
0
LINE
8
BLACK
6
CONTINUOUS
10
0.3763883858267716
20
1.0297183464566928
11
0.377737125984252
21
1.0324158267716534
0
LINE
8
BLACK
6
CONTINUOUS
10
0.377737125984252
20
1.0324158267716534
11
0.377737125984252
21
1.0347712598425196
0
LINE
8
BLACK
6
CONTINUOUS
10
0.377737125984252
20
1.0347712598425196
11
0.3763883858267716
21
1.0374687401574803
0
LINE
8
BLACK
6
CONTINUOUS
10
0.3763883858267716
20
1.0374687401574803
11
0.3751912598425197
21
1.0386658661417323
0
LINE
8
BLACK
6
CONTINUOUS
10
0.3751912598425197
20
1.0386658661417323
11
0.3721602755905511
21
1.0401813385826773
0
LINE
8
BLACK
6
CONTINUOUS
10
0.3721602755905511
20
1.0401813385826773
11
0.3649756299212598
21
1.0419775196850394
0
LINE
8
BLACK
6
CONTINUOUS
10
0.3649756299212598
20
1.0419775196850394
11
0.364510157480315
21
1.0421850787401574
0
LINE
8
BLACK
6
CONTINUOUS
10
0.364510157480315
20
1.0421850787401574
11
0.3643712598425197
21
1.0422011023622046
0
LINE
8
BLACK
6
CONTINUOUS
10
0.3643712598425197
20
1.0422011023622046
11
0.3606217322834646
21
1.0440758661417322
0
LINE
8
BLACK
6
CONTINUOUS
10
0.3606217322834646
20
1.0440758661417322
11
0.3599126377952756
21
1.0446017322834646
0
LINE
8
BLACK
6
CONTINUOUS
10
0.3599126377952756
20
1.0446017322834646
11
0.3598543307086614
21
1.0446289763779528
0
LINE
8
BLACK
6
CONTINUOUS
10
0.3598543307086614
20
1.0446289763779528
11
0.3579795669291339
21
1.0465037401574804
0
LINE
8
BLACK
6
CONTINUOUS
10
0.3579795669291339
20
1.0465037401574804
11
0.3574732677165354
21
1.047226811023622
0
LINE
8
BLACK
6
CONTINUOUS
10
0.3574732677165354
20
1.047226811023622
11
0.3574264566929134
21
1.0472711417322835
0
LINE
8
BLACK
6
CONTINUOUS
10
0.3574264566929134
20
1.0472711417322835
11
0.3555516929133858
21
1.0510206692913386
0
LINE
8
BLACK
6
CONTINUOUS
10
0.3555516929133858
20
1.0510206692913386
11
0.3552593307086614
21
1.0520036220472442
0
LINE
8
BLACK
6
CONTINUOUS
10
0.3552593307086614
20
1.0520036220472442
11
0.3553003149606299
21
1.0521752755905511
0
LINE
8
BLACK
6
CONTINUOUS
10
0.3553003149606299
20
1.0521752755905511
11
0.3552399606299212
21
1.0523411811023622
0
LINE
8
BLACK
6
CONTINUOUS
10
0.3552399606299212
20
1.0523411811023622
11
0.3552399606299212
21
1.0560907086614173
0
LINE
8
BLACK
6
CONTINUOUS
10
0.3552399606299212
20
1.0560907086614173
11
0.355418031496063
21
1.0571006299212597
0
LINE
8
BLACK
6
CONTINUOUS
10
0.355418031496063
20
1.0571006299212597
11
0.3555314960629921
21
1.0572358661417323
0
LINE
8
BLACK
6
CONTINUOUS
10
0.3555314960629921
20
1.0572358661417323
11
0.3555516929133858
21
1.0574112204724408
0
LINE
8
BLACK
6
CONTINUOUS
10
0.3555516929133858
20
1.0574112204724408
11
0.3574264566929134
21
1.061160748031496
0
LINE
8
BLACK
6
CONTINUOUS
10
0.3574264566929134
20
1.061160748031496
11
0.3579523622047244
21
1.0618698031496063
0
LINE
8
BLACK
6
CONTINUOUS
10
0.3579523622047244
20
1.0618698031496063
11
0.3579795669291339
21
1.0619281496062991
0
LINE
8
BLACK
6
CONTINUOUS
10
0.3579795669291339
20
1.0619281496062991
11
0.3598543307086614
21
1.0638029133858267
0
LINE
8
BLACK
6
CONTINUOUS
10
0.3598543307086614
20
1.0638029133858267
11
0.3605774015748032
21
1.0643091732283465
0
LINE
8
BLACK
6
CONTINUOUS
10
0.3605774015748032
20
1.0643091732283465
11
0.3606217322834646
21
1.0643560236220473
0
LINE
8
BLACK
6
CONTINUOUS
10
0.3606217322834646
20
1.0643560236220473
11
0.3643712598425197
21
1.0662307874015748
0
LINE
8
BLACK
6
CONTINUOUS
10
0.3643712598425197
20
1.0662307874015748
11
0.3653541732283465
21
1.0665231496062992
0
LINE
8
BLACK
6
CONTINUOUS
10
0.3653541732283465
20
1.0665231496062992
11
0.3655258661417323
21
1.0664821259842518
0
LINE
8
BLACK
6
CONTINUOUS
10
0.3655258661417323
20
1.0664821259842518
11
0.3656917716535433
21
1.0665425196850393
0
LINE
8
BLACK
6
CONTINUOUS
10
0.3656917716535433
20
1.0665425196850393
11
0.3750655905511811
21
1.0665425196850393
0
LINE
8
BLACK
6
CONTINUOUS
10
0.3750655905511811
20
1.0665425196850393
11
0.3759349606299213
21
1.0663892125984251
0
LINE
8
BLACK
6
CONTINUOUS
10
0.411696062992126
20
1.0663644488188977
11
0.4118312992125984
21
1.0662509448818898
0
LINE
8
BLACK
6
CONTINUOUS
10
0.4118312992125984
20
1.0662509448818898
11
0.4120066535433071
21
1.0662307874015748
0
LINE
8
BLACK
6
CONTINUOUS
10
0.4120066535433071
20
1.0662307874015748
11
0.4157561811023622
21
1.0643560236220473
0
LINE
8
BLACK
6
CONTINUOUS
10
0.4157561811023622
20
1.0643560236220473
11
0.4164652362204724
21
1.0638300787401576
0
LINE
8
BLACK
6
CONTINUOUS
10
0.4164652362204724
20
1.0638300787401576
11
0.4165235826771653
21
1.0638029133858267
0
LINE
8
BLACK
6
CONTINUOUS
10
0.4165235826771653
20
1.0638029133858267
11
0.4183983464566929
21
1.0619281496062991
0
LINE
8
BLACK
6
CONTINUOUS
10
0.4183983464566929
20
1.0619281496062991
11
0.4189046062992126
21
1.0612050393700787
0
LINE
8
BLACK
6
CONTINUOUS
10
0.4189046062992126
20
1.0612050393700787
11
0.4189514566929134
21
1.061160748031496
0
LINE
8
BLACK
6
CONTINUOUS
10
0.4189514566929134
20
1.061160748031496
11
0.4208262204724409
21
1.0574112204724408
0
LINE
8
BLACK
6
CONTINUOUS
10
0.4208262204724409
20
1.0574112204724408
11
0.4211185826771653
21
1.0564283070866141
0
LINE
8
BLACK
6
CONTINUOUS
10
0.4211185826771653
20
1.0564283070866141
11
0.4210775590551181
21
1.0562565748031496
0
LINE
8
BLACK
6
CONTINUOUS
10
0.4210775590551181
20
1.0562565748031496
11
0.4211379527559055
21
1.0560907086614173
0
LINE
8
BLACK
6
CONTINUOUS
10
0.4211379527559055
20
1.0560907086614173
11
0.4211379527559055
21
1.0523411811023622
0
LINE
8
BLACK
6
CONTINUOUS
10
0.4211379527559055
20
1.0523411811023622
11
0.4209846456692913
21
1.0514717716535433
0
LINE
8
BLACK
6
CONTINUOUS
10
0.4209846456692913
20
1.0514717716535433
11
0.4209864173228346
21
1.0514074015748032
0
LINE
8
BLACK
6
CONTINUOUS
10
0.4209864173228346
20
1.0514074015748032
11
0.4191116535433071
21
1.0457831496062993
0
LINE
8
BLACK
6
CONTINUOUS
10
0.4191116535433071
20
1.0457831496062993
11
0.4186233464566929
21
1.0448813779527559
0
LINE
8
BLACK
6
CONTINUOUS
10
0.4186233464566929
20
1.0448813779527559
11
0.4184729527559055
21
1.0447889763779528
0
LINE
8
BLACK
6
CONTINUOUS
10
0.4184729527559055
20
1.0447889763779528
11
0.4183983464566929
21
1.0446289763779528
0
LINE
8
BLACK
6
CONTINUOUS
10
0.4183983464566929
20
1.0446289763779528
11
0.4009418503937008
21
1.0271724409448819
0
LINE
8
BLACK
6
CONTINUOUS
10
0.4009418503937008
20
1.0271724409448819
11
0.4181851968503937
21
1.0271724409448819
0
LINE
8
BLACK
6
CONTINUOUS
10
0.4181851968503937
20
1.0271724409448819
11
0.4191951181102362
21
1.0269943700787401
0
LINE
8
BLACK
6
CONTINUOUS
10
0.4191951181102362
20
1.0269943700787401
11
0.4207423622047244
21
1.0256960629921259
0
LINE
8
BLACK
6
CONTINUOUS
10
0.4207423622047244
20
1.0256960629921259
11
0.4210931102362205
21
1.0237069291338583
0
LINE
8
BLACK
6
CONTINUOUS
10
0.4210931102362205
20
1.0237069291338583
11
0.4200831889763779
21
1.0219577559055117
0
LINE
8
BLACK
6
CONTINUOUS
10
0.4200831889763779
20
1.0219577559055117
11
0.4181851968503937
21
1.0212669291338583
0
LINE
8
BLACK
6
CONTINUOUS
10
0.4181851968503937
20
1.0212669291338583
11
0.3938132677165354
21
1.0212669291338583
0
LINE
8
BLACK
6
CONTINUOUS
10
0.3938132677165354
20
1.0212669291338583
11
0.3931785039370079
21
1.0213788188976378
0
LINE
8
BLACK
6
CONTINUOUS
10
0.3931785039370079
20
1.0213788188976378
11
0.3930490551181102
21
1.0213675196850394
0
LINE
8
BLACK
6
CONTINUOUS
10
0.3930490551181102
20
1.0213675196850394
11
0.3929838188976378
21
1.0214131496062993
0
LINE
8
BLACK
6
CONTINUOUS
10
0.3929838188976378
20
1.0214131496062993
11
0.3928033464566929
21
1.0214449999999999
0
LINE
8
BLACK
6
CONTINUOUS
10
0.3928033464566929
20
1.0214449999999999
11
0.3921224803149606
21
1.0220162598425198
0
LINE
8
BLACK
6
CONTINUOUS
10
0.3921224803149606
20
1.0220162598425198
11
0.3913944881889764
21
1.022526062992126
0
LINE
8
BLACK
6
CONTINUOUS
10
0.3913944881889764
20
1.022526062992126
11
0.3913595275590551
21
1.022656496062992
0
LINE
8
BLACK
6
CONTINUOUS
10
0.3913595275590551
20
1.022656496062992
11
0.3912561023622047
21
1.0227433070866141
0
LINE
8
BLACK
6
CONTINUOUS
10
0.3912561023622047
20
1.0227433070866141
11
0.3911017322834646
21
1.0236186220472441
0
LINE
8
BLACK
6
CONTINUOUS
10
0.3911017322834646
20
1.0236186220472441
11
0.3908717716535433
21
1.0244770078740157
0
LINE
8
BLACK
6
CONTINUOUS
10
0.3908717716535433
20
1.0244770078740157
11
0.3909288188976378
21
1.0245993307086614
0
LINE
8
BLACK
6
CONTINUOUS
10
0.3909288188976378
20
1.0245993307086614
11
0.3909053543307087
21
1.0247324409448819
0
LINE
8
BLACK
6
CONTINUOUS
10
0.3909053543307087
20
1.0247324409448819
11
0.3913499606299213
21
1.0255025196850394
0
LINE
8
BLACK
6
CONTINUOUS
10
0.3913499606299213
20
1.0255025196850394
11
0.3917253543307087
21
1.0263075984251968
0
LINE
8
BLACK
6
CONTINUOUS
10
0.3917253543307087
20
1.0263075984251968
11
0.4137296062992126
21
1.0483118897637795
0
LINE
8
BLACK
6
CONTINUOUS
10
0.4137296062992126
20
1.0483118897637795
11
0.4152324409448819
21
1.0528203149606299
0
LINE
8
BLACK
6
CONTINUOUS
10
0.4152324409448819
20
1.0528203149606299
11
0.4152324409448819
21
1.0553936614173227
0
LINE
8
BLACK
6
CONTINUOUS
10
0.4152324409448819
20
1.0553936614173227
11
0.4138837007874016
21
1.0580911417322834
0
LINE
8
BLACK
6
CONTINUOUS
10
0.4138837007874016
20
1.0580911417322834
11
0.4126865748031496
21
1.0592882677165354
0
LINE
8
BLACK
6
CONTINUOUS
10
0.4126865748031496
20
1.0592882677165354
11
0.409989094488189
21
1.0606370078740157
0
LINE
8
BLACK
6
CONTINUOUS
10
0.409989094488189
20
1.0606370078740157
11
0.4020093700787402
21
1.0606370078740157
0
LINE
8
BLACK
6
CONTINUOUS
10
0.4020093700787402
20
1.0606370078740157
11
0.3993118897637795
21
1.0592882677165354
0
LINE
8
BLACK
6
CONTINUOUS
10
0.3993118897637795
20
1.0592882677165354
11
0.3977759448818898
21
1.0577523228346457
0
LINE
8
BLACK
6
CONTINUOUS
10
0.3977759448818898
20
1.0577523228346457
11
0.396935905511811
21
1.0571641338582678
0
LINE
8
BLACK
6
CONTINUOUS
10
0.396935905511811
20
1.0571641338582678
11
0.3949238188976378
21
1.0569880708661417
0
LINE
8
BLACK
6
CONTINUOUS
10
0.3949238188976378
20
1.0569880708661417
11
0.3932692519685039
21
1.0581466141732283
0
LINE
8
BLACK
6
CONTINUOUS
10
0.3932692519685039
20
1.0581466141732283
11
0.3927465354330709
21
1.060097559055118
0
LINE
8
BLACK
6
CONTINUOUS
10
0.3927465354330709
20
1.060097559055118
11
0.3936001181102362
21
1.0619281496062991
0
LINE
8
BLACK
6
CONTINUOUS
10
0.3936001181102362
20
1.0619281496062991
11
0.3954748818897638
21
1.0638029133858267
0
LINE
8
BLACK
6
CONTINUOUS
10
0.3954748818897638
20
1.0638029133858267
11
0.3961979527559055
21
1.0643091732283465
0
LINE
8
BLACK
6
CONTINUOUS
10
0.3961979527559055
20
1.0643091732283465
11
0.3962422834645669
21
1.0643560236220473
0
LINE
8
BLACK
6
CONTINUOUS
10
0.3962422834645669
20
1.0643560236220473
11
0.399991811023622
21
1.0662307874015748
0
LINE
8
BLACK
6
CONTINUOUS
10
0.399991811023622
20
1.0662307874015748
11
0.4009747244094488
21
1.0665231496062992
0
LINE
8
BLACK
6
CONTINUOUS
10
0.4009747244094488
20
1.0665231496062992
11
0.4011464173228346
21
1.0664821259842518
0
LINE
8
BLACK
6
CONTINUOUS
10
0.4011464173228346
20
1.0664821259842518
11
0.4013123228346457
21
1.0665425196850393
0
LINE
8
BLACK
6
CONTINUOUS
10
0.4013123228346457
20
1.0665425196850393
11
0.4106861417322835
21
1.0665425196850393
0
LINE
8
BLACK
6
CONTINUOUS
10
0.4106861417322835
20
1.0665425196850393
11
0.411696062992126
21
1.0663644488188977
0
LINE
8
BLACK
6
CONTINUOUS
10
0.6085464566929134
20
1.0663644488188977
11
0.6086816929133858
21
1.0662509448818898
0
LINE
8
BLACK
6
CONTINUOUS
10
0.6086816929133858
20
1.0662509448818898
11
0.6088570472440945
21
1.0662307874015748
0
LINE
8
BLACK
6
CONTINUOUS
10
0.6088570472440945
20
1.0662307874015748
11
0.6126065748031496
21
1.0643560236220473
0
LINE
8
BLACK
6
CONTINUOUS
10
0.6126065748031496
20
1.0643560236220473
11
0.6133156299212599
21
1.0638300787401576
0
LINE
8
BLACK
6
CONTINUOUS
10
0.6133156299212599
20
1.0638300787401576
11
0.6133739763779528
21
1.0638029133858267
0
LINE
8
BLACK
6
CONTINUOUS
10
0.6133739763779528
20
1.0638029133858267
11
0.6152487401574803
21
1.0619281496062991
0
LINE
8
BLACK
6
CONTINUOUS
10
0.6152487401574803
20
1.0619281496062991
11
0.6157549999999999
21
1.0612050393700787
0
LINE
8
BLACK
6
CONTINUOUS
10
0.6157549999999999
20
1.0612050393700787
11
0.6158018503937007
21
1.061160748031496
0
LINE
8
BLACK
6
CONTINUOUS
10
0.6158018503937007
20
1.061160748031496
11
0.6176766141732283
21
1.0574112204724408
0
LINE
8
BLACK
6
CONTINUOUS
10
0.6176766141732283
20
1.0574112204724408
11
0.6178218897637795
21
1.0569227559055119
0
LINE
8
BLACK
6
CONTINUOUS
10
0.6178218897637795
20
1.0569227559055119
11
0.6179001968503937
21
1.0568068503937007
0
LINE
8
BLACK
6
CONTINUOUS
10
0.6179001968503937
20
1.0568068503937007
11
0.6197749606299212
21
1.0493077952755905
0
LINE
8
BLACK
6
CONTINUOUS
10
0.6197749606299212
20
1.0493077952755905
11
0.6198164173228347
21
1.0487198818897638
0
LINE
8
BLACK
6
CONTINUOUS
10
0.6198164173228347
20
1.0487198818897638
11
0.6198631102362204
21
1.0485916535433071
0
LINE
8
BLACK
6
CONTINUOUS
10
0.6198631102362204
20
1.0485916535433071
11
0.6198631102362204
21
1.0392178346456693
0
LINE
8
BLACK
6
CONTINUOUS
10
0.6198631102362204
20
1.0392178346456693
11
0.6197607480314961
21
1.038637440944882
0
LINE
8
BLACK
6
CONTINUOUS
10
0.6197607480314961
20
1.038637440944882
11
0.6197749606299212
21
1.0385016929133859
0
LINE
8
BLACK
6
CONTINUOUS
10
0.6197749606299212
20
1.0385016929133859
11
0.6179001968503937
21
1.0310026377952755
0
LINE
8
BLACK
6
CONTINUOUS
10
0.6179001968503937
20
1.0310026377952755
11
0.6176925984251969
21
1.0305371653543307
0
LINE
8
BLACK
6
CONTINUOUS
10
0.6176925984251969
20
1.0305371653543307
11
0.6176766141732283
21
1.0303982677165353
0
LINE
8
BLACK
6
CONTINUOUS
10
0.6176766141732283
20
1.0303982677165353
11
0.6158018503937007
21
1.0266487401574802
0
LINE
8
BLACK
6
CONTINUOUS
10
0.6158018503937007
20
1.0266487401574802
11
0.6152759448818897
21
1.0259396456692913
0
LINE
8
BLACK
6
CONTINUOUS
10
0.6152759448818897
20
1.0259396456692913
11
0.6152487401574803
21
1.025881338582677
0
LINE
8
BLACK
6
CONTINUOUS
10
0.6152487401574803
20
1.025881338582677
11
0.6133739763779528
21
1.0240065748031495
0
LINE
8
BLACK
6
CONTINUOUS
10
0.6133739763779528
20
1.0240065748031495
11
0.6126509842519685
21
1.0235003543307086
0
LINE
8
BLACK
6
CONTINUOUS
10
0.6126509842519685
20
1.0235003543307086
11
0.6126066141732284
21
1.0234534645669291
0
LINE
8
BLACK
6
CONTINUOUS
10
0.6126066141732284
20
1.0234534645669291
11
0.6088570866141733
21
1.0215786614173228
0
LINE
8
BLACK
6
CONTINUOUS
10
0.6088570866141733
20
1.0215786614173228
11
0.6078741338582677
21
1.0212862992125984
0
LINE
8
BLACK
6
CONTINUOUS
10
0.6078741338582677
20
1.0212862992125984
11
0.6077024015748032
21
1.0213272834645668
0
LINE
8
BLACK
6
CONTINUOUS
10
0.6077024015748032
20
1.0213272834645668
11
0.6075365354330708
21
1.0212669291338583
0
LINE
8
BLACK
6
CONTINUOUS
10
0.6075365354330708
20
1.0212669291338583
11
0.6037870078740157
21
1.0212669291338583
0
LINE
8
BLACK
6
CONTINUOUS
10
0.6037870078740157
20
1.0212669291338583
11
0.6027770866141732
21
1.0214449999999999
0
LINE
8
BLACK
6
CONTINUOUS
10
0.6027770866141732
20
1.0214449999999999
11
0.602641811023622
21
1.0215584645669291
0
LINE
8
BLACK
6
CONTINUOUS
10
0.602641811023622
20
1.0215584645669291
11
0.6024664960629921
21
1.0215786614173228
0
LINE
8
BLACK
6
CONTINUOUS
10
0.6024664960629921
20
1.0215786614173228
11
0.5987169291338582
21
1.0234534645669291
0
LINE
8
BLACK
6
CONTINUOUS
10
0.5987169291338582
20
1.0234534645669291
11
0.5980079133858267
21
1.0239793307086613
0
LINE
8
BLACK
6
CONTINUOUS
10
0.5980079133858267
20
1.0239793307086613
11
0.5979495669291338
21
1.0240065748031495
0
LINE
8
BLACK
6
CONTINUOUS
10
0.5979495669291338
20
1.0240065748031495
11
0.5960748031496063
21
1.025881338582677
0
LINE
8
BLACK
6
CONTINUOUS
10
0.5960748031496063
20
1.025881338582677
11
0.5955685039370079
21
1.0266044094488189
0
LINE
8
BLACK
6
CONTINUOUS
10
0.5955685039370079
20
1.0266044094488189
11
0.5955216929133859
21
1.0266487401574802
0
LINE
8
BLACK
6
CONTINUOUS
10
0.5955216929133859
20
1.0266487401574802
11
0.5936469291338583
21
1.0303982677165353
0
LINE
8
BLACK
6
CONTINUOUS
10
0.5936469291338583
20
1.0303982677165353
11
0.5935016141732283
21
1.0308866929133857
0
LINE
8
BLACK
6
CONTINUOUS
10
0.5935016141732283
20
1.0308866929133857
11
0.5934233464566929
21
1.0310026377952755
0
LINE
8
BLACK
6
CONTINUOUS
10
0.5934233464566929
20
1.0310026377952755
11
0.5915485826771654
21
1.0385016929133859
0
LINE
8
BLACK
6
CONTINUOUS
10
0.5915485826771654
20
1.0385016929133859
11
0.5915070866141732
21
1.0390895669291338
0
LINE
8
BLACK
6
CONTINUOUS
10
0.5915070866141732
20
1.0390895669291338
11
0.5914604330708662
21
1.0392178346456693
0
LINE
8
BLACK
6
CONTINUOUS
10
0.5914604330708662
20
1.0392178346456693
11
0.5914604330708662
21
1.0485916535433071
0
LINE
8
BLACK
6
CONTINUOUS
10
0.5914604330708662
20
1.0485916535433071
11
0.5915627559055118
21
1.0491720078740157
0
LINE
8
BLACK
6
CONTINUOUS
10
0.5915627559055118
20
1.0491720078740157
11
0.5915485826771654
21
1.0493077952755905
0
LINE
8
BLACK
6
CONTINUOUS
10
0.5915485826771654
20
1.0493077952755905
11
0.5934233464566929
21
1.0568068503937007
0
LINE
8
BLACK
6
CONTINUOUS
10
0.5934233464566929
20
1.0568068503937007
11
0.593630905511811
21
1.0572722834645669
0
LINE
8
BLACK
6
CONTINUOUS
10
0.593630905511811
20
1.0572722834645669
11
0.5936469291338583
21
1.0574112204724408
0
LINE
8
BLACK
6
CONTINUOUS
10
0.5936469291338583
20
1.0574112204724408
11
0.5955216929133859
21
1.061160748031496
0
LINE
8
BLACK
6
CONTINUOUS
10
0.5955216929133859
20
1.061160748031496
11
0.5960475984251968
21
1.0618698031496063
0
LINE
8
BLACK
6
CONTINUOUS
10
0.5960475984251968
20
1.0618698031496063
11
0.5960748031496063
21
1.0619281496062991
0
LINE
8
BLACK
6
CONTINUOUS
10
0.5960748031496063
20
1.0619281496062991
11
0.5979495669291338
21
1.0638029133858267
0
LINE
8
BLACK
6
CONTINUOUS
10
0.5979495669291338
20
1.0638029133858267
11
0.5986726377952756
21
1.0643091732283465
0
LINE
8
BLACK
6
CONTINUOUS
10
0.5986726377952756
20
1.0643091732283465
11
0.598716968503937
21
1.0643560236220473
0
LINE
8
BLACK
6
CONTINUOUS
10
0.598716968503937
20
1.0643560236220473
11
0.6024664960629921
21
1.0662307874015748
0
LINE
8
BLACK
6
CONTINUOUS
10
0.6024664960629921
20
1.0662307874015748
11
0.6034494094488189
21
1.0665231496062992
0
LINE
8
BLACK
6
CONTINUOUS
10
0.6034494094488189
20
1.0665231496062992
11
0.6036211023622047
21
1.0664821259842518
0
LINE
8
BLACK
6
CONTINUOUS
10
0.6036211023622047
20
1.0664821259842518
11
0.6037870078740157
21
1.0665425196850393
0
LINE
8
BLACK
6
CONTINUOUS
10
0.6037870078740157
20
1.0665425196850393
11
0.6075365354330708
21
1.0665425196850393
0
LINE
8
BLACK
6
CONTINUOUS
10
0.6075365354330708
20
1.0665425196850393
11
0.6085464566929134
21
1.0663644488188977
0
LINE
8
BLACK
6
CONTINUOUS
10
0.6017865748031496
20
1.0592882677165354
11
0.6005894488188976
21
1.0580911417322834
0
LINE
8
BLACK
6
CONTINUOUS
10
0.6005894488188976
20
1.0580911417322834
11
0.599073937007874
21
1.0550601574803149
0
LINE
8
BLACK
6
CONTINUOUS
10
0.599073937007874
20
1.0550601574803149
11
0.5973659448818898
21
1.0482281102362205
0
LINE
8
BLACK
6
CONTINUOUS
10
0.5973659448818898
20
1.0482281102362205
11
0.5973659448818898
21
1.0395813779527558
0
LINE
8
BLACK
6
CONTINUOUS
10
0.5973659448818898
20
1.0395813779527558
11
0.599073937007874
21
1.0327493307086615
0
LINE
8
BLACK
6
CONTINUOUS
10
0.599073937007874
20
1.0327493307086615
11
0.6005894488188976
21
1.0297183464566928
0
LINE
8
BLACK
6
CONTINUOUS
10
0.6005894488188976
20
1.0297183464566928
11
0.6017865354330708
21
1.028521220472441
0
LINE
8
BLACK
6
CONTINUOUS
10
0.6017865354330708
20
1.028521220472441
11
0.604484094488189
21
1.0271724409448819
0
LINE
8
BLACK
6
CONTINUOUS
10
0.604484094488189
20
1.0271724409448819
11
0.6068394488188976
21
1.0271724409448819
0
LINE
8
BLACK
6
CONTINUOUS
10
0.6068394488188976
20
1.0271724409448819
11
0.6095369291338583
21
1.0285211811023622
0
LINE
8
BLACK
6
CONTINUOUS
10
0.6095369291338583
20
1.0285211811023622
11
0.6107340944881889
21
1.0297183464566928
0
LINE
8
BLACK
6
CONTINUOUS
10
0.6107340944881889
20
1.0297183464566928
11
0.6122495669291338
21
1.0327493307086615
0
LINE
8
BLACK
6
CONTINUOUS
10
0.6122495669291338
20
1.0327493307086615
11
0.6139575984251968
21
1.0395813779527558
0
LINE
8
BLACK
6
CONTINUOUS
10
0.6139575984251968
20
1.0395813779527558
11
0.6139575984251968
21
1.0482281102362205
0
LINE
8
BLACK
6
CONTINUOUS
10
0.6139575984251968
20
1.0482281102362205
11
0.6122495669291338
21
1.0550601574803149
0
LINE
8
BLACK
6
CONTINUOUS
10
0.6122495669291338
20
1.0550601574803149
11
0.6107340944881889
21
1.0580911417322834
0
LINE
8
BLACK
6
CONTINUOUS
10
0.6107340944881889
20
1.0580911417322834
11
0.609536968503937
21
1.0592882677165354
0
LINE
8
BLACK
6
CONTINUOUS
10
0.609536968503937
20
1.0592882677165354
11
0.6068394881889764
21
1.0606370078740157
0
LINE
8
BLACK
6
CONTINUOUS
10
0.6068394881889764
20
1.0606370078740157
11
0.6044840551181102
21
1.0606370078740157
0
LINE
8
BLACK
6
CONTINUOUS
10
0.6044840551181102
20
1.0606370078740157
11
0.6017865748031496
21
1.0592882677165354
0
LINE
8
BLACK
6
CONTINUOUS
10
0.6479165354330708
20
1.0663644488188977
11
0.6480517716535433
21
1.0662509448818898
0
LINE
8
BLACK
6
CONTINUOUS
10
0.6480517716535433
20
1.0662509448818898
11
0.6482271259842519
21
1.0662307874015748
0
LINE
8
BLACK
6
CONTINUOUS
10
0.6482271259842519
20
1.0662307874015748
11
0.651976653543307
21
1.0643560236220473
0
LINE
8
BLACK
6
CONTINUOUS
10
0.651976653543307
20
1.0643560236220473
11
0.6526857086614173
21
1.0638300787401576
0
LINE
8
BLACK
6
CONTINUOUS
10
0.6526857086614173
20
1.0638300787401576
11
0.6527440551181102
21
1.0638029133858267
0
LINE
8
BLACK
6
CONTINUOUS
10
0.6527440551181102
20
1.0638029133858267
11
0.6546188188976377
21
1.0619281496062991
0
LINE
8
BLACK
6
CONTINUOUS
10
0.6546188188976377
20
1.0619281496062991
11
0.6551250787401575
21
1.0612050393700787
0
LINE
8
BLACK
6
CONTINUOUS
10
0.6551250787401575
20
1.0612050393700787
11
0.6551719291338582
21
1.061160748031496
0
LINE
8
BLACK
6
CONTINUOUS
10
0.6551719291338582
20
1.061160748031496
11
0.6570466929133858
21
1.0574112204724408
0
LINE
8
BLACK
6
CONTINUOUS
10
0.6570466929133858
20
1.0574112204724408
11
0.6573390551181102
21
1.0564283070866141
0
LINE
8
BLACK
6
CONTINUOUS
10
0.6573390551181102
20
1.0564283070866141
11
0.657298031496063
21
1.0562565748031496
0
LINE
8
BLACK
6
CONTINUOUS
10
0.657298031496063
20
1.0562565748031496
11
0.6573584251968504
21
1.0560907086614173
0
LINE
8
BLACK
6
CONTINUOUS
10
0.6573584251968504
20
1.0560907086614173
11
0.6573584251968504
21
1.0410925984251969
0
LINE
8
BLACK
6
CONTINUOUS
10
0.6573584251968504
20
1.0410925984251969
11
0.657256062992126
21
1.0405122047244095
0
LINE
8
BLACK
6
CONTINUOUS
10
0.657256062992126
20
1.0405122047244095
11
0.6572702755905512
21
1.0403764566929135
0
LINE
8
BLACK
6
CONTINUOUS
10
0.6572702755905512
20
1.0403764566929135
11
0.6553955118110236
21
1.0328774015748032
0
LINE
8
BLACK
6
CONTINUOUS
10
0.6553955118110236
20
1.0328774015748032
11
0.6549917716535433
21
1.0319721653543308
0
LINE
8
BLACK
6
CONTINUOUS
10
0.6549917716535433
20
1.0319721653543308
11
0.6549877559055118
21
1.0319556692913385
0
LINE
8
BLACK
6
CONTINUOUS
10
0.6549877559055118
20
1.0319556692913385
11
0.6512382283464567
21
1.0263313385826771
0
LINE
8
BLACK
6
CONTINUOUS
10
0.6512382283464567
20
1.0263313385826771
11
0.6509274015748031
21
1.0260059842519684
0
LINE
8
BLACK
6
CONTINUOUS
10
0.6509274015748031
20
1.0260059842519684
11
0.6508692913385826
21
1.025881338582677
0
LINE
8
BLACK
6
CONTINUOUS
10
0.6508692913385826
20
1.025881338582677
11
0.6489945275590551
21
1.0240065748031495
0
LINE
8
BLACK
6
CONTINUOUS
10
0.6489945275590551
20
1.0240065748031495
11
0.6482715354330708
21
1.0235003543307086
0
LINE
8
BLACK
6
CONTINUOUS
10
0.6482715354330708
20
1.0235003543307086
11
0.6482271653543307
21
1.0234534645669291
0
LINE
8
BLACK
6
CONTINUOUS
10
0.6482271653543307
20
1.0234534645669291
11
0.6444776377952756
21
1.0215786614173228
0
LINE
8
BLACK
6
CONTINUOUS
10
0.6444776377952756
20
1.0215786614173228
11
0.64349468503937
21
1.0212862992125984
0
LINE
8
BLACK
6
CONTINUOUS
10
0.64349468503937
20
1.0212862992125984
11
0.6433229527559055
21
1.0213272834645668
0
LINE
8
BLACK
6
CONTINUOUS
10
0.6433229527559055
20
1.0213272834645668
11
0.6431570866141733
21
1.0212669291338583
0
LINE
8
BLACK
6
CONTINUOUS
10
0.6431570866141733
20
1.0212669291338583
11
0.6356580314960629
21
1.0212669291338583
0
LINE
8
BLACK
6
CONTINUOUS
10
0.6356580314960629
20
1.0212669291338583
11
0.6346481102362205
21
1.0214449999999999
0
LINE
8
BLACK
6
CONTINUOUS
10
0.6346481102362205
20
1.0214449999999999
11
0.6331008661417322
21
1.0227433070866141
0
LINE
8
BLACK
6
CONTINUOUS
10
0.6331008661417322
20
1.0227433070866141
11
0.6327501181102362
21
1.0247324409448819
0
LINE
8
BLACK
6
CONTINUOUS
10
0.6327501181102362
20
1.0247324409448819
11
0.6337600393700787
21
1.0264816141732283
0
LINE
8
BLACK
6
CONTINUOUS
10
0.6337600393700787
20
1.0264816141732283
11
0.6356580314960629
21
1.0271724409448819
0
LINE
8
BLACK
6
CONTINUOUS
10
0.6356580314960629
20
1.0271724409448819
11
0.64246
21
1.0271724409448819
0
LINE
8
BLACK
6
CONTINUOUS
10
0.64246
20
1.0271724409448819
11
0.6451574803149606
21
1.0285211811023622
0
LINE
8
BLACK
6
CONTINUOUS
10
0.6451574803149606
20
1.0285211811023622
11
0.646486653543307
21
1.0298503543307087
0
LINE
8
BLACK
6
CONTINUOUS
10
0.646486653543307
20
1.0298503543307087
11
0.6497903543307086
21
1.0348059055118111
0
LINE
8
BLACK
6
CONTINUOUS
10
0.6497903543307086
20
1.0348059055118111
11
0.6505196456692913
21
1.0377230708661418
0
LINE
8
BLACK
6
CONTINUOUS
10
0.6505196456692913
20
1.0377230708661418
11
0.6482271259842519
21
1.036576811023622
0
LINE
8
BLACK
6
CONTINUOUS
10
0.6482271259842519
20
1.036576811023622
11
0.6472441732283465
21
1.0362844488188976
0
LINE
8
BLACK
6
CONTINUOUS
10
0.6472441732283465
20
1.0362844488188976
11
0.6470724803149606
21
1.0363254330708662
0
LINE
8
BLACK
6
CONTINUOUS
10
0.6470724803149606
20
1.0363254330708662
11
0.6469066141732284
21
1.0362650787401575
0
LINE
8
BLACK
6
CONTINUOUS
10
0.6469066141732284
20
1.0362650787401575
11
0.6394075590551181
21
1.0362650787401575
0
LINE
8
BLACK
6
CONTINUOUS
10
0.6394075590551181
20
1.0362650787401575
11
0.6383976377952756
21
1.0364431496062991
0
LINE
8
BLACK
6
CONTINUOUS
10
0.6383976377952756
20
1.0364431496062991
11
0.6382623622047244
21
1.0365566141732283
0
LINE
8
BLACK
6
CONTINUOUS
10
0.6382623622047244
20
1.0365566141732283
11
0.6380870472440945
21
1.036576811023622
0
LINE
8
BLACK
6
CONTINUOUS
10
0.6380870472440945
20
1.036576811023622
11
0.6343375196850394
21
1.0384515748031495
0
LINE
8
BLACK
6
CONTINUOUS
10
0.6343375196850394
20
1.0384515748031495
11
0.6336284251968504
21
1.0389774409448818
0
LINE
8
BLACK
6
CONTINUOUS
10
0.6336284251968504
20
1.0389774409448818
11
0.6335701181102362
21
1.0390046850393702
0
LINE
8
BLACK
6
CONTINUOUS
10
0.6335701181102362
20
1.0390046850393702
11
0.6316953543307087
21
1.0408794488188977
0
LINE
8
BLACK
6
CONTINUOUS
10
0.6316953543307087
20
1.0408794488188977
11
0.6311890551181102
21
1.0416025196850394
0
LINE
8
BLACK
6
CONTINUOUS
10
0.6311890551181102
20
1.0416025196850394
11
0.6311422440944882
21
1.0416468503937009
0
LINE
8
BLACK
6
CONTINUOUS
10
0.6311422440944882
20
1.0416468503937009
11
0.6292674803149606
21
1.045396377952756
0
LINE
8
BLACK
6
CONTINUOUS
10
0.6292674803149606
20
1.045396377952756
11
0.6289751181102362
21
1.0463793307086613
0
LINE
8
BLACK
6
CONTINUOUS
10
0.6289751181102362
20
1.0463793307086613
11
0.6290161023622047
21
1.0465509842519685
0
LINE
8
BLACK
6
CONTINUOUS
10
0.6290161023622047
20
1.0465509842519685
11
0.628955748031496
21
1.0467168897637795
0
LINE
8
BLACK
6
CONTINUOUS
10
0.628955748031496
20
1.0467168897637795
11
0.628955748031496
21
1.0560907086614173
0
LINE
8
BLACK
6
CONTINUOUS
10
0.628955748031496
20
1.0560907086614173
11
0.6291338188976378
21
1.0571006299212597
0
LINE
8
BLACK
6
CONTINUOUS
10
0.6291338188976378
20
1.0571006299212597
11
0.6292472834645669
21
1.0572358661417323
0
LINE
8
BLACK
6
CONTINUOUS
10
0.6292472834645669
20
1.0572358661417323
11
0.6292674803149606
21
1.0574112204724408
0
LINE
8
BLACK
6
CONTINUOUS
10
0.6292674803149606
20
1.0574112204724408
11
0.6311422440944882
21
1.061160748031496
0
LINE
8
BLACK
6
CONTINUOUS
10
0.6311422440944882
20
1.061160748031496
11
0.6316681496062992
21
1.0618698031496063
0
LINE
8
BLACK
6
CONTINUOUS
10
0.6316681496062992
20
1.0618698031496063
11
0.6316953543307087
21
1.0619281496062991
0
LINE
8
BLACK
6
CONTINUOUS
10
0.6316953543307087
20
1.0619281496062991
11
0.6335701181102362
21
1.0638029133858267
0
LINE
8
BLACK
6
CONTINUOUS
10
0.6335701181102362
20
1.0638029133858267
11
0.634293188976378
21
1.0643091732283465
0
LINE
8
BLACK
6
CONTINUOUS
10
0.634293188976378
20
1.0643091732283465
11
0.6343375196850394
21
1.0643560236220473
0
LINE
8
BLACK
6
CONTINUOUS
10
0.6343375196850394
20
1.0643560236220473
11
0.6380870472440945
21
1.0662307874015748
0
LINE
8
BLACK
6
CONTINUOUS
10
0.6380870472440945
20
1.0662307874015748
11
0.6390699606299213
21
1.0665231496062992
0
LINE
8
BLACK
6
CONTINUOUS
10
0.6390699606299213
20
1.0665231496062992
11
0.6392416535433071
21
1.0664821259842518
0
LINE
8
BLACK
6
CONTINUOUS
10
0.6392416535433071
20
1.0664821259842518
11
0.6394075590551181
21
1.0665425196850393
0
LINE
8
BLACK
6
CONTINUOUS
10
0.6394075590551181
20
1.0665425196850393
11
0.6469066141732284
21
1.0665425196850393
0
LINE
8
BLACK
6
CONTINUOUS
10
0.6469066141732284
20
1.0665425196850393
11
0.6479165354330708
21
1.0663644488188977
0
LINE
8
BLACK
6
CONTINUOUS
10
0.637407125984252
20
1.0592882677165354
11
0.6362099999999999
21
1.0580911417322834
0
LINE
8
BLACK
6
CONTINUOUS
10
0.6362099999999999
20
1.0580911417322834
11
0.6348612598425196
21
1.0553936614173227
0
LINE
8
BLACK
6
CONTINUOUS
10
0.6348612598425196
20
1.0553936614173227
11
0.6348612598425196
21
1.0474139370078739
0
LINE
8
BLACK
6
CONTINUOUS
10
0.6348612598425196
20
1.0474139370078739
11
0.6362099999999999
21
1.0447164566929135
0
LINE
8
BLACK
6
CONTINUOUS
10
0.6362099999999999
20
1.0447164566929135
11
0.637407125984252
21
1.0435193307086614
0
LINE
8
BLACK
6
CONTINUOUS
10
0.637407125984252
20
1.0435193307086614
11
0.6401046062992126
21
1.0421705905511811
0
LINE
8
BLACK
6
CONTINUOUS
10
0.6401046062992126
20
1.0421705905511811
11
0.6462095669291339
21
1.0421705905511811
0
LINE
8
BLACK
6
CONTINUOUS
10
0.6462095669291339
20
1.0421705905511811
11
0.6489070472440944
21
1.0435193307086614
0
LINE
8
BLACK
6
CONTINUOUS
10
0.6489070472440944
20
1.0435193307086614
11
0.6501041732283465
21
1.0447164566929135
0
LINE
8
BLACK
6
CONTINUOUS
10
0.6501041732283465
20
1.0447164566929135
11
0.6514529133858268
21
1.0474139370078739
0
LINE
8
BLACK
6
CONTINUOUS
10
0.6514529133858268
20
1.0474139370078739
11
0.6514529133858268
21
1.0553936614173227
0
LINE
8
BLACK
6
CONTINUOUS
10
0.6514529133858268
20
1.0553936614173227
11
0.6501041732283465
21
1.0580911417322834
0
LINE
8
BLACK
6
CONTINUOUS
10
0.6501041732283465
20
1.0580911417322834
11
0.6489070472440944
21
1.0592882677165354
0
LINE
8
BLACK
6
CONTINUOUS
10
0.6489070472440944
20
1.0592882677165354
11
0.6462095669291339
21
1.0606370078740157
0
LINE
8
BLACK
6
CONTINUOUS
10
0.6462095669291339
20
1.0606370078740157
11
0.6401046062992126
21
1.0606370078740157
0
LINE
8
BLACK
6
CONTINUOUS
10
0.6401046062992126
20
1.0606370078740157
11
0.637407125984252
21
1.0592882677165354
0
LINE
8
BLACK
6
CONTINUOUS
10
0.4585651968503937
20
1.0663644488188977
11
0.4588324409448819
21
1.0661401574803149
0
LINE
8
BLACK
6
CONTINUOUS
10
0.4588324409448819
20
1.0661401574803149
11
0.4591720472440945
21
1.0660605511811023
0
LINE
8
BLACK
6
CONTINUOUS
10
0.4591720472440945
20
1.0660605511811023
11
0.4595846456692913
21
1.0655089763779528
0
LINE
8
BLACK
6
CONTINUOUS
10
0.4595846456692913
20
1.0655089763779528
11
0.4601124409448819
21
1.0650661417322835
0
LINE
8
BLACK
6
CONTINUOUS
10
0.4601124409448819
20
1.0650661417322835
11
0.4601729921259842
21
1.0647225196850394
0
LINE
8
BLACK
6
CONTINUOUS
10
0.4601729921259842
20
1.0647225196850394
11
0.460381968503937
21
1.0644432677165354
0
LINE
8
BLACK
6
CONTINUOUS
10
0.460381968503937
20
1.0644432677165354
11
0.4603435039370078
21
1.0637555118110236
0
LINE
8
BLACK
6
CONTINUOUS
10
0.4603435039370078
20
1.0637555118110236
11
0.4604631889763779
21
1.0630770078740157
0
LINE
8
BLACK
6
CONTINUOUS
10
0.4604631889763779
20
1.0630770078740157
11
0.4602887401574803
21
1.062774842519685
0
LINE
8
BLACK
6
CONTINUOUS
10
0.4602887401574803
20
1.062774842519685
11
0.4602692913385827
21
1.0624266141732284
0
LINE
8
BLACK
6
CONTINUOUS
10
0.4602692913385827
20
1.0624266141732284
11
0.4433964173228346
21
1.0230565354330707
0
LINE
8
BLACK
6
CONTINUOUS
10
0.4433964173228346
20
1.0230565354330707
11
0.4428349212598425
21
1.0221984251968503
0
LINE
8
BLACK
6
CONTINUOUS
10
0.4428349212598425
20
1.0221984251968503
11
0.4410320866141732
21
1.021287716535433
0
LINE
8
BLACK
6
CONTINUOUS
10
0.4410320866141732
20
1.021287716535433
11
0.4390656299212599
21
1.0217488582677166
0
LINE
8
BLACK
6
CONTINUOUS
10
0.4390656299212599
20
1.0217488582677166
11
0.4378557086614173
21
1.0233661811023622
0
LINE
8
BLACK
6
CONTINUOUS
10
0.4378557086614173
20
1.0233661811023622
11
0.4379683858267717
21
1.0253828346456693
0
LINE
8
BLACK
6
CONTINUOUS
10
0.4379683858267717
20
1.0253828346456693
11
0.4530772834645669
21
1.0606370078740157
0
LINE
8
BLACK
6
CONTINUOUS
10
0.4530772834645669
20
1.0606370078740157
11
0.4313085826771653
21
1.0606370078740157
0
LINE
8
BLACK
6
CONTINUOUS
10
0.4313085826771653
20
1.0606370078740157
11
0.4302986614173228
21
1.0608150787401573
0
LINE
8
BLACK
6
CONTINUOUS
10
0.4302986614173228
20
1.0608150787401573
11
0.4287514173228346
21
1.0621133858267717
0
LINE
8
BLACK
6
CONTINUOUS
10
0.4287514173228346
20
1.0621133858267717
11
0.4284006692913386
21
1.0641025196850393
0
LINE
8
BLACK
6
CONTINUOUS
10
0.4284006692913386
20
1.0641025196850393
11
0.4294105905511811
21
1.0658516929133859
0
LINE
8
BLACK
6
CONTINUOUS
10
0.4294105905511811
20
1.0658516929133859
11
0.4313085826771653
21
1.0665425196850393
0
LINE
8
BLACK
6
CONTINUOUS
10
0.4313085826771653
20
1.0665425196850393
11
0.4575552755905511
21
1.0665425196850393
0
LINE
8
BLACK
6
CONTINUOUS
10
0.4575552755905511
20
1.0665425196850393
11
0.4585651968503937
21
1.0663644488188977
0
LINE
8
BLACK
6
CONTINUOUS
10
0.4814584645669291
20
1.0680611023622046
11
0.4827985433070866
21
1.0665498425196851
0
LINE
8
BLACK
6
CONTINUOUS
10
0.4827985433070866
20
1.0665498425196851
11
0.4828537007874016
21
1.0645308267716536
0
LINE
8
BLACK
6
CONTINUOUS
10
0.4828537007874016
20
1.0645308267716536
11
0.4747753937007874
21
1.0402958267716536
0
LINE
8
BLACK
6
CONTINUOUS
10
0.4747753937007874
20
1.0402958267716536
11
0.4864735433070866
21
1.0402958267716536
0
LINE
8
BLACK
6
CONTINUOUS
10
0.4864735433070866
20
1.0402958267716536
11
0.4864735433070866
21
1.0504664173228346
0
LINE
8
BLACK
6
CONTINUOUS
10
0.4864735433070866
20
1.0504664173228346
11
0.4866516141732283
21
1.0514763385826771
0
LINE
8
BLACK
6
CONTINUOUS
10
0.4866516141732283
20
1.0514763385826771
11
0.4879499212598425
21
1.0530235826771652
0
LINE
8
BLACK
6
CONTINUOUS
10
0.4879499212598425
20
1.0530235826771652
11
0.4899390551181102
21
1.0533743307086614
0
LINE
8
BLACK
6
CONTINUOUS
10
0.4899390551181102
20
1.0533743307086614
11
0.4916882283464567
21
1.0523644094488189
0
LINE
8
BLACK
6
CONTINUOUS
10
0.4916882283464567
20
1.0523644094488189
11
0.4923790551181102
21
1.0504664173228346
0
LINE
8
BLACK
6
CONTINUOUS
10
0.4923790551181102
20
1.0504664173228346
11
0.4923790551181102
21
1.0402958267716536
0
LINE
8
BLACK
6
CONTINUOUS
10
0.4923790551181102
20
1.0402958267716536
11
0.4950505905511811
21
1.0402958267716536
0
LINE
8
BLACK
6
CONTINUOUS
10
0.4950505905511811
20
1.0402958267716536
11
0.4960605118110236
21
1.0401177559055117
0
LINE
8
BLACK
6
CONTINUOUS
10
0.4960605118110236
20
1.0401177559055117
11
0.4976077559055118
21
1.0388194488188975
0
LINE
8
BLACK
6
CONTINUOUS
10
0.4976077559055118
20
1.0388194488188975
11
0.4979585039370079
21
1.0368303149606299
0
LINE
8
BLACK
6
CONTINUOUS
10
0.4979585039370079
20
1.0368303149606299
11
0.4969485826771654
21
1.0350811417322834
0
LINE
8
BLACK
6
CONTINUOUS
10
0.4969485826771654
20
1.0350811417322834
11
0.4950505905511811
21
1.0343903149606299
0
LINE
8
BLACK
6
CONTINUOUS
10
0.4950505905511811
20
1.0343903149606299
11
0.4923790551181102
21
1.0343903149606299
0
LINE
8
BLACK
6
CONTINUOUS
10
0.4923790551181102
20
1.0343903149606299
11
0.4923790551181102
21
1.0242196850393701
0
LINE
8
BLACK
6
CONTINUOUS
10
0.4923790551181102
20
1.0242196850393701
11
0.4922009842519685
21
1.0232097637795274
0
LINE
8
BLACK
6
CONTINUOUS
10
0.4922009842519685
20
1.0232097637795274
11
0.4909026771653543
21
1.0216625196850393
0
LINE
8
BLACK
6
CONTINUOUS
10
0.4909026771653543
20
1.0216625196850393
11
0.4889135433070866
21
1.0213117716535434
0
LINE
8
BLACK
6
CONTINUOUS
10
0.4889135433070866
20
1.0213117716535434
11
0.4871643700787401
21
1.0223216929133858
0
LINE
8
BLACK
6
CONTINUOUS
10
0.4871643700787401
20
1.0223216929133858
11
0.4864735433070866
21
1.0242196850393701
0
LINE
8
BLACK
6
CONTINUOUS
10
0.4864735433070866
20
1.0242196850393701
11
0.4864735433070866
21
1.0343903149606299
0
LINE
8
BLACK
6
CONTINUOUS
10
0.4864735433070866
20
1.0343903149606299
11
0.4706786614173228
21
1.0343903149606299
0
LINE
8
BLACK
6
CONTINUOUS
10
0.4706786614173228
20
1.0343903149606299
11
0.4696687401574803
21
1.0345683858267716
0
LINE
8
BLACK
6
CONTINUOUS
10
0.4696687401574803
20
1.0345683858267716
11
0.4694958661417323
21
1.0347134251968504
0
LINE
8
BLACK
6
CONTINUOUS
10
0.4694958661417323
20
1.0347134251968504
11
0.4692726377952756
21
1.0347465354330709
0
LINE
8
BLACK
6
CONTINUOUS
10
0.4692726377952756
20
1.0347465354330709
11
0.4687383070866142
21
1.0353490944881889
0
LINE
8
BLACK
6
CONTINUOUS
10
0.4687383070866142
20
1.0353490944881889
11
0.4681214960629921
21
1.0358666929133857
0
LINE
8
BLACK
6
CONTINUOUS
10
0.4681214960629921
20
1.0358666929133857
11
0.4680822834645669
21
1.0360888976377953
0
LINE
8
BLACK
6
CONTINUOUS
10
0.4680822834645669
20
1.0360888976377953
11
0.4679325984251969
21
1.0362577559055117
0
LINE
8
BLACK
6
CONTINUOUS
10
0.4679325984251969
20
1.0362577559055117
11
0.4679105905511811
21
1.0370626377952756
0
LINE
8
BLACK
6
CONTINUOUS
10
0.4679105905511811
20
1.0370626377952756
11
0.467770748031496
21
1.0378558267716536
0
LINE
8
BLACK
6
CONTINUOUS
10
0.467770748031496
20
1.0378558267716536
11
0.4678835826771653
21
1.0380512598425196
0
LINE
8
BLACK
6
CONTINUOUS
10
0.4678835826771653
20
1.0380512598425196
11
0.4678774409448819
21
1.038276811023622
0
LINE
8
BLACK
6
CONTINUOUS
10
0.4678774409448819
20
1.038276811023622
11
0.4772512598425196
21
1.0663983070866141
0
LINE
8
BLACK
6
CONTINUOUS
10
0.4772512598425196
20
1.0663983070866141
11
0.4777395275590551
21
1.0673000787401574
0
LINE
8
BLACK
6
CONTINUOUS
10
0.4777395275590551
20
1.0673000787401574
11
0.4794605118110236
21
1.0683573622047244
0
LINE
8
BLACK
6
CONTINUOUS
10
0.4794605118110236
20
1.0683573622047244
11
0.4814584645669291
21
1.0680611023622046
0
LINE
8
BLACK
6
CONTINUOUS
10
0.5189537795275591
20
1.0680611023622046
11
0.5202938582677166
21
1.0665498425196851
0
LINE
8
BLACK
6
CONTINUOUS
10
0.5202938582677166
20
1.0665498425196851
11
0.5203490157480315
21
1.0645308267716536
0
LINE
8
BLACK
6
CONTINUOUS
10
0.5203490157480315
20
1.0645308267716536
11
0.5122707086614173
21
1.0402958267716536
0
LINE
8
BLACK
6
CONTINUOUS
10
0.5122707086614173
20
1.0402958267716536
11
0.5239688582677166
21
1.0402958267716536
0
LINE
8
BLACK
6
CONTINUOUS
10
0.5239688582677166
20
1.0402958267716536
11
0.5239688582677166
21
1.0504664173228346
0
LINE
8
BLACK
6
CONTINUOUS
10
0.5239688582677166
20
1.0504664173228346
11
0.5241469291338583
21
1.0514763385826771
0
LINE
8
BLACK
6
CONTINUOUS
10
0.5241469291338583
20
1.0514763385826771
11
0.5254452362204725
21
1.0530235826771652
0
LINE
8
BLACK
6
CONTINUOUS
10
0.5254452362204725
20
1.0530235826771652
11
0.5274343700787402
21
1.0533743307086614
0
LINE
8
BLACK
6
CONTINUOUS
10
0.5274343700787402
20
1.0533743307086614
11
0.5291835433070866
21
1.0523644094488189
0
LINE
8
BLACK
6
CONTINUOUS
10
0.5291835433070866
20
1.0523644094488189
11
0.5298743700787402
21
1.0504664173228346
0
LINE
8
BLACK
6
CONTINUOUS
10
0.5298743700787402
20
1.0504664173228346
11
0.5298743700787402
21
1.0402958267716536
0
LINE
8
BLACK
6
CONTINUOUS
10
0.5298743700787402
20
1.0402958267716536
11
0.532545905511811
21
1.0402958267716536
0
LINE
8
BLACK
6
CONTINUOUS
10
0.532545905511811
20
1.0402958267716536
11
0.5335558267716536
21
1.0401177559055117
0
LINE
8
BLACK
6
CONTINUOUS
10
0.5335558267716536
20
1.0401177559055117
11
0.5351030708661417
21
1.0388194488188975
0
LINE
8
BLACK
6
CONTINUOUS
10
0.5351030708661417
20
1.0388194488188975
11
0.5354538188976378
21
1.0368303149606299
0
LINE
8
BLACK
6
CONTINUOUS
10
0.5354538188976378
20
1.0368303149606299
11
0.5344438976377953
21
1.0350811417322834
0
LINE
8
BLACK
6
CONTINUOUS
10
0.5344438976377953
20
1.0350811417322834
11
0.532545905511811
21
1.0343903149606299
0
LINE
8
BLACK
6
CONTINUOUS
10
0.532545905511811
20
1.0343903149606299
11
0.5298743700787402
21
1.0343903149606299
0
LINE
8
BLACK
6
CONTINUOUS
10
0.5298743700787402
20
1.0343903149606299
11
0.5298743700787402
21
1.0242196850393701
0
LINE
8
BLACK
6
CONTINUOUS
10
0.5298743700787402
20
1.0242196850393701
11
0.5296962992125984
21
1.0232097637795274
0
LINE
8
BLACK
6
CONTINUOUS
10
0.5296962992125984
20
1.0232097637795274
11
0.5283979921259843
21
1.0216625196850393
0
LINE
8
BLACK
6
CONTINUOUS
10
0.5283979921259843
20
1.0216625196850393
11
0.5264088582677166
21
1.0213117716535434
0
LINE
8
BLACK
6
CONTINUOUS
10
0.5264088582677166
20
1.0213117716535434
11
0.5246596850393701
21
1.0223216929133858
0
LINE
8
BLACK
6
CONTINUOUS
10
0.5246596850393701
20
1.0223216929133858
11
0.5239688582677166
21
1.0242196850393701
0
LINE
8
BLACK
6
CONTINUOUS
10
0.5239688582677166
20
1.0242196850393701
11
0.5239688582677166
21
1.0343903149606299
0
LINE
8
BLACK
6
CONTINUOUS
10
0.5239688582677166
20
1.0343903149606299
11
0.5081739763779527
21
1.0343903149606299
0
LINE
8
BLACK
6
CONTINUOUS
10
0.5081739763779527
20
1.0343903149606299
11
0.5071640551181102
21
1.0345683858267716
0
LINE
8
BLACK
6
CONTINUOUS
10
0.5071640551181102
20
1.0345683858267716
11
0.5069911811023622
21
1.0347134251968504
0
LINE
8
BLACK
6
CONTINUOUS
10
0.5069911811023622
20
1.0347134251968504
11
0.5067679527559055
21
1.0347465354330709
0
LINE
8
BLACK
6
CONTINUOUS
10
0.5067679527559055
20
1.0347465354330709
11
0.5062336220472441
21
1.0353490944881889
0
LINE
8
BLACK
6
CONTINUOUS
10
0.5062336220472441
20
1.0353490944881889
11
0.505616811023622
21
1.0358666929133857
0
LINE
8
BLACK
6
CONTINUOUS
10
0.505616811023622
20
1.0358666929133857
11
0.5055775984251968
21
1.0360888976377953
0
LINE
8
BLACK
6
CONTINUOUS
10
0.5055775984251968
20
1.0360888976377953
11
0.5054279133858267
21
1.0362577559055117
0
LINE
8
BLACK
6
CONTINUOUS
10
0.5054279133858267
20
1.0362577559055117
11
0.505405905511811
21
1.0370626377952756
0
LINE
8
BLACK
6
CONTINUOUS
10
0.505405905511811
20
1.0370626377952756
11
0.505266062992126
21
1.0378558267716536
0
LINE
8
BLACK
6
CONTINUOUS
10
0.505266062992126
20
1.0378558267716536
11
0.5053788976377953
21
1.0380512598425196
0
LINE
8
BLACK
6
CONTINUOUS
10
0.5053788976377953
20
1.0380512598425196
11
0.5053727559055118
21
1.038276811023622
0
LINE
8
BLACK
6
CONTINUOUS
10
0.5053727559055118
20
1.038276811023622
11
0.5147465748031496
21
1.0663983070866141
0
LINE
8
BLACK
6
CONTINUOUS
10
0.5147465748031496
20
1.0663983070866141
11
0.515234842519685
21
1.0673000787401574
0
LINE
8
BLACK
6
CONTINUOUS
10
0.515234842519685
20
1.0673000787401574
11
0.5169558267716535
21
1.0683573622047244
0
LINE
8
BLACK
6
CONTINUOUS
10
0.5169558267716535
20
1.0683573622047244
11
0.5189537795275591
21
1.0680611023622046
0
LINE
8
BLACK
6
CONTINUOUS
10
0.5785502362204724
20
1.0419925196850393
11
0.5800974803149607
21
1.0406942125984251
0
LINE
8
BLACK
6
CONTINUOUS
10
0.5800974803149607
20
1.0406942125984251
11
0.5804482283464567
21
1.0387050787401575
0
LINE
8
BLACK
6
CONTINUOUS
10
0.5804482283464567
20
1.0387050787401575
11
0.5794383070866141
21
1.0369559055118109
0
LINE
8
BLACK
6
CONTINUOUS
10
0.5794383070866141
20
1.0369559055118109
11
0.57754031496063
21
1.0362650787401575
0
LINE
8
BLACK
6
CONTINUOUS
10
0.57754031496063
20
1.0362650787401575
11
0.5475440551181102
21
1.0362650787401575
0
LINE
8
BLACK
6
CONTINUOUS
10
0.5475440551181102
20
1.0362650787401575
11
0.5465341338582677
21
1.0364431496062991
0
LINE
8
BLACK
6
CONTINUOUS
10
0.5465341338582677
20
1.0364431496062991
11
0.5449868897637795
21
1.0377414566929133
0
LINE
8
BLACK
6
CONTINUOUS
10
0.5449868897637795
20
1.0377414566929133
11
0.5446361417322835
21
1.0397305905511811
0
LINE
8
BLACK
6
CONTINUOUS
10
0.5446361417322835
20
1.0397305905511811
11
0.5456460629921259
21
1.0414797637795274
0
LINE
8
BLACK
6
CONTINUOUS
10
0.5456460629921259
20
1.0414797637795274
11
0.5475440551181102
21
1.0421705905511811
0
LINE
8
BLACK
6
CONTINUOUS
10
0.5475440551181102
20
1.0421705905511811
11
0.57754031496063
21
1.0421705905511811
0
LINE
8
BLACK
6
CONTINUOUS
10
0.57754031496063
20
1.0421705905511811
11
0.5785502362204724
21
1.0419925196850393
0
LINE
8
BLACK
6
CONTINUOUS
10
0.4874835433070866
20
1.1687514173228346
11
0.4875479133858268
21
1.168753188976378
0
LINE
8
BLACK
6
CONTINUOUS
10
0.4875479133858268
20
1.168753188976378
11
0.4931722047244094
21
1.1668784251968505
0
LINE
8
BLACK
6
CONTINUOUS
10
0.4931722047244094
20
1.1668784251968505
11
0.4940739763779528
21
1.1663901574803148
0
LINE
8
BLACK
6
CONTINUOUS
10
0.4940739763779528
20
1.1663901574803148
11
0.4941663779527559
21
1.1662396850393701
0
LINE
8
BLACK
6
CONTINUOUS
10
0.4941663779527559
20
1.1662396850393701
11
0.4943263779527559
21
1.1661651181102362
0
LINE
8
BLACK
6
CONTINUOUS
10
0.4943263779527559
20
1.1661651181102362
11
0.498075905511811
21
1.162415590551181
0
LINE
8
BLACK
6
CONTINUOUS
10
0.498075905511811
20
1.162415590551181
11
0.4985822834645669
21
1.1616924015748031
0
LINE
8
BLACK
6
CONTINUOUS
10
0.4985822834645669
20
1.1616924015748031
11
0.4986290157480315
21
1.1616481889763779
0
LINE
8
BLACK
6
CONTINUOUS
10
0.4986290157480315
20
1.1616481889763779
11
0.5005037795275591
21
1.1578986614173228
0
LINE
8
BLACK
6
CONTINUOUS
10
0.5005037795275591
20
1.1578986614173228
11
0.5006490551181102
21
1.1574101968503936
0
LINE
8
BLACK
6
CONTINUOUS
10
0.5006490551181102
20
1.1574101968503936
11
0.5007273622047244
21
1.1572942913385826
0
LINE
8
BLACK
6
CONTINUOUS
10
0.5007273622047244
20
1.1572942913385826
11
0.5026021259842519
21
1.1497952362204724
0
LINE
8
BLACK
6
CONTINUOUS
10
0.5026021259842519
20
1.1497952362204724
11
0.5026435826771654
21
1.1492073228346456
0
LINE
8
BLACK
6
CONTINUOUS
10
0.5026435826771654
20
1.1492073228346456
11
0.5026902755905511
21
1.149079094488189
0
LINE
8
BLACK
6
CONTINUOUS
10
0.5026902755905511
20
1.149079094488189
11
0.5026902755905511
21
1.1434548031496063
0
LINE
8
BLACK
6
CONTINUOUS
10
0.5026902755905511
20
1.1434548031496063
11
0.5025879133858268
21
1.1428744094488188
0
LINE
8
BLACK
6
CONTINUOUS
10
0.5025879133858268
20
1.1428744094488188
11
0.5026021259842519
21
1.1427386614173227
0
LINE
8
BLACK
6
CONTINUOUS
10
0.5026021259842519
20
1.1427386614173227
11
0.5007273622047244
21
1.1352396062992125
0
LINE
8
BLACK
6
CONTINUOUS
10
0.5007273622047244
20
1.1352396062992125
11
0.5005197637795276
21
1.1347741338582678
0
LINE
8
BLACK
6
CONTINUOUS
10
0.5005197637795276
20
1.1347741338582678
11
0.5005037795275591
21
1.1346352362204724
0
LINE
8
BLACK
6
CONTINUOUS
10
0.5005037795275591
20
1.1346352362204724
11
0.4986290157480315
21
1.1308857086614172
0
LINE
8
BLACK
6
CONTINUOUS
10
0.4986290157480315
20
1.1308857086614172
11
0.4981030708661417
21
1.1301766141732283
0
LINE
8
BLACK
6
CONTINUOUS
10
0.4981030708661417
20
1.1301766141732283
11
0.498075905511811
21
1.1301183070866141
0
LINE
8
BLACK
6
CONTINUOUS
10
0.498075905511811
20
1.1301183070866141
11
0.4943263779527559
21
1.126368779527559
0
LINE
8
BLACK
6
CONTINUOUS
10
0.4943263779527559
20
1.126368779527559
11
0.4934863385826772
21
1.1257805905511811
0
LINE
8
BLACK
6
CONTINUOUS
10
0.4934863385826772
20
1.1257805905511811
11
0.4933105118110236
21
1.1257651968503937
0
LINE
8
BLACK
6
CONTINUOUS
10
0.4933105118110236
20
1.1257651968503937
11
0.4931722440944882
21
1.1256554724409449
0
LINE
8
BLACK
6
CONTINUOUS
10
0.4931722440944882
20
1.1256554724409449
11
0.4875479527559055
21
1.1237806692913386
0
LINE
8
BLACK
6
CONTINUOUS
10
0.4875479527559055
20
1.1237806692913386
11
0.4866746850393701
21
1.1236511417322834
0
LINE
8
BLACK
6
CONTINUOUS
10
0.4866746850393701
20
1.1236511417322834
11
0.4866141732283464
21
1.1236291338582678
0
LINE
8
BLACK
6
CONTINUOUS
10
0.4866141732283464
20
1.1236291338582678
11
0.4772403543307087
21
1.1236291338582678
0
LINE
8
BLACK
6
CONTINUOUS
10
0.4772403543307087
20
1.1236291338582678
11
0.476856811023622
21
1.1236967322834646
0
LINE
8
BLACK
6
CONTINUOUS
10
0.476856811023622
20
1.1236967322834646
11
0.4767275984251969
21
1.1236739763779526
0
LINE
8
BLACK
6
CONTINUOUS
10
0.4767275984251969
20
1.1236739763779526
11
0.4766139763779527
21
1.1237395669291339
0
LINE
8
BLACK
6
CONTINUOUS
10
0.4766139763779527
20
1.1237395669291339
11
0.4762304330708662
21
1.1238072047244094
0
LINE
8
BLACK
6
CONTINUOUS
10
0.4762304330708662
20
1.1238072047244094
11
0.4756427165354331
21
1.1243003149606299
0
LINE
8
BLACK
6
CONTINUOUS
10
0.4756427165354331
20
1.1243003149606299
11
0.4749784251968504
21
1.1246838976377953
0
LINE
8
BLACK
6
CONTINUOUS
10
0.4749784251968504
20
1.1246838976377953
11
0.4748872834645669
21
1.1249342125984252
0
LINE
8
BLACK
6
CONTINUOUS
10
0.4748872834645669
20
1.1249342125984252
11
0.474683188976378
21
1.1251055118110236
0
LINE
8
BLACK
6
CONTINUOUS
10
0.474683188976378
20
1.1251055118110236
11
0.4745499212598425
21
1.125861062992126
0
LINE
8
BLACK
6
CONTINUOUS
10
0.4745499212598425
20
1.125861062992126
11
0.4742875984251969
21
1.1265818897637796
0
LINE
8
BLACK
6
CONTINUOUS
10
0.4742875984251969
20
1.1265818897637796
11
0.4742875984251969
21
1.165951968503937
0
LINE
8
BLACK
6
CONTINUOUS
10
0.4742875984251969
20
1.165951968503937
11
0.4743551968503937
21
1.1663354724409449
0
LINE
8
BLACK
6
CONTINUOUS
10
0.4743551968503937
20
1.1663354724409449
11
0.4743324409448819
21
1.1664647244094488
0
LINE
8
BLACK
6
CONTINUOUS
10
0.4743324409448819
20
1.1664647244094488
11
0.474398031496063
21
1.1665783070866143
0
LINE
8
BLACK
6
CONTINUOUS
10
0.474398031496063
20
1.1665783070866143
11
0.4744656692913386
21
1.1669618897637795
0
LINE
8
BLACK
6
CONTINUOUS
10
0.4744656692913386
20
1.1669618897637795
11
0.474958779527559
21
1.1675495669291338
0
LINE
8
BLACK
6
CONTINUOUS
10
0.474958779527559
20
1.1675495669291338
11
0.4753423622047244
21
1.1682138976377952
0
LINE
8
BLACK
6
CONTINUOUS
10
0.4753423622047244
20
1.1682138976377952
11
0.4755926771653543
21
1.1683049999999999
0
LINE
8
BLACK
6
CONTINUOUS
10
0.4755926771653543
20
1.1683049999999999
11
0.4757639763779528
21
1.1685091338582676
0
LINE
8
BLACK
6
CONTINUOUS
10
0.4757639763779528
20
1.1685091338582676
11
0.4765195275590551
21
1.1686423622047244
0
LINE
8
BLACK
6
CONTINUOUS
10
0.4765195275590551
20
1.1686423622047244
11
0.4772403543307087
21
1.1689047244094488
0
LINE
8
BLACK
6
CONTINUOUS
10
0.4772403543307087
20
1.1689047244094488
11
0.4866141732283464
21
1.1689047244094488
0
LINE
8
BLACK
6
CONTINUOUS
10
0.4866141732283464
20
1.1689047244094488
11
0.4874835433070866
21
1.1687514173228346
0
LINE
8
BLACK
6
CONTINUOUS
10
0.4801931102362205
20
1.1295346456692914
11
0.486135
21
1.1295346456692914
0
LINE
8
BLACK
6
CONTINUOUS
10
0.486135
20
1.1295346456692914
11
0.4906433858267716
21
1.1310374409448818
0
LINE
8
BLACK
6
CONTINUOUS
10
0.4906433858267716
20
1.1310374409448818
11
0.4935612598425197
21
1.1339553149606298
0
LINE
8
BLACK
6
CONTINUOUS
10
0.4935612598425197
20
1.1339553149606298
11
0.4950767322834645
21
1.1369862992125983
0
LINE
8
BLACK
6
CONTINUOUS
10
0.4950767322834645
20
1.1369862992125983
11
0.4967847637795276
21
1.1438183464566929
0
LINE
8
BLACK
6
CONTINUOUS
10
0.4967847637795276
20
1.1438183464566929
11
0.4967847637795276
21
1.1487155511811022
0
LINE
8
BLACK
6
CONTINUOUS
10
0.4967847637795276
20
1.1487155511811022
11
0.4950767322834645
21
1.1555475984251968
0
LINE
8
BLACK
6
CONTINUOUS
10
0.4950767322834645
20
1.1555475984251968
11
0.4935612598425197
21
1.1585785826771653
0
LINE
8
BLACK
6
CONTINUOUS
10
0.4935612598425197
20
1.1585785826771653
11
0.4906434251968504
21
1.1614963779527558
0
LINE
8
BLACK
6
CONTINUOUS
10
0.4906434251968504
20
1.1614963779527558
11
0.4861350393700787
21
1.1629992125984252
0
LINE
8
BLACK
6
CONTINUOUS
10
0.4861350393700787
20
1.1629992125984252
11
0.4801931102362205
21
1.1629992125984252
0
LINE
8
BLACK
6
CONTINUOUS
10
0.4801931102362205
20
1.1629992125984252
11
0.4801931102362205
21
1.1295346456692914
0
LINE
8
BLACK
6
CONTINUOUS
10
0.5307437007874015
20
1.168726653543307
11
0.530878937007874
21
1.1686131496062993
0
LINE
8
BLACK
6
CONTINUOUS
10
0.530878937007874
20
1.1686131496062993
11
0.5310542913385826
21
1.1685929921259843
0
LINE
8
BLACK
6
CONTINUOUS
10
0.5310542913385826
20
1.1685929921259843
11
0.5348038188976377
21
1.1667182283464568
0
LINE
8
BLACK
6
CONTINUOUS
10
0.5348038188976377
20
1.1667182283464568
11
0.535512874015748
21
1.1661922834645668
0
LINE
8
BLACK
6
CONTINUOUS
10
0.535512874015748
20
1.1661922834645668
11
0.5355712204724409
21
1.1661651181102362
0
LINE
8
BLACK
6
CONTINUOUS
10
0.5355712204724409
20
1.1661651181102362
11
0.5374459842519685
21
1.1642903543307086
0
LINE
8
BLACK
6
CONTINUOUS
10
0.5374459842519685
20
1.1642903543307086
11
0.5379522440944882
21
1.1635672440944882
0
LINE
8
BLACK
6
CONTINUOUS
10
0.5379522440944882
20
1.1635672440944882
11
0.5379990944881889
21
1.1635229527559054
0
LINE
8
BLACK
6
CONTINUOUS
10
0.5379990944881889
20
1.1635229527559054
11
0.5398738582677165
21
1.1597734251968503
0
LINE
8
BLACK
6
CONTINUOUS
10
0.5398738582677165
20
1.1597734251968503
11
0.5401662204724409
21
1.1587905118110235
0
LINE
8
BLACK
6
CONTINUOUS
10
0.5401662204724409
20
1.1587905118110235
11
0.5401251968503937
21
1.1586187795275591
0
LINE
8
BLACK
6
CONTINUOUS
10
0.5401251968503937
20
1.1586187795275591
11
0.5401855905511811
21
1.1584529133858268
0
LINE
8
BLACK
6
CONTINUOUS
10
0.5401855905511811
20
1.1584529133858268
11
0.5401855905511811
21
1.1547033858267717
0
LINE
8
BLACK
6
CONTINUOUS
10
0.5401855905511811
20
1.1547033858267717
11
0.5400322834645669
21
1.1538339763779528
0
LINE
8
BLACK
6
CONTINUOUS
10
0.5400322834645669
20
1.1538339763779528
11
0.5400340551181102
21
1.1537696062992127
0
LINE
8
BLACK
6
CONTINUOUS
10
0.5400340551181102
20
1.1537696062992127
11
0.5381592913385826
21
1.1481453543307087
0
LINE
8
BLACK
6
CONTINUOUS
10
0.5381592913385826
20
1.1481453543307087
11
0.5376709842519685
21
1.1472435826771654
0
LINE
8
BLACK
6
CONTINUOUS
10
0.5376709842519685
20
1.1472435826771654
11
0.5375205905511811
21
1.1471511811023622
0
LINE
8
BLACK
6
CONTINUOUS
10
0.5375205905511811
20
1.1471511811023622
11
0.5374459842519685
21
1.1469911811023621
0
LINE
8
BLACK
6
CONTINUOUS
10
0.5374459842519685
20
1.1469911811023621
11
0.5199894881889764
21
1.1295346456692914
0
LINE
8
BLACK
6
CONTINUOUS
10
0.5199894881889764
20
1.1295346456692914
11
0.5372328346456693
21
1.1295346456692914
0
LINE
8
BLACK
6
CONTINUOUS
10
0.5372328346456693
20
1.1295346456692914
11
0.5382427559055118
21
1.1293565748031495
0
LINE
8
BLACK
6
CONTINUOUS
10
0.5382427559055118
20
1.1293565748031495
11
0.53979
21
1.1280582677165354
0
LINE
8
BLACK
6
CONTINUOUS
10
0.53979
20
1.1280582677165354
11
0.540140748031496
21
1.1260691338582678
0
LINE
8
BLACK
6
CONTINUOUS
10
0.540140748031496
20
1.1260691338582678
11
0.5391308267716536
21
1.1243199606299212
0
LINE
8
BLACK
6
CONTINUOUS
10
0.5391308267716536
20
1.1243199606299212
11
0.5372328346456693
21
1.1236291338582678
0
LINE
8
BLACK
6
CONTINUOUS
10
0.5372328346456693
20
1.1236291338582678
11
0.512860905511811
21
1.1236291338582678
0
LINE
8
BLACK
6
CONTINUOUS
10
0.512860905511811
20
1.1236291338582678
11
0.5122261417322834
21
1.1237410236220473
0
LINE
8
BLACK
6
CONTINUOUS
10
0.5122261417322834
20
1.1237410236220473
11
0.5120966929133858
21
1.1237297244094488
0
LINE
8
BLACK
6
CONTINUOUS
10
0.5120966929133858
20
1.1237297244094488
11
0.5120314566929134
21
1.1237753543307087
0
LINE
8
BLACK
6
CONTINUOUS
10
0.5120314566929134
20
1.1237753543307087
11
0.5118509842519685
21
1.1238072047244094
0
LINE
8
BLACK
6
CONTINUOUS
10
0.5118509842519685
20
1.1238072047244094
11
0.5111701181102362
21
1.124378464566929
0
LINE
8
BLACK
6
CONTINUOUS
10
0.5111701181102362
20
1.124378464566929
11
0.510442125984252
21
1.1248882677165355
0
LINE
8
BLACK
6
CONTINUOUS
10
0.510442125984252
20
1.1248882677165355
11
0.5104071653543307
21
1.1250187007874015
0
LINE
8
BLACK
6
CONTINUOUS
10
0.5104071653543307
20
1.1250187007874015
11
0.5103037401574803
21
1.1251055118110236
0
LINE
8
BLACK
6
CONTINUOUS
10
0.5103037401574803
20
1.1251055118110236
11
0.5101493700787402
21
1.1259808267716536
0
LINE
8
BLACK
6
CONTINUOUS
10
0.5101493700787402
20
1.1259808267716536
11
0.5099194094488189
21
1.1268392125984252
0
LINE
8
BLACK
6
CONTINUOUS
10
0.5099194094488189
20
1.1268392125984252
11
0.5099764566929134
21
1.1269615354330709
0
LINE
8
BLACK
6
CONTINUOUS
10
0.5099764566929134
20
1.1269615354330709
11
0.5099529921259842
21
1.1270946456692914
0
LINE
8
BLACK
6
CONTINUOUS
10
0.5099529921259842
20
1.1270946456692914
11
0.5103974803149606
21
1.1278645275590551
0
LINE
8
BLACK
6
CONTINUOUS
10
0.5103974803149606
20
1.1278645275590551
11
0.5107729921259843
21
1.1286698031496063
0
LINE
8
BLACK
6
CONTINUOUS
10
0.5107729921259843
20
1.1286698031496063
11
0.5327772440944881
21
1.150674094488189
0
LINE
8
BLACK
6
CONTINUOUS
10
0.5327772440944881
20
1.150674094488189
11
0.5342800787401575
21
1.1551825196850394
0
LINE
8
BLACK
6
CONTINUOUS
10
0.5342800787401575
20
1.1551825196850394
11
0.5342800787401575
21
1.1577558661417322
0
LINE
8
BLACK
6
CONTINUOUS
10
0.5342800787401575
20
1.1577558661417322
11
0.5329313385826772
21
1.1604533464566928
0
LINE
8
BLACK
6
CONTINUOUS
10
0.5329313385826772
20
1.1604533464566928
11
0.5317342125984252
21
1.1616504724409449
0
LINE
8
BLACK
6
CONTINUOUS
10
0.5317342125984252
20
1.1616504724409449
11
0.5290367322834646
21
1.1629992125984252
0
LINE
8
BLACK
6
CONTINUOUS
10
0.5290367322834646
20
1.1629992125984252
11
0.5210570078740158
21
1.1629992125984252
0
LINE
8
BLACK
6
CONTINUOUS
10
0.5210570078740158
20
1.1629992125984252
11
0.5183595275590551
21
1.1616504724409449
0
LINE
8
BLACK
6
CONTINUOUS
10
0.5183595275590551
20
1.1616504724409449
11
0.5168235826771653
21
1.1601145275590552
0
LINE
8
BLACK
6
CONTINUOUS
10
0.5168235826771653
20
1.1601145275590552
11
0.5159835433070866
21
1.1595263385826771
0
LINE
8
BLACK
6
CONTINUOUS
10
0.5159835433070866
20
1.1595263385826771
11
0.5139714566929133
21
1.1593502755905511
0
LINE
8
BLACK
6
CONTINUOUS
10
0.5139714566929133
20
1.1593502755905511
11
0.5123168897637795
21
1.1605088188976378
0
LINE
8
BLACK
6
CONTINUOUS
10
0.5123168897637795
20
1.1605088188976378
11
0.5117941732283464
21
1.1624597637795275
0
LINE
8
BLACK
6
CONTINUOUS
10
0.5117941732283464
20
1.1624597637795275
11
0.5126477559055118
21
1.1642903543307086
0
LINE
8
BLACK
6
CONTINUOUS
10
0.5126477559055118
20
1.1642903543307086
11
0.5145225196850394
21
1.1661651181102362
0
LINE
8
BLACK
6
CONTINUOUS
10
0.5145225196850394
20
1.1661651181102362
11
0.5152455905511811
21
1.1666713779527558
0
LINE
8
BLACK
6
CONTINUOUS
10
0.5152455905511811
20
1.1666713779527558
11
0.5152899212598425
21
1.1667182283464568
0
LINE
8
BLACK
6
CONTINUOUS
10
0.5152899212598425
20
1.1667182283464568
11
0.5190394488188976
21
1.1685929921259843
0
LINE
8
BLACK
6
CONTINUOUS
10
0.5190394488188976
20
1.1685929921259843
11
0.5200223622047244
21
1.1688853543307087
0
LINE
8
BLACK
6
CONTINUOUS
10
0.5200223622047244
20
1.1688853543307087
11
0.5201940551181102
21
1.1688443307086613
0
LINE
8
BLACK
6
CONTINUOUS
10
0.5201940551181102
20
1.1688443307086613
11
0.5203599606299213
21
1.1689047244094488
0
LINE
8
BLACK
6
CONTINUOUS
10
0.5203599606299213
20
1.1689047244094488
11
0.5297337795275591
21
1.1689047244094488
0
LINE
8
BLACK
6
CONTINUOUS
10
0.5297337795275591
20
1.1689047244094488
11
0.5307437007874015
21
1.168726653543307
0
LINE
8
BLACK
6
CONTINUOUS
10
0.6482499212598425
20
1.3178499606299212
11
0.648940748031496
21
1.3159519685039369
0
LINE
8
BLACK
6
CONTINUOUS
10
0.648940748031496
20
1.3159519685039369
11
0.648940748031496
21
1.3005833858267717
0
LINE
8
BLACK
6
CONTINUOUS
10
0.648940748031496
20
1.3005833858267717
11
0.6663972440944882
21
1.3180398818897638
0
LINE
8
BLACK
6
CONTINUOUS
10
0.6663972440944882
20
1.3180398818897638
11
0.6672372834645669
21
1.3186280708661418
0
LINE
8
BLACK
6
CONTINUOUS
10
0.6672372834645669
20
1.3186280708661418
11
0.6692493700787402
21
1.3188040944881889
0
LINE
8
BLACK
6
CONTINUOUS
10
0.6692493700787402
20
1.3188040944881889
11
0.670903937007874
21
1.317645590551181
0
LINE
8
BLACK
6
CONTINUOUS
10
0.670903937007874
20
1.317645590551181
11
0.6714266535433071
21
1.3156946062992125
0
LINE
8
BLACK
6
CONTINUOUS
10
0.6714266535433071
20
1.3156946062992125
11
0.6705730708661417
21
1.3138640551181102
0
LINE
8
BLACK
6
CONTINUOUS
10
0.6705730708661417
20
1.3138640551181102
11
0.6555110236220473
21
1.2988020078740157
0
LINE
8
BLACK
6
CONTINUOUS
10
0.6555110236220473
20
1.2988020078740157
11
0.6708473622047244
21
1.2783535433070865
0
LINE
8
BLACK
6
CONTINUOUS
10
0.6708473622047244
20
1.2783535433070865
11
0.6713108661417323
21
1.2774387401574803
0
LINE
8
BLACK
6
CONTINUOUS
10
0.6713108661417323
20
1.2774387401574803
11
0.6712005511811023
21
1.275421968503937
0
LINE
8
BLACK
6
CONTINUOUS
10
0.6712005511811023
20
1.275421968503937
11
0.6698196850393701
21
1.2739479133858267
0
LINE
8
BLACK
6
CONTINUOUS
10
0.6698196850393701
20
1.2739479133858267
11
0.6678144094488189
21
1.2737063385826772
0
LINE
8
BLACK
6
CONTINUOUS
10
0.6678144094488189
20
1.2737063385826772
11
0.6661229527559055
21
1.2748102362204725
0
LINE
8
BLACK
6
CONTINUOUS
10
0.6661229527559055
20
1.2748102362204725
11
0.6512927952755906
21
1.294583779527559
0
LINE
8
BLACK
6
CONTINUOUS
10
0.6512927952755906
20
1.294583779527559
11
0.648940748031496
21
1.2922317322834644
0
LINE
8
BLACK
6
CONTINUOUS
10
0.648940748031496
20
1.2922317322834644
11
0.648940748031496
21
1.2765818897637795
0
LINE
8
BLACK
6
CONTINUOUS
10
0.648940748031496
20
1.2765818897637795
11
0.6487626771653543
21
1.2755719685039371
0
LINE
8
BLACK
6
CONTINUOUS
10
0.6487626771653543
20
1.2755719685039371
11
0.6474643700787401
21
1.2740247244094487
0
LINE
8
BLACK
6
CONTINUOUS
10
0.6474643700787401
20
1.2740247244094487
11
0.6454752362204724
21
1.2736739763779528
0
LINE
8
BLACK
6
CONTINUOUS
10
0.6454752362204724
20
1.2736739763779528
11
0.643726062992126
21
1.2746838976377952
0
LINE
8
BLACK
6
CONTINUOUS
10
0.643726062992126
20
1.2746838976377952
11
0.6430352362204724
21
1.2765818897637795
0
LINE
8
BLACK
6
CONTINUOUS
10
0.6430352362204724
20
1.2765818897637795
11
0.6430352362204724
21
1.3159519685039369
0
LINE
8
BLACK
6
CONTINUOUS
10
0.6430352362204724
20
1.3159519685039369
11
0.6432133070866142
21
1.3169618897637796
0
LINE
8
BLACK
6
CONTINUOUS
10
0.6432133070866142
20
1.3169618897637796
11
0.6445116141732283
21
1.3185091338582677
0
LINE
8
BLACK
6
CONTINUOUS
10
0.6445116141732283
20
1.3185091338582677
11
0.646500748031496
21
1.3188598818897637
0
LINE
8
BLACK
6
CONTINUOUS
10
0.646500748031496
20
1.3188598818897637
11
0.6482499212598425
21
1.3178499606299212
0
LINE
8
BLACK
6
CONTINUOUS
10
0.5332596456692913
20
1.3773399606299213
11
0.5338362204724409
21
1.375948031496063
0
LINE
8
BLACK
6
CONTINUOUS
10
0.5338362204724409
20
1.375948031496063
11
0.5338362204724409
21
1.3464165354330708
0
LINE
8
BLACK
6
CONTINUOUS
10
0.5338362204724409
20
1.3464165354330708
11
0.5673677165354331
21
1.3464165354330708
0
LINE
8
BLACK
6
CONTINUOUS
10
0.5673677165354331
20
1.3464165354330708
11
0.5687596456692914
21
1.3458399606299212
0
LINE
8
BLACK
6
CONTINUOUS
10
0.5687596456692914
20
1.3458399606299212
11
0.5693362204724409
21
1.344448031496063
0
LINE
8
BLACK
6
CONTINUOUS
10
0.5693362204724409
20
1.344448031496063
11
0.5687596456692914
21
1.3430561023622047
0
LINE
8
BLACK
6
CONTINUOUS
10
0.5687596456692914
20
1.3430561023622047
11
0.5673677165354331
21
1.3424795275590551
0
LINE
8
BLACK
6
CONTINUOUS
10
0.5673677165354331
20
1.3424795275590551
11
0.5338362204724409
21
1.3424795275590551
0
LINE
8
BLACK
6
CONTINUOUS
10
0.5338362204724409
20
1.3424795275590551
11
0.5338362204724409
21
1.3129480314960629
0
LINE
8
BLACK
6
CONTINUOUS
10
0.5338362204724409
20
1.3129480314960629
11
0.5332596456692913
21
1.3115561023622047
0
LINE
8
BLACK
6
CONTINUOUS
10
0.5332596456692913
20
1.3115561023622047
11
0.5318677165354331
21
1.310979527559055
0
LINE
8
BLACK
6
CONTINUOUS
10
0.5318677165354331
20
1.310979527559055
11
0.5304757874015747
21
1.3115561023622047
0
LINE
8
BLACK
6
CONTINUOUS
10
0.5304757874015747
20
1.3115561023622047
11
0.5298992125984252
21
1.3129480314960629
0
LINE
8
BLACK
6
CONTINUOUS
10
0.5298992125984252
20
1.3129480314960629
11
0.5298992125984252
21
1.3408169685039371
0
LINE
8
BLACK
6
CONTINUOUS
10
0.5298992125984252
20
1.3408169685039371
11
0.4876419291338582
21
1.313298464566929
0
LINE
8
BLACK
6
CONTINUOUS
10
0.4876419291338582
20
1.313298464566929
11
0.4870881496062992
21
1.3131950787401574
0
LINE
8
BLACK
6
CONTINUOUS
10
0.4870881496062992
20
1.3131950787401574
11
0.4865677165354331
21
1.312979527559055
0
LINE
8
BLACK
6
CONTINUOUS
10
0.4865677165354331
20
1.312979527559055
11
0.4863705511811023
21
1.3130611811023623
0
LINE
8
BLACK
6
CONTINUOUS
10
0.4863705511811023
20
1.3130611811023623
11
0.486160905511811
21
1.3130220472440945
0
LINE
8
BLACK
6
CONTINUOUS
10
0.486160905511811
20
1.3130220472440945
11
0.4856962598425197
21
1.3133404724409448
0
LINE
8
BLACK
6
CONTINUOUS
10
0.4856962598425197
20
1.3133404724409448
11
0.4851757874015748
21
1.3135561023622047
0
LINE
8
BLACK
6
CONTINUOUS
10
0.4851757874015748
20
1.3135561023622047
11
0.4850941338582677
21
1.3137531889763778
0
LINE
8
BLACK
6
CONTINUOUS
10
0.4850941338582677
20
1.3137531889763778
11
0.4849181496062992
21
1.3138738188976378
0
LINE
8
BLACK
6
CONTINUOUS
10
0.4849181496062992
20
1.3138738188976378
11
0.4848147637795275
21
1.314427559055118
0
LINE
8
BLACK
6
CONTINUOUS
10
0.4848147637795275
20
1.314427559055118
11
0.4845992125984252
21
1.3149480314960629
0
LINE
8
BLACK
6
CONTINUOUS
10
0.4845992125984252
20
1.3149480314960629
11
0.4845992125984252
21
1.3424795275590551
0
LINE
8
BLACK
6
CONTINUOUS
10
0.4845992125984252
20
1.3424795275590551
11
0.4472677165354331
21
1.3424795275590551
0
LINE
8
BLACK
6
CONTINUOUS
10
0.4472677165354331
20
1.3424795275590551
11
0.4458757874015748
21
1.3430561023622047
0
LINE
8
BLACK
6
CONTINUOUS
10
0.4458757874015748
20
1.3430561023622047
11
0.4452992125984252
21
1.344448031496063
0
LINE
8
BLACK
6
CONTINUOUS
10
0.4452992125984252
20
1.344448031496063
11
0.4458757874015748
21
1.3458399606299212
0
LINE
8
BLACK
6
CONTINUOUS
10
0.4458757874015748
20
1.3458399606299212
11
0.4472677165354331
21
1.3464165354330708
0
LINE
8
BLACK
6
CONTINUOUS
10
0.4472677165354331
20
1.3464165354330708
11
0.4845992125984252
21
1.3464165354330708
0
LINE
8
BLACK
6
CONTINUOUS
10
0.4845992125984252
20
1.3464165354330708
11
0.4845992125984252
21
1.375948031496063
0
LINE
8
BLACK
6
CONTINUOUS
10
0.4845992125984252
20
1.375948031496063
11
0.4848254724409449
21
1.3764942519685039
0
LINE
8
BLACK
6
CONTINUOUS
10
0.4848254724409449
20
1.3764942519685039
11
0.4849515354330708
21
1.3770718503937007
0
LINE
8
BLACK
6
CONTINUOUS
10
0.4849515354330708
20
1.3770718503937007
11
0.4851056692913386
21
1.3771707480314961
0
LINE
8
BLACK
6
CONTINUOUS
10
0.4851056692913386
20
1.3771707480314961
11
0.4851757874015748
21
1.3773399606299213
0
LINE
8
BLACK
6
CONTINUOUS
10
0.4851757874015748
20
1.3773399606299213
11
0.4857220078740158
21
1.3775662204724408
0
LINE
8
BLACK
6
CONTINUOUS
10
0.4857220078740158
20
1.3775662204724408
11
0.4862195669291339
21
1.3778854724409448
0
LINE
8
BLACK
6
CONTINUOUS
10
0.4862195669291339
20
1.3778854724409448
11
0.4863984645669291
21
1.3778464173228346
0
LINE
8
BLACK
6
CONTINUOUS
10
0.4863984645669291
20
1.3778464173228346
11
0.4865677165354331
21
1.3779165354330709
0
LINE
8
BLACK
6
CONTINUOUS
10
0.4865677165354331
20
1.3779165354330709
11
0.487113937007874
21
1.3776902362204724
0
LINE
8
BLACK
6
CONTINUOUS
10
0.487113937007874
20
1.3776902362204724
11
0.4876915354330709
21
1.3775642125984251
0
LINE
8
BLACK
6
CONTINUOUS
10
0.4876915354330709
20
1.3775642125984251
11
0.5298992125984252
21
1.3482145275590551
0
LINE
8
BLACK
6
CONTINUOUS
10
0.5298992125984252
20
1.3482145275590551
11
0.5298992125984252
21
1.375948031496063
0
LINE
8
BLACK
6
CONTINUOUS
10
0.5298992125984252
20
1.375948031496063
11
0.5304757874015747
21
1.3773399606299213
0
LINE
8
BLACK
6
CONTINUOUS
10
0.5304757874015747
20
1.3773399606299213
11
0.5318677165354331
21
1.3779165354330709
0
LINE
8
BLACK
6
CONTINUOUS
10
0.5318677165354331
20
1.3779165354330709
11
0.5332596456692913
21
1.3773399606299213
0
LINE
8
BLACK
6
CONTINUOUS
10
0.4885362204724409
20
1.3185790551181102
11
0.5283426377952756
21
1.3445015748031495
0
LINE
8
BLACK
6
CONTINUOUS
10
0.5283426377952756
20
1.3445015748031495
11
0.4885362204724409
21
1.3721815354330709
0
LINE
8
BLACK
6
CONTINUOUS
10
0.4885362204724409
20
1.3721815354330709
11
0.4885362204724409
21
1.3185790551181102
0
LINE
8
BLACK
6
CONTINUOUS
10
0.7858267716535433
20
1.4464566929133857
11
0.7872187007874015
21
1.4458801181102361
0
LINE
8
BLACK
6
CONTINUOUS
10
0.7872187007874015
20
1.4458801181102361
11
0.7877952755905512
21
1.4444881889763779
0
LINE
8
BLACK
6
CONTINUOUS
10
0.7877952755905512
20
1.4444881889763779
11
0.7877952755905512
21
0.381496062992126
0
LINE
8
BLACK
6
CONTINUOUS
10
0.7877952755905512
20
0.381496062992126
11
0.7872187007874015
21
0.3801041338582677
0
LINE
8
BLACK
6
CONTINUOUS
10
0.7872187007874015
20
0.3801041338582677
11
0.7858267716535433
21
0.3795275590551181
0
LINE
8
BLACK
6
CONTINUOUS
10
0.7858267716535433
20
0.3795275590551181
11
0.2267716535433071
21
0.3795275590551181
0
LINE
8
BLACK
6
CONTINUOUS
10
0.2267716535433071
20
0.3795275590551181
11
0.2253797244094488
21
0.3801041338582677
0
LINE
8
BLACK
6
CONTINUOUS
10
0.2253797244094488
20
0.3801041338582677
11
0.2248031496062992
21
0.381496062992126
0
LINE
8
BLACK
6
CONTINUOUS
10
0.2248031496062992
20
0.381496062992126
11
0.2248031496062992
21
1.4444881889763779
0
LINE
8
BLACK
6
CONTINUOUS
10
0.2248031496062992
20
1.4444881889763779
11
0.2253797244094488
21
1.4458801181102361
0
LINE
8
BLACK
6
CONTINUOUS
10
0.2253797244094488
20
1.4458801181102361
11
0.2267716535433071
21
1.4464566929133857
0
LINE
8
BLACK
6
CONTINUOUS
10
0.2267716535433071
20
1.4464566929133857
11
0.7858267716535433
21
1.4464566929133857
0
LINE
8
BLACK
6
CONTINUOUS
10
0.228740157480315
20
1.44251968503937
11
0.228740157480315
21
0.3834645669291338
0
LINE
8
BLACK
6
CONTINUOUS
10
0.228740157480315
20
0.3834645669291338
11
0.7838582677165354
21
0.3834645669291338
0
LINE
8
BLACK
6
CONTINUOUS
10
0.7838582677165354
20
0.3834645669291338
11
0.7838582677165354
21
1.44251968503937
0
LINE
8
BLACK
6
CONTINUOUS
10
0.7838582677165354
20
1.44251968503937
11
0.228740157480315
21
1.44251968503937
0
LINE
8
BLACK
6
CONTINUOUS
10
2.0025427165354328
20
1.2343422047244095
11
2.0027099606299212
21
1.2343716929133859
0
LINE
8
BLACK
6
CONTINUOUS
10
2.0027099606299212
20
1.2343716929133859
11
2.0034520078740159
21
1.2339432283464566
0
LINE
8
BLACK
6
CONTINUOUS
10
2.0034520078740159
20
1.2339432283464566
11
2.0042368503937009
21
1.2335988976377952
0
LINE
8
BLACK
6
CONTINUOUS
10
2.0042368503937009
20
1.2335988976377952
11
2.0043120866141733
21
1.2334466141732283
0
LINE
8
BLACK
6
CONTINUOUS
10
2.0043120866141733
20
1.2334466141732283
11
2.0044591338582678
21
1.2333617716535432
0
LINE
8
BLACK
6
CONTINUOUS
10
2.0044591338582678
20
1.2333617716535432
11
2.0047522047244093
21
1.232556496062992
0
LINE
8
BLACK
6
CONTINUOUS
10
2.0047522047244093
20
1.232556496062992
11
2.0051320472440946
21
1.2317883070866142
0
LINE
8
BLACK
6
CONTINUOUS
10
2.0051320472440946
20
1.2317883070866142
11
2.0050918503937005
21
1.2316233464566928
0
LINE
8
BLACK
6
CONTINUOUS
10
2.0050918503937005
20
1.2316233464566928
11
2.0051499606299212
21
1.2314637795275589
0
LINE
8
BLACK
6
CONTINUOUS
10
2.0051499606299212
20
1.2314637795275589
11
2.0051499606299212
21
1.1950464566929133
0
LINE
8
BLACK
6
CONTINUOUS
10
2.0051499606299212
20
1.1950464566929133
11
2.0134457874015745
21
1.1950464566929133
0
LINE
8
BLACK
6
CONTINUOUS
10
2.0134457874015745
20
1.1950464566929133
11
2.0144557086614174
21
1.1948683858267717
0
LINE
8
BLACK
6
CONTINUOUS
10
2.0144557086614174
20
1.1948683858267717
11
2.0160029527559056
21
1.1935700787401575
0
LINE
8
BLACK
6
CONTINUOUS
10
2.0160029527559056
20
1.1935700787401575
11
2.0163537007874015
21
1.1915809448818897
0
LINE
8
BLACK
6
CONTINUOUS
10
2.0163537007874015
20
1.1915809448818897
11
2.0153437795275591
21
1.1898317716535434
0
LINE
8
BLACK
6
CONTINUOUS
10
2.0153437795275591
20
1.1898317716535434
11
2.0134457874015745
21
1.1891409448818897
0
LINE
8
BLACK
6
CONTINUOUS
10
2.0134457874015745
20
1.1891409448818897
11
1.9909486220472441
21
1.1891409448818897
0
LINE
8
BLACK
6
CONTINUOUS
10
1.9909486220472441
20
1.1891409448818897
11
1.9899387007874014
21
1.1893190157480316
0
LINE
8
BLACK
6
CONTINUOUS
10
1.9899387007874014
20
1.1893190157480316
11
1.9883914566929133
21
1.1906173228346457
0
LINE
8
BLACK
6
CONTINUOUS
10
1.9883914566929133
20
1.1906173228346457
11
1.9880407086614174
21
1.1926064566929133
0
LINE
8
BLACK
6
CONTINUOUS
10
1.9880407086614174
20
1.1926064566929133
11
1.9890506299212598
21
1.1943556299212599
0
LINE
8
BLACK
6
CONTINUOUS
10
1.9890506299212598
20
1.1943556299212599
11
1.9909486220472441
21
1.1950464566929133
0
LINE
8
BLACK
6
CONTINUOUS
10
1.9909486220472441
20
1.1950464566929133
11
1.9992444488188976
21
1.1950464566929133
0
LINE
8
BLACK
6
CONTINUOUS
10
1.9992444488188976
20
1.1950464566929133
11
1.9992444488188976
21
1.2224604330708662
0
LINE
8
BLACK
6
CONTINUOUS
10
1.9992444488188976
20
1.2224604330708662
11
1.9967860629921259
21
1.2200020472440944
0
LINE
8
BLACK
6
CONTINUOUS
10
1.9967860629921259
20
1.2200020472440944
11
1.9960629527559055
21
1.2194957480314961
0
LINE
8
BLACK
6
CONTINUOUS
10
1.9960629527559055
20
1.2194957480314961
11
1.9960186614173228
21
1.219448937007874
0
LINE
8
BLACK
6
CONTINUOUS
10
1.9960186614173228
20
1.219448937007874
11
1.9922691338582676
21
1.2175741732283465
0
LINE
8
BLACK
6
CONTINUOUS
10
1.9922691338582676
20
1.2175741732283465
11
1.9912861811023621
21
1.2172818110236221
0
LINE
8
BLACK
6
CONTINUOUS
10
1.9912861811023621
20
1.2172818110236221
11
1.9893216929133857
21
1.2177511023622047
0
LINE
8
BLACK
6
CONTINUOUS
10
1.9893216929133857
20
1.2177511023622047
11
1.9881183858267717
21
1.2193733464566929
0
LINE
8
BLACK
6
CONTINUOUS
10
1.9881183858267717
20
1.2193733464566929
11
1.9882394488188977
21
1.2213895275590552
0
LINE
8
BLACK
6
CONTINUOUS
10
1.9882394488188977
20
1.2213895275590552
11
1.9896281102362203
21
1.2228562204724409
0
LINE
8
BLACK
6
CONTINUOUS
10
1.9896281102362203
20
1.2228562204724409
11
1.9929490551181102
21
1.2245166929133857
0
LINE
8
BLACK
6
CONTINUOUS
10
1.9929490551181102
20
1.2245166929133857
11
1.9961529527559054
21
1.227720590551181
0
LINE
8
BLACK
6
CONTINUOUS
10
1.9961529527559054
20
1.227720590551181
11
1.9997403543307086
21
1.2331016929133858
0
LINE
8
BLACK
6
CONTINUOUS
10
1.9997403543307086
20
1.2331016929133858
11
2.0004487401574802
21
1.2338432283464567
0
LINE
8
BLACK
6
CONTINUOUS
10
2.0004487401574802
20
1.2338432283464567
11
2.0006116929133859
21
1.233890905511811
0
LINE
8
BLACK
6
CONTINUOUS
10
2.0006116929133859
20
1.233890905511811
11
2.0007208267716536
21
1.2340209448818897
0
LINE
8
BLACK
6
CONTINUOUS
10
2.0007208267716536
20
1.2340209448818897
11
2.0015646062992127
21
1.2341697244094487
0
LINE
8
BLACK
6
CONTINUOUS
10
2.0015646062992127
20
1.2341697244094487
11
2.0023872440944883
21
1.2344104330708661
0
LINE
8
BLACK
6
CONTINUOUS
10
2.0023872440944883
20
1.2344104330708661
11
2.0025427165354328
21
1.2343422047244095
0
LINE
8
BLACK
6
CONTINUOUS
10
2.0482014960629922
20
1.2342384645669291
11
2.0497487401574803
21
1.2329401574803149
0
LINE
8
BLACK
6
CONTINUOUS
10
2.0497487401574803
20
1.2329401574803149
11
2.0500994881889762
21
1.2309510236220471
0
LINE
8
BLACK
6
CONTINUOUS
10
2.0500994881889762
20
1.2309510236220471
11
2.0490895669291338
21
1.2292018503937008
0
LINE
8
BLACK
6
CONTINUOUS
10
2.0490895669291338
20
1.2292018503937008
11
2.0471915748031497
21
1.2285110236220471
0
LINE
8
BLACK
6
CONTINUOUS
10
2.0471915748031497
20
1.2285110236220471
11
2.0403895669291336
21
1.2285110236220471
0
LINE
8
BLACK
6
CONTINUOUS
10
2.0403895669291336
20
1.2285110236220471
11
2.037692086614173
21
1.2271622834645668
0
LINE
8
BLACK
6
CONTINUOUS
10
2.037692086614173
20
1.2271622834645668
11
2.0363628740157478
21
1.2258330708661418
0
LINE
8
BLACK
6
CONTINUOUS
10
2.0363628740157478
20
1.2258330708661418
11
2.033059251968504
21
1.2208775984251967
0
LINE
8
BLACK
6
CONTINUOUS
10
2.033059251968504
20
1.2208775984251967
11
2.0323299606299212
21
1.2179604330708662
0
LINE
8
BLACK
6
CONTINUOUS
10
2.0323299606299212
20
1.2179604330708662
11
2.0346224803149604
21
1.2191066929133858
0
LINE
8
BLACK
6
CONTINUOUS
10
2.0346224803149604
20
1.2191066929133858
11
2.0356053937007874
21
1.2193990551181102
0
LINE
8
BLACK
6
CONTINUOUS
10
2.0356053937007874
20
1.2193990551181102
11
2.0357770866141731
21
1.219358031496063
0
LINE
8
BLACK
6
CONTINUOUS
10
2.0357770866141731
20
1.219358031496063
11
2.0359429921259844
21
1.2194184251968503
0
LINE
8
BLACK
6
CONTINUOUS
10
2.0359429921259844
20
1.2194184251968503
11
2.0434420472440946
21
1.2194184251968503
0
LINE
8
BLACK
6
CONTINUOUS
10
2.0434420472440946
20
1.2194184251968503
11
2.0444519685039371
21
1.2192403543307087
0
LINE
8
BLACK
6
CONTINUOUS
10
2.0444519685039371
20
1.2192403543307087
11
2.0445872047244094
21
1.2191268503937007
0
LINE
8
BLACK
6
CONTINUOUS
10
2.0445872047244094
20
1.2191268503937007
11
2.0447625590551182
21
1.2191066929133858
0
LINE
8
BLACK
6
CONTINUOUS
10
2.0447625590551182
20
1.2191066929133858
11
2.0485120866141733
21
1.2172319291338582
0
LINE
8
BLACK
6
CONTINUOUS
10
2.0485120866141733
20
1.2172319291338582
11
2.0492211417322834
21
1.2167059842519685
0
LINE
8
BLACK
6
CONTINUOUS
10
2.0492211417322834
20
1.2167059842519685
11
2.0492794881889762
21
1.2166788188976378
0
LINE
8
BLACK
6
CONTINUOUS
10
2.0492794881889762
20
1.2166788188976378
11
2.0511542519685038
21
1.2148040551181103
0
LINE
8
BLACK
6
CONTINUOUS
10
2.0511542519685038
20
1.2148040551181103
11
2.0516605118110234
21
1.2140809448818897
0
LINE
8
BLACK
6
CONTINUOUS
10
2.0516605118110234
20
1.2140809448818897
11
2.0517073622047244
21
1.2140366535433071
0
LINE
8
BLACK
6
CONTINUOUS
10
2.0517073622047244
20
1.2140366535433071
11
2.0535821259842519
21
1.210287125984252
0
LINE
8
BLACK
6
CONTINUOUS
10
2.0535821259842519
20
1.210287125984252
11
2.0538744881889763
21
1.2093042125984252
0
LINE
8
BLACK
6
CONTINUOUS
10
2.0538744881889763
20
1.2093042125984252
11
2.0538334645669289
21
1.2091324803149606
0
LINE
8
BLACK
6
CONTINUOUS
10
2.0538334645669289
20
1.2091324803149606
11
2.0538938582677164
21
1.2089666141732283
0
LINE
8
BLACK
6
CONTINUOUS
10
2.0538938582677164
20
1.2089666141732283
11
2.0538938582677164
21
1.1995927952755905
0
LINE
8
BLACK
6
CONTINUOUS
10
2.0538938582677164
20
1.1995927952755905
11
2.0537157874015746
21
1.198582874015748
0
LINE
8
BLACK
6
CONTINUOUS
10
2.0537157874015746
20
1.198582874015748
11
2.0536022834645671
21
1.1984475984251968
0
LINE
8
BLACK
6
CONTINUOUS
10
2.0536022834645671
20
1.1984475984251968
11
2.0535821259842519
21
1.1982722834645669
0
LINE
8
BLACK
6
CONTINUOUS
10
2.0535821259842519
20
1.1982722834645669
11
2.0517073622047244
21
1.1945227559055118
0
LINE
8
BLACK
6
CONTINUOUS
10
2.0517073622047244
20
1.1945227559055118
11
2.0511814566929134
21
1.1938136614173227
0
LINE
8
BLACK
6
CONTINUOUS
10
2.0511814566929134
20
1.1938136614173227
11
2.0511542519685038
21
1.1937553543307087
0
LINE
8
BLACK
6
CONTINUOUS
10
2.0511542519685038
20
1.1937553543307087
11
2.0492794881889762
21
1.1918805905511811
0
LINE
8
BLACK
6
CONTINUOUS
10
2.0492794881889762
20
1.1918805905511811
11
2.0485564960629921
21
1.19137437007874
0
LINE
8
BLACK
6
CONTINUOUS
10
2.0485564960629921
20
1.19137437007874
11
2.048512125984252
21
1.1913274803149605
0
LINE
8
BLACK
6
CONTINUOUS
10
2.048512125984252
20
1.1913274803149605
11
2.0447625984251969
21
1.1894526771653544
0
LINE
8
BLACK
6
CONTINUOUS
10
2.0447625984251969
20
1.1894526771653544
11
2.0437796456692912
21
1.1891603149606298
0
LINE
8
BLACK
6
CONTINUOUS
10
2.0437796456692912
20
1.1891603149606298
11
2.0436079133858267
21
1.1892012992125984
0
LINE
8
BLACK
6
CONTINUOUS
10
2.0436079133858267
20
1.1892012992125984
11
2.0434420472440946
21
1.1891409448818897
0
LINE
8
BLACK
6
CONTINUOUS
10
2.0434420472440946
20
1.1891409448818897
11
2.0359429921259844
21
1.1891409448818897
0
LINE
8
BLACK
6
CONTINUOUS
10
2.0359429921259844
20
1.1891409448818897
11
2.0349330708661415
21
1.1893190157480316
0
LINE
8
BLACK
6
CONTINUOUS
10
2.0349330708661415
20
1.1893190157480316
11
2.0347977952755905
21
1.1894324803149605
0
LINE
8
BLACK
6
CONTINUOUS
10
2.0347977952755905
20
1.1894324803149605
11
2.0346224803149604
21
1.1894526771653544
0
LINE
8
BLACK
6
CONTINUOUS
10
2.0346224803149604
20
1.1894526771653544
11
2.0308729133858265
21
1.1913274803149605
0
LINE
8
BLACK
6
CONTINUOUS
10
2.0308729133858265
20
1.1913274803149605
11
2.0301638976377951
21
1.1918533464566929
0
LINE
8
BLACK
6
CONTINUOUS
10
2.0301638976377951
20
1.1918533464566929
11
2.0301055511811024
21
1.1918805905511811
0
LINE
8
BLACK
6
CONTINUOUS
10
2.0301055511811024
20
1.1918805905511811
11
2.0282307874015748
21
1.1937553543307087
0
LINE
8
BLACK
6
CONTINUOUS
10
2.0282307874015748
20
1.1937553543307087
11
2.0277244881889764
21
1.1944784251968503
0
LINE
8
BLACK
6
CONTINUOUS
10
2.0277244881889764
20
1.1944784251968503
11
2.0276776771653542
21
1.1945227559055118
0
LINE
8
BLACK
6
CONTINUOUS
10
2.0276776771653542
20
1.1945227559055118
11
2.0258029133858266
21
1.1982722834645669
0
LINE
8
BLACK
6
CONTINUOUS
10
2.0258029133858266
20
1.1982722834645669
11
2.0255105511811022
21
1.1992552362204725
0
LINE
8
BLACK
6
CONTINUOUS
10
2.0255105511811022
20
1.1992552362204725
11
2.0255515354330709
21
1.1994268897637794
0
LINE
8
BLACK
6
CONTINUOUS
10
2.0255515354330709
20
1.1994268897637794
11
2.0254911811023621
21
1.1995927952755905
0
LINE
8
BLACK
6
CONTINUOUS
10
2.0254911811023621
20
1.1995927952755905
11
2.0254911811023621
21
1.2145909055118109
0
LINE
8
BLACK
6
CONTINUOUS
10
2.0254911811023621
20
1.2145909055118109
11
2.0255935039370079
21
1.2151712598425197
0
LINE
8
BLACK
6
CONTINUOUS
10
2.0255935039370079
20
1.2151712598425197
11
2.0255793307086614
21
1.2153070472440946
0
LINE
8
BLACK
6
CONTINUOUS
10
2.0255793307086614
20
1.2153070472440946
11
2.0274540944881889
21
1.2228061023622048
0
LINE
8
BLACK
6
CONTINUOUS
10
2.0274540944881889
20
1.2228061023622048
11
2.0278577952755903
21
1.2237112598425197
0
LINE
8
BLACK
6
CONTINUOUS
10
2.0278577952755903
20
1.2237112598425197
11
2.0278618503937009
21
1.223727874015748
0
LINE
8
BLACK
6
CONTINUOUS
10
2.0278618503937009
20
1.223727874015748
11
2.031611377952756
21
1.2293521653543307
0
LINE
8
BLACK
6
CONTINUOUS
10
2.031611377952756
20
1.2293521653543307
11
2.0319221653543305
21
1.2296775196850394
0
LINE
8
BLACK
6
CONTINUOUS
10
2.0319221653543305
20
1.2296775196850394
11
2.0319803149606299
21
1.2298021653543307
0
LINE
8
BLACK
6
CONTINUOUS
10
2.0319803149606299
20
1.2298021653543307
11
2.0338550787401575
21
1.2316769291338583
0
LINE
8
BLACK
6
CONTINUOUS
10
2.0338550787401575
20
1.2316769291338583
11
2.0345781496062991
21
1.2321831889763779
0
LINE
8
BLACK
6
CONTINUOUS
10
2.0345781496062991
20
1.2321831889763779
11
2.0346224803149604
21
1.2322300393700787
0
LINE
8
BLACK
6
CONTINUOUS
10
2.0346224803149604
20
1.2322300393700787
11
2.0383720078740155
21
1.2341048031496062
0
LINE
8
BLACK
6
CONTINUOUS
10
2.0383720078740155
20
1.2341048031496062
11
2.0393549212598425
21
1.2343971653543306
0
LINE
8
BLACK
6
CONTINUOUS
10
2.0393549212598425
20
1.2343971653543306
11
2.0395266141732282
21
1.2343561417322835
0
LINE
8
BLACK
6
CONTINUOUS
10
2.0395266141732282
20
1.2343561417322835
11
2.0396925196850395
21
1.2344165354330707
0
LINE
8
BLACK
6
CONTINUOUS
10
2.0396925196850395
20
1.2344165354330707
11
2.0471915748031497
21
1.2344165354330707
0
LINE
8
BLACK
6
CONTINUOUS
10
2.0471915748031497
20
1.2344165354330707
11
2.0482014960629922
21
1.2342384645669291
0
LINE
8
BLACK
6
CONTINUOUS
10
2.0339425590551179
20
1.2121641732283464
11
2.0327454330708661
21
1.2109670472440945
0
LINE
8
BLACK
6
CONTINUOUS
10
2.0327454330708661
20
1.2109670472440945
11
2.0313966929133858
21
1.2082695669291339
0
LINE
8
BLACK
6
CONTINUOUS
10
2.0313966929133858
20
1.2082695669291339
11
2.0313966929133858
21
1.2002898425196851
0
LINE
8
BLACK
6
CONTINUOUS
10
2.0313966929133858
20
1.2002898425196851
11
2.0327454330708661
21
1.1975923622047244
0
LINE
8
BLACK
6
CONTINUOUS
10
2.0327454330708661
20
1.1975923622047244
11
2.0339425196850391
21
1.1963952362204724
0
LINE
8
BLACK
6
CONTINUOUS
10
2.0339425196850391
20
1.1963952362204724
11
2.0366400787401573
21
1.1950464566929133
0
LINE
8
BLACK
6
CONTINUOUS
10
2.0366400787401573
20
1.1950464566929133
11
2.0427449606299213
21
1.1950464566929133
0
LINE
8
BLACK
6
CONTINUOUS
10
2.0427449606299213
20
1.1950464566929133
11
2.0454424409448819
21
1.1963951968503936
0
LINE
8
BLACK
6
CONTINUOUS
10
2.0454424409448819
20
1.1963951968503936
11
2.0466396062992125
21
1.1975923622047244
0
LINE
8
BLACK
6
CONTINUOUS
10
2.0466396062992125
20
1.1975923622047244
11
2.0479883464566928
21
1.2002898425196851
0
LINE
8
BLACK
6
CONTINUOUS
10
2.0479883464566928
20
1.2002898425196851
11
2.0479883464566928
21
1.2082695669291339
0
LINE
8
BLACK
6
CONTINUOUS
10
2.0479883464566928
20
1.2082695669291339
11
2.0466396062992125
21
1.2109670472440945
0
LINE
8
BLACK
6
CONTINUOUS
10
2.0466396062992125
20
1.2109670472440945
11
2.0454424803149607
21
1.2121641732283464
0
LINE
8
BLACK
6
CONTINUOUS
10
2.0454424803149607
20
1.2121641732283464
11
2.042745
21
1.2135129133858267
0
LINE
8
BLACK
6
CONTINUOUS
10
2.042745
20
1.2135129133858267
11
2.0366400393700785
21
1.2135129133858267
0
LINE
8
BLACK
6
CONTINUOUS
10
2.0366400393700785
20
1.2135129133858267
11
2.0339425590551179
21
1.2121641732283464
0
LINE
8
BLACK
6
CONTINUOUS
10
2.1712311023622046
20
1.2212394094488188
11
2.1713450787401576
21
1.2212633070866141
0
LINE
8
BLACK
6
CONTINUOUS
10
2.1713450787401576
20
1.2212633070866141
11
2.1714676377952755
21
1.2211976771653543
0
LINE
8
BLACK
6
CONTINUOUS
10
2.1714676377952755
20
1.2211976771653543
11
2.1719360236220471
21
1.2211151181102362
0
LINE
8
BLACK
6
CONTINUOUS
10
2.1719360236220471
20
1.2211151181102362
11
2.1724891338582677
21
1.2206509448818896
0
LINE
8
BLACK
6
CONTINUOUS
10
2.1724891338582677
20
1.2206509448818896
11
2.1731258661417323
21
1.2203101968503938
0
LINE
8
BLACK
6
CONTINUOUS
10
2.1731258661417323
20
1.2203101968503938
11
2.1732427165354329
21
1.220018622047244
0
LINE
8
BLACK
6
CONTINUOUS
10
2.1732427165354329
20
1.220018622047244
11
2.1734832677165352
21
1.219816811023622
0
LINE
8
BLACK
6
CONTINUOUS
10
2.1734832677165352
20
1.219816811023622
11
2.1736086614173229
21
1.2191056299212599
0
LINE
8
BLACK
6
CONTINUOUS
10
2.1736086614173229
20
1.2191056299212599
11
2.1738773228346457
21
1.2184353937007875
0
LINE
8
BLACK
6
CONTINUOUS
10
2.1738773228346457
20
1.2184353937007875
11
2.1737794488188977
21
1.2181370078740157
0
LINE
8
BLACK
6
CONTINUOUS
10
2.1737794488188977
20
1.2181370078740157
11
2.1738340157480316
21
1.2178276771653542
0
LINE
8
BLACK
6
CONTINUOUS
10
2.1738340157480316
20
1.2178276771653542
11
2.1734729133858268
21
1.2172022440944881
0
LINE
8
BLACK
6
CONTINUOUS
10
2.1734729133858268
20
1.2172022440944881
11
2.1732479133858269
21
1.2165161417322834
0
LINE
8
BLACK
6
CONTINUOUS
10
2.1732479133858269
20
1.2165161417322834
11
2.1563788976377953
21
1.1950464566929133
0
LINE
8
BLACK
6
CONTINUOUS
10
2.1563788976377953
20
1.1950464566929133
11
2.1709261023622046
21
1.1950464566929133
0
LINE
8
BLACK
6
CONTINUOUS
10
2.1709261023622046
20
1.1950464566929133
11
2.1719360236220471
21
1.1948683858267717
0
LINE
8
BLACK
6
CONTINUOUS
10
2.1719360236220471
20
1.1948683858267717
11
2.1734832677165352
21
1.1935700787401575
0
LINE
8
BLACK
6
CONTINUOUS
10
2.1734832677165352
20
1.1935700787401575
11
2.1738340157480316
21
1.1915809448818897
0
LINE
8
BLACK
6
CONTINUOUS
10
2.1738340157480316
20
1.1915809448818897
11
2.1728240944881891
21
1.1898317716535434
0
LINE
8
BLACK
6
CONTINUOUS
10
2.1728240944881891
20
1.1898317716535434
11
2.1709261023622046
21
1.1891409448818897
0
LINE
8
BLACK
6
CONTINUOUS
10
2.1709261023622046
20
1.1891409448818897
11
2.1503037007874015
21
1.1891409448818897
0
LINE
8
BLACK
6
CONTINUOUS
10
2.1503037007874015
20
1.1891409448818897
11
2.1499986614173228
21
1.18919468503937
0
LINE
8
BLACK
6
CONTINUOUS
10
2.1499986614173228
20
1.18919468503937
11
2.1498847244094486
21
1.1891708267716534
0
LINE
8
BLACK
6
CONTINUOUS
10
2.1498847244094486
20
1.1891708267716534
11
2.1497621259842519
21
1.1892364173228347
0
LINE
8
BLACK
6
CONTINUOUS
10
2.1497621259842519
20
1.1892364173228347
11
2.1492937795275591
21
1.1893190157480316
0
LINE
8
BLACK
6
CONTINUOUS
10
2.1492937795275591
20
1.1893190157480316
11
2.1487406299212597
21
1.1897831496062992
0
LINE
8
BLACK
6
CONTINUOUS
10
2.1487406299212597
20
1.1897831496062992
11
2.1481039370078738
21
1.190123937007874
0
LINE
8
BLACK
6
CONTINUOUS
10
2.1481039370078738
20
1.190123937007874
11
2.1479870472440945
21
1.1904154724409448
0
LINE
8
BLACK
6
CONTINUOUS
10
2.1479870472440945
20
1.1904154724409448
11
2.1477465354330709
21
1.1906173228346457
0
LINE
8
BLACK
6
CONTINUOUS
10
2.1477465354330709
20
1.1906173228346457
11
2.1476211023622045
21
1.1913284645669291
0
LINE
8
BLACK
6
CONTINUOUS
10
2.1476211023622045
20
1.1913284645669291
11
2.1473524803149604
21
1.1919987401574803
0
LINE
8
BLACK
6
CONTINUOUS
10
2.1473524803149604
20
1.1919987401574803
11
2.1474503149606297
21
1.1922970866141731
0
LINE
8
BLACK
6
CONTINUOUS
10
2.1474503149606297
20
1.1922970866141731
11
2.1473957874015746
21
1.1926064566929133
0
LINE
8
BLACK
6
CONTINUOUS
10
2.1473957874015746
20
1.1926064566929133
11
2.1477568503937006
21
1.1932318503937007
0
LINE
8
BLACK
6
CONTINUOUS
10
2.1477568503937006
20
1.1932318503937007
11
2.1479818897637797
21
1.1939179921259842
0
LINE
8
BLACK
6
CONTINUOUS
10
2.1479818897637797
20
1.1939179921259842
11
2.1648509055118108
21
1.2153876771653542
0
LINE
8
BLACK
6
CONTINUOUS
10
2.1648509055118108
20
1.2153876771653542
11
2.1503037007874015
21
1.2153876771653542
0
LINE
8
BLACK
6
CONTINUOUS
10
2.1503037007874015
20
1.2153876771653542
11
2.1492937795275591
21
1.2155657480314961
0
LINE
8
BLACK
6
CONTINUOUS
10
2.1492937795275591
20
1.2155657480314961
11
2.1477465354330709
21
1.2168640551181102
0
LINE
8
BLACK
6
CONTINUOUS
10
2.1477465354330709
20
1.2168640551181102
11
2.1473957874015746
21
1.2188531889763778
0
LINE
8
BLACK
6
CONTINUOUS
10
2.1473957874015746
20
1.2188531889763778
11
2.1484057086614174
21
1.2206023622047244
0
LINE
8
BLACK
6
CONTINUOUS
10
2.1484057086614174
20
1.2206023622047244
11
2.1503037007874015
21
1.2212931889763778
0
LINE
8
BLACK
6
CONTINUOUS
10
2.1503037007874015
20
1.2212931889763778
11
2.1709261023622046
21
1.2212931889763778
0
LINE
8
BLACK
6
CONTINUOUS
10
2.1709261023622046
20
1.2212931889763778
11
2.1712311023622046
21
1.2212394094488188
0
LINE
8
BLACK
6
CONTINUOUS
10
2.0941851181102362
20
1.234303188976378
11
2.0945734645669289
21
1.2343716929133859
0
LINE
8
BLACK
6
CONTINUOUS
10
2.0945734645669289
20
1.2343716929133859
11
2.0951320078740157
21
1.2340491732283465
0
LINE
8
BLACK
6
CONTINUOUS
10
2.0951320078740157
20
1.2340491732283465
11
2.0957550787401575
21
1.2338820472440946
0
LINE
8
BLACK
6
CONTINUOUS
10
2.0957550787401575
20
1.2338820472440946
11
2.0959811811023621
21
1.2335588976377951
0
LINE
8
BLACK
6
CONTINUOUS
10
2.0959811811023621
20
1.2335588976377951
11
2.0963226377952755
21
1.2333617716535432
0
LINE
8
BLACK
6
CONTINUOUS
10
2.0963226377952755
20
1.2333617716535432
11
2.0965432283464565
21
1.2327556692913386
0
LINE
8
BLACK
6
CONTINUOUS
10
2.0965432283464565
20
1.2327556692913386
11
2.0969130708661416
21
1.2322271653543306
0
LINE
8
BLACK
6
CONTINUOUS
10
2.0969130708661416
20
1.2322271653543306
11
2.0968785826771654
21
1.2318343307086614
0
LINE
8
BLACK
6
CONTINUOUS
10
2.0968785826771654
20
1.2318343307086614
11
2.0970134645669289
21
1.2314637795275589
0
LINE
8
BLACK
6
CONTINUOUS
10
2.0970134645669289
20
1.2314637795275589
11
2.0970134645669289
21
1.1920937007874015
0
LINE
8
BLACK
6
CONTINUOUS
10
2.0970134645669289
20
1.1920937007874015
11
2.0968353937007875
21
1.1910837795275591
0
LINE
8
BLACK
6
CONTINUOUS
10
2.0968353937007875
20
1.1910837795275591
11
2.0955370866141734
21
1.1895365354330709
0
LINE
8
BLACK
6
CONTINUOUS
10
2.0955370866141734
20
1.1895365354330709
11
2.0935479527559053
21
1.1891857874015748
0
LINE
8
BLACK
6
CONTINUOUS
10
2.0935479527559053
20
1.1891857874015748
11
2.0917987795275592
21
1.1901957086614172
0
LINE
8
BLACK
6
CONTINUOUS
10
2.0917987795275592
20
1.1901957086614172
11
2.0911079527559053
21
1.1920937007874015
0
LINE
8
BLACK
6
CONTINUOUS
10
2.0911079527559053
20
1.1920937007874015
11
2.0911079527559053
21
1.2181540157480315
0
LINE
8
BLACK
6
CONTINUOUS
10
2.0911079527559053
20
1.2181540157480315
11
2.0836131102362203
21
1.2020936614173228
0
LINE
8
BLACK
6
CONTINUOUS
10
2.0836131102362203
20
1.2020936614173228
11
2.0833904330708659
21
1.2017758661417322
0
LINE
8
BLACK
6
CONTINUOUS
10
2.0833904330708659
20
1.2017758661417322
11
2.0833566141732285
21
1.2016494094488188
0
LINE
8
BLACK
6
CONTINUOUS
10
2.0833566141732285
20
1.2016494094488188
11
2.0832490157480312
21
1.2015740157480315
0
LINE
8
BLACK
6
CONTINUOUS
10
2.0832490157480312
20
1.2015740157480315
11
2.0830246456692914
21
1.2012537795275591
0
LINE
8
BLACK
6
CONTINUOUS
10
2.0830246456692914
20
1.2012537795275591
11
2.0823300787401573
21
1.2009301574803148
0
LINE
8
BLACK
6
CONTINUOUS
10
2.0823300787401573
20
1.2009301574803148
11
2.0817024409448819
21
1.2004903543307086
0
LINE
8
BLACK
6
CONTINUOUS
10
2.0817024409448819
20
1.2004903543307086
11
2.0814361023622046
21
1.2005135826771653
0
LINE
8
BLACK
6
CONTINUOUS
10
2.0814361023622046
20
1.2005135826771653
11
2.0811938582677163
21
1.2004007086614172
0
LINE
8
BLACK
6
CONTINUOUS
10
2.0811938582677163
20
1.2004007086614172
11
2.0804536220472443
21
1.2005992519685038
0
LINE
8
BLACK
6
CONTINUOUS
10
2.0804536220472443
20
1.2005992519685038
11
2.0796902755905511
21
1.2006658661417322
0
LINE
8
BLACK
6
CONTINUOUS
10
2.0796902755905511
20
1.2006658661417322
11
2.0795012204724408
21
1.2008547637795275
0
LINE
8
BLACK
6
CONTINUOUS
10
2.0795012204724408
20
1.2008547637795275
11
2.0792429921259843
21
1.2009240551181102
0
LINE
8
BLACK
6
CONTINUOUS
10
2.0792429921259843
20
1.2009240551181102
11
2.0788035826771654
21
1.2015519291338583
0
LINE
8
BLACK
6
CONTINUOUS
10
2.0788035826771654
20
1.2015519291338583
11
2.0782616141732282
21
1.202093622047244
0
LINE
8
BLACK
6
CONTINUOUS
10
2.0782616141732282
20
1.202093622047244
11
2.0707667716535432
21
1.2181540157480315
0
LINE
8
BLACK
6
CONTINUOUS
10
2.0707667716535432
20
1.2181540157480315
11
2.0707667716535432
21
1.1920937007874015
0
LINE
8
BLACK
6
CONTINUOUS
10
2.0707667716535432
20
1.1920937007874015
11
2.0705887007874013
21
1.1910837795275591
0
LINE
8
BLACK
6
CONTINUOUS
10
2.0705887007874013
20
1.1910837795275591
11
2.0692903937007872
21
1.1895365354330709
0
LINE
8
BLACK
6
CONTINUOUS
10
2.0692903937007872
20
1.1895365354330709
11
2.0673012598425196
21
1.1891857874015748
0
LINE
8
BLACK
6
CONTINUOUS
10
2.0673012598425196
20
1.1891857874015748
11
2.065552086614173
21
1.1901957086614172
0
LINE
8
BLACK
6
CONTINUOUS
10
2.065552086614173
20
1.1901957086614172
11
2.0648612598425196
21
1.1920937007874015
0
LINE
8
BLACK
6
CONTINUOUS
10
2.0648612598425196
20
1.1920937007874015
11
2.0648612598425196
21
1.2314637795275589
0
LINE
8
BLACK
6
CONTINUOUS
10
2.0648612598425196
20
1.2314637795275589
11
2.0650393307086614
21
1.2324737007874016
0
LINE
8
BLACK
6
CONTINUOUS
10
2.0650393307086614
20
1.2324737007874016
11
2.0652927952755906
21
1.2327757874015748
0
LINE
8
BLACK
6
CONTINUOUS
10
2.0652927952755906
20
1.2327757874015748
11
2.0653947637795276
21
1.2331566929133857
0
LINE
8
BLACK
6
CONTINUOUS
10
2.0653947637795276
20
1.2331566929133857
11
2.0659229921259841
21
1.2335268110236219
0
LINE
8
BLACK
6
CONTINUOUS
10
2.0659229921259841
20
1.2335268110236219
11
2.0663376377952756
21
1.2340209448818897
0
LINE
8
BLACK
6
CONTINUOUS
10
2.0663376377952756
20
1.2340209448818897
11
2.0667259448818895
21
1.2340894094488188
0
LINE
8
BLACK
6
CONTINUOUS
10
2.0667259448818895
20
1.2340894094488188
11
2.0670489370078742
21
1.2343157086614174
0
LINE
8
BLACK
6
CONTINUOUS
10
2.0670489370078742
20
1.2343157086614174
11
2.067691496062992
21
1.2342596456692914
0
LINE
8
BLACK
6
CONTINUOUS
10
2.067691496062992
20
1.2342596456692914
11
2.0683267716535432
21
1.2343716929133859
0
LINE
8
BLACK
6
CONTINUOUS
10
2.0683267716535432
20
1.2343716929133859
11
2.0686683070866141
21
1.2341744881889765
0
LINE
8
BLACK
6
CONTINUOUS
10
2.0686683070866141
20
1.2341744881889765
11
2.0690611023622045
21
1.2341402362204723
0
LINE
8
BLACK
6
CONTINUOUS
10
2.0690611023622045
20
1.2341402362204723
11
2.0695172834645668
21
1.2336842913385826
0
LINE
8
BLACK
6
CONTINUOUS
10
2.0695172834645668
20
1.2336842913385826
11
2.0700759448818897
21
1.2333617716535432
0
LINE
8
BLACK
6
CONTINUOUS
10
2.0700759448818897
20
1.2333617716535432
11
2.0702107874015749
21
1.2329911811023622
0
LINE
8
BLACK
6
CONTINUOUS
10
2.0702107874015749
20
1.2329911811023622
11
2.0704897637795274
21
1.232712440944882
0
LINE
8
BLACK
6
CONTINUOUS
10
2.0704897637795274
20
1.232712440944882
11
2.0809373228346457
21
1.2103247244094488
0
LINE
8
BLACK
6
CONTINUOUS
10
2.0809373228346457
20
1.2103247244094488
11
2.0913849606299211
21
1.2327124803149605
0
LINE
8
BLACK
6
CONTINUOUS
10
2.0913849606299211
20
1.2327124803149605
11
2.0919734251968505
21
1.2335523228346457
0
LINE
8
BLACK
6
CONTINUOUS
10
2.0919734251968505
20
1.2335523228346457
11
2.0923308267716534
21
1.2337188582677165
0
LINE
8
BLACK
6
CONTINUOUS
10
2.0923308267716534
20
1.2337188582677165
11
2.0925843307086613
21
1.2340209448818897
0
LINE
8
BLACK
6
CONTINUOUS
10
2.0925843307086613
20
1.2340209448818897
11
2.093219527559055
21
1.2341329527559055
0
LINE
8
BLACK
6
CONTINUOUS
10
2.093219527559055
20
1.2341329527559055
11
2.0938042519685038
21
1.2344053937007873
0
LINE
8
BLACK
6
CONTINUOUS
10
2.0938042519685038
20
1.2344053937007873
11
2.0941851181102362
21
1.234303188976378
0
LINE
8
BLACK
6
CONTINUOUS
10
2.1375674803149605
20
1.2333617716535432
11
2.1382583070866139
21
1.2314637795275589
0
LINE
8
BLACK
6
CONTINUOUS
10
2.1382583070866139
20
1.2314637795275589
11
2.1382583070866139
21
1.1920937007874015
0
LINE
8
BLACK
6
CONTINUOUS
10
2.1382583070866139
20
1.1920937007874015
11
2.1380802362204725
21
1.1910837795275591
0
LINE
8
BLACK
6
CONTINUOUS
10
2.1380802362204725
20
1.1910837795275591
11
2.1367819291338583
21
1.1895365354330709
0
LINE
8
BLACK
6
CONTINUOUS
10
2.1367819291338583
20
1.1895365354330709
11
2.1347927952755903
21
1.1891857874015748
0
LINE
8
BLACK
6
CONTINUOUS
10
2.1347927952755903
20
1.1891857874015748
11
2.1330436220472442
21
1.1901957086614172
0
LINE
8
BLACK
6
CONTINUOUS
10
2.1330436220472442
20
1.1901957086614172
11
2.1323527952755903
21
1.1920937007874015
0
LINE
8
BLACK
6
CONTINUOUS
10
2.1323527952755903
20
1.1920937007874015
11
2.1323527952755903
21
1.2097633858267716
0
LINE
8
BLACK
6
CONTINUOUS
10
2.1323527952755903
20
1.2097633858267716
11
2.1157611417322832
21
1.2097633858267716
0
LINE
8
BLACK
6
CONTINUOUS
10
2.1157611417322832
20
1.2097633858267716
11
2.1157611417322832
21
1.1920937007874015
0
LINE
8
BLACK
6
CONTINUOUS
10
2.1157611417322832
20
1.1920937007874015
11
2.1155830708661418
21
1.1910837795275591
0
LINE
8
BLACK
6
CONTINUOUS
10
2.1155830708661418
20
1.1910837795275591
11
2.1142847637795277
21
1.1895365354330709
0
LINE
8
BLACK
6
CONTINUOUS
10
2.1142847637795277
20
1.1895365354330709
11
2.1122956299212596
21
1.1891857874015748
0
LINE
8
BLACK
6
CONTINUOUS
10
2.1122956299212596
20
1.1891857874015748
11
2.1105464566929135
21
1.1901957086614172
0
LINE
8
BLACK
6
CONTINUOUS
10
2.1105464566929135
20
1.1901957086614172
11
2.1098556299212596
21
1.1920937007874015
0
LINE
8
BLACK
6
CONTINUOUS
10
2.1098556299212596
20
1.1920937007874015
11
2.1098556299212596
21
1.2314637795275589
0
LINE
8
BLACK
6
CONTINUOUS
10
2.1098556299212596
20
1.2314637795275589
11
2.1100337007874015
21
1.2324737007874016
0
LINE
8
BLACK
6
CONTINUOUS
10
2.1100337007874015
20
1.2324737007874016
11
2.1113320078740156
21
1.2340209448818897
0
LINE
8
BLACK
6
CONTINUOUS
10
2.1113320078740156
20
1.2340209448818897
11
2.1133211417322832
21
1.2343716929133859
0
LINE
8
BLACK
6
CONTINUOUS
10
2.1133211417322832
20
1.2343716929133859
11
2.1150703149606298
21
1.2333617716535432
0
LINE
8
BLACK
6
CONTINUOUS
10
2.1150703149606298
20
1.2333617716535432
11
2.1157611417322832
21
1.2314637795275589
0
LINE
8
BLACK
6
CONTINUOUS
10
2.1157611417322832
20
1.2314637795275589
11
2.1157611417322832
21
1.2156688976377952
0
LINE
8
BLACK
6
CONTINUOUS
10
2.1157611417322832
20
1.2156688976377952
11
2.1323527952755903
21
1.2156688976377952
0
LINE
8
BLACK
6
CONTINUOUS
10
2.1323527952755903
20
1.2156688976377952
11
2.1323527952755903
21
1.2314637795275589
0
LINE
8
BLACK
6
CONTINUOUS
10
2.1323527952755903
20
1.2314637795275589
11
2.1325308661417322
21
1.2324737007874016
0
LINE
8
BLACK
6
CONTINUOUS
10
2.1325308661417322
20
1.2324737007874016
11
2.1338291732283463
21
1.2340209448818897
0
LINE
8
BLACK
6
CONTINUOUS
10
2.1338291732283463
20
1.2340209448818897
11
2.1358183070866139
21
1.2343716929133859
0
LINE
8
BLACK
6
CONTINUOUS
10
2.1358183070866139
20
1.2343716929133859
11
2.1375674803149605
21
1.2333617716535432
  0
ENDSEC
  0
EOF
