%TF.GenerationSoftware,KiCad,Pcbnew,7.0.11+1*%
%TF.CreationDate,2024-07-06T21:20:46+00:00*%
%TF.ProjectId,CCP2019V01,43435032-3031-4395-9630-312e6b696361,REV*%
%TF.SameCoordinates,Original*%
%TF.FileFunction,Legend,Top*%
%TF.FilePolarity,Positive*%
%FSLAX46Y46*%
G04 Gerber Fmt 4.6, Leading zero omitted, Abs format (unit mm)*
G04 Created by KiCad (PCBNEW 7.0.11+1) date 2024-07-06 21:20:46*
%MOMM*%
%LPD*%
G01*
G04 APERTURE LIST*
%ADD10C,0.300000*%
%ADD11C,0.050000*%
%ADD12C,0.150000*%
%ADD13C,0.100000*%
%ADD14R,1.524000X1.524000*%
%ADD15C,1.501140*%
G04 APERTURE END LIST*
D10*
X79338441Y30402195D02*
X78905108Y31021242D01*
X78595584Y30402195D02*
X78595584Y31702195D01*
X78595584Y31702195D02*
X79090822Y31702195D01*
X79090822Y31702195D02*
X79214632Y31640290D01*
X79214632Y31640290D02*
X79276537Y31578385D01*
X79276537Y31578385D02*
X79338441Y31454576D01*
X79338441Y31454576D02*
X79338441Y31268861D01*
X79338441Y31268861D02*
X79276537Y31145052D01*
X79276537Y31145052D02*
X79214632Y31083147D01*
X79214632Y31083147D02*
X79090822Y31021242D01*
X79090822Y31021242D02*
X78595584Y31021242D01*
X79833680Y30464100D02*
X80019394Y30402195D01*
X80019394Y30402195D02*
X80328918Y30402195D01*
X80328918Y30402195D02*
X80452727Y30464100D01*
X80452727Y30464100D02*
X80514632Y30526004D01*
X80514632Y30526004D02*
X80576537Y30649814D01*
X80576537Y30649814D02*
X80576537Y30773623D01*
X80576537Y30773623D02*
X80514632Y30897433D01*
X80514632Y30897433D02*
X80452727Y30959338D01*
X80452727Y30959338D02*
X80328918Y31021242D01*
X80328918Y31021242D02*
X80081299Y31083147D01*
X80081299Y31083147D02*
X79957489Y31145052D01*
X79957489Y31145052D02*
X79895584Y31206957D01*
X79895584Y31206957D02*
X79833680Y31330766D01*
X79833680Y31330766D02*
X79833680Y31454576D01*
X79833680Y31454576D02*
X79895584Y31578385D01*
X79895584Y31578385D02*
X79957489Y31640290D01*
X79957489Y31640290D02*
X80081299Y31702195D01*
X80081299Y31702195D02*
X80390822Y31702195D01*
X80390822Y31702195D02*
X80576537Y31640290D01*
X80947965Y31702195D02*
X81690822Y31702195D01*
X81319394Y30402195D02*
X81319394Y31702195D01*
X82062251Y31268861D02*
X82990822Y31268861D01*
X82433679Y31826004D02*
X82062251Y30154576D01*
X82867012Y30711719D02*
X81938441Y30711719D01*
X82495584Y30154576D02*
X82867012Y31826004D01*
X54023252Y46085100D02*
X54208966Y46023195D01*
X54208966Y46023195D02*
X54518490Y46023195D01*
X54518490Y46023195D02*
X54642299Y46085100D01*
X54642299Y46085100D02*
X54704204Y46147004D01*
X54704204Y46147004D02*
X54766109Y46270814D01*
X54766109Y46270814D02*
X54766109Y46394623D01*
X54766109Y46394623D02*
X54704204Y46518433D01*
X54704204Y46518433D02*
X54642299Y46580338D01*
X54642299Y46580338D02*
X54518490Y46642242D01*
X54518490Y46642242D02*
X54270871Y46704147D01*
X54270871Y46704147D02*
X54147061Y46766052D01*
X54147061Y46766052D02*
X54085156Y46827957D01*
X54085156Y46827957D02*
X54023252Y46951766D01*
X54023252Y46951766D02*
X54023252Y47075576D01*
X54023252Y47075576D02*
X54085156Y47199385D01*
X54085156Y47199385D02*
X54147061Y47261290D01*
X54147061Y47261290D02*
X54270871Y47323195D01*
X54270871Y47323195D02*
X54580394Y47323195D01*
X54580394Y47323195D02*
X54766109Y47261290D01*
X55323251Y46023195D02*
X55323251Y47323195D01*
X55323251Y47323195D02*
X55818489Y47323195D01*
X55818489Y47323195D02*
X55942299Y47261290D01*
X55942299Y47261290D02*
X56004204Y47199385D01*
X56004204Y47199385D02*
X56066108Y47075576D01*
X56066108Y47075576D02*
X56066108Y46889861D01*
X56066108Y46889861D02*
X56004204Y46766052D01*
X56004204Y46766052D02*
X55942299Y46704147D01*
X55942299Y46704147D02*
X55818489Y46642242D01*
X55818489Y46642242D02*
X55323251Y46642242D01*
X56561347Y46394623D02*
X57180394Y46394623D01*
X56437537Y46023195D02*
X56870870Y47323195D01*
X56870870Y47323195D02*
X57304204Y46023195D01*
X58480394Y46147004D02*
X58418490Y46085100D01*
X58418490Y46085100D02*
X58232775Y46023195D01*
X58232775Y46023195D02*
X58108966Y46023195D01*
X58108966Y46023195D02*
X57923252Y46085100D01*
X57923252Y46085100D02*
X57799442Y46208909D01*
X57799442Y46208909D02*
X57737537Y46332719D01*
X57737537Y46332719D02*
X57675633Y46580338D01*
X57675633Y46580338D02*
X57675633Y46766052D01*
X57675633Y46766052D02*
X57737537Y47013671D01*
X57737537Y47013671D02*
X57799442Y47137480D01*
X57799442Y47137480D02*
X57923252Y47261290D01*
X57923252Y47261290D02*
X58108966Y47323195D01*
X58108966Y47323195D02*
X58232775Y47323195D01*
X58232775Y47323195D02*
X58418490Y47261290D01*
X58418490Y47261290D02*
X58480394Y47199385D01*
X59037537Y46704147D02*
X59470871Y46704147D01*
X59656585Y46023195D02*
X59037537Y46023195D01*
X59037537Y46023195D02*
X59037537Y47323195D01*
X59037537Y47323195D02*
X59656585Y47323195D01*
X60213727Y46023195D02*
X60213727Y47323195D01*
X60213727Y47323195D02*
X60523251Y47323195D01*
X60523251Y47323195D02*
X60708965Y47261290D01*
X60708965Y47261290D02*
X60832775Y47137480D01*
X60832775Y47137480D02*
X60894680Y47013671D01*
X60894680Y47013671D02*
X60956584Y46766052D01*
X60956584Y46766052D02*
X60956584Y46580338D01*
X60956584Y46580338D02*
X60894680Y46332719D01*
X60894680Y46332719D02*
X60832775Y46208909D01*
X60832775Y46208909D02*
X60708965Y46085100D01*
X60708965Y46085100D02*
X60523251Y46023195D01*
X60523251Y46023195D02*
X60213727Y46023195D01*
X61761346Y47323195D02*
X62008965Y47323195D01*
X62008965Y47323195D02*
X62132775Y47261290D01*
X62132775Y47261290D02*
X62256584Y47137480D01*
X62256584Y47137480D02*
X62318489Y46889861D01*
X62318489Y46889861D02*
X62318489Y46456528D01*
X62318489Y46456528D02*
X62256584Y46208909D01*
X62256584Y46208909D02*
X62132775Y46085100D01*
X62132775Y46085100D02*
X62008965Y46023195D01*
X62008965Y46023195D02*
X61761346Y46023195D01*
X61761346Y46023195D02*
X61637537Y46085100D01*
X61637537Y46085100D02*
X61513727Y46208909D01*
X61513727Y46208909D02*
X61451823Y46456528D01*
X61451823Y46456528D02*
X61451823Y46889861D01*
X61451823Y46889861D02*
X61513727Y47137480D01*
X61513727Y47137480D02*
X61637537Y47261290D01*
X61637537Y47261290D02*
X61761346Y47323195D01*
X62813728Y46085100D02*
X62999442Y46023195D01*
X62999442Y46023195D02*
X63308966Y46023195D01*
X63308966Y46023195D02*
X63432775Y46085100D01*
X63432775Y46085100D02*
X63494680Y46147004D01*
X63494680Y46147004D02*
X63556585Y46270814D01*
X63556585Y46270814D02*
X63556585Y46394623D01*
X63556585Y46394623D02*
X63494680Y46518433D01*
X63494680Y46518433D02*
X63432775Y46580338D01*
X63432775Y46580338D02*
X63308966Y46642242D01*
X63308966Y46642242D02*
X63061347Y46704147D01*
X63061347Y46704147D02*
X62937537Y46766052D01*
X62937537Y46766052D02*
X62875632Y46827957D01*
X62875632Y46827957D02*
X62813728Y46951766D01*
X62813728Y46951766D02*
X62813728Y47075576D01*
X62813728Y47075576D02*
X62875632Y47199385D01*
X62875632Y47199385D02*
X62937537Y47261290D01*
X62937537Y47261290D02*
X63061347Y47323195D01*
X63061347Y47323195D02*
X63370870Y47323195D01*
X63370870Y47323195D02*
X63556585Y47261290D01*
X64361346Y47323195D02*
X64485156Y47323195D01*
X64485156Y47323195D02*
X64608965Y47261290D01*
X64608965Y47261290D02*
X64670870Y47199385D01*
X64670870Y47199385D02*
X64732775Y47075576D01*
X64732775Y47075576D02*
X64794680Y46827957D01*
X64794680Y46827957D02*
X64794680Y46518433D01*
X64794680Y46518433D02*
X64732775Y46270814D01*
X64732775Y46270814D02*
X64670870Y46147004D01*
X64670870Y46147004D02*
X64608965Y46085100D01*
X64608965Y46085100D02*
X64485156Y46023195D01*
X64485156Y46023195D02*
X64361346Y46023195D01*
X64361346Y46023195D02*
X64237537Y46085100D01*
X64237537Y46085100D02*
X64175632Y46147004D01*
X64175632Y46147004D02*
X64113727Y46270814D01*
X64113727Y46270814D02*
X64051823Y46518433D01*
X64051823Y46518433D02*
X64051823Y46827957D01*
X64051823Y46827957D02*
X64113727Y47075576D01*
X64113727Y47075576D02*
X64175632Y47199385D01*
X64175632Y47199385D02*
X64237537Y47261290D01*
X64237537Y47261290D02*
X64361346Y47323195D01*
X66032775Y46023195D02*
X65289918Y46023195D01*
X65661346Y46023195D02*
X65661346Y47323195D01*
X65661346Y47323195D02*
X65537537Y47137480D01*
X65537537Y47137480D02*
X65413727Y47013671D01*
X65413727Y47013671D02*
X65289918Y46951766D01*
X66528013Y46394623D02*
X67147060Y46394623D01*
X66404203Y46023195D02*
X66837536Y47323195D01*
X66837536Y47323195D02*
X67270870Y46023195D01*
X67394680Y45899385D02*
X68385156Y45899385D01*
X68694679Y46023195D02*
X68694679Y47323195D01*
X68694679Y47323195D02*
X69189917Y47323195D01*
X69189917Y47323195D02*
X69313727Y47261290D01*
X69313727Y47261290D02*
X69375632Y47199385D01*
X69375632Y47199385D02*
X69437536Y47075576D01*
X69437536Y47075576D02*
X69437536Y46889861D01*
X69437536Y46889861D02*
X69375632Y46766052D01*
X69375632Y46766052D02*
X69313727Y46704147D01*
X69313727Y46704147D02*
X69189917Y46642242D01*
X69189917Y46642242D02*
X68694679Y46642242D01*
X70737536Y46147004D02*
X70675632Y46085100D01*
X70675632Y46085100D02*
X70489917Y46023195D01*
X70489917Y46023195D02*
X70366108Y46023195D01*
X70366108Y46023195D02*
X70180394Y46085100D01*
X70180394Y46085100D02*
X70056584Y46208909D01*
X70056584Y46208909D02*
X69994679Y46332719D01*
X69994679Y46332719D02*
X69932775Y46580338D01*
X69932775Y46580338D02*
X69932775Y46766052D01*
X69932775Y46766052D02*
X69994679Y47013671D01*
X69994679Y47013671D02*
X70056584Y47137480D01*
X70056584Y47137480D02*
X70180394Y47261290D01*
X70180394Y47261290D02*
X70366108Y47323195D01*
X70366108Y47323195D02*
X70489917Y47323195D01*
X70489917Y47323195D02*
X70675632Y47261290D01*
X70675632Y47261290D02*
X70737536Y47199385D01*
X71728013Y46704147D02*
X71913727Y46642242D01*
X71913727Y46642242D02*
X71975632Y46580338D01*
X71975632Y46580338D02*
X72037536Y46456528D01*
X72037536Y46456528D02*
X72037536Y46270814D01*
X72037536Y46270814D02*
X71975632Y46147004D01*
X71975632Y46147004D02*
X71913727Y46085100D01*
X71913727Y46085100D02*
X71789917Y46023195D01*
X71789917Y46023195D02*
X71294679Y46023195D01*
X71294679Y46023195D02*
X71294679Y47323195D01*
X71294679Y47323195D02*
X71728013Y47323195D01*
X71728013Y47323195D02*
X71851822Y47261290D01*
X71851822Y47261290D02*
X71913727Y47199385D01*
X71913727Y47199385D02*
X71975632Y47075576D01*
X71975632Y47075576D02*
X71975632Y46951766D01*
X71975632Y46951766D02*
X71913727Y46827957D01*
X71913727Y46827957D02*
X71851822Y46766052D01*
X71851822Y46766052D02*
X71728013Y46704147D01*
X71728013Y46704147D02*
X71294679Y46704147D01*
X72842298Y47323195D02*
X72966108Y47323195D01*
X72966108Y47323195D02*
X73089917Y47261290D01*
X73089917Y47261290D02*
X73151822Y47199385D01*
X73151822Y47199385D02*
X73213727Y47075576D01*
X73213727Y47075576D02*
X73275632Y46827957D01*
X73275632Y46827957D02*
X73275632Y46518433D01*
X73275632Y46518433D02*
X73213727Y46270814D01*
X73213727Y46270814D02*
X73151822Y46147004D01*
X73151822Y46147004D02*
X73089917Y46085100D01*
X73089917Y46085100D02*
X72966108Y46023195D01*
X72966108Y46023195D02*
X72842298Y46023195D01*
X72842298Y46023195D02*
X72718489Y46085100D01*
X72718489Y46085100D02*
X72656584Y46147004D01*
X72656584Y46147004D02*
X72594679Y46270814D01*
X72594679Y46270814D02*
X72532775Y46518433D01*
X72532775Y46518433D02*
X72532775Y46827957D01*
X72532775Y46827957D02*
X72594679Y47075576D01*
X72594679Y47075576D02*
X72656584Y47199385D01*
X72656584Y47199385D02*
X72718489Y47261290D01*
X72718489Y47261290D02*
X72842298Y47323195D01*
X74513727Y46023195D02*
X73770870Y46023195D01*
X74142298Y46023195D02*
X74142298Y47323195D01*
X74142298Y47323195D02*
X74018489Y47137480D01*
X74018489Y47137480D02*
X73894679Y47013671D01*
X73894679Y47013671D02*
X73770870Y46951766D01*
X75008965Y46394623D02*
X75628012Y46394623D01*
X74885155Y46023195D02*
X75318488Y47323195D01*
X75318488Y47323195D02*
X75751822Y46023195D01*
X79586060Y35482195D02*
X79586060Y36782195D01*
X79586060Y36782195D02*
X80081298Y36782195D01*
X80081298Y36782195D02*
X80205108Y36720290D01*
X80205108Y36720290D02*
X80267013Y36658385D01*
X80267013Y36658385D02*
X80328917Y36534576D01*
X80328917Y36534576D02*
X80328917Y36348861D01*
X80328917Y36348861D02*
X80267013Y36225052D01*
X80267013Y36225052D02*
X80205108Y36163147D01*
X80205108Y36163147D02*
X80081298Y36101242D01*
X80081298Y36101242D02*
X79586060Y36101242D01*
X81628917Y35606004D02*
X81567013Y35544100D01*
X81567013Y35544100D02*
X81381298Y35482195D01*
X81381298Y35482195D02*
X81257489Y35482195D01*
X81257489Y35482195D02*
X81071775Y35544100D01*
X81071775Y35544100D02*
X80947965Y35667909D01*
X80947965Y35667909D02*
X80886060Y35791719D01*
X80886060Y35791719D02*
X80824156Y36039338D01*
X80824156Y36039338D02*
X80824156Y36225052D01*
X80824156Y36225052D02*
X80886060Y36472671D01*
X80886060Y36472671D02*
X80947965Y36596480D01*
X80947965Y36596480D02*
X81071775Y36720290D01*
X81071775Y36720290D02*
X81257489Y36782195D01*
X81257489Y36782195D02*
X81381298Y36782195D01*
X81381298Y36782195D02*
X81567013Y36720290D01*
X81567013Y36720290D02*
X81628917Y36658385D01*
X82062251Y36782195D02*
X82867013Y36782195D01*
X82867013Y36782195D02*
X82433679Y36286957D01*
X82433679Y36286957D02*
X82619394Y36286957D01*
X82619394Y36286957D02*
X82743203Y36225052D01*
X82743203Y36225052D02*
X82805108Y36163147D01*
X82805108Y36163147D02*
X82867013Y36039338D01*
X82867013Y36039338D02*
X82867013Y35729814D01*
X82867013Y35729814D02*
X82805108Y35606004D01*
X82805108Y35606004D02*
X82743203Y35544100D01*
X82743203Y35544100D02*
X82619394Y35482195D01*
X82619394Y35482195D02*
X82247965Y35482195D01*
X82247965Y35482195D02*
X82124156Y35544100D01*
X82124156Y35544100D02*
X82062251Y35606004D01*
X75199775Y35766195D02*
X75942632Y35766195D01*
X75571204Y34466195D02*
X75571204Y35766195D01*
X76252156Y35766195D02*
X77118822Y34466195D01*
X77118822Y35766195D02*
X76252156Y34466195D01*
X77861679Y35766195D02*
X77985489Y35766195D01*
X77985489Y35766195D02*
X78109298Y35704290D01*
X78109298Y35704290D02*
X78171203Y35642385D01*
X78171203Y35642385D02*
X78233108Y35518576D01*
X78233108Y35518576D02*
X78295013Y35270957D01*
X78295013Y35270957D02*
X78295013Y34961433D01*
X78295013Y34961433D02*
X78233108Y34713814D01*
X78233108Y34713814D02*
X78171203Y34590004D01*
X78171203Y34590004D02*
X78109298Y34528100D01*
X78109298Y34528100D02*
X77985489Y34466195D01*
X77985489Y34466195D02*
X77861679Y34466195D01*
X77861679Y34466195D02*
X77737870Y34528100D01*
X77737870Y34528100D02*
X77675965Y34590004D01*
X77675965Y34590004D02*
X77614060Y34713814D01*
X77614060Y34713814D02*
X77552156Y34961433D01*
X77552156Y34961433D02*
X77552156Y35270957D01*
X77552156Y35270957D02*
X77614060Y35518576D01*
X77614060Y35518576D02*
X77675965Y35642385D01*
X77675965Y35642385D02*
X77737870Y35704290D01*
X77737870Y35704290D02*
X77861679Y35766195D01*
X81690822Y24082195D02*
X81071774Y24082195D01*
X81071774Y24082195D02*
X81009870Y23463147D01*
X81009870Y23463147D02*
X81071774Y23525052D01*
X81071774Y23525052D02*
X81195584Y23586957D01*
X81195584Y23586957D02*
X81505108Y23586957D01*
X81505108Y23586957D02*
X81628917Y23525052D01*
X81628917Y23525052D02*
X81690822Y23463147D01*
X81690822Y23463147D02*
X81752727Y23339338D01*
X81752727Y23339338D02*
X81752727Y23029814D01*
X81752727Y23029814D02*
X81690822Y22906004D01*
X81690822Y22906004D02*
X81628917Y22844100D01*
X81628917Y22844100D02*
X81505108Y22782195D01*
X81505108Y22782195D02*
X81195584Y22782195D01*
X81195584Y22782195D02*
X81071774Y22844100D01*
X81071774Y22844100D02*
X81009870Y22906004D01*
X82124155Y24082195D02*
X82557488Y22782195D01*
X82557488Y22782195D02*
X82990822Y24082195D01*
X75818822Y32434195D02*
X75385489Y33053242D01*
X75075965Y32434195D02*
X75075965Y33734195D01*
X75075965Y33734195D02*
X75571203Y33734195D01*
X75571203Y33734195D02*
X75695013Y33672290D01*
X75695013Y33672290D02*
X75756918Y33610385D01*
X75756918Y33610385D02*
X75818822Y33486576D01*
X75818822Y33486576D02*
X75818822Y33300861D01*
X75818822Y33300861D02*
X75756918Y33177052D01*
X75756918Y33177052D02*
X75695013Y33115147D01*
X75695013Y33115147D02*
X75571203Y33053242D01*
X75571203Y33053242D02*
X75075965Y33053242D01*
X76252156Y33734195D02*
X77118822Y32434195D01*
X77118822Y33734195D02*
X76252156Y32434195D01*
X77861679Y33734195D02*
X77985489Y33734195D01*
X77985489Y33734195D02*
X78109298Y33672290D01*
X78109298Y33672290D02*
X78171203Y33610385D01*
X78171203Y33610385D02*
X78233108Y33486576D01*
X78233108Y33486576D02*
X78295013Y33238957D01*
X78295013Y33238957D02*
X78295013Y32929433D01*
X78295013Y32929433D02*
X78233108Y32681814D01*
X78233108Y32681814D02*
X78171203Y32558004D01*
X78171203Y32558004D02*
X78109298Y32496100D01*
X78109298Y32496100D02*
X77985489Y32434195D01*
X77985489Y32434195D02*
X77861679Y32434195D01*
X77861679Y32434195D02*
X77737870Y32496100D01*
X77737870Y32496100D02*
X77675965Y32558004D01*
X77675965Y32558004D02*
X77614060Y32681814D01*
X77614060Y32681814D02*
X77552156Y32929433D01*
X77552156Y32929433D02*
X77552156Y33238957D01*
X77552156Y33238957D02*
X77614060Y33486576D01*
X77614060Y33486576D02*
X77675965Y33610385D01*
X77675965Y33610385D02*
X77737870Y33672290D01*
X77737870Y33672290D02*
X77861679Y33734195D01*
X79709870Y26622195D02*
X80514632Y26622195D01*
X80514632Y26622195D02*
X80081298Y26126957D01*
X80081298Y26126957D02*
X80267013Y26126957D01*
X80267013Y26126957D02*
X80390822Y26065052D01*
X80390822Y26065052D02*
X80452727Y26003147D01*
X80452727Y26003147D02*
X80514632Y25879338D01*
X80514632Y25879338D02*
X80514632Y25569814D01*
X80514632Y25569814D02*
X80452727Y25446004D01*
X80452727Y25446004D02*
X80390822Y25384100D01*
X80390822Y25384100D02*
X80267013Y25322195D01*
X80267013Y25322195D02*
X79895584Y25322195D01*
X79895584Y25322195D02*
X79771775Y25384100D01*
X79771775Y25384100D02*
X79709870Y25446004D01*
X80886060Y26622195D02*
X81319393Y25322195D01*
X81319393Y25322195D02*
X81752727Y26622195D01*
X82062251Y26622195D02*
X82867013Y26622195D01*
X82867013Y26622195D02*
X82433679Y26126957D01*
X82433679Y26126957D02*
X82619394Y26126957D01*
X82619394Y26126957D02*
X82743203Y26065052D01*
X82743203Y26065052D02*
X82805108Y26003147D01*
X82805108Y26003147D02*
X82867013Y25879338D01*
X82867013Y25879338D02*
X82867013Y25569814D01*
X82867013Y25569814D02*
X82805108Y25446004D01*
X82805108Y25446004D02*
X82743203Y25384100D01*
X82743203Y25384100D02*
X82619394Y25322195D01*
X82619394Y25322195D02*
X82247965Y25322195D01*
X82247965Y25322195D02*
X82124156Y25384100D01*
X82124156Y25384100D02*
X82062251Y25446004D01*
X80143203Y29100290D02*
X80019393Y29162195D01*
X80019393Y29162195D02*
X79833679Y29162195D01*
X79833679Y29162195D02*
X79647965Y29100290D01*
X79647965Y29100290D02*
X79524155Y28976480D01*
X79524155Y28976480D02*
X79462250Y28852671D01*
X79462250Y28852671D02*
X79400346Y28605052D01*
X79400346Y28605052D02*
X79400346Y28419338D01*
X79400346Y28419338D02*
X79462250Y28171719D01*
X79462250Y28171719D02*
X79524155Y28047909D01*
X79524155Y28047909D02*
X79647965Y27924100D01*
X79647965Y27924100D02*
X79833679Y27862195D01*
X79833679Y27862195D02*
X79957488Y27862195D01*
X79957488Y27862195D02*
X80143203Y27924100D01*
X80143203Y27924100D02*
X80205107Y27986004D01*
X80205107Y27986004D02*
X80205107Y28419338D01*
X80205107Y28419338D02*
X79957488Y28419338D01*
X80762250Y27862195D02*
X80762250Y29162195D01*
X80762250Y29162195D02*
X81505107Y27862195D01*
X81505107Y27862195D02*
X81505107Y29162195D01*
X82124155Y27862195D02*
X82124155Y29162195D01*
X82124155Y29162195D02*
X82433679Y29162195D01*
X82433679Y29162195D02*
X82619393Y29100290D01*
X82619393Y29100290D02*
X82743203Y28976480D01*
X82743203Y28976480D02*
X82805108Y28852671D01*
X82805108Y28852671D02*
X82867012Y28605052D01*
X82867012Y28605052D02*
X82867012Y28419338D01*
X82867012Y28419338D02*
X82805108Y28171719D01*
X82805108Y28171719D02*
X82743203Y28047909D01*
X82743203Y28047909D02*
X82619393Y27924100D01*
X82619393Y27924100D02*
X82433679Y27862195D01*
X82433679Y27862195D02*
X82124155Y27862195D01*
X79586060Y32942195D02*
X79586060Y34242195D01*
X79586060Y34242195D02*
X80081298Y34242195D01*
X80081298Y34242195D02*
X80205108Y34180290D01*
X80205108Y34180290D02*
X80267013Y34118385D01*
X80267013Y34118385D02*
X80328917Y33994576D01*
X80328917Y33994576D02*
X80328917Y33808861D01*
X80328917Y33808861D02*
X80267013Y33685052D01*
X80267013Y33685052D02*
X80205108Y33623147D01*
X80205108Y33623147D02*
X80081298Y33561242D01*
X80081298Y33561242D02*
X79586060Y33561242D01*
X81628917Y33066004D02*
X81567013Y33004100D01*
X81567013Y33004100D02*
X81381298Y32942195D01*
X81381298Y32942195D02*
X81257489Y32942195D01*
X81257489Y32942195D02*
X81071775Y33004100D01*
X81071775Y33004100D02*
X80947965Y33127909D01*
X80947965Y33127909D02*
X80886060Y33251719D01*
X80886060Y33251719D02*
X80824156Y33499338D01*
X80824156Y33499338D02*
X80824156Y33685052D01*
X80824156Y33685052D02*
X80886060Y33932671D01*
X80886060Y33932671D02*
X80947965Y34056480D01*
X80947965Y34056480D02*
X81071775Y34180290D01*
X81071775Y34180290D02*
X81257489Y34242195D01*
X81257489Y34242195D02*
X81381298Y34242195D01*
X81381298Y34242195D02*
X81567013Y34180290D01*
X81567013Y34180290D02*
X81628917Y34118385D01*
X82062251Y34242195D02*
X82928917Y34242195D01*
X82928917Y34242195D02*
X82371775Y32942195D01*
X26436285Y5139671D02*
X26436285Y3925385D01*
X26436285Y3925385D02*
X26507714Y3782528D01*
X26507714Y3782528D02*
X26579143Y3711100D01*
X26579143Y3711100D02*
X26722000Y3639671D01*
X26722000Y3639671D02*
X27007714Y3639671D01*
X27007714Y3639671D02*
X27150571Y3711100D01*
X27150571Y3711100D02*
X27222000Y3782528D01*
X27222000Y3782528D02*
X27293428Y3925385D01*
X27293428Y3925385D02*
X27293428Y5139671D01*
X27936286Y3711100D02*
X28150572Y3639671D01*
X28150572Y3639671D02*
X28507714Y3639671D01*
X28507714Y3639671D02*
X28650572Y3711100D01*
X28650572Y3711100D02*
X28722000Y3782528D01*
X28722000Y3782528D02*
X28793429Y3925385D01*
X28793429Y3925385D02*
X28793429Y4068242D01*
X28793429Y4068242D02*
X28722000Y4211100D01*
X28722000Y4211100D02*
X28650572Y4282528D01*
X28650572Y4282528D02*
X28507714Y4353957D01*
X28507714Y4353957D02*
X28222000Y4425385D01*
X28222000Y4425385D02*
X28079143Y4496814D01*
X28079143Y4496814D02*
X28007714Y4568242D01*
X28007714Y4568242D02*
X27936286Y4711100D01*
X27936286Y4711100D02*
X27936286Y4853957D01*
X27936286Y4853957D02*
X28007714Y4996814D01*
X28007714Y4996814D02*
X28079143Y5068242D01*
X28079143Y5068242D02*
X28222000Y5139671D01*
X28222000Y5139671D02*
X28579143Y5139671D01*
X28579143Y5139671D02*
X28793429Y5068242D01*
X29222000Y5139671D02*
X30079143Y5139671D01*
X29650571Y3639671D02*
X29650571Y5139671D01*
X30579142Y3782528D02*
X30650571Y3711100D01*
X30650571Y3711100D02*
X30579142Y3639671D01*
X30579142Y3639671D02*
X30507714Y3711100D01*
X30507714Y3711100D02*
X30579142Y3782528D01*
X30579142Y3782528D02*
X30579142Y3639671D01*
X32150571Y3782528D02*
X32079143Y3711100D01*
X32079143Y3711100D02*
X31864857Y3639671D01*
X31864857Y3639671D02*
X31722000Y3639671D01*
X31722000Y3639671D02*
X31507714Y3711100D01*
X31507714Y3711100D02*
X31364857Y3853957D01*
X31364857Y3853957D02*
X31293428Y3996814D01*
X31293428Y3996814D02*
X31222000Y4282528D01*
X31222000Y4282528D02*
X31222000Y4496814D01*
X31222000Y4496814D02*
X31293428Y4782528D01*
X31293428Y4782528D02*
X31364857Y4925385D01*
X31364857Y4925385D02*
X31507714Y5068242D01*
X31507714Y5068242D02*
X31722000Y5139671D01*
X31722000Y5139671D02*
X31864857Y5139671D01*
X31864857Y5139671D02*
X32079143Y5068242D01*
X32079143Y5068242D02*
X32150571Y4996814D01*
X32650571Y5139671D02*
X33650571Y5139671D01*
X33650571Y5139671D02*
X32650571Y3639671D01*
X32650571Y3639671D02*
X33650571Y3639671D01*
X69513000Y7298671D02*
X69513000Y6227242D01*
X69513000Y6227242D02*
X69441571Y6012957D01*
X69441571Y6012957D02*
X69298714Y5870100D01*
X69298714Y5870100D02*
X69084428Y5798671D01*
X69084428Y5798671D02*
X68941571Y5798671D01*
X70155857Y6227242D02*
X70870143Y6227242D01*
X70013000Y5798671D02*
X70513000Y7298671D01*
X70513000Y7298671D02*
X71013000Y5798671D01*
X72370142Y5941528D02*
X72298714Y5870100D01*
X72298714Y5870100D02*
X72084428Y5798671D01*
X72084428Y5798671D02*
X71941571Y5798671D01*
X71941571Y5798671D02*
X71727285Y5870100D01*
X71727285Y5870100D02*
X71584428Y6012957D01*
X71584428Y6012957D02*
X71512999Y6155814D01*
X71512999Y6155814D02*
X71441571Y6441528D01*
X71441571Y6441528D02*
X71441571Y6655814D01*
X71441571Y6655814D02*
X71512999Y6941528D01*
X71512999Y6941528D02*
X71584428Y7084385D01*
X71584428Y7084385D02*
X71727285Y7227242D01*
X71727285Y7227242D02*
X71941571Y7298671D01*
X71941571Y7298671D02*
X72084428Y7298671D01*
X72084428Y7298671D02*
X72298714Y7227242D01*
X72298714Y7227242D02*
X72370142Y7155814D01*
X73012999Y5798671D02*
X73012999Y7298671D01*
X73012999Y6584385D02*
X73870142Y6584385D01*
X73870142Y5798671D02*
X73870142Y7298671D01*
X74870143Y7298671D02*
X75155857Y7298671D01*
X75155857Y7298671D02*
X75298714Y7227242D01*
X75298714Y7227242D02*
X75441571Y7084385D01*
X75441571Y7084385D02*
X75513000Y6798671D01*
X75513000Y6798671D02*
X75513000Y6298671D01*
X75513000Y6298671D02*
X75441571Y6012957D01*
X75441571Y6012957D02*
X75298714Y5870100D01*
X75298714Y5870100D02*
X75155857Y5798671D01*
X75155857Y5798671D02*
X74870143Y5798671D01*
X74870143Y5798671D02*
X74727286Y5870100D01*
X74727286Y5870100D02*
X74584428Y6012957D01*
X74584428Y6012957D02*
X74513000Y6298671D01*
X74513000Y6298671D02*
X74513000Y6798671D01*
X74513000Y6798671D02*
X74584428Y7084385D01*
X74584428Y7084385D02*
X74727286Y7227242D01*
X74727286Y7227242D02*
X74870143Y7298671D01*
X69818572Y4615814D02*
X69890000Y4687242D01*
X69890000Y4687242D02*
X70032858Y4758671D01*
X70032858Y4758671D02*
X70390000Y4758671D01*
X70390000Y4758671D02*
X70532858Y4687242D01*
X70532858Y4687242D02*
X70604286Y4615814D01*
X70604286Y4615814D02*
X70675715Y4472957D01*
X70675715Y4472957D02*
X70675715Y4330100D01*
X70675715Y4330100D02*
X70604286Y4115814D01*
X70604286Y4115814D02*
X69747143Y3258671D01*
X69747143Y3258671D02*
X70675715Y3258671D01*
X71604286Y4758671D02*
X71747143Y4758671D01*
X71747143Y4758671D02*
X71890000Y4687242D01*
X71890000Y4687242D02*
X71961429Y4615814D01*
X71961429Y4615814D02*
X72032857Y4472957D01*
X72032857Y4472957D02*
X72104286Y4187242D01*
X72104286Y4187242D02*
X72104286Y3830100D01*
X72104286Y3830100D02*
X72032857Y3544385D01*
X72032857Y3544385D02*
X71961429Y3401528D01*
X71961429Y3401528D02*
X71890000Y3330100D01*
X71890000Y3330100D02*
X71747143Y3258671D01*
X71747143Y3258671D02*
X71604286Y3258671D01*
X71604286Y3258671D02*
X71461429Y3330100D01*
X71461429Y3330100D02*
X71390000Y3401528D01*
X71390000Y3401528D02*
X71318571Y3544385D01*
X71318571Y3544385D02*
X71247143Y3830100D01*
X71247143Y3830100D02*
X71247143Y4187242D01*
X71247143Y4187242D02*
X71318571Y4472957D01*
X71318571Y4472957D02*
X71390000Y4615814D01*
X71390000Y4615814D02*
X71461429Y4687242D01*
X71461429Y4687242D02*
X71604286Y4758671D01*
X73532857Y3258671D02*
X72675714Y3258671D01*
X73104285Y3258671D02*
X73104285Y4758671D01*
X73104285Y4758671D02*
X72961428Y4544385D01*
X72961428Y4544385D02*
X72818571Y4401528D01*
X72818571Y4401528D02*
X72675714Y4330100D01*
X74247142Y3258671D02*
X74532856Y3258671D01*
X74532856Y3258671D02*
X74675713Y3330100D01*
X74675713Y3330100D02*
X74747142Y3401528D01*
X74747142Y3401528D02*
X74889999Y3615814D01*
X74889999Y3615814D02*
X74961428Y3901528D01*
X74961428Y3901528D02*
X74961428Y4472957D01*
X74961428Y4472957D02*
X74889999Y4615814D01*
X74889999Y4615814D02*
X74818571Y4687242D01*
X74818571Y4687242D02*
X74675713Y4758671D01*
X74675713Y4758671D02*
X74389999Y4758671D01*
X74389999Y4758671D02*
X74247142Y4687242D01*
X74247142Y4687242D02*
X74175713Y4615814D01*
X74175713Y4615814D02*
X74104285Y4472957D01*
X74104285Y4472957D02*
X74104285Y4115814D01*
X74104285Y4115814D02*
X74175713Y3972957D01*
X74175713Y3972957D02*
X74247142Y3901528D01*
X74247142Y3901528D02*
X74389999Y3830100D01*
X74389999Y3830100D02*
X74675713Y3830100D01*
X74675713Y3830100D02*
X74818571Y3901528D01*
X74818571Y3901528D02*
X74889999Y3972957D01*
X74889999Y3972957D02*
X74961428Y4115814D01*
D11*
X54838709Y27828857D02*
X54838709Y27543143D01*
X54838709Y27686000D02*
X54338709Y27686000D01*
X54338709Y27686000D02*
X54410138Y27638381D01*
X54410138Y27638381D02*
X54457757Y27590762D01*
X54457757Y27590762D02*
X54481566Y27543143D01*
D12*
X12121905Y28615180D02*
X12121905Y29615180D01*
X12121905Y29615180D02*
X12360000Y29615180D01*
X12360000Y29615180D02*
X12502857Y29567561D01*
X12502857Y29567561D02*
X12598095Y29472323D01*
X12598095Y29472323D02*
X12645714Y29377085D01*
X12645714Y29377085D02*
X12693333Y29186609D01*
X12693333Y29186609D02*
X12693333Y29043752D01*
X12693333Y29043752D02*
X12645714Y28853276D01*
X12645714Y28853276D02*
X12598095Y28758038D01*
X12598095Y28758038D02*
X12502857Y28662800D01*
X12502857Y28662800D02*
X12360000Y28615180D01*
X12360000Y28615180D02*
X12121905Y28615180D01*
X13074286Y29519942D02*
X13121905Y29567561D01*
X13121905Y29567561D02*
X13217143Y29615180D01*
X13217143Y29615180D02*
X13455238Y29615180D01*
X13455238Y29615180D02*
X13550476Y29567561D01*
X13550476Y29567561D02*
X13598095Y29519942D01*
X13598095Y29519942D02*
X13645714Y29424704D01*
X13645714Y29424704D02*
X13645714Y29329466D01*
X13645714Y29329466D02*
X13598095Y29186609D01*
X13598095Y29186609D02*
X13026667Y28615180D01*
X13026667Y28615180D02*
X13645714Y28615180D01*
X16408095Y32425180D02*
X16408095Y33425180D01*
X16979523Y32425180D02*
X16550952Y32996609D01*
X16979523Y33425180D02*
X16408095Y32853752D01*
X52355809Y38375371D02*
X52355809Y37899180D01*
X52022476Y38899180D02*
X52355809Y38375371D01*
X52355809Y38375371D02*
X52689142Y38899180D01*
X53546285Y37899180D02*
X52974857Y37899180D01*
X53260571Y37899180D02*
X53260571Y38899180D01*
X53260571Y38899180D02*
X53165333Y38756323D01*
X53165333Y38756323D02*
X53070095Y38661085D01*
X53070095Y38661085D02*
X52974857Y38613466D01*
%TO.C,J1*%
X83693000Y24638000D02*
X83693000Y27178000D01*
X88773000Y24638000D02*
X83693000Y24638000D01*
X83693000Y27178000D02*
X88773000Y27178000D01*
X88773000Y27178000D02*
X88773000Y24638000D01*
%TO.C,J2*%
X83693000Y27178000D02*
X83693000Y29718000D01*
X88773000Y27178000D02*
X83693000Y27178000D01*
X83693000Y29718000D02*
X88773000Y29718000D01*
X88773000Y29718000D02*
X88773000Y27178000D01*
%TO.C,J22*%
X55880000Y27305000D02*
X55880000Y22225000D01*
X48260000Y27305000D02*
X55880000Y27305000D01*
X55880000Y22225000D02*
X48260000Y22225000D01*
X48260000Y22225000D02*
X48260000Y27305000D01*
%TO.C,J3*%
X83693000Y22098000D02*
X83693000Y24638000D01*
X88773000Y22098000D02*
X83693000Y22098000D01*
X83693000Y24638000D02*
X88773000Y24638000D01*
X88773000Y24638000D02*
X88773000Y22098000D01*
D13*
%TO.C,D2*%
X19960000Y36690000D02*
X5760000Y36690000D01*
X19960000Y9690000D02*
X19960000Y36690000D01*
X19960000Y9690000D02*
X5760000Y9690000D01*
X5760000Y9690000D02*
X5760000Y36690000D01*
D12*
%TO.C,J4*%
X86233000Y34798000D02*
X88773000Y34798000D01*
X86233000Y32258000D02*
X86233000Y34798000D01*
X88773000Y34798000D02*
X88773000Y32258000D01*
X88773000Y32258000D02*
X86233000Y32258000D01*
%TO.C,J5*%
X86233000Y37338000D02*
X88773000Y37338000D01*
X86233000Y34798000D02*
X86233000Y37338000D01*
X88773000Y37338000D02*
X88773000Y34798000D01*
X88773000Y34798000D02*
X86233000Y34798000D01*
%TO.C,J6*%
X83693000Y34798000D02*
X86233000Y34798000D01*
X83693000Y32258000D02*
X83693000Y34798000D01*
X86233000Y34798000D02*
X86233000Y32258000D01*
X86233000Y32258000D02*
X83693000Y32258000D01*
%TO.C,J7*%
X83693000Y37338000D02*
X86233000Y37338000D01*
X83693000Y34798000D02*
X83693000Y37338000D01*
X86233000Y37338000D02*
X86233000Y34798000D01*
X86233000Y34798000D02*
X83693000Y34798000D01*
%TO.C,J19*%
X83693000Y32258000D02*
X88773000Y32258000D01*
X83693000Y29718000D02*
X83693000Y32258000D01*
X88773000Y32258000D02*
X88773000Y29718000D01*
X88773000Y29718000D02*
X83693000Y29718000D01*
%TO.C,Y1*%
X47312580Y34775140D02*
X47312580Y34264600D01*
X47312580Y34264600D02*
X47482760Y33563560D01*
X47442120Y35374580D02*
X47312580Y34775140D01*
X47482760Y33563560D02*
X47881540Y32974280D01*
X47731680Y35913060D02*
X47442120Y35374580D01*
X47830740Y34843720D02*
X48031400Y35344100D01*
X47830740Y34343340D02*
X47830740Y34843720D01*
X47881540Y32974280D02*
X48341280Y32603440D01*
X48031400Y35344100D02*
X48531780Y35943540D01*
X48031400Y33743900D02*
X47830740Y34343340D01*
X48061880Y36263580D02*
X47731680Y35913060D01*
X48341280Y32603440D02*
X48762920Y32395160D01*
X48351440Y36494720D02*
X48061880Y36263580D01*
X48432720Y33243520D02*
X48031400Y33743900D01*
X48531780Y35943540D02*
X49032160Y36243260D01*
X48762920Y32395160D02*
X49212500Y32235140D01*
X48783240Y36713160D02*
X48351440Y36494720D01*
X48831500Y32943800D02*
X48432720Y33243520D01*
X49032160Y36243260D02*
X49532540Y36344860D01*
X49182020Y36824920D02*
X48783240Y36713160D01*
X49212500Y32235140D02*
X49651920Y32204660D01*
X49532540Y32743140D02*
X48831500Y32943800D01*
X49631600Y36873180D02*
X56083200Y36873180D01*
X49631600Y36344860D02*
X56233060Y36344860D01*
X49631600Y32214820D02*
X56083200Y32214820D01*
X49641760Y36873180D02*
X49182020Y36824920D01*
X56083200Y32214820D02*
X56502300Y32252920D01*
X56131460Y32743140D02*
X49532540Y32743140D01*
X56233060Y36344860D02*
X56631840Y36243260D01*
X56502300Y32252920D02*
X56992520Y32423100D01*
X56563260Y36804600D02*
X56121300Y36873180D01*
X56631840Y36243260D02*
X57132220Y35943540D01*
X56730900Y32943800D02*
X56131460Y32743140D01*
X56992520Y36664900D02*
X56563260Y36804600D01*
X56992520Y32423100D02*
X57370980Y32644080D01*
X57132220Y35943540D02*
X57632600Y35443160D01*
X57332880Y33345120D02*
X56730900Y32943800D01*
X57370980Y32644080D02*
X57691020Y32923480D01*
X57381140Y36433760D02*
X56992520Y36664900D01*
X57531000Y35544760D02*
X57731660Y35143440D01*
X57691020Y32923480D02*
X57942480Y33253680D01*
X57731660Y36113720D02*
X57381140Y36433760D01*
X57731660Y35143440D02*
X57833260Y34544000D01*
X57731660Y34043620D02*
X57332880Y33345120D01*
X57833260Y34544000D02*
X57731660Y34043620D01*
X57942480Y33253680D02*
X58242200Y33804860D01*
X58092340Y35643820D02*
X57731660Y36113720D01*
X58242200Y33804860D02*
X58351420Y34274760D01*
X58282840Y35194240D02*
X58092340Y35643820D01*
X58351420Y34274760D02*
X58371740Y34734500D01*
X58371740Y34734500D02*
X58282840Y35194240D01*
%TD*%
D14*
%TO.C,J1*%
X84963000Y25908000D03*
X87503000Y25908000D03*
%TD*%
%TO.C,J2*%
X84963000Y28448000D03*
X87503000Y28448000D03*
%TD*%
%TO.C,J22*%
X54610000Y26035000D03*
X54610000Y23495000D03*
X52070000Y26035000D03*
X52070000Y23495000D03*
X49530000Y26035000D03*
X49530000Y23495000D03*
%TD*%
%TO.C,J3*%
X84963000Y23368000D03*
X87503000Y23368000D03*
%TD*%
%TO.C,J4*%
X87503000Y33528000D03*
%TD*%
%TO.C,J5*%
X87503000Y36068000D03*
%TD*%
%TO.C,J6*%
X84963000Y33528000D03*
%TD*%
%TO.C,J7*%
X84963000Y36068000D03*
%TD*%
%TO.C,J19*%
X84963000Y30988000D03*
X87503000Y30988000D03*
%TD*%
D15*
%TO.C,Y1*%
X50391060Y34544000D03*
X55272940Y34544000D03*
%TD*%
M02*
