M48
; DRILL file {KiCad 7.0.11+1} date Sat Jul  6 21:20:46 2024
; FORMAT={3:3/ absolute / metric / suppress leading zeros}
; #@! TF.CreationDate,2024-07-06T21:20:46+00:00
; #@! TF.GenerationSoftware,Kicad,Pcbnew,7.0.11+1
; #@! TF.FileFunction,Plated,1,2,PTH
FMAT,2
METRIC,TZ
; #@! TA.AperFunction,Plated,PTH,ViaDrill
T1C0.400
; #@! TA.AperFunction,Plated,PTH,ComponentDrill
T2C0.762
; #@! TA.AperFunction,Plated,PTH,ComponentDrill
T3C0.800
; #@! TA.AperFunction,Plated,PTH,ComponentDrill
T4C0.889
; #@! TA.AperFunction,Plated,PTH,ComponentDrill
T5C3.000
%
G90
G05
T1
X2540Y31750
X2540Y29845
X2540Y27940
X2540Y26035
X2540Y24130
X2540Y22225
X2540Y20955
X3175Y19685
X3810Y33020
X4445Y18415
X4986Y26918
X4986Y25648
X5715Y33020
X5715Y17780
X6985Y31750
X7620Y33020
X7620Y17780
X8255Y35560
X8255Y34290
X8890Y17145
X9304Y22092
X10160Y36195
X10319Y30201
X10320Y28950
X10320Y27680
X10320Y25775
X10320Y21965
X10795Y31750
X10795Y17145
X11430Y36195
X12065Y34925
X12065Y33020
X12225Y31490
X12225Y21965
X12700Y17145
X12860Y23870
X13335Y33020
X13495Y31490
X13970Y34925
X13970Y17145
X14130Y21965
X14605Y36195
X15240Y15875
X15663Y21454
X15875Y36195
X16510Y38735
X16510Y37465
X16670Y31744
X17145Y15875
X17780Y21590
X17780Y20320
X17780Y19050
X18415Y15875
X19050Y21590
X19050Y20320
X19685Y30480
X19685Y16510
X20320Y21590
X20955Y30480
X20955Y17780
X21590Y24130
X21590Y22860
X21590Y21590
X22225Y30480
X22225Y18415
X22860Y24130
X22860Y22860
X22860Y21590
X23368Y29972
X23495Y18415
X24130Y21590
X24765Y31750
X24765Y18415
X25400Y21590
X26035Y35560
X26035Y33655
X26035Y30480
X26035Y18415
X26670Y21590
X26670Y13970
X26670Y12700
X27305Y36195
X27305Y31750
X27305Y30480
X27305Y17780
X27940Y33020
X27940Y16510
X27940Y15240
X28575Y36195
X28575Y34290
X28575Y11430
X28862Y32506
X28862Y20060
X29845Y35560
X29862Y28823
X29972Y21844
X30480Y20320
X30480Y19050
X30640Y30220
X30767Y28823
X31115Y35560
X31115Y22225
X31496Y25527
X31750Y20320
X31750Y19050
X31910Y30220
X32385Y35560
X32385Y21590
X32512Y17272
X32766Y12192
X33020Y13716
X33218Y27680
X33428Y28702
X33434Y24632
X33655Y35560
X33655Y19685
X33815Y26410
X34036Y17272
X34290Y22225
X34290Y18415
X34290Y12192
X34450Y29420
X34925Y35560
X35814Y12192
X36195Y37465
X36195Y36195
X37338Y12192
X37465Y38100
X37465Y15875
X37625Y36570
X37625Y21965
X38735Y37465
X38768Y25902
X38895Y30220
X38895Y21965
X39116Y12192
X39530Y29585
X40005Y37465
X40640Y12192
X40894Y35306
X40894Y34036
X40894Y32512
X40894Y31496
X41656Y30480
X42926Y30480
X43180Y31750
X43688Y29464
X49276Y32004
X50038Y13716
X50038Y12446
X50800Y39116
X50800Y32004
X51308Y13716
X51308Y12446
X51943Y21844
X52324Y39116
X52578Y13716
X52578Y12446
X53848Y39116
X53848Y20320
X54356Y32004
X55372Y39116
X56896Y39116
X57912Y24892
X58420Y39116
X58420Y15367
X58928Y20320
X59182Y15367
X59436Y26924
X59690Y29210
X59944Y39116
X60452Y34544
X60960Y26924
X61468Y39116
X61707Y33543
X61976Y26924
X62865Y31115
X62992Y26924
X63754Y33020
X64008Y32004
X64389Y20574
X64389Y19558
X65405Y27940
X65532Y19177
X65747Y29387
X66548Y31496
X67056Y29210
X69596Y37084
X69596Y24892
X70104Y22352
X70612Y36830
X71375Y27336
X71882Y24638
X75311Y14605
X76200Y33020
X76200Y31496
X78740Y31115
X81026Y37592
T2
X10360Y34190
X15360Y34190
T3
X50391Y34544
X55273Y34544
T4
X49530Y26035
X49530Y23495
X52070Y26035
X52070Y23495
X54610Y26035
X54610Y23495
X84963Y36068
X84963Y33528
X84963Y30988
X84963Y28448
X84963Y25908
X84963Y23368
X87503Y36068
X87503Y33528
X87503Y30988
X87503Y28448
X87503Y25908
X87503Y23368
T5
X5080Y45720
X5080Y5080
X86360Y45720
X86360Y5080
M30
